<svg width="24" height="25" viewBox="0 0 24 25" fill="none" xmlns="http://www.w3.org/2000/svg">
<path opacity="0.1" fill-rule="evenodd" clip-rule="evenodd" d="M0 12.8096C0 6.18215 5.37258 0.80957 12 0.80957C18.6274 0.80957 24 6.18215 24 12.8096C24 19.437 18.6274 24.8096 12 24.8096C5.37258 24.8096 0 19.437 0 12.8096Z" fill="#14191F"/>
<path fill-rule="evenodd" clip-rule="evenodd" d="M18.4 12.8008C18.4 13.2336 18.3559 13.6658 18.2694 14.0871C18.185 14.4985 18.06 14.9023 17.8962 15.2883C17.7362 15.6675 17.5378 16.0329 17.3059 16.3736C17.0774 16.7122 16.8143 17.0299 16.5252 17.3195C16.2355 17.6079 15.9167 17.8703 15.5783 18.0997C15.2364 18.33 14.8705 18.5281 14.4911 18.6889C14.1045 18.8518 13.6997 18.9766 13.2888 19.0608C12.8669 19.1476 12.4331 19.1919 11.9997 19.1919C11.5659 19.1919 11.1321 19.1476 10.7109 19.0608C10.2993 18.9766 9.89459 18.8518 9.50832 18.6889C9.12893 18.5281 8.76264 18.33 8.42076 18.0997C8.0823 17.8703 7.76354 17.6079 7.47446 17.3195C7.18508 17.0299 6.92193 16.7122 6.69317 16.3736C6.46253 16.0329 6.26376 15.6674 6.10313 15.2883C5.93936 14.9023 5.81405 14.4984 5.72936 14.0871C5.64374 13.6658 5.59998 13.2336 5.59998 12.8008C5.59998 12.3677 5.64371 11.9345 5.72939 11.5141C5.81408 11.1028 5.93938 10.6984 6.10316 10.313C6.26378 9.93353 6.46256 9.5678 6.69319 9.22701C6.92195 8.88811 7.18511 8.57104 7.47449 8.28112C7.76357 7.99276 8.08233 7.73096 8.42078 7.50191C8.76267 7.27065 9.12895 7.07252 9.50834 6.91148C9.89462 6.74823 10.2993 6.62311 10.7109 6.53949C11.1322 6.45337 11.5659 6.40967 11.9997 6.40967C12.4332 6.40967 12.8669 6.45337 13.2888 6.53949C13.6998 6.62314 14.1045 6.74826 14.4911 6.91148C14.8705 7.07249 15.2364 7.27065 15.5783 7.50191C15.9168 7.73096 16.2356 7.99276 16.5252 8.28112C16.8143 8.57104 17.0775 8.88811 17.3059 9.22701C17.5378 9.5678 17.7362 9.93355 17.8962 10.313C18.06 10.6984 18.185 11.1028 18.2694 11.5141C18.3559 11.9345 18.4 12.3677 18.4 12.8008ZM9.66766 7.8642C8.14351 8.58291 7.00595 9.98532 6.65124 11.6755C6.79533 11.6767 9.07295 11.7054 11.6971 11.0092C10.7512 9.3309 9.74049 7.96128 9.66766 7.8642ZM12.15 11.8496C9.33577 12.6909 6.6353 12.6304 6.53844 12.6267C6.53686 12.6853 6.53405 12.7421 6.53405 12.8008C6.53405 14.2029 7.06376 15.4811 7.93444 16.4476C7.93256 16.4448 9.42828 13.795 12.3778 12.8426C12.449 12.8189 12.5216 12.7977 12.5934 12.7771C12.4563 12.4669 12.3065 12.1561 12.15 11.8496ZM15.6092 8.70461C14.647 7.85733 13.3835 7.34339 11.9997 7.34339C11.5556 7.34339 11.1246 7.39707 10.7118 7.4963C10.7937 7.60616 11.8203 8.96613 12.755 10.68C14.8173 9.90794 15.5958 8.72457 15.6092 8.70461ZM12.966 13.6814C12.9538 13.6855 12.9416 13.6889 12.9297 13.6933C9.70494 14.8159 8.65184 17.0782 8.64045 17.1029C9.56833 17.8235 10.7321 18.2582 11.9997 18.2582C12.7566 18.2582 13.4776 18.1043 14.1335 17.8257C14.0526 17.3488 13.7351 15.6774 12.966 13.6814ZM15.0539 17.327C16.2811 16.5 17.1527 15.1869 17.3959 13.6658C17.2834 13.6296 15.7542 13.1462 13.9901 13.4286C14.707 15.3959 14.9983 16.9981 15.0539 17.327ZM13.1757 11.4932C13.3026 11.7535 13.4254 12.0184 13.5388 12.2846C13.5792 12.3801 13.6185 12.4738 13.657 12.5674C15.5346 12.3314 17.3843 12.7284 17.4634 12.7446C17.4509 11.4508 16.9874 10.2634 16.2206 9.33373C16.2102 9.34837 15.3336 10.6132 13.1757 11.4932Z" fill="#14191F"/>
</svg>
