<svg width="250" height="114" viewBox="0 0 250 114" fill="none" xmlns="http://www.w3.org/2000/svg">
<path d="M0.879639 113.23L39.0591 73.8191L80.3342 83.2027L149.47 46.2938L217.918 35.659L240.963 3.75464" stroke="#00535C" stroke-width="0.515939"/>
<path opacity="0.5" d="M39.0591 73.8191L0.879639 113.23H240.963V3.75464L217.918 35.659L149.47 46.2938L80.3342 83.2027L39.0591 73.8191Z" fill="url(#paint0_linear_25_2000)"/>
<g filter="url(#filter0_dii_25_2000)">
<ellipse cx="229.943" cy="14.3478" rx="11.1774" ry="11.1774" fill="#FFA800"/>
</g>
<g filter="url(#filter1_f_25_2000)">
<path d="M240.375 14.3478C240.375 12.9778 240.105 11.6212 239.581 10.3555C239.057 9.08983 238.288 7.93978 237.319 6.97106C236.351 6.00234 235.201 5.2339 233.935 4.70963C232.669 4.18537 231.313 3.91553 229.943 3.91553C228.573 3.91553 227.216 4.18537 225.95 4.70963C224.685 5.2339 223.535 6.00234 222.566 6.97106C221.597 7.93979 220.829 9.08983 220.305 10.3555C219.78 11.6212 219.51 12.9778 219.51 14.3478L229.943 14.3478H240.375Z" fill="url(#paint1_linear_25_2000)"/>
</g>
<g filter="url(#filter2_f_25_2000)">
<path d="M219.857 17.6731C220.246 18.9868 220.89 20.211 221.751 21.2759C222.613 22.3408 223.676 23.2255 224.88 23.8796C226.084 24.5336 227.405 24.9441 228.767 25.0877C230.13 25.2312 231.507 25.1051 232.821 24.7163C234.134 24.3276 235.359 23.6839 236.424 22.822C237.489 21.9602 238.373 20.897 239.027 19.6932C239.681 18.4894 240.092 17.1686 240.235 15.8061C240.379 14.4437 240.253 13.0663 239.864 11.7527L229.861 14.7129L219.857 17.6731Z" fill="url(#paint2_linear_25_2000)"/>
</g>
<g filter="url(#filter3_i_25_2000)">
<ellipse cx="225.584" cy="11.3299" rx="1.30403" ry="1.30403" fill="#14191F"/>
<g filter="url(#filter4_f_25_2000)">
<ellipse cx="225.584" cy="10.8085" rx="0.434677" ry="0.434677" fill="#FFA800"/>
</g>
</g>
<g filter="url(#filter5_i_25_2000)">
<ellipse cx="234.227" cy="11.3299" rx="1.30403" ry="1.30403" fill="#14191F"/>
<g filter="url(#filter6_f_25_2000)">
<ellipse cx="234.227" cy="10.8085" rx="0.434677" ry="0.434677" fill="#FFA800"/>
</g>
</g>
<g filter="url(#filter7_ii_25_2000)">
<path d="M222.967 15.83C222.736 15.7518 222.494 15.9228 222.512 16.1651C222.648 17.9589 223.428 19.6498 224.719 20.9186C226.129 22.304 228.031 23.0727 230.007 23.0557C231.983 23.0386 233.872 22.2373 235.257 20.8278C236.527 19.5362 237.278 17.8308 237.382 16.0338C237.396 15.7932 237.156 15.6264 236.93 15.7087C232.449 17.3359 227.48 17.364 222.967 15.83Z" fill="#FFCCFF"/>
</g>
<path d="M222.698 16.1511C222.691 16.0558 222.79 15.9666 222.907 16.0064C227.46 17.5538 232.472 17.5257 236.993 15.8838C237.104 15.8438 237.202 15.9258 237.196 16.0231C237.095 17.7752 236.362 19.4379 235.124 20.6972C233.773 22.0714 231.932 22.8528 230.005 22.8694C228.079 22.886 226.224 22.1365 224.85 20.7857C223.591 19.5487 222.83 17.9 222.698 16.1511Z" stroke="#14191F" stroke-width="0.37258"/>
<g filter="url(#filter8_dii_25_2000)">
<ellipse cx="40.7587" cy="76.2673" rx="11.1774" ry="11.1774" fill="#FFA800"/>
</g>
<g filter="url(#filter9_f_25_2000)">
<path d="M51.1909 76.2672C51.1909 74.8972 50.9211 73.5407 50.3968 72.275C49.8725 71.0093 49.1041 69.8592 48.1354 68.8905C47.1667 67.9218 46.0166 67.1533 44.7509 66.6291C43.4852 66.1048 42.1286 65.835 40.7587 65.835C39.3887 65.835 38.0321 66.1048 36.7664 66.6291C35.5007 67.1533 34.3507 67.9218 33.3819 68.8905C32.4132 69.8592 31.6448 71.0093 31.1205 72.275C30.5963 73.5407 30.3264 74.8972 30.3264 76.2672L40.7587 76.2672H51.1909Z" fill="url(#paint3_linear_25_2000)"/>
</g>
<g filter="url(#filter10_f_25_2000)">
<path d="M30.673 79.5923C31.0618 80.9059 31.7055 82.1302 32.5673 83.1951C33.4292 84.26 34.4924 85.1447 35.6962 85.7987C36.8999 86.4528 38.2208 86.8633 39.5832 87.0069C40.9456 87.1504 42.323 87.0242 43.6367 86.6355C44.9504 86.2468 46.1746 85.6031 47.2395 84.7412C48.3044 83.8793 49.1891 82.8162 49.8432 81.6124C50.4972 80.4086 50.9077 79.0878 51.0513 77.7253C51.1949 76.3629 51.0687 74.9855 50.6799 73.6718L40.6765 76.6321L30.673 79.5923Z" fill="url(#paint4_linear_25_2000)"/>
</g>
<g filter="url(#filter11_i_25_2000)">
<ellipse cx="36.3248" cy="73.2493" rx="1.30403" ry="1.30403" fill="#14191F"/>
<g filter="url(#filter12_f_25_2000)">
<ellipse cx="36.3248" cy="72.7279" rx="0.434677" ry="0.434677" fill="#FFA800"/>
</g>
</g>
<g filter="url(#filter13_i_25_2000)">
<ellipse cx="44.9686" cy="73.2493" rx="1.30403" ry="1.30403" fill="#14191F"/>
<g filter="url(#filter14_f_25_2000)">
<ellipse cx="44.9686" cy="72.7279" rx="0.434677" ry="0.434677" fill="#FFA800"/>
</g>
</g>
<g filter="url(#filter15_i_25_2000)">
<rect x="35.1702" y="79.9185" width="11.1774" height="1.11774" rx="0.55887" fill="#14191F"/>
</g>
<g filter="url(#filter16_dii_25_2000)">
<ellipse cx="142.516" cy="49.6496" rx="11.1774" ry="11.1774" fill="#FFA800"/>
</g>
<g filter="url(#filter17_f_25_2000)">
<path d="M152.948 49.9476C152.948 48.5776 152.678 47.2211 152.154 45.9554C151.63 44.6897 150.861 43.5396 149.892 42.5709C148.924 41.6022 147.774 40.8338 146.508 40.3095C145.242 39.7852 143.886 39.5154 142.516 39.5154C141.146 39.5154 139.789 39.7852 138.523 40.3095C137.258 40.8338 136.108 41.6022 135.139 42.5709C134.17 43.5396 133.402 44.6897 132.878 45.9554C132.353 47.2211 132.083 48.5776 132.083 49.9476L142.516 49.9476H152.948Z" fill="url(#paint5_linear_25_2000)"/>
</g>
<g filter="url(#filter18_f_25_2000)">
<path d="M132.43 52.9746C132.819 54.2883 133.462 55.5125 134.324 56.5774C135.186 57.6423 136.249 58.527 137.453 59.1811C138.657 59.8351 139.978 60.2456 141.34 60.3892C142.702 60.5328 144.08 60.4066 145.394 60.0178C146.707 59.6291 147.931 58.9854 148.996 58.1235C150.061 57.2617 150.946 56.1985 151.6 54.9947C152.254 53.7909 152.665 52.4701 152.808 51.1077C152.952 49.7452 152.826 48.3678 152.437 47.0542L142.433 50.0144L132.43 52.9746Z" fill="url(#paint6_linear_25_2000)"/>
</g>
<g filter="url(#filter19_i_25_2000)">
<ellipse cx="138.082" cy="46.6317" rx="1.30403" ry="1.30403" fill="#14191F"/>
<g filter="url(#filter20_f_25_2000)">
<ellipse cx="138.082" cy="46.1102" rx="0.434677" ry="0.434677" fill="#FFA800"/>
</g>
</g>
<g filter="url(#filter21_i_25_2000)">
<ellipse cx="146.726" cy="46.6319" rx="1.30403" ry="1.30403" fill="#14191F"/>
<g filter="url(#filter22_f_25_2000)">
<ellipse cx="146.726" cy="46.1105" rx="0.434677" ry="0.434677" fill="#FFA800"/>
</g>
</g>
<path d="M147.723 55.9833C147.796 56.1771 148.027 56.1273 147.989 55.9237C147.784 54.8209 147.25 53.7967 146.446 52.9924C145.398 51.9443 143.976 51.3555 142.494 51.3555C141.012 51.3555 139.59 51.9443 138.542 52.9924C137.733 53.8018 137.197 54.8339 136.996 55.9447C136.959 56.1485 137.194 56.1952 137.269 56.002C139.113 51.2152 145.923 51.1795 147.723 55.9833Z" fill="#14191F"/>
<defs>
<filter id="filter0_dii_25_2000" x="216.53" y="-1.30055" width="32.787" height="35.0225" filterUnits="userSpaceOnUse" color-interpolation-filters="sRGB">
<feFlood flood-opacity="0" result="BackgroundImageFix"/>
<feColorMatrix in="SourceAlpha" type="matrix" values="0 0 0 0 0 0 0 0 0 0 0 0 0 0 0 0 0 0 127 0" result="hardAlpha"/>
<feOffset dx="2.98064" dy="2.98064"/>
<feGaussianBlur stdDeviation="2.60806"/>
<feComposite in2="hardAlpha" operator="out"/>
<feColorMatrix type="matrix" values="0 0 0 0 0 0 0 0 0 0 0 0 0 0 0 0 0 0 0.25 0"/>
<feBlend mode="normal" in2="BackgroundImageFix" result="effect1_dropShadow_25_2000"/>
<feBlend mode="normal" in="SourceGraphic" in2="effect1_dropShadow_25_2000" result="shape"/>
<feColorMatrix in="SourceAlpha" type="matrix" values="0 0 0 0 0 0 0 0 0 0 0 0 0 0 0 0 0 0 127 0" result="hardAlpha"/>
<feOffset dx="1.49032" dy="1.49032"/>
<feGaussianBlur stdDeviation="1.11774"/>
<feComposite in2="hardAlpha" operator="arithmetic" k2="-1" k3="1"/>
<feColorMatrix type="matrix" values="0 0 0 0 0.745833 0 0 0 0 0.4475 0 0 0 0 0 0 0 0 1 0"/>
<feBlend mode="normal" in2="shape" result="effect2_innerShadow_25_2000"/>
<feColorMatrix in="SourceAlpha" type="matrix" values="0 0 0 0 0 0 0 0 0 0 0 0 0 0 0 0 0 0 127 0" result="hardAlpha"/>
<feOffset dx="-2.23548" dy="-4.47096"/>
<feGaussianBlur stdDeviation="2.98064"/>
<feComposite in2="hardAlpha" operator="arithmetic" k2="-1" k3="1"/>
<feColorMatrix type="matrix" values="0 0 0 0 1 0 0 0 0 0.84 0 0 0 0 0 0 0 0 1 0"/>
<feBlend mode="normal" in2="effect2_innerShadow_25_2000" result="effect3_innerShadow_25_2000"/>
</filter>
<filter id="filter1_f_25_2000" x="218.393" y="2.79779" width="23.1" height="12.6676" filterUnits="userSpaceOnUse" color-interpolation-filters="sRGB">
<feFlood flood-opacity="0" result="BackgroundImageFix"/>
<feBlend mode="normal" in="SourceGraphic" in2="BackgroundImageFix" result="shape"/>
<feGaussianBlur stdDeviation="0.55887" result="effect1_foregroundBlur_25_2000"/>
</filter>
<filter id="filter2_f_25_2000" x="218.367" y="10.2624" width="23.4162" height="16.373" filterUnits="userSpaceOnUse" color-interpolation-filters="sRGB">
<feFlood flood-opacity="0" result="BackgroundImageFix"/>
<feBlend mode="normal" in="SourceGraphic" in2="BackgroundImageFix" result="shape"/>
<feGaussianBlur stdDeviation="0.74516" result="effect1_foregroundBlur_25_2000"/>
</filter>
<filter id="filter3_i_25_2000" x="224.28" y="10.0259" width="2.60815" height="2.98073" filterUnits="userSpaceOnUse" color-interpolation-filters="sRGB">
<feFlood flood-opacity="0" result="BackgroundImageFix"/>
<feBlend mode="normal" in="SourceGraphic" in2="BackgroundImageFix" result="shape"/>
<feColorMatrix in="SourceAlpha" type="matrix" values="0 0 0 0 0 0 0 0 0 0 0 0 0 0 0 0 0 0 127 0" result="hardAlpha"/>
<feOffset dy="0.37258"/>
<feGaussianBlur stdDeviation="0.37258"/>
<feComposite in2="hardAlpha" operator="arithmetic" k2="-1" k3="1"/>
<feColorMatrix type="matrix" values="0 0 0 0 0 0 0 0 0 0 0 0 0 0 0 0 0 0 1 0"/>
<feBlend mode="normal" in2="shape" result="effect1_innerShadow_25_2000"/>
</filter>
<filter id="filter4_f_25_2000" x="224.18" y="9.40507" width="2.8068" height="2.8068" filterUnits="userSpaceOnUse" color-interpolation-filters="sRGB">
<feFlood flood-opacity="0" result="BackgroundImageFix"/>
<feBlend mode="normal" in="SourceGraphic" in2="BackgroundImageFix" result="shape"/>
<feGaussianBlur stdDeviation="0.484354" result="effect1_foregroundBlur_25_2000"/>
</filter>
<filter id="filter5_i_25_2000" x="232.923" y="10.0259" width="2.60815" height="2.98073" filterUnits="userSpaceOnUse" color-interpolation-filters="sRGB">
<feFlood flood-opacity="0" result="BackgroundImageFix"/>
<feBlend mode="normal" in="SourceGraphic" in2="BackgroundImageFix" result="shape"/>
<feColorMatrix in="SourceAlpha" type="matrix" values="0 0 0 0 0 0 0 0 0 0 0 0 0 0 0 0 0 0 127 0" result="hardAlpha"/>
<feOffset dy="0.37258"/>
<feGaussianBlur stdDeviation="0.37258"/>
<feComposite in2="hardAlpha" operator="arithmetic" k2="-1" k3="1"/>
<feColorMatrix type="matrix" values="0 0 0 0 0 0 0 0 0 0 0 0 0 0 0 0 0 0 1 0"/>
<feBlend mode="normal" in2="shape" result="effect1_innerShadow_25_2000"/>
</filter>
<filter id="filter6_f_25_2000" x="232.824" y="9.40507" width="2.8068" height="2.8068" filterUnits="userSpaceOnUse" color-interpolation-filters="sRGB">
<feFlood flood-opacity="0" result="BackgroundImageFix"/>
<feBlend mode="normal" in="SourceGraphic" in2="BackgroundImageFix" result="shape"/>
<feGaussianBlur stdDeviation="0.484354" result="effect1_foregroundBlur_25_2000"/>
</filter>
<filter id="filter7_ii_25_2000" x="222.511" y="15.6875" width="14.8713" height="7.36841" filterUnits="userSpaceOnUse" color-interpolation-filters="sRGB">
<feFlood flood-opacity="0" result="BackgroundImageFix"/>
<feBlend mode="normal" in="SourceGraphic" in2="BackgroundImageFix" result="shape"/>
<feColorMatrix in="SourceAlpha" type="matrix" values="0 0 0 0 0 0 0 0 0 0 0 0 0 0 0 0 0 0 127 0" result="hardAlpha"/>
<feOffset dy="2.60806"/>
<feComposite in2="hardAlpha" operator="arithmetic" k2="-1" k3="1"/>
<feColorMatrix type="matrix" values="0 0 0 0 0.207843 0 0 0 0 0.171765 0 0 0 0 0.129412 0 0 0 1 0"/>
<feBlend mode="normal" in2="shape" result="effect1_innerShadow_25_2000"/>
<feColorMatrix in="SourceAlpha" type="matrix" values="0 0 0 0 0 0 0 0 0 0 0 0 0 0 0 0 0 0 127 0" result="hardAlpha"/>
<feOffset dy="2.23548"/>
<feComposite in2="hardAlpha" operator="arithmetic" k2="-1" k3="1"/>
<feColorMatrix type="matrix" values="0 0 0 0 1 0 0 0 0 0.9188 0 0 0 0 0.86 0 0 0 1 0"/>
<feBlend mode="normal" in2="effect1_innerShadow_25_2000" result="effect2_innerShadow_25_2000"/>
</filter>
<filter id="filter8_dii_25_2000" x="27.3458" y="60.6189" width="32.787" height="35.0225" filterUnits="userSpaceOnUse" color-interpolation-filters="sRGB">
<feFlood flood-opacity="0" result="BackgroundImageFix"/>
<feColorMatrix in="SourceAlpha" type="matrix" values="0 0 0 0 0 0 0 0 0 0 0 0 0 0 0 0 0 0 127 0" result="hardAlpha"/>
<feOffset dx="2.98064" dy="2.98064"/>
<feGaussianBlur stdDeviation="2.60806"/>
<feComposite in2="hardAlpha" operator="out"/>
<feColorMatrix type="matrix" values="0 0 0 0 0 0 0 0 0 0 0 0 0 0 0 0 0 0 0.25 0"/>
<feBlend mode="normal" in2="BackgroundImageFix" result="effect1_dropShadow_25_2000"/>
<feBlend mode="normal" in="SourceGraphic" in2="effect1_dropShadow_25_2000" result="shape"/>
<feColorMatrix in="SourceAlpha" type="matrix" values="0 0 0 0 0 0 0 0 0 0 0 0 0 0 0 0 0 0 127 0" result="hardAlpha"/>
<feOffset dx="1.49032" dy="1.49032"/>
<feGaussianBlur stdDeviation="1.11774"/>
<feComposite in2="hardAlpha" operator="arithmetic" k2="-1" k3="1"/>
<feColorMatrix type="matrix" values="0 0 0 0 0.75 0 0 0 0 0.405 0 0 0 0 0 0 0 0 1 0"/>
<feBlend mode="normal" in2="shape" result="effect2_innerShadow_25_2000"/>
<feColorMatrix in="SourceAlpha" type="matrix" values="0 0 0 0 0 0 0 0 0 0 0 0 0 0 0 0 0 0 127 0" result="hardAlpha"/>
<feOffset dx="-2.23548" dy="-4.47096"/>
<feGaussianBlur stdDeviation="2.98064"/>
<feComposite in2="hardAlpha" operator="arithmetic" k2="-1" k3="1"/>
<feColorMatrix type="matrix" values="0 0 0 0 1 0 0 0 0 0.66 0 0 0 0 0 0 0 0 1 0"/>
<feBlend mode="normal" in2="effect2_innerShadow_25_2000" result="effect3_innerShadow_25_2000"/>
</filter>
<filter id="filter9_f_25_2000" x="29.2087" y="64.7172" width="23.1" height="12.6676" filterUnits="userSpaceOnUse" color-interpolation-filters="sRGB">
<feFlood flood-opacity="0" result="BackgroundImageFix"/>
<feBlend mode="normal" in="SourceGraphic" in2="BackgroundImageFix" result="shape"/>
<feGaussianBlur stdDeviation="0.55887" result="effect1_foregroundBlur_25_2000"/>
</filter>
<filter id="filter10_f_25_2000" x="29.1828" y="72.1816" width="23.4162" height="16.373" filterUnits="userSpaceOnUse" color-interpolation-filters="sRGB">
<feFlood flood-opacity="0" result="BackgroundImageFix"/>
<feBlend mode="normal" in="SourceGraphic" in2="BackgroundImageFix" result="shape"/>
<feGaussianBlur stdDeviation="0.74516" result="effect1_foregroundBlur_25_2000"/>
</filter>
<filter id="filter11_i_25_2000" x="35.0208" y="71.9453" width="2.60815" height="2.98073" filterUnits="userSpaceOnUse" color-interpolation-filters="sRGB">
<feFlood flood-opacity="0" result="BackgroundImageFix"/>
<feBlend mode="normal" in="SourceGraphic" in2="BackgroundImageFix" result="shape"/>
<feColorMatrix in="SourceAlpha" type="matrix" values="0 0 0 0 0 0 0 0 0 0 0 0 0 0 0 0 0 0 127 0" result="hardAlpha"/>
<feOffset dy="0.37258"/>
<feGaussianBlur stdDeviation="0.37258"/>
<feComposite in2="hardAlpha" operator="arithmetic" k2="-1" k3="1"/>
<feColorMatrix type="matrix" values="0 0 0 0 0 0 0 0 0 0 0 0 0 0 0 0 0 0 1 0"/>
<feBlend mode="normal" in2="shape" result="effect1_innerShadow_25_2000"/>
</filter>
<filter id="filter12_f_25_2000" x="34.9214" y="71.3245" width="2.8068" height="2.8068" filterUnits="userSpaceOnUse" color-interpolation-filters="sRGB">
<feFlood flood-opacity="0" result="BackgroundImageFix"/>
<feBlend mode="normal" in="SourceGraphic" in2="BackgroundImageFix" result="shape"/>
<feGaussianBlur stdDeviation="0.484354" result="effect1_foregroundBlur_25_2000"/>
</filter>
<filter id="filter13_i_25_2000" x="43.6646" y="71.9453" width="2.60815" height="2.98073" filterUnits="userSpaceOnUse" color-interpolation-filters="sRGB">
<feFlood flood-opacity="0" result="BackgroundImageFix"/>
<feBlend mode="normal" in="SourceGraphic" in2="BackgroundImageFix" result="shape"/>
<feColorMatrix in="SourceAlpha" type="matrix" values="0 0 0 0 0 0 0 0 0 0 0 0 0 0 0 0 0 0 127 0" result="hardAlpha"/>
<feOffset dy="0.37258"/>
<feGaussianBlur stdDeviation="0.37258"/>
<feComposite in2="hardAlpha" operator="arithmetic" k2="-1" k3="1"/>
<feColorMatrix type="matrix" values="0 0 0 0 0 0 0 0 0 0 0 0 0 0 0 0 0 0 1 0"/>
<feBlend mode="normal" in2="shape" result="effect1_innerShadow_25_2000"/>
</filter>
<filter id="filter14_f_25_2000" x="43.5652" y="71.3245" width="2.8068" height="2.8068" filterUnits="userSpaceOnUse" color-interpolation-filters="sRGB">
<feFlood flood-opacity="0" result="BackgroundImageFix"/>
<feBlend mode="normal" in="SourceGraphic" in2="BackgroundImageFix" result="shape"/>
<feGaussianBlur stdDeviation="0.484354" result="effect1_foregroundBlur_25_2000"/>
</filter>
<filter id="filter15_i_25_2000" x="35.1702" y="79.9185" width="11.1775" height="1.49026" filterUnits="userSpaceOnUse" color-interpolation-filters="sRGB">
<feFlood flood-opacity="0" result="BackgroundImageFix"/>
<feBlend mode="normal" in="SourceGraphic" in2="BackgroundImageFix" result="shape"/>
<feColorMatrix in="SourceAlpha" type="matrix" values="0 0 0 0 0 0 0 0 0 0 0 0 0 0 0 0 0 0 127 0" result="hardAlpha"/>
<feOffset dy="0.37258"/>
<feGaussianBlur stdDeviation="0.37258"/>
<feComposite in2="hardAlpha" operator="arithmetic" k2="-1" k3="1"/>
<feColorMatrix type="matrix" values="0 0 0 0 0.466667 0 0 0 0 0.196 0 0 0 0 0 0 0 0 1 0"/>
<feBlend mode="normal" in2="shape" result="effect1_innerShadow_25_2000"/>
</filter>
<filter id="filter16_dii_25_2000" x="129.103" y="34.0012" width="32.787" height="35.0225" filterUnits="userSpaceOnUse" color-interpolation-filters="sRGB">
<feFlood flood-opacity="0" result="BackgroundImageFix"/>
<feColorMatrix in="SourceAlpha" type="matrix" values="0 0 0 0 0 0 0 0 0 0 0 0 0 0 0 0 0 0 127 0" result="hardAlpha"/>
<feOffset dx="2.98064" dy="2.98064"/>
<feGaussianBlur stdDeviation="2.60806"/>
<feComposite in2="hardAlpha" operator="out"/>
<feColorMatrix type="matrix" values="0 0 0 0 0 0 0 0 0 0 0 0 0 0 0 0 0 0 0.25 0"/>
<feBlend mode="normal" in2="BackgroundImageFix" result="effect1_dropShadow_25_2000"/>
<feBlend mode="normal" in="SourceGraphic" in2="effect1_dropShadow_25_2000" result="shape"/>
<feColorMatrix in="SourceAlpha" type="matrix" values="0 0 0 0 0 0 0 0 0 0 0 0 0 0 0 0 0 0 127 0" result="hardAlpha"/>
<feOffset dx="1.49032" dy="1.49032"/>
<feGaussianBlur stdDeviation="1.49032"/>
<feComposite in2="hardAlpha" operator="arithmetic" k2="-1" k3="1"/>
<feColorMatrix type="matrix" values="0 0 0 0 0.804167 0 0 0 0 0.43425 0 0 0 0 0 0 0 0 1 0"/>
<feBlend mode="normal" in2="shape" result="effect2_innerShadow_25_2000"/>
<feColorMatrix in="SourceAlpha" type="matrix" values="0 0 0 0 0 0 0 0 0 0 0 0 0 0 0 0 0 0 127 0" result="hardAlpha"/>
<feOffset dx="-2.23548" dy="-4.47096"/>
<feGaussianBlur stdDeviation="3.7258"/>
<feComposite in2="hardAlpha" operator="arithmetic" k2="-1" k3="1"/>
<feColorMatrix type="matrix" values="0 0 0 0 1 0 0 0 0 0.72 0 0 0 0 0 0 0 0 1 0"/>
<feBlend mode="normal" in2="effect2_innerShadow_25_2000" result="effect3_innerShadow_25_2000"/>
</filter>
<filter id="filter17_f_25_2000" x="130.593" y="38.0251" width="23.8451" height="13.4128" filterUnits="userSpaceOnUse" color-interpolation-filters="sRGB">
<feFlood flood-opacity="0" result="BackgroundImageFix"/>
<feBlend mode="normal" in="SourceGraphic" in2="BackgroundImageFix" result="shape"/>
<feGaussianBlur stdDeviation="0.74516" result="effect1_foregroundBlur_25_2000"/>
</filter>
<filter id="filter18_f_25_2000" x="130.94" y="45.5639" width="23.4162" height="16.373" filterUnits="userSpaceOnUse" color-interpolation-filters="sRGB">
<feFlood flood-opacity="0" result="BackgroundImageFix"/>
<feBlend mode="normal" in="SourceGraphic" in2="BackgroundImageFix" result="shape"/>
<feGaussianBlur stdDeviation="0.74516" result="effect1_foregroundBlur_25_2000"/>
</filter>
<filter id="filter19_i_25_2000" x="136.778" y="45.3276" width="2.60815" height="2.98073" filterUnits="userSpaceOnUse" color-interpolation-filters="sRGB">
<feFlood flood-opacity="0" result="BackgroundImageFix"/>
<feBlend mode="normal" in="SourceGraphic" in2="BackgroundImageFix" result="shape"/>
<feColorMatrix in="SourceAlpha" type="matrix" values="0 0 0 0 0 0 0 0 0 0 0 0 0 0 0 0 0 0 127 0" result="hardAlpha"/>
<feOffset dy="0.37258"/>
<feGaussianBlur stdDeviation="0.37258"/>
<feComposite in2="hardAlpha" operator="arithmetic" k2="-1" k3="1"/>
<feColorMatrix type="matrix" values="0 0 0 0 0 0 0 0 0 0 0 0 0 0 0 0 0 0 1 0"/>
<feBlend mode="normal" in2="shape" result="effect1_innerShadow_25_2000"/>
</filter>
<filter id="filter20_f_25_2000" x="136.679" y="44.7068" width="2.8068" height="2.8068" filterUnits="userSpaceOnUse" color-interpolation-filters="sRGB">
<feFlood flood-opacity="0" result="BackgroundImageFix"/>
<feBlend mode="normal" in="SourceGraphic" in2="BackgroundImageFix" result="shape"/>
<feGaussianBlur stdDeviation="0.484354" result="effect1_foregroundBlur_25_2000"/>
</filter>
<filter id="filter21_i_25_2000" x="145.422" y="45.3279" width="2.60815" height="2.98073" filterUnits="userSpaceOnUse" color-interpolation-filters="sRGB">
<feFlood flood-opacity="0" result="BackgroundImageFix"/>
<feBlend mode="normal" in="SourceGraphic" in2="BackgroundImageFix" result="shape"/>
<feColorMatrix in="SourceAlpha" type="matrix" values="0 0 0 0 0 0 0 0 0 0 0 0 0 0 0 0 0 0 127 0" result="hardAlpha"/>
<feOffset dy="0.37258"/>
<feGaussianBlur stdDeviation="0.37258"/>
<feComposite in2="hardAlpha" operator="arithmetic" k2="-1" k3="1"/>
<feColorMatrix type="matrix" values="0 0 0 0 0 0 0 0 0 0 0 0 0 0 0 0 0 0 1 0"/>
<feBlend mode="normal" in2="shape" result="effect1_innerShadow_25_2000"/>
</filter>
<filter id="filter22_f_25_2000" x="145.322" y="44.7071" width="2.8068" height="2.8068" filterUnits="userSpaceOnUse" color-interpolation-filters="sRGB">
<feFlood flood-opacity="0" result="BackgroundImageFix"/>
<feBlend mode="normal" in="SourceGraphic" in2="BackgroundImageFix" result="shape"/>
<feGaussianBlur stdDeviation="0.484354" result="effect1_foregroundBlur_25_2000"/>
</filter>
<linearGradient id="paint0_linear_25_2000" x1="120.921" y1="3.75464" x2="120.921" y2="113.23" gradientUnits="userSpaceOnUse">
<stop stop-color="#0C949A"/>
<stop offset="1" stop-color="#0C949A" stop-opacity="0.1"/>
</linearGradient>
<linearGradient id="paint1_linear_25_2000" x1="229.943" y1="3.91553" x2="229.943" y2="12.8575" gradientUnits="userSpaceOnUse">
<stop stop-color="white"/>
<stop offset="1" stop-color="white" stop-opacity="0"/>
</linearGradient>
<linearGradient id="paint2_linear_25_2000" x1="233.301" y1="24.0154" x2="230.399" y2="16.1506" gradientUnits="userSpaceOnUse">
<stop stop-color="#D36500"/>
<stop offset="1" stop-color="white" stop-opacity="0"/>
</linearGradient>
<linearGradient id="paint3_linear_25_2000" x1="40.7587" y1="65.835" x2="40.7587" y2="74.7769" gradientUnits="userSpaceOnUse">
<stop stop-color="white"/>
<stop offset="1" stop-color="white" stop-opacity="0"/>
</linearGradient>
<linearGradient id="paint4_linear_25_2000" x1="44.1169" y1="85.9346" x2="41.2151" y2="78.0698" gradientUnits="userSpaceOnUse">
<stop stop-color="#D36500"/>
<stop offset="1" stop-color="white" stop-opacity="0"/>
</linearGradient>
<linearGradient id="paint5_linear_25_2000" x1="142.516" y1="39.5154" x2="142.516" y2="48.4573" gradientUnits="userSpaceOnUse">
<stop stop-color="white"/>
<stop offset="1" stop-color="white" stop-opacity="0"/>
</linearGradient>
<linearGradient id="paint6_linear_25_2000" x1="145.874" y1="59.3169" x2="142.972" y2="51.4521" gradientUnits="userSpaceOnUse">
<stop stop-color="#D36500"/>
<stop offset="1" stop-color="white" stop-opacity="0"/>
</linearGradient>
</defs>
</svg>
