<svg width="492" height="349" viewBox="0 0 492 349" fill="none" xmlns="http://www.w3.org/2000/svg">
<g filter="url(#filter0_d_129_22526)">
<rect x="40.75" y="36.5662" width="411" height="296.874" rx="10.5723" fill="white" shape-rendering="crispEdges"/>
<rect x="41.25" y="37.0662" width="410" height="295.874" rx="10.0723" stroke="#14191F" stroke-opacity="0.1" shape-rendering="crispEdges"/>
<path d="M68.5775 79.6789H70.2444L74.164 89.2526H74.2992L78.2188 79.6789H79.8857V91.2124H78.5792V82.4497H78.4665L74.8623 91.2124H73.6009L69.9967 82.4497H69.884V91.2124H68.5775V79.6789ZM86.0199 91.3926C85.239 91.3926 84.5538 91.2068 83.9644 90.8351C83.3787 90.4634 82.9207 89.9434 82.5903 89.2751C82.2636 88.6069 82.1003 87.8259 82.1003 86.9324C82.1003 86.0314 82.2636 85.2448 82.5903 84.5728C82.9207 83.9007 83.3787 83.3789 83.9644 83.0072C84.5538 82.6355 85.239 82.4497 86.0199 82.4497C86.8008 82.4497 87.4841 82.6355 88.0698 83.0072C88.6592 83.3789 89.1173 83.9007 89.4439 84.5728C89.7743 85.2448 89.9395 86.0314 89.9395 86.9324C89.9395 87.8259 89.7743 88.6069 89.4439 89.2751C89.1173 89.9434 88.6592 90.4634 88.0698 90.8351C87.4841 91.2068 86.8008 91.3926 86.0199 91.3926ZM86.0199 90.1987C86.6131 90.1987 87.1012 90.0467 87.4841 89.7426C87.8671 89.4385 88.1505 89.0386 88.3345 88.543C88.5184 88.0475 88.6104 87.5106 88.6104 86.9324C88.6104 86.3542 88.5184 85.8155 88.3345 85.3161C88.1505 84.8168 87.8671 84.4132 87.4841 84.1054C87.1012 83.7975 86.6131 83.6436 86.0199 83.6436C85.4267 83.6436 84.9386 83.7975 84.5557 84.1054C84.1727 84.4132 83.8893 84.8168 83.7053 85.3161C83.5214 85.8155 83.4294 86.3542 83.4294 86.9324C83.4294 87.5106 83.5214 88.0475 83.7053 88.543C83.8893 89.0386 84.1727 89.4385 84.5557 89.7426C84.9386 90.0467 85.4267 90.1987 86.0199 90.1987ZM93.2973 86.0088V91.2124H91.9682V82.5623H93.2522V83.9139H93.3649C93.5676 83.4746 93.8755 83.1217 94.2885 82.8551C94.7014 82.5848 95.2346 82.4497 95.8878 82.4497C96.4735 82.4497 96.986 82.5698 97.4252 82.8101C97.8645 83.0466 98.2062 83.407 98.4502 83.8914C98.6942 84.3719 98.8162 84.9801 98.8162 85.716V91.2124H97.4872V85.8061C97.4872 85.1265 97.3107 84.5972 96.9578 84.218C96.6049 83.835 96.1206 83.6436 95.5049 83.6436C95.0806 83.6436 94.7014 83.7355 94.3673 83.9195C94.0369 84.1035 93.776 84.3719 93.5845 84.7248C93.393 85.0777 93.2973 85.5057 93.2973 86.0088Z" fill="#14191F"/>
<path d="M122.13 80.9179V79.6789H130.78V80.9179H127.153V91.2124H125.757V80.9179H122.13ZM137.03 87.6758V82.5623H138.359V91.2124H137.03V89.7482H136.94C136.737 90.1875 136.422 90.561 135.994 90.8689C135.566 91.173 135.025 91.325 134.372 91.325C133.831 91.325 133.35 91.2068 132.93 90.9702C132.51 90.73 132.179 90.3695 131.939 89.889C131.699 89.4047 131.578 88.7946 131.578 88.0587V82.5623H132.907V87.9686C132.907 88.5994 133.084 89.1024 133.437 89.4779C133.794 89.8533 134.248 90.041 134.8 90.041C135.13 90.041 135.466 89.9566 135.808 89.7876C136.153 89.6187 136.442 89.3596 136.675 89.0105C136.912 88.6613 137.03 88.2164 137.03 87.6758ZM144.42 91.3926C143.586 91.3926 142.867 91.2086 142.263 90.8407C141.662 90.469 141.199 89.9509 140.872 89.2864C140.549 88.6181 140.388 87.841 140.388 86.9549C140.388 86.0689 140.549 85.288 140.872 84.6122C141.199 83.9327 141.653 83.4033 142.235 83.0241C142.82 82.6411 143.504 82.4497 144.285 82.4497C144.735 82.4497 145.18 82.5248 145.619 82.6749C146.059 82.8251 146.458 83.0691 146.819 83.407C147.179 83.7412 147.467 84.1842 147.681 84.7361C147.895 85.288 148.002 85.9675 148.002 86.7747V87.3379H141.334V86.189H146.65C146.65 85.701 146.552 85.2655 146.357 84.8825C146.166 84.4996 145.892 84.1973 145.535 83.9758C145.182 83.7543 144.765 83.6436 144.285 83.6436C143.755 83.6436 143.297 83.775 142.911 84.0378C142.528 84.2968 142.233 84.6347 142.026 85.0515C141.82 85.4682 141.717 85.915 141.717 86.3918V87.1577C141.717 87.8109 141.829 88.3647 142.055 88.819C142.284 89.2695 142.601 89.613 143.006 89.8496C143.412 90.0823 143.883 90.1987 144.42 90.1987C144.769 90.1987 145.084 90.1499 145.366 90.0523C145.651 89.9509 145.897 89.8008 146.104 89.6018C146.31 89.399 146.47 89.1475 146.582 88.8471L147.866 89.2076C147.731 89.6431 147.504 90.026 147.185 90.3564C146.866 90.683 146.472 90.9383 146.002 91.1223C145.533 91.3025 145.006 91.3926 144.42 91.3926Z" fill="#14191F"/>
<path d="M179.039 91.2124L175.885 79.6789H177.304L179.715 89.0724H179.827L182.283 79.6789H183.86L186.315 89.0724H186.428L188.838 79.6789H190.257L187.103 91.2124H185.662L183.116 82.0217H183.026L180.481 91.2124H179.039ZM194.638 91.3926C193.805 91.3926 193.086 91.2086 192.482 90.8407C191.881 90.469 191.417 89.9509 191.091 89.2864C190.768 88.6181 190.606 87.841 190.606 86.9549C190.606 86.0689 190.768 85.288 191.091 84.6122C191.417 83.9327 191.871 83.4033 192.453 83.0241C193.039 82.6411 193.722 82.4497 194.503 82.4497C194.954 82.4497 195.399 82.5248 195.838 82.6749C196.277 82.8251 196.677 83.0691 197.038 83.407C197.398 83.7412 197.685 84.1842 197.899 84.7361C198.113 85.288 198.22 85.9675 198.22 86.7747V87.3379H191.552V86.189H196.869C196.869 85.701 196.771 85.2655 196.576 84.8825C196.384 84.4996 196.11 84.1973 195.754 83.9758C195.401 83.7543 194.984 83.6436 194.503 83.6436C193.974 83.6436 193.516 83.775 193.129 84.0378C192.746 84.2968 192.452 84.6347 192.245 85.0515C192.039 85.4682 191.935 85.915 191.935 86.3918V87.1577C191.935 87.8109 192.048 88.3647 192.273 88.819C192.502 89.2695 192.819 89.613 193.225 89.8496C193.63 90.0823 194.102 90.1987 194.638 90.1987C194.988 90.1987 195.303 90.1499 195.585 90.0523C195.87 89.9509 196.116 89.8008 196.322 89.6018C196.529 89.399 196.688 89.1475 196.801 88.8471L198.085 89.2076C197.95 89.6431 197.723 90.026 197.404 90.3564C197.084 90.683 196.69 90.9383 196.221 91.1223C195.752 91.3025 195.224 91.3926 194.638 91.3926ZM203.508 91.3926C202.787 91.3926 202.151 91.2105 201.599 90.8463C201.047 90.4784 200.615 89.9603 200.304 89.292C199.992 88.62 199.836 87.8259 199.836 86.9099C199.836 86.0013 199.992 85.2129 200.304 84.5446C200.615 83.8763 201.049 83.3601 201.605 82.9959C202.16 82.6318 202.802 82.4497 203.531 82.4497C204.094 82.4497 204.539 82.5435 204.865 82.7312C205.196 82.9152 205.447 83.1255 205.62 83.362C205.797 83.5948 205.934 83.7862 206.031 83.9364H206.144V79.6789H207.473V91.2124H206.189V89.8834H206.031C205.934 90.041 205.795 90.24 205.614 90.4803C205.434 90.7168 205.177 90.9289 204.843 91.1167C204.509 91.3006 204.064 91.3926 203.508 91.3926ZM203.688 90.1987C204.222 90.1987 204.672 90.0598 205.04 89.782C205.408 89.5004 205.688 89.1118 205.879 88.6162C206.071 88.1169 206.166 87.5406 206.166 86.8874C206.166 86.2416 206.072 85.6766 205.885 85.1922C205.697 84.7042 205.419 84.325 205.051 84.0547C204.683 83.7806 204.229 83.6436 203.688 83.6436C203.125 83.6436 202.656 83.7881 202.281 84.0772C201.909 84.3625 201.629 84.7511 201.441 85.2429C201.257 85.731 201.165 86.2791 201.165 86.8874C201.165 87.5031 201.259 88.0625 201.447 88.5656C201.639 89.0649 201.92 89.4629 202.292 89.7595C202.667 90.0523 203.133 90.1987 203.688 90.1987Z" fill="#14191F"/>
<path d="M230.497 80.9179V79.6789H239.147V80.9179H235.52V91.2124H234.123V80.9179H230.497ZM242.451 86.0088V91.2124H241.122V79.6789H242.451V83.9139H242.564C242.766 83.4671 243.071 83.1123 243.476 82.8495C243.885 82.5829 244.43 82.4497 245.109 82.4497C245.699 82.4497 246.215 82.5679 246.658 82.8045C247.101 83.0372 247.444 83.3958 247.688 83.8801C247.936 84.3606 248.06 84.9726 248.06 85.716V91.2124H246.731V85.8061C246.731 85.119 246.553 84.5878 246.196 84.2124C245.843 83.8332 245.353 83.6436 244.726 83.6436C244.291 83.6436 243.9 83.7355 243.555 83.9195C243.213 84.1035 242.943 84.3719 242.744 84.7248C242.549 85.0777 242.451 85.5057 242.451 86.0088ZM255.943 87.6758V82.5623H257.272V91.2124H255.943V89.7482H255.853C255.65 90.1875 255.335 90.561 254.907 90.8689C254.479 91.173 253.938 91.325 253.285 91.325C252.744 91.325 252.264 91.2068 251.843 90.9702C251.423 90.73 251.092 90.3695 250.852 89.889C250.612 89.4047 250.492 88.7946 250.492 88.0587V82.5623H251.821V87.9686C251.821 88.5994 251.997 89.1024 252.35 89.4779C252.707 89.8533 253.161 90.041 253.713 90.041C254.043 90.041 254.379 89.9566 254.721 89.7876C255.066 89.6187 255.355 89.3596 255.588 89.0105C255.825 88.6613 255.943 88.2164 255.943 87.6758Z" fill="#14191F"/>
<path d="M285.311 91.2124V79.6789H292.226V80.9179H286.707V84.8149H291.708V86.0539H286.707V91.2124H285.311ZM294.345 91.2124V82.5623H295.629V83.8688H295.719C295.877 83.4408 296.162 83.0935 296.575 82.827C296.988 82.5604 297.454 82.4271 297.972 82.4271C298.069 82.4271 298.191 82.429 298.338 82.4328C298.484 82.4365 298.595 82.4422 298.67 82.4497V83.8012C298.625 83.79 298.522 83.7731 298.36 83.7506C298.203 83.7243 298.036 83.7111 297.859 83.7111C297.439 83.7111 297.063 83.7994 296.733 83.9758C296.406 84.1485 296.147 84.3888 295.956 84.6967C295.768 85.0008 295.674 85.3481 295.674 85.7385V91.2124H294.345ZM300.246 91.2124V82.5623H301.575V91.2124H300.246ZM300.921 81.1206C300.662 81.1206 300.439 81.0324 300.251 80.8559C300.067 80.6795 299.975 80.4674 299.975 80.2196C299.975 79.9718 300.067 79.7597 300.251 79.5832C300.439 79.4067 300.662 79.3185 300.921 79.3185C301.18 79.3185 301.402 79.4067 301.586 79.5832C301.774 79.7597 301.867 79.9718 301.867 80.2196C301.867 80.4674 301.774 80.6795 301.586 80.8559C301.402 81.0324 301.18 81.1206 300.921 81.1206Z" fill="#14191F"/>
<path d="M345.801 82.5623C345.734 81.9916 345.46 81.5486 344.979 81.2332C344.498 80.9179 343.909 80.7602 343.211 80.7602C342.7 80.7602 342.253 80.8428 341.87 81.008C341.491 81.1732 341.195 81.4003 340.981 81.6894C340.77 81.9785 340.665 82.307 340.665 82.6749C340.665 82.9828 340.738 83.2475 340.885 83.469C341.035 83.6867 341.227 83.8688 341.459 84.0152C341.692 84.1579 341.936 84.2762 342.191 84.37C342.447 84.4601 342.681 84.5334 342.895 84.5897L344.067 84.905C344.367 84.9839 344.701 85.0928 345.069 85.2317C345.441 85.3706 345.796 85.5602 346.134 85.8005C346.475 86.037 346.757 86.3411 346.978 86.7128C347.2 87.0845 347.311 87.5406 347.311 88.0812C347.311 88.7045 347.147 89.2676 346.821 89.7707C346.498 90.2738 346.025 90.6736 345.401 90.9702C344.782 91.2668 344.029 91.4151 343.143 91.4151C342.317 91.4151 341.602 91.2819 340.998 91.0153C340.397 90.7487 339.924 90.3771 339.578 89.9002C339.237 89.4234 339.043 88.8697 338.998 88.2389H340.44C340.478 88.6744 340.624 89.0349 340.879 89.3202C341.138 89.6018 341.465 89.812 341.859 89.9509C342.257 90.0861 342.685 90.1537 343.143 90.1537C343.676 90.1537 344.155 90.0673 344.579 89.8946C345.003 89.7182 345.339 89.4741 345.587 89.1625C345.835 88.8471 345.959 88.4792 345.959 88.0587C345.959 87.6758 345.852 87.3642 345.638 87.1239C345.424 86.8836 345.142 86.6884 344.793 86.5382C344.444 86.388 344.067 86.2566 343.661 86.144L342.242 85.7385C341.341 85.4795 340.628 85.1096 340.102 84.6291C339.576 84.1485 339.314 83.5197 339.314 82.7425C339.314 82.0968 339.488 81.5336 339.837 81.053C340.19 80.5687 340.663 80.1933 341.257 79.9267C341.854 79.6564 342.52 79.5212 343.256 79.5212C343.999 79.5212 344.66 79.6545 345.238 79.9211C345.816 80.1839 346.274 80.5443 346.612 81.0024C346.954 81.4604 347.134 81.9804 347.153 82.5623H345.801ZM351.972 91.4151C351.424 91.4151 350.926 91.3119 350.48 91.1054C350.033 90.8952 349.678 90.5929 349.415 90.1987C349.153 89.8008 349.021 89.3202 349.021 88.757C349.021 88.2615 349.119 87.8597 349.314 87.5519C349.509 87.2403 349.77 86.9962 350.097 86.8198C350.423 86.6433 350.784 86.5119 351.178 86.4256C351.576 86.3355 351.976 86.2641 352.378 86.2116C352.903 86.144 353.329 86.0933 353.656 86.0595C353.986 86.022 354.227 85.96 354.377 85.8737C354.531 85.7873 354.608 85.6371 354.608 85.4231V85.3781C354.608 84.8224 354.456 84.3907 354.151 84.0828C353.851 83.775 353.395 83.621 352.783 83.621C352.149 83.621 351.651 83.7599 351.291 84.0378C350.93 84.3156 350.677 84.6122 350.53 84.9276L349.269 84.477C349.494 83.9514 349.795 83.5422 350.17 83.2494C350.549 82.9528 350.962 82.7463 351.409 82.6299C351.859 82.5097 352.302 82.4497 352.738 82.4497C353.016 82.4497 353.335 82.4835 353.695 82.551C354.059 82.6149 354.411 82.7481 354.748 82.9509C355.09 83.1536 355.374 83.4596 355.599 83.8688C355.824 84.2781 355.937 84.8262 355.937 85.5132V91.2124H354.608V90.041H354.54C354.45 90.2288 354.3 90.4296 354.09 90.6436C353.879 90.8576 353.6 91.0397 353.25 91.1899C352.901 91.3401 352.475 91.4151 351.972 91.4151ZM352.175 90.2212C352.7 90.2212 353.143 90.118 353.504 89.9115C353.868 89.705 354.142 89.4385 354.326 89.1118C354.514 88.7852 354.608 88.4417 354.608 88.0812V86.8648C354.551 86.9324 354.427 86.9944 354.236 87.0507C354.048 87.1032 353.83 87.1502 353.583 87.1915C353.339 87.229 353.1 87.2628 352.867 87.2928C352.638 87.3191 352.453 87.3416 352.31 87.3604C351.965 87.4055 351.642 87.4787 351.341 87.58C351.045 87.6776 350.804 87.8259 350.62 88.0249C350.44 88.2202 350.35 88.4867 350.35 88.8246C350.35 89.2864 350.521 89.6356 350.863 89.8721C351.208 90.1049 351.645 90.2212 352.175 90.2212ZM362.124 82.5623V83.6886H357.642V82.5623H362.124ZM358.948 80.4899H360.277V88.7345C360.277 89.1099 360.332 89.3915 360.441 89.5792C360.553 89.7632 360.696 89.8871 360.869 89.9509C361.045 90.011 361.231 90.041 361.426 90.041C361.572 90.041 361.693 90.0335 361.786 90.0185C361.88 89.9997 361.955 89.9847 362.012 89.9735L362.282 91.1673C362.192 91.2011 362.066 91.2349 361.905 91.2687C361.743 91.3063 361.539 91.325 361.291 91.325C360.915 91.325 360.548 91.2443 360.187 91.0829C359.83 90.9214 359.534 90.6755 359.297 90.3451C359.065 90.0148 358.948 89.598 358.948 89.0949V80.4899Z" fill="#14191F"/>
<path d="M399.985 82.5623C399.917 81.9916 399.643 81.5486 399.162 81.2332C398.682 80.9179 398.092 80.7602 397.394 80.7602C396.883 80.7602 396.437 80.8428 396.054 81.008C395.674 81.1732 395.378 81.4003 395.164 81.6894C394.954 81.9785 394.849 82.307 394.849 82.6749C394.849 82.9828 394.922 83.2475 395.068 83.469C395.218 83.6867 395.41 83.8688 395.643 84.0152C395.875 84.1579 396.119 84.2762 396.375 84.37C396.63 84.4601 396.865 84.5334 397.079 84.5897L398.25 84.905C398.55 84.9839 398.884 85.0928 399.252 85.2317C399.624 85.3706 399.979 85.5602 400.317 85.8005C400.658 86.037 400.94 86.3411 401.162 86.7128C401.383 87.0845 401.494 87.5406 401.494 88.0812C401.494 88.7045 401.33 89.2676 401.004 89.7707C400.681 90.2738 400.208 90.6736 399.585 90.9702C398.965 91.2668 398.212 91.4151 397.326 91.4151C396.5 91.4151 395.785 91.2819 395.181 91.0153C394.58 90.7487 394.107 90.3771 393.762 89.9002C393.42 89.4234 393.227 88.8697 393.182 88.2389H394.623C394.661 88.6744 394.807 89.0349 395.063 89.3202C395.322 89.6018 395.648 89.812 396.042 89.9509C396.44 90.0861 396.868 90.1537 397.326 90.1537C397.86 90.1537 398.338 90.0673 398.762 89.8946C399.187 89.7182 399.523 89.4741 399.771 89.1625C400.018 88.8471 400.142 88.4792 400.142 88.0587C400.142 87.6758 400.035 87.3642 399.821 87.1239C399.607 86.8836 399.326 86.6884 398.976 86.5382C398.627 86.388 398.25 86.2566 397.845 86.144L396.425 85.7385C395.524 85.4795 394.811 85.1096 394.285 84.6291C393.76 84.1485 393.497 83.5197 393.497 82.7425C393.497 82.0968 393.672 81.5336 394.021 81.053C394.374 80.5687 394.847 80.1933 395.44 79.9267C396.037 79.6564 396.703 79.5212 397.439 79.5212C398.182 79.5212 398.843 79.6545 399.421 79.9211C400 80.1839 400.458 80.5443 400.795 81.0024C401.137 81.4604 401.317 81.9804 401.336 82.5623H399.985ZM409.061 87.6758V82.5623H410.39V91.2124H409.061V89.7482H408.971C408.768 90.1875 408.453 90.561 408.025 90.8689C407.597 91.173 407.056 91.325 406.403 91.325C405.862 91.325 405.382 91.2068 404.961 90.9702C404.541 90.73 404.211 90.3695 403.97 89.889C403.73 89.4047 403.61 88.7946 403.61 88.0587V82.5623H404.939V87.9686C404.939 88.5994 405.115 89.1024 405.468 89.4779C405.825 89.8533 406.279 90.041 406.831 90.041C407.161 90.041 407.498 89.9566 407.839 89.7876C408.185 89.6187 408.474 89.3596 408.706 89.0105C408.943 88.6613 409.061 88.2164 409.061 87.6758ZM414.154 86.0088V91.2124H412.825V82.5623H414.109V83.9139H414.221C414.424 83.4746 414.732 83.1217 415.145 82.8551C415.558 82.5848 416.091 82.4497 416.744 82.4497C417.33 82.4497 417.842 82.5698 418.282 82.8101C418.721 83.0466 419.062 83.407 419.306 83.8914C419.55 84.3719 419.673 84.9801 419.673 85.716V91.2124H418.343V85.8061C418.343 85.1265 418.167 84.5972 417.814 84.218C417.461 83.835 416.977 83.6436 416.361 83.6436C415.937 83.6436 415.558 83.7355 415.224 83.9195C414.893 84.1035 414.632 84.3719 414.441 84.7248C414.249 85.0777 414.154 85.5057 414.154 86.0088Z" fill="#00535C"/>
<path d="M84.5086 139.32V121.138H85.6733V139.32H84.5086ZM88.429 126.592C88.3438 125.873 87.9981 125.314 87.3921 124.916C86.786 124.519 86.0426 124.32 85.162 124.32C84.518 124.32 83.9546 124.424 83.4716 124.632C82.9934 124.84 82.6193 125.127 82.3495 125.492C82.0843 125.856 81.9517 126.27 81.9517 126.734C81.9517 127.123 82.0441 127.456 82.2287 127.736C82.4181 128.01 82.6596 128.24 82.9532 128.425C83.2467 128.605 83.5545 128.754 83.8764 128.872C84.1984 128.986 84.4943 129.078 84.7642 129.149L86.2415 129.547C86.6203 129.646 87.0417 129.784 87.5057 129.959C87.9745 130.134 88.4219 130.373 88.848 130.676C89.2789 130.974 89.634 131.358 89.9134 131.827C90.1927 132.295 90.3324 132.871 90.3324 133.553C90.3324 134.339 90.1264 135.049 89.7145 135.683C89.3073 136.318 88.7107 136.822 87.9247 137.196C87.1435 137.57 86.1942 137.757 85.0767 137.757C84.0351 137.757 83.1331 137.589 82.3708 137.253C81.6132 136.917 81.0166 136.448 80.581 135.847C80.1501 135.245 79.9063 134.547 79.8495 133.751H81.6676C81.715 134.301 81.8996 134.755 82.2216 135.115C82.5483 135.47 82.9603 135.735 83.4574 135.911C83.9593 136.081 84.4991 136.166 85.0767 136.166C85.7491 136.166 86.3528 136.057 86.8878 135.84C87.4229 135.617 87.8466 135.309 88.1591 134.916C88.4716 134.519 88.6279 134.054 88.6279 133.524C88.6279 133.041 88.4929 132.648 88.223 132.345C87.9532 132.042 87.598 131.796 87.1577 131.607C86.7174 131.417 86.2415 131.251 85.7301 131.109L83.9404 130.598C82.804 130.271 81.9044 129.805 81.2415 129.199C80.5786 128.593 80.2472 127.8 80.2472 126.82C80.2472 126.005 80.4674 125.295 80.9077 124.689C81.3528 124.078 81.9494 123.605 82.6975 123.269C83.4503 122.928 84.2907 122.757 85.2188 122.757C86.1563 122.757 86.9896 122.925 87.7188 123.261C88.4479 123.593 89.0256 124.047 89.4517 124.625C89.8826 125.203 90.1099 125.858 90.1336 126.592H88.429Z" fill="#00535C"/>
<path d="M137.049 139.32V121.138H138.214V139.32H137.049ZM140.969 126.592C140.884 125.873 140.538 125.314 139.932 124.916C139.326 124.519 138.583 124.32 137.702 124.32C137.058 124.32 136.495 124.424 136.012 124.632C135.534 124.84 135.16 125.127 134.89 125.492C134.625 125.856 134.492 126.27 134.492 126.734C134.492 127.123 134.584 127.456 134.769 127.736C134.958 128.01 135.2 128.24 135.493 128.425C135.787 128.605 136.095 128.754 136.417 128.872C136.739 128.986 137.035 129.078 137.304 129.149L138.782 129.547C139.16 129.646 139.582 129.784 140.046 129.959C140.515 130.134 140.962 130.373 141.388 130.676C141.819 130.974 142.174 131.358 142.454 131.827C142.733 132.295 142.873 132.871 142.873 133.553C142.873 134.339 142.667 135.049 142.255 135.683C141.848 136.318 141.251 136.822 140.465 137.196C139.684 137.57 138.734 137.757 137.617 137.757C136.575 137.757 135.673 137.589 134.911 137.253C134.153 136.917 133.557 136.448 133.121 135.847C132.69 135.245 132.446 134.547 132.39 133.751H134.208C134.255 134.301 134.44 134.755 134.762 135.115C135.089 135.47 135.5 135.735 135.998 135.911C136.5 136.081 137.039 136.166 137.617 136.166C138.289 136.166 138.893 136.057 139.428 135.84C139.963 135.617 140.387 135.309 140.699 134.916C141.012 134.519 141.168 134.054 141.168 133.524C141.168 133.041 141.033 132.648 140.763 132.345C140.493 132.042 140.138 131.796 139.698 131.607C139.258 131.417 138.782 131.251 138.27 131.109L136.481 130.598C135.344 130.271 134.445 129.805 133.782 129.199C133.119 128.593 132.787 127.8 132.787 126.82C132.787 126.005 133.008 125.295 133.448 124.689C133.893 124.078 134.49 123.605 135.238 123.269C135.991 122.928 136.831 122.757 137.759 122.757C138.696 122.757 139.53 122.925 140.259 123.261C140.988 123.593 141.566 124.047 141.992 124.625C142.423 125.203 142.65 125.858 142.674 126.592H140.969Z" fill="#00535C"/>
<path d="M189.589 139.32V121.138H190.754V139.32H189.589ZM193.509 126.592C193.424 125.873 193.079 125.314 192.472 124.916C191.866 124.519 191.123 124.32 190.242 124.32C189.598 124.32 189.035 124.424 188.552 124.632C188.074 124.84 187.7 125.127 187.43 125.492C187.165 125.856 187.032 126.27 187.032 126.734C187.032 127.123 187.124 127.456 187.309 127.736C187.499 128.01 187.74 128.24 188.034 128.425C188.327 128.605 188.635 128.754 188.957 128.872C189.279 128.986 189.575 129.078 189.845 129.149L191.322 129.547C191.701 129.646 192.122 129.784 192.586 129.959C193.055 130.134 193.502 130.373 193.928 130.676C194.359 130.974 194.714 131.358 194.994 131.827C195.273 132.295 195.413 132.871 195.413 133.553C195.413 134.339 195.207 135.049 194.795 135.683C194.388 136.318 193.791 136.822 193.005 137.196C192.224 137.57 191.275 137.757 190.157 137.757C189.115 137.757 188.213 137.589 187.451 137.253C186.694 136.917 186.097 136.448 185.661 135.847C185.231 135.245 184.987 134.547 184.93 133.751H186.748C186.795 134.301 186.98 134.755 187.302 135.115C187.629 135.47 188.041 135.735 188.538 135.911C189.04 136.081 189.579 136.166 190.157 136.166C190.829 136.166 191.433 136.057 191.968 135.84C192.503 135.617 192.927 135.309 193.24 134.916C193.552 134.519 193.708 134.054 193.708 133.524C193.708 133.041 193.573 132.648 193.303 132.345C193.034 132.042 192.678 131.796 192.238 131.607C191.798 131.417 191.322 131.251 190.811 131.109L189.021 130.598C187.884 130.271 186.985 129.805 186.322 129.199C185.659 128.593 185.328 127.8 185.328 126.82C185.328 126.005 185.548 125.295 185.988 124.689C186.433 124.078 187.03 123.605 187.778 123.269C188.531 122.928 189.371 122.757 190.299 122.757C191.237 122.757 192.07 122.925 192.799 123.261C193.528 123.593 194.106 124.047 194.532 124.625C194.963 125.203 195.19 125.858 195.214 126.592H193.509Z" fill="#00535C"/>
<path d="M242.129 139.32V121.138H243.294V139.32H242.129ZM246.05 126.592C245.964 125.873 245.619 125.314 245.013 124.916C244.407 124.519 243.663 124.32 242.783 124.32C242.139 124.32 241.575 124.424 241.092 124.632C240.614 124.84 240.24 125.127 239.97 125.492C239.705 125.856 239.572 126.27 239.572 126.734C239.572 127.123 239.665 127.456 239.849 127.736C240.039 128.01 240.28 128.24 240.574 128.425C240.867 128.605 241.175 128.754 241.497 128.872C241.819 128.986 242.115 129.078 242.385 129.149L243.862 129.547C244.241 129.646 244.662 129.784 245.126 129.959C245.595 130.134 246.043 130.373 246.469 130.676C246.9 130.974 247.255 131.358 247.534 131.827C247.813 132.295 247.953 132.871 247.953 133.553C247.953 134.339 247.747 135.049 247.335 135.683C246.928 136.318 246.331 136.822 245.545 137.196C244.764 137.57 243.815 137.757 242.697 137.757C241.656 137.757 240.754 137.589 239.991 137.253C239.234 136.917 238.637 136.448 238.202 135.847C237.771 135.245 237.527 134.547 237.47 133.751H239.288C239.336 134.301 239.52 134.755 239.842 135.115C240.169 135.47 240.581 135.735 241.078 135.911C241.58 136.081 242.12 136.166 242.697 136.166C243.37 136.166 243.973 136.057 244.508 135.84C245.043 135.617 245.467 135.309 245.78 134.916C246.092 134.519 246.248 134.054 246.248 133.524C246.248 133.041 246.114 132.648 245.844 132.345C245.574 132.042 245.219 131.796 244.778 131.607C244.338 131.417 243.862 131.251 243.351 131.109L241.561 130.598C240.425 130.271 239.525 129.805 238.862 129.199C238.199 128.593 237.868 127.8 237.868 126.82C237.868 126.005 238.088 125.295 238.528 124.689C238.973 124.078 239.57 123.605 240.318 123.269C241.071 122.928 241.911 122.757 242.839 122.757C243.777 122.757 244.61 122.925 245.339 123.261C246.069 123.593 246.646 124.047 247.072 124.625C247.503 125.203 247.73 125.858 247.754 126.592H246.05Z" fill="#00535C"/>
<path d="M294.669 139.32V121.138H295.834V139.32H294.669ZM298.59 126.592C298.505 125.873 298.159 125.314 297.553 124.916C296.947 124.519 296.203 124.32 295.323 124.32C294.679 124.32 294.115 124.424 293.632 124.632C293.154 124.84 292.78 125.127 292.51 125.492C292.245 125.856 292.113 126.27 292.113 126.734C292.113 127.123 292.205 127.456 292.39 127.736C292.579 128.01 292.82 128.24 293.114 128.425C293.408 128.605 293.715 128.754 294.037 128.872C294.359 128.986 294.655 129.078 294.925 129.149L296.402 129.547C296.781 129.646 297.202 129.784 297.666 129.959C298.135 130.134 298.583 130.373 299.009 130.676C299.44 130.974 299.795 131.358 300.074 131.827C300.354 132.295 300.493 132.871 300.493 133.553C300.493 134.339 300.287 135.049 299.875 135.683C299.468 136.318 298.872 136.822 298.086 137.196C297.304 137.57 296.355 137.757 295.238 137.757C294.196 137.757 293.294 137.589 292.532 137.253C291.774 136.917 291.177 136.448 290.742 135.847C290.311 135.245 290.067 134.547 290.01 133.751H291.828C291.876 134.301 292.06 134.755 292.382 135.115C292.709 135.47 293.121 135.735 293.618 135.911C294.12 136.081 294.66 136.166 295.238 136.166C295.91 136.166 296.514 136.057 297.049 135.84C297.584 135.617 298.007 135.309 298.32 134.916C298.632 134.519 298.789 134.054 298.789 133.524C298.789 133.041 298.654 132.648 298.384 132.345C298.114 132.042 297.759 131.796 297.318 131.607C296.878 131.417 296.402 131.251 295.891 131.109L294.101 130.598C292.965 130.271 292.065 129.805 291.402 129.199C290.739 128.593 290.408 127.8 290.408 126.82C290.408 126.005 290.628 125.295 291.068 124.689C291.514 124.078 292.11 123.605 292.858 123.269C293.611 122.928 294.452 122.757 295.38 122.757C296.317 122.757 297.15 122.925 297.88 123.261C298.609 123.593 299.186 124.047 299.613 124.625C300.043 125.203 300.271 125.858 300.294 126.592H298.59Z" fill="#00535C"/>
<path d="M347.21 139.32V121.138H348.374V139.32H347.21ZM351.13 126.592C351.045 125.873 350.699 125.314 350.093 124.916C349.487 124.519 348.744 124.32 347.863 124.32C347.219 124.32 346.656 124.424 346.173 124.632C345.694 124.84 345.32 125.127 345.05 125.492C344.785 125.856 344.653 126.27 344.653 126.734C344.653 127.123 344.745 127.456 344.93 127.736C345.119 128.01 345.361 128.24 345.654 128.425C345.948 128.605 346.255 128.754 346.577 128.872C346.899 128.986 347.195 129.078 347.465 129.149L348.942 129.547C349.321 129.646 349.743 129.784 350.207 129.959C350.675 130.134 351.123 130.373 351.549 130.676C351.98 130.974 352.335 131.358 352.614 131.827C352.894 132.295 353.033 132.871 353.033 133.553C353.033 134.339 352.827 135.049 352.415 135.683C352.008 136.318 351.412 136.822 350.626 137.196C349.844 137.57 348.895 137.757 347.778 137.757C346.736 137.757 345.834 137.589 345.072 137.253C344.314 136.917 343.718 136.448 343.282 135.847C342.851 135.245 342.607 134.547 342.55 133.751H344.369C344.416 134.301 344.601 134.755 344.923 135.115C345.249 135.47 345.661 135.735 346.158 135.911C346.66 136.081 347.2 136.166 347.778 136.166C348.45 136.166 349.054 136.057 349.589 135.84C350.124 135.617 350.548 135.309 350.86 134.916C351.173 134.519 351.329 134.054 351.329 133.524C351.329 133.041 351.194 132.648 350.924 132.345C350.654 132.042 350.299 131.796 349.859 131.607C349.418 131.417 348.942 131.251 348.431 131.109L346.641 130.598C345.505 130.271 344.605 129.805 343.942 129.199C343.28 128.593 342.948 127.8 342.948 126.82C342.948 126.005 343.168 125.295 343.609 124.689C344.054 124.078 344.65 123.605 345.398 123.269C346.151 122.928 346.992 122.757 347.92 122.757C348.857 122.757 349.691 122.925 350.42 123.261C351.149 123.593 351.727 124.047 352.153 124.625C352.584 125.203 352.811 125.858 352.835 126.592H351.13Z" fill="#00535C"/>
<path d="M399.75 139.32V121.138H400.914V139.32H399.75ZM403.67 126.592C403.585 125.873 403.239 125.314 402.633 124.916C402.027 124.519 401.284 124.32 400.403 124.32C399.759 124.32 399.196 124.424 398.713 124.632C398.235 124.84 397.861 125.127 397.591 125.492C397.325 125.856 397.193 126.27 397.193 126.734C397.193 127.123 397.285 127.456 397.47 127.736C397.659 128.01 397.901 128.24 398.194 128.425C398.488 128.605 398.796 128.754 399.118 128.872C399.44 128.986 399.736 129.078 400.005 129.149L401.483 129.547C401.861 129.646 402.283 129.784 402.747 129.959C403.216 130.134 403.663 130.373 404.089 130.676C404.52 130.974 404.875 131.358 405.155 131.827C405.434 132.295 405.574 132.871 405.574 133.553C405.574 134.339 405.368 135.049 404.956 135.683C404.548 136.318 403.952 136.822 403.166 137.196C402.385 137.57 401.435 137.757 400.318 137.757C399.276 137.757 398.374 137.589 397.612 137.253C396.854 136.917 396.258 136.448 395.822 135.847C395.391 135.245 395.147 134.547 395.091 133.751H396.909C396.956 134.301 397.141 134.755 397.463 135.115C397.789 135.47 398.201 135.735 398.699 135.911C399.2 136.081 399.74 136.166 400.318 136.166C400.99 136.166 401.594 136.057 402.129 135.84C402.664 135.617 403.088 135.309 403.4 134.916C403.713 134.519 403.869 134.054 403.869 133.524C403.869 133.041 403.734 132.648 403.464 132.345C403.194 132.042 402.839 131.796 402.399 131.607C401.959 131.417 401.483 131.251 400.971 131.109L399.182 130.598C398.045 130.271 397.146 129.805 396.483 129.199C395.82 128.593 395.488 127.8 395.488 126.82C395.488 126.005 395.709 125.295 396.149 124.689C396.594 124.078 397.191 123.605 397.939 123.269C398.691 122.928 399.532 122.757 400.46 122.757C401.397 122.757 402.231 122.925 402.96 123.261C403.689 123.593 404.267 124.047 404.693 124.625C405.124 125.203 405.351 125.858 405.375 126.592H403.67Z" fill="#00535C"/>
<path d="M84.5086 189.751V171.569H85.6733V189.751H84.5086ZM88.429 177.023C88.3438 176.304 87.9981 175.745 87.3921 175.347C86.786 174.949 86.0426 174.751 85.162 174.751C84.518 174.751 83.9546 174.855 83.4716 175.063C82.9934 175.271 82.6193 175.558 82.3495 175.922C82.0843 176.287 81.9517 176.701 81.9517 177.165C81.9517 177.554 82.0441 177.887 82.2287 178.167C82.4181 178.441 82.6596 178.671 82.9532 178.856C83.2467 179.036 83.5545 179.185 83.8764 179.303C84.1984 179.417 84.4943 179.509 84.7642 179.58L86.2415 179.978C86.6203 180.077 87.0417 180.215 87.5057 180.39C87.9745 180.565 88.4219 180.804 88.848 181.107C89.2789 181.405 89.634 181.789 89.9134 182.258C90.1927 182.726 90.3324 183.302 90.3324 183.984C90.3324 184.769 90.1264 185.48 89.7145 186.114C89.3073 186.749 88.7107 187.253 87.9247 187.627C87.1435 188.001 86.1942 188.188 85.0767 188.188C84.0351 188.188 83.1331 188.02 82.3708 187.684C81.6132 187.348 81.0166 186.879 80.581 186.278C80.1501 185.676 79.9063 184.978 79.8495 184.182H81.6676C81.715 184.732 81.8996 185.186 82.2216 185.546C82.5483 185.901 82.9603 186.166 83.4574 186.341C83.9593 186.512 84.4991 186.597 85.0767 186.597C85.7491 186.597 86.3528 186.488 86.8878 186.27C87.4229 186.048 87.8466 185.74 88.1591 185.347C88.4716 184.949 88.6279 184.485 88.6279 183.955C88.6279 183.472 88.4929 183.079 88.223 182.776C87.9532 182.473 87.598 182.227 87.1577 182.037C86.7174 181.848 86.2415 181.682 85.7301 181.54L83.9404 181.029C82.804 180.702 81.9044 180.236 81.2415 179.63C80.5786 179.024 80.2472 178.231 80.2472 177.251C80.2472 176.436 80.4674 175.726 80.9077 175.12C81.3528 174.509 81.9494 174.036 82.6975 173.699C83.4503 173.359 84.2907 173.188 85.2188 173.188C86.1563 173.188 86.9896 173.356 87.7188 173.692C88.4479 174.024 89.0256 174.478 89.4517 175.056C89.8826 175.634 90.1099 176.289 90.1336 177.023H88.429Z" fill="#00535C"/>
<path d="M137.049 189.751V171.569H138.214V189.751H137.049ZM140.969 177.023C140.884 176.304 140.538 175.745 139.932 175.347C139.326 174.949 138.583 174.751 137.702 174.751C137.058 174.751 136.495 174.855 136.012 175.063C135.534 175.271 135.16 175.558 134.89 175.922C134.625 176.287 134.492 176.701 134.492 177.165C134.492 177.554 134.584 177.887 134.769 178.167C134.958 178.441 135.2 178.671 135.493 178.856C135.787 179.036 136.095 179.185 136.417 179.303C136.739 179.417 137.035 179.509 137.304 179.58L138.782 179.978C139.16 180.077 139.582 180.215 140.046 180.39C140.515 180.565 140.962 180.804 141.388 181.107C141.819 181.405 142.174 181.789 142.454 182.258C142.733 182.726 142.873 183.302 142.873 183.984C142.873 184.769 142.667 185.48 142.255 186.114C141.848 186.749 141.251 187.253 140.465 187.627C139.684 188.001 138.734 188.188 137.617 188.188C136.575 188.188 135.673 188.02 134.911 187.684C134.153 187.348 133.557 186.879 133.121 186.278C132.69 185.676 132.446 184.978 132.39 184.182H134.208C134.255 184.732 134.44 185.186 134.762 185.546C135.089 185.901 135.5 186.166 135.998 186.341C136.5 186.512 137.039 186.597 137.617 186.597C138.289 186.597 138.893 186.488 139.428 186.27C139.963 186.048 140.387 185.74 140.699 185.347C141.012 184.949 141.168 184.485 141.168 183.955C141.168 183.472 141.033 183.079 140.763 182.776C140.493 182.473 140.138 182.227 139.698 182.037C139.258 181.848 138.782 181.682 138.27 181.54L136.481 181.029C135.344 180.702 134.445 180.236 133.782 179.63C133.119 179.024 132.787 178.231 132.787 177.251C132.787 176.436 133.008 175.726 133.448 175.12C133.893 174.509 134.49 174.036 135.238 173.699C135.991 173.359 136.831 173.188 137.759 173.188C138.696 173.188 139.53 173.356 140.259 173.692C140.988 174.024 141.566 174.478 141.992 175.056C142.423 175.634 142.65 176.289 142.674 177.023H140.969Z" fill="#00535C"/>
<path d="M189.589 189.751V171.569H190.754V189.751H189.589ZM193.509 177.023C193.424 176.304 193.079 175.745 192.472 175.347C191.866 174.949 191.123 174.751 190.242 174.751C189.598 174.751 189.035 174.855 188.552 175.063C188.074 175.271 187.7 175.558 187.43 175.922C187.165 176.287 187.032 176.701 187.032 177.165C187.032 177.554 187.124 177.887 187.309 178.167C187.499 178.441 187.74 178.671 188.034 178.856C188.327 179.036 188.635 179.185 188.957 179.303C189.279 179.417 189.575 179.509 189.845 179.58L191.322 179.978C191.701 180.077 192.122 180.215 192.586 180.39C193.055 180.565 193.502 180.804 193.928 181.107C194.359 181.405 194.714 181.789 194.994 182.258C195.273 182.726 195.413 183.302 195.413 183.984C195.413 184.769 195.207 185.48 194.795 186.114C194.388 186.749 193.791 187.253 193.005 187.627C192.224 188.001 191.275 188.188 190.157 188.188C189.115 188.188 188.213 188.02 187.451 187.684C186.694 187.348 186.097 186.879 185.661 186.278C185.231 185.676 184.987 184.978 184.93 184.182H186.748C186.795 184.732 186.98 185.186 187.302 185.546C187.629 185.901 188.041 186.166 188.538 186.341C189.04 186.512 189.579 186.597 190.157 186.597C190.829 186.597 191.433 186.488 191.968 186.27C192.503 186.048 192.927 185.74 193.24 185.347C193.552 184.949 193.708 184.485 193.708 183.955C193.708 183.472 193.573 183.079 193.303 182.776C193.034 182.473 192.678 182.227 192.238 182.037C191.798 181.848 191.322 181.682 190.811 181.54L189.021 181.029C187.884 180.702 186.985 180.236 186.322 179.63C185.659 179.024 185.328 178.231 185.328 177.251C185.328 176.436 185.548 175.726 185.988 175.12C186.433 174.509 187.03 174.036 187.778 173.699C188.531 173.359 189.371 173.188 190.299 173.188C191.237 173.188 192.07 173.356 192.799 173.692C193.528 174.024 194.106 174.478 194.532 175.056C194.963 175.634 195.19 176.289 195.214 177.023H193.509Z" fill="#00535C"/>
<path d="M242.129 189.751V171.569H243.294V189.751H242.129ZM246.05 177.023C245.964 176.304 245.619 175.745 245.013 175.347C244.407 174.949 243.663 174.751 242.783 174.751C242.139 174.751 241.575 174.855 241.092 175.063C240.614 175.271 240.24 175.558 239.97 175.922C239.705 176.287 239.572 176.701 239.572 177.165C239.572 177.554 239.665 177.887 239.849 178.167C240.039 178.441 240.28 178.671 240.574 178.856C240.867 179.036 241.175 179.185 241.497 179.303C241.819 179.417 242.115 179.509 242.385 179.58L243.862 179.978C244.241 180.077 244.662 180.215 245.126 180.39C245.595 180.565 246.043 180.804 246.469 181.107C246.9 181.405 247.255 181.789 247.534 182.258C247.813 182.726 247.953 183.302 247.953 183.984C247.953 184.769 247.747 185.48 247.335 186.114C246.928 186.749 246.331 187.253 245.545 187.627C244.764 188.001 243.815 188.188 242.697 188.188C241.656 188.188 240.754 188.02 239.991 187.684C239.234 187.348 238.637 186.879 238.202 186.278C237.771 185.676 237.527 184.978 237.47 184.182H239.288C239.336 184.732 239.52 185.186 239.842 185.546C240.169 185.901 240.581 186.166 241.078 186.341C241.58 186.512 242.12 186.597 242.697 186.597C243.37 186.597 243.973 186.488 244.508 186.27C245.043 186.048 245.467 185.74 245.78 185.347C246.092 184.949 246.248 184.485 246.248 183.955C246.248 183.472 246.114 183.079 245.844 182.776C245.574 182.473 245.219 182.227 244.778 182.037C244.338 181.848 243.862 181.682 243.351 181.54L241.561 181.029C240.425 180.702 239.525 180.236 238.862 179.63C238.199 179.024 237.868 178.231 237.868 177.251C237.868 176.436 238.088 175.726 238.528 175.12C238.973 174.509 239.57 174.036 240.318 173.699C241.071 173.359 241.911 173.188 242.839 173.188C243.777 173.188 244.61 173.356 245.339 173.692C246.069 174.024 246.646 174.478 247.072 175.056C247.503 175.634 247.73 176.289 247.754 177.023H246.05Z" fill="#00535C"/>
<path d="M294.669 189.751V171.569H295.834V189.751H294.669ZM298.59 177.023C298.505 176.304 298.159 175.745 297.553 175.347C296.947 174.949 296.203 174.751 295.323 174.751C294.679 174.751 294.115 174.855 293.632 175.063C293.154 175.271 292.78 175.558 292.51 175.922C292.245 176.287 292.113 176.701 292.113 177.165C292.113 177.554 292.205 177.887 292.39 178.167C292.579 178.441 292.82 178.671 293.114 178.856C293.408 179.036 293.715 179.185 294.037 179.303C294.359 179.417 294.655 179.509 294.925 179.58L296.402 179.978C296.781 180.077 297.202 180.215 297.666 180.39C298.135 180.565 298.583 180.804 299.009 181.107C299.44 181.405 299.795 181.789 300.074 182.258C300.354 182.726 300.493 183.302 300.493 183.984C300.493 184.769 300.287 185.48 299.875 186.114C299.468 186.749 298.872 187.253 298.086 187.627C297.304 188.001 296.355 188.188 295.238 188.188C294.196 188.188 293.294 188.02 292.532 187.684C291.774 187.348 291.177 186.879 290.742 186.278C290.311 185.676 290.067 184.978 290.01 184.182H291.828C291.876 184.732 292.06 185.186 292.382 185.546C292.709 185.901 293.121 186.166 293.618 186.341C294.12 186.512 294.66 186.597 295.238 186.597C295.91 186.597 296.514 186.488 297.049 186.27C297.584 186.048 298.007 185.74 298.32 185.347C298.632 184.949 298.789 184.485 298.789 183.955C298.789 183.472 298.654 183.079 298.384 182.776C298.114 182.473 297.759 182.227 297.318 182.037C296.878 181.848 296.402 181.682 295.891 181.54L294.101 181.029C292.965 180.702 292.065 180.236 291.402 179.63C290.739 179.024 290.408 178.231 290.408 177.251C290.408 176.436 290.628 175.726 291.068 175.12C291.514 174.509 292.11 174.036 292.858 173.699C293.611 173.359 294.452 173.188 295.38 173.188C296.317 173.188 297.15 173.356 297.88 173.692C298.609 174.024 299.186 174.478 299.613 175.056C300.043 175.634 300.271 176.289 300.294 177.023H298.59Z" fill="#00535C"/>
<path d="M347.21 189.751V171.569H348.374V189.751H347.21ZM351.13 177.023C351.045 176.304 350.699 175.745 350.093 175.347C349.487 174.949 348.744 174.751 347.863 174.751C347.219 174.751 346.656 174.855 346.173 175.063C345.694 175.271 345.32 175.558 345.05 175.922C344.785 176.287 344.653 176.701 344.653 177.165C344.653 177.554 344.745 177.887 344.93 178.167C345.119 178.441 345.361 178.671 345.654 178.856C345.948 179.036 346.255 179.185 346.577 179.303C346.899 179.417 347.195 179.509 347.465 179.58L348.942 179.978C349.321 180.077 349.743 180.215 350.207 180.39C350.675 180.565 351.123 180.804 351.549 181.107C351.98 181.405 352.335 181.789 352.614 182.258C352.894 182.726 353.033 183.302 353.033 183.984C353.033 184.769 352.827 185.48 352.415 186.114C352.008 186.749 351.412 187.253 350.626 187.627C349.844 188.001 348.895 188.188 347.778 188.188C346.736 188.188 345.834 188.02 345.072 187.684C344.314 187.348 343.718 186.879 343.282 186.278C342.851 185.676 342.607 184.978 342.55 184.182H344.369C344.416 184.732 344.601 185.186 344.923 185.546C345.249 185.901 345.661 186.166 346.158 186.341C346.66 186.512 347.2 186.597 347.778 186.597C348.45 186.597 349.054 186.488 349.589 186.27C350.124 186.048 350.548 185.74 350.86 185.347C351.173 184.949 351.329 184.485 351.329 183.955C351.329 183.472 351.194 183.079 350.924 182.776C350.654 182.473 350.299 182.227 349.859 182.037C349.418 181.848 348.942 181.682 348.431 181.54L346.641 181.029C345.505 180.702 344.605 180.236 343.942 179.63C343.28 179.024 342.948 178.231 342.948 177.251C342.948 176.436 343.168 175.726 343.609 175.12C344.054 174.509 344.65 174.036 345.398 173.699C346.151 173.359 346.992 173.188 347.92 173.188C348.857 173.188 349.691 173.356 350.42 173.692C351.149 174.024 351.727 174.478 352.153 175.056C352.584 175.634 352.811 176.289 352.835 177.023H351.13Z" fill="#00535C"/>
<path d="M399.75 189.751V171.569H400.914V189.751H399.75ZM403.67 177.023C403.585 176.304 403.239 175.745 402.633 175.347C402.027 174.949 401.284 174.751 400.403 174.751C399.759 174.751 399.196 174.855 398.713 175.063C398.235 175.271 397.861 175.558 397.591 175.922C397.325 176.287 397.193 176.701 397.193 177.165C397.193 177.554 397.285 177.887 397.47 178.167C397.659 178.441 397.901 178.671 398.194 178.856C398.488 179.036 398.796 179.185 399.118 179.303C399.44 179.417 399.736 179.509 400.005 179.58L401.483 179.978C401.861 180.077 402.283 180.215 402.747 180.39C403.216 180.565 403.663 180.804 404.089 181.107C404.52 181.405 404.875 181.789 405.155 182.258C405.434 182.726 405.574 183.302 405.574 183.984C405.574 184.769 405.368 185.48 404.956 186.114C404.548 186.749 403.952 187.253 403.166 187.627C402.385 188.001 401.435 188.188 400.318 188.188C399.276 188.188 398.374 188.02 397.612 187.684C396.854 187.348 396.258 186.879 395.822 186.278C395.391 185.676 395.147 184.978 395.091 184.182H396.909C396.956 184.732 397.141 185.186 397.463 185.546C397.789 185.901 398.201 186.166 398.699 186.341C399.2 186.512 399.74 186.597 400.318 186.597C400.99 186.597 401.594 186.488 402.129 186.27C402.664 186.048 403.088 185.74 403.4 185.347C403.713 184.949 403.869 184.485 403.869 183.955C403.869 183.472 403.734 183.079 403.464 182.776C403.194 182.473 402.839 182.227 402.399 182.037C401.959 181.848 401.483 181.682 400.971 181.54L399.182 181.029C398.045 180.702 397.146 180.236 396.483 179.63C395.82 179.024 395.488 178.231 395.488 177.251C395.488 176.436 395.709 175.726 396.149 175.12C396.594 174.509 397.191 174.036 397.939 173.699C398.691 173.359 399.532 173.188 400.46 173.188C401.397 173.188 402.231 173.356 402.96 173.692C403.689 174.024 404.267 174.478 404.693 175.056C405.124 175.634 405.351 176.289 405.375 177.023H403.67Z" fill="#00535C"/>
<path d="M84.5086 240.181V222H85.6733V240.181H84.5086ZM88.429 227.454C88.3438 226.734 87.9981 226.176 87.3921 225.778C86.786 225.38 86.0426 225.181 85.162 225.181C84.518 225.181 83.9546 225.286 83.4716 225.494C82.9934 225.702 82.6193 225.989 82.3495 226.353C82.0843 226.718 81.9517 227.132 81.9517 227.596C81.9517 227.984 82.0441 228.318 82.2287 228.598C82.4181 228.872 82.6596 229.102 82.9532 229.287C83.2467 229.467 83.5545 229.616 83.8764 229.734C84.1984 229.848 84.4943 229.94 84.7642 230.011L86.2415 230.409C86.6203 230.508 87.0417 230.645 87.5057 230.821C87.9745 230.996 88.4219 231.235 88.848 231.538C89.2789 231.836 89.634 232.22 89.9134 232.689C90.1927 233.157 90.3324 233.733 90.3324 234.414C90.3324 235.2 90.1264 235.911 89.7145 236.545C89.3073 237.18 88.7107 237.684 87.9247 238.058C87.1435 238.432 86.1942 238.619 85.0767 238.619C84.0351 238.619 83.1331 238.451 82.3708 238.115C81.6132 237.779 81.0166 237.31 80.581 236.708C80.1501 236.107 79.9063 235.409 79.8495 234.613H81.6676C81.715 235.163 81.8996 235.617 82.2216 235.977C82.5483 236.332 82.9603 236.597 83.4574 236.772C83.9593 236.943 84.4991 237.028 85.0767 237.028C85.7491 237.028 86.3528 236.919 86.8878 236.701C87.4229 236.479 87.8466 236.171 88.1591 235.778C88.4716 235.38 88.6279 234.916 88.6279 234.386C88.6279 233.903 88.4929 233.51 88.223 233.207C87.9532 232.904 87.598 232.658 87.1577 232.468C86.7174 232.279 86.2415 232.113 85.7301 231.971L83.9404 231.46C82.804 231.133 81.9044 230.667 81.2415 230.061C80.5786 229.455 80.2472 228.662 80.2472 227.681C80.2472 226.867 80.4674 226.157 80.9077 225.551C81.3528 224.94 81.9494 224.467 82.6975 224.13C83.4503 223.789 84.2907 223.619 85.2188 223.619C86.1563 223.619 86.9896 223.787 87.7188 224.123C88.4479 224.455 89.0256 224.909 89.4517 225.487C89.8826 226.065 90.1099 226.72 90.1336 227.454H88.429Z" fill="#00535C"/>
<path d="M137.049 240.181V222H138.214V240.181H137.049ZM140.969 227.454C140.884 226.734 140.538 226.176 139.932 225.778C139.326 225.38 138.583 225.181 137.702 225.181C137.058 225.181 136.495 225.286 136.012 225.494C135.534 225.702 135.16 225.989 134.89 226.353C134.625 226.718 134.492 227.132 134.492 227.596C134.492 227.984 134.584 228.318 134.769 228.598C134.958 228.872 135.2 229.102 135.493 229.287C135.787 229.467 136.095 229.616 136.417 229.734C136.739 229.848 137.035 229.94 137.304 230.011L138.782 230.409C139.16 230.508 139.582 230.645 140.046 230.821C140.515 230.996 140.962 231.235 141.388 231.538C141.819 231.836 142.174 232.22 142.454 232.689C142.733 233.157 142.873 233.733 142.873 234.414C142.873 235.2 142.667 235.911 142.255 236.545C141.848 237.18 141.251 237.684 140.465 238.058C139.684 238.432 138.734 238.619 137.617 238.619C136.575 238.619 135.673 238.451 134.911 238.115C134.153 237.779 133.557 237.31 133.121 236.708C132.69 236.107 132.446 235.409 132.39 234.613H134.208C134.255 235.163 134.44 235.617 134.762 235.977C135.089 236.332 135.5 236.597 135.998 236.772C136.5 236.943 137.039 237.028 137.617 237.028C138.289 237.028 138.893 236.919 139.428 236.701C139.963 236.479 140.387 236.171 140.699 235.778C141.012 235.38 141.168 234.916 141.168 234.386C141.168 233.903 141.033 233.51 140.763 233.207C140.493 232.904 140.138 232.658 139.698 232.468C139.258 232.279 138.782 232.113 138.27 231.971L136.481 231.46C135.344 231.133 134.445 230.667 133.782 230.061C133.119 229.455 132.787 228.662 132.787 227.681C132.787 226.867 133.008 226.157 133.448 225.551C133.893 224.94 134.49 224.467 135.238 224.13C135.991 223.789 136.831 223.619 137.759 223.619C138.696 223.619 139.53 223.787 140.259 224.123C140.988 224.455 141.566 224.909 141.992 225.487C142.423 226.065 142.65 226.72 142.674 227.454H140.969Z" fill="#00535C"/>
<path d="M189.589 240.181V222H190.754V240.181H189.589ZM193.509 227.454C193.424 226.734 193.079 226.176 192.472 225.778C191.866 225.38 191.123 225.181 190.242 225.181C189.598 225.181 189.035 225.286 188.552 225.494C188.074 225.702 187.7 225.989 187.43 226.353C187.165 226.718 187.032 227.132 187.032 227.596C187.032 227.984 187.124 228.318 187.309 228.598C187.499 228.872 187.74 229.102 188.034 229.287C188.327 229.467 188.635 229.616 188.957 229.734C189.279 229.848 189.575 229.94 189.845 230.011L191.322 230.409C191.701 230.508 192.122 230.645 192.586 230.821C193.055 230.996 193.502 231.235 193.928 231.538C194.359 231.836 194.714 232.22 194.994 232.689C195.273 233.157 195.413 233.733 195.413 234.414C195.413 235.2 195.207 235.911 194.795 236.545C194.388 237.18 193.791 237.684 193.005 238.058C192.224 238.432 191.275 238.619 190.157 238.619C189.115 238.619 188.213 238.451 187.451 238.115C186.694 237.779 186.097 237.31 185.661 236.708C185.231 236.107 184.987 235.409 184.93 234.613H186.748C186.795 235.163 186.98 235.617 187.302 235.977C187.629 236.332 188.041 236.597 188.538 236.772C189.04 236.943 189.579 237.028 190.157 237.028C190.829 237.028 191.433 236.919 191.968 236.701C192.503 236.479 192.927 236.171 193.24 235.778C193.552 235.38 193.708 234.916 193.708 234.386C193.708 233.903 193.573 233.51 193.303 233.207C193.034 232.904 192.678 232.658 192.238 232.468C191.798 232.279 191.322 232.113 190.811 231.971L189.021 231.46C187.884 231.133 186.985 230.667 186.322 230.061C185.659 229.455 185.328 228.662 185.328 227.681C185.328 226.867 185.548 226.157 185.988 225.551C186.433 224.94 187.03 224.467 187.778 224.13C188.531 223.789 189.371 223.619 190.299 223.619C191.237 223.619 192.07 223.787 192.799 224.123C193.528 224.455 194.106 224.909 194.532 225.487C194.963 226.065 195.19 226.72 195.214 227.454H193.509Z" fill="#00535C"/>
<path d="M242.129 240.181V222H243.294V240.181H242.129ZM246.05 227.454C245.964 226.734 245.619 226.176 245.013 225.778C244.407 225.38 243.663 225.181 242.783 225.181C242.139 225.181 241.575 225.286 241.092 225.494C240.614 225.702 240.24 225.989 239.97 226.353C239.705 226.718 239.572 227.132 239.572 227.596C239.572 227.984 239.665 228.318 239.849 228.598C240.039 228.872 240.28 229.102 240.574 229.287C240.867 229.467 241.175 229.616 241.497 229.734C241.819 229.848 242.115 229.94 242.385 230.011L243.862 230.409C244.241 230.508 244.662 230.645 245.126 230.821C245.595 230.996 246.043 231.235 246.469 231.538C246.9 231.836 247.255 232.22 247.534 232.689C247.813 233.157 247.953 233.733 247.953 234.414C247.953 235.2 247.747 235.911 247.335 236.545C246.928 237.18 246.331 237.684 245.545 238.058C244.764 238.432 243.815 238.619 242.697 238.619C241.656 238.619 240.754 238.451 239.991 238.115C239.234 237.779 238.637 237.31 238.202 236.708C237.771 236.107 237.527 235.409 237.47 234.613H239.288C239.336 235.163 239.52 235.617 239.842 235.977C240.169 236.332 240.581 236.597 241.078 236.772C241.58 236.943 242.12 237.028 242.697 237.028C243.37 237.028 243.973 236.919 244.508 236.701C245.043 236.479 245.467 236.171 245.78 235.778C246.092 235.38 246.248 234.916 246.248 234.386C246.248 233.903 246.114 233.51 245.844 233.207C245.574 232.904 245.219 232.658 244.778 232.468C244.338 232.279 243.862 232.113 243.351 231.971L241.561 231.46C240.425 231.133 239.525 230.667 238.862 230.061C238.199 229.455 237.868 228.662 237.868 227.681C237.868 226.867 238.088 226.157 238.528 225.551C238.973 224.94 239.57 224.467 240.318 224.13C241.071 223.789 241.911 223.619 242.839 223.619C243.777 223.619 244.61 223.787 245.339 224.123C246.069 224.455 246.646 224.909 247.072 225.487C247.503 226.065 247.73 226.72 247.754 227.454H246.05Z" fill="#00535C"/>
<path d="M294.669 240.181V222H295.834V240.181H294.669ZM298.59 227.454C298.505 226.734 298.159 226.176 297.553 225.778C296.947 225.38 296.203 225.181 295.323 225.181C294.679 225.181 294.115 225.286 293.632 225.494C293.154 225.702 292.78 225.989 292.51 226.353C292.245 226.718 292.113 227.132 292.113 227.596C292.113 227.984 292.205 228.318 292.39 228.598C292.579 228.872 292.82 229.102 293.114 229.287C293.408 229.467 293.715 229.616 294.037 229.734C294.359 229.848 294.655 229.94 294.925 230.011L296.402 230.409C296.781 230.508 297.202 230.645 297.666 230.821C298.135 230.996 298.583 231.235 299.009 231.538C299.44 231.836 299.795 232.22 300.074 232.689C300.354 233.157 300.493 233.733 300.493 234.414C300.493 235.2 300.287 235.911 299.875 236.545C299.468 237.18 298.872 237.684 298.086 238.058C297.304 238.432 296.355 238.619 295.238 238.619C294.196 238.619 293.294 238.451 292.532 238.115C291.774 237.779 291.177 237.31 290.742 236.708C290.311 236.107 290.067 235.409 290.01 234.613H291.828C291.876 235.163 292.06 235.617 292.382 235.977C292.709 236.332 293.121 236.597 293.618 236.772C294.12 236.943 294.66 237.028 295.238 237.028C295.91 237.028 296.514 236.919 297.049 236.701C297.584 236.479 298.007 236.171 298.32 235.778C298.632 235.38 298.789 234.916 298.789 234.386C298.789 233.903 298.654 233.51 298.384 233.207C298.114 232.904 297.759 232.658 297.318 232.468C296.878 232.279 296.402 232.113 295.891 231.971L294.101 231.46C292.965 231.133 292.065 230.667 291.402 230.061C290.739 229.455 290.408 228.662 290.408 227.681C290.408 226.867 290.628 226.157 291.068 225.551C291.514 224.94 292.11 224.467 292.858 224.13C293.611 223.789 294.452 223.619 295.38 223.619C296.317 223.619 297.15 223.787 297.88 224.123C298.609 224.455 299.186 224.909 299.613 225.487C300.043 226.065 300.271 226.72 300.294 227.454H298.59Z" fill="#00535C"/>
<path d="M347.21 240.181V222H348.374V240.181H347.21ZM351.13 227.454C351.045 226.734 350.699 226.176 350.093 225.778C349.487 225.38 348.744 225.181 347.863 225.181C347.219 225.181 346.656 225.286 346.173 225.494C345.694 225.702 345.32 225.989 345.05 226.353C344.785 226.718 344.653 227.132 344.653 227.596C344.653 227.984 344.745 228.318 344.93 228.598C345.119 228.872 345.361 229.102 345.654 229.287C345.948 229.467 346.255 229.616 346.577 229.734C346.899 229.848 347.195 229.94 347.465 230.011L348.942 230.409C349.321 230.508 349.743 230.645 350.207 230.821C350.675 230.996 351.123 231.235 351.549 231.538C351.98 231.836 352.335 232.22 352.614 232.689C352.894 233.157 353.033 233.733 353.033 234.414C353.033 235.2 352.827 235.911 352.415 236.545C352.008 237.18 351.412 237.684 350.626 238.058C349.844 238.432 348.895 238.619 347.778 238.619C346.736 238.619 345.834 238.451 345.072 238.115C344.314 237.779 343.718 237.31 343.282 236.708C342.851 236.107 342.607 235.409 342.55 234.613H344.369C344.416 235.163 344.601 235.617 344.923 235.977C345.249 236.332 345.661 236.597 346.158 236.772C346.66 236.943 347.2 237.028 347.778 237.028C348.45 237.028 349.054 236.919 349.589 236.701C350.124 236.479 350.548 236.171 350.86 235.778C351.173 235.38 351.329 234.916 351.329 234.386C351.329 233.903 351.194 233.51 350.924 233.207C350.654 232.904 350.299 232.658 349.859 232.468C349.418 232.279 348.942 232.113 348.431 231.971L346.641 231.46C345.505 231.133 344.605 230.667 343.942 230.061C343.28 229.455 342.948 228.662 342.948 227.681C342.948 226.867 343.168 226.157 343.609 225.551C344.054 224.94 344.65 224.467 345.398 224.13C346.151 223.789 346.992 223.619 347.92 223.619C348.857 223.619 349.691 223.787 350.42 224.123C351.149 224.455 351.727 224.909 352.153 225.487C352.584 226.065 352.811 226.72 352.835 227.454H351.13Z" fill="#00535C"/>
<path d="M399.75 240.181V222H400.914V240.181H399.75ZM403.67 227.454C403.585 226.734 403.239 226.176 402.633 225.778C402.027 225.38 401.284 225.181 400.403 225.181C399.759 225.181 399.196 225.286 398.713 225.494C398.235 225.702 397.861 225.989 397.591 226.353C397.325 226.718 397.193 227.132 397.193 227.596C397.193 227.984 397.285 228.318 397.47 228.598C397.659 228.872 397.901 229.102 398.194 229.287C398.488 229.467 398.796 229.616 399.118 229.734C399.44 229.848 399.736 229.94 400.005 230.011L401.483 230.409C401.861 230.508 402.283 230.645 402.747 230.821C403.216 230.996 403.663 231.235 404.089 231.538C404.52 231.836 404.875 232.22 405.155 232.689C405.434 233.157 405.574 233.733 405.574 234.414C405.574 235.2 405.368 235.911 404.956 236.545C404.548 237.18 403.952 237.684 403.166 238.058C402.385 238.432 401.435 238.619 400.318 238.619C399.276 238.619 398.374 238.451 397.612 238.115C396.854 237.779 396.258 237.31 395.822 236.708C395.391 236.107 395.147 235.409 395.091 234.613H396.909C396.956 235.163 397.141 235.617 397.463 235.977C397.789 236.332 398.201 236.597 398.699 236.772C399.2 236.943 399.74 237.028 400.318 237.028C400.99 237.028 401.594 236.919 402.129 236.701C402.664 236.479 403.088 236.171 403.4 235.778C403.713 235.38 403.869 234.916 403.869 234.386C403.869 233.903 403.734 233.51 403.464 233.207C403.194 232.904 402.839 232.658 402.399 232.468C401.959 232.279 401.483 232.113 400.971 231.971L399.182 231.46C398.045 231.133 397.146 230.667 396.483 230.061C395.82 229.455 395.488 228.662 395.488 227.681C395.488 226.867 395.709 226.157 396.149 225.551C396.594 224.94 397.191 224.467 397.939 224.13C398.691 223.789 399.532 223.619 400.46 223.619C401.397 223.619 402.231 223.787 402.96 224.123C403.689 224.455 404.267 224.909 404.693 225.487C405.124 226.065 405.351 226.72 405.375 227.454H403.67Z" fill="#00535C"/>
<path d="M84.5086 290.612V272.43H85.6733V290.612H84.5086ZM88.429 277.885C88.3438 277.165 87.9981 276.606 87.3921 276.209C86.786 275.811 86.0426 275.612 85.162 275.612C84.518 275.612 83.9546 275.716 83.4716 275.925C82.9934 276.133 82.6193 276.419 82.3495 276.784C82.0843 277.149 81.9517 277.563 81.9517 278.027C81.9517 278.415 82.0441 278.749 82.2287 279.028C82.4181 279.303 82.6596 279.533 82.9532 279.717C83.2467 279.897 83.5545 280.046 83.8764 280.165C84.1984 280.278 84.4943 280.371 84.7642 280.442L86.2415 280.839C86.6203 280.939 87.0417 281.076 87.5057 281.251C87.9745 281.427 88.4219 281.666 88.848 281.969C89.2789 282.267 89.634 282.65 89.9134 283.119C90.1927 283.588 90.3324 284.163 90.3324 284.845C90.3324 285.631 90.1264 286.341 89.7145 286.976C89.3073 287.61 88.7107 288.114 87.9247 288.489C87.1435 288.863 86.1942 289.05 85.0767 289.05C84.0351 289.05 83.1331 288.882 82.3708 288.545C81.6132 288.209 81.0166 287.74 80.581 287.139C80.1501 286.538 79.9063 285.839 79.8495 285.044H81.6676C81.715 285.593 81.8996 286.048 82.2216 286.408C82.5483 286.763 82.9603 287.028 83.4574 287.203C83.9593 287.373 84.4991 287.459 85.0767 287.459C85.7491 287.459 86.3528 287.35 86.8878 287.132C87.4229 286.909 87.8466 286.602 88.1591 286.209C88.4716 285.811 88.6279 285.347 88.6279 284.817C88.6279 284.334 88.4929 283.941 88.223 283.638C87.9532 283.335 87.598 283.088 87.1577 282.899C86.7174 282.71 86.2415 282.544 85.7301 282.402L83.9404 281.891C82.804 281.564 81.9044 281.097 81.2415 280.491C80.5786 279.885 80.2472 279.092 80.2472 278.112C80.2472 277.298 80.4674 276.588 80.9077 275.981C81.3528 275.371 81.9494 274.897 82.6975 274.561C83.4503 274.22 84.2907 274.05 85.2188 274.05C86.1563 274.05 86.9896 274.218 87.7188 274.554C88.4479 274.885 89.0256 275.34 89.4517 275.918C89.8826 276.495 90.1099 277.151 90.1336 277.885H88.429Z" fill="#00535C"/>
<path d="M137.049 290.612V272.43H138.214V290.612H137.049ZM140.969 277.885C140.884 277.165 140.538 276.606 139.932 276.209C139.326 275.811 138.583 275.612 137.702 275.612C137.058 275.612 136.495 275.716 136.012 275.925C135.534 276.133 135.16 276.419 134.89 276.784C134.625 277.149 134.492 277.563 134.492 278.027C134.492 278.415 134.584 278.749 134.769 279.028C134.958 279.303 135.2 279.533 135.493 279.717C135.787 279.897 136.095 280.046 136.417 280.165C136.739 280.278 137.035 280.371 137.304 280.442L138.782 280.839C139.16 280.939 139.582 281.076 140.046 281.251C140.515 281.427 140.962 281.666 141.388 281.969C141.819 282.267 142.174 282.65 142.454 283.119C142.733 283.588 142.873 284.163 142.873 284.845C142.873 285.631 142.667 286.341 142.255 286.976C141.848 287.61 141.251 288.114 140.465 288.489C139.684 288.863 138.734 289.05 137.617 289.05C136.575 289.05 135.673 288.882 134.911 288.545C134.153 288.209 133.557 287.74 133.121 287.139C132.69 286.538 132.446 285.839 132.39 285.044H134.208C134.255 285.593 134.44 286.048 134.762 286.408C135.089 286.763 135.5 287.028 135.998 287.203C136.5 287.373 137.039 287.459 137.617 287.459C138.289 287.459 138.893 287.35 139.428 287.132C139.963 286.909 140.387 286.602 140.699 286.209C141.012 285.811 141.168 285.347 141.168 284.817C141.168 284.334 141.033 283.941 140.763 283.638C140.493 283.335 140.138 283.088 139.698 282.899C139.258 282.71 138.782 282.544 138.27 282.402L136.481 281.891C135.344 281.564 134.445 281.097 133.782 280.491C133.119 279.885 132.787 279.092 132.787 278.112C132.787 277.298 133.008 276.588 133.448 275.981C133.893 275.371 134.49 274.897 135.238 274.561C135.991 274.22 136.831 274.05 137.759 274.05C138.696 274.05 139.53 274.218 140.259 274.554C140.988 274.885 141.566 275.34 141.992 275.918C142.423 276.495 142.65 277.151 142.674 277.885H140.969Z" fill="#00535C"/>
<path d="M189.589 290.612V272.43H190.754V290.612H189.589ZM193.509 277.885C193.424 277.165 193.079 276.606 192.472 276.209C191.866 275.811 191.123 275.612 190.242 275.612C189.598 275.612 189.035 275.716 188.552 275.925C188.074 276.133 187.7 276.419 187.43 276.784C187.165 277.149 187.032 277.563 187.032 278.027C187.032 278.415 187.124 278.749 187.309 279.028C187.499 279.303 187.74 279.533 188.034 279.717C188.327 279.897 188.635 280.046 188.957 280.165C189.279 280.278 189.575 280.371 189.845 280.442L191.322 280.839C191.701 280.939 192.122 281.076 192.586 281.251C193.055 281.427 193.502 281.666 193.928 281.969C194.359 282.267 194.714 282.65 194.994 283.119C195.273 283.588 195.413 284.163 195.413 284.845C195.413 285.631 195.207 286.341 194.795 286.976C194.388 287.61 193.791 288.114 193.005 288.489C192.224 288.863 191.275 289.05 190.157 289.05C189.115 289.05 188.213 288.882 187.451 288.545C186.694 288.209 186.097 287.74 185.661 287.139C185.231 286.538 184.987 285.839 184.93 285.044H186.748C186.795 285.593 186.98 286.048 187.302 286.408C187.629 286.763 188.041 287.028 188.538 287.203C189.04 287.373 189.579 287.459 190.157 287.459C190.829 287.459 191.433 287.35 191.968 287.132C192.503 286.909 192.927 286.602 193.24 286.209C193.552 285.811 193.708 285.347 193.708 284.817C193.708 284.334 193.573 283.941 193.303 283.638C193.034 283.335 192.678 283.088 192.238 282.899C191.798 282.71 191.322 282.544 190.811 282.402L189.021 281.891C187.884 281.564 186.985 281.097 186.322 280.491C185.659 279.885 185.328 279.092 185.328 278.112C185.328 277.298 185.548 276.588 185.988 275.981C186.433 275.371 187.03 274.897 187.778 274.561C188.531 274.22 189.371 274.05 190.299 274.05C191.237 274.05 192.07 274.218 192.799 274.554C193.528 274.885 194.106 275.34 194.532 275.918C194.963 276.495 195.19 277.151 195.214 277.885H193.509Z" fill="#00535C"/>
<path d="M242.129 290.612V272.43H243.294V290.612H242.129ZM246.05 277.885C245.964 277.165 245.619 276.606 245.013 276.209C244.407 275.811 243.663 275.612 242.783 275.612C242.139 275.612 241.575 275.716 241.092 275.925C240.614 276.133 240.24 276.419 239.97 276.784C239.705 277.149 239.572 277.563 239.572 278.027C239.572 278.415 239.665 278.749 239.849 279.028C240.039 279.303 240.28 279.533 240.574 279.717C240.867 279.897 241.175 280.046 241.497 280.165C241.819 280.278 242.115 280.371 242.385 280.442L243.862 280.839C244.241 280.939 244.662 281.076 245.126 281.251C245.595 281.427 246.043 281.666 246.469 281.969C246.9 282.267 247.255 282.65 247.534 283.119C247.813 283.588 247.953 284.163 247.953 284.845C247.953 285.631 247.747 286.341 247.335 286.976C246.928 287.61 246.331 288.114 245.545 288.489C244.764 288.863 243.815 289.05 242.697 289.05C241.656 289.05 240.754 288.882 239.991 288.545C239.234 288.209 238.637 287.74 238.202 287.139C237.771 286.538 237.527 285.839 237.47 285.044H239.288C239.336 285.593 239.52 286.048 239.842 286.408C240.169 286.763 240.581 287.028 241.078 287.203C241.58 287.373 242.12 287.459 242.697 287.459C243.37 287.459 243.973 287.35 244.508 287.132C245.043 286.909 245.467 286.602 245.78 286.209C246.092 285.811 246.248 285.347 246.248 284.817C246.248 284.334 246.114 283.941 245.844 283.638C245.574 283.335 245.219 283.088 244.778 282.899C244.338 282.71 243.862 282.544 243.351 282.402L241.561 281.891C240.425 281.564 239.525 281.097 238.862 280.491C238.199 279.885 237.868 279.092 237.868 278.112C237.868 277.298 238.088 276.588 238.528 275.981C238.973 275.371 239.57 274.897 240.318 274.561C241.071 274.22 241.911 274.05 242.839 274.05C243.777 274.05 244.61 274.218 245.339 274.554C246.069 274.885 246.646 275.34 247.072 275.918C247.503 276.495 247.73 277.151 247.754 277.885H246.05Z" fill="#00535C"/>
<path d="M294.669 290.612V272.43H295.834V290.612H294.669ZM298.59 277.885C298.505 277.165 298.159 276.606 297.553 276.209C296.947 275.811 296.203 275.612 295.323 275.612C294.679 275.612 294.115 275.716 293.632 275.925C293.154 276.133 292.78 276.419 292.51 276.784C292.245 277.149 292.113 277.563 292.113 278.027C292.113 278.415 292.205 278.749 292.39 279.028C292.579 279.303 292.82 279.533 293.114 279.717C293.408 279.897 293.715 280.046 294.037 280.165C294.359 280.278 294.655 280.371 294.925 280.442L296.402 280.839C296.781 280.939 297.202 281.076 297.666 281.251C298.135 281.427 298.583 281.666 299.009 281.969C299.44 282.267 299.795 282.65 300.074 283.119C300.354 283.588 300.493 284.163 300.493 284.845C300.493 285.631 300.287 286.341 299.875 286.976C299.468 287.61 298.872 288.114 298.086 288.489C297.304 288.863 296.355 289.05 295.238 289.05C294.196 289.05 293.294 288.882 292.532 288.545C291.774 288.209 291.177 287.74 290.742 287.139C290.311 286.538 290.067 285.839 290.01 285.044H291.828C291.876 285.593 292.06 286.048 292.382 286.408C292.709 286.763 293.121 287.028 293.618 287.203C294.12 287.373 294.66 287.459 295.238 287.459C295.91 287.459 296.514 287.35 297.049 287.132C297.584 286.909 298.007 286.602 298.32 286.209C298.632 285.811 298.789 285.347 298.789 284.817C298.789 284.334 298.654 283.941 298.384 283.638C298.114 283.335 297.759 283.088 297.318 282.899C296.878 282.71 296.402 282.544 295.891 282.402L294.101 281.891C292.965 281.564 292.065 281.097 291.402 280.491C290.739 279.885 290.408 279.092 290.408 278.112C290.408 277.298 290.628 276.588 291.068 275.981C291.514 275.371 292.11 274.897 292.858 274.561C293.611 274.22 294.452 274.05 295.38 274.05C296.317 274.05 297.15 274.218 297.88 274.554C298.609 274.885 299.186 275.34 299.613 275.918C300.043 276.495 300.271 277.151 300.294 277.885H298.59Z" fill="#00535C"/>
<path d="M347.21 290.612V272.43H348.374V290.612H347.21ZM351.13 277.885C351.045 277.165 350.699 276.606 350.093 276.209C349.487 275.811 348.744 275.612 347.863 275.612C347.219 275.612 346.656 275.716 346.173 275.925C345.694 276.133 345.32 276.419 345.05 276.784C344.785 277.149 344.653 277.563 344.653 278.027C344.653 278.415 344.745 278.749 344.93 279.028C345.119 279.303 345.361 279.533 345.654 279.717C345.948 279.897 346.255 280.046 346.577 280.165C346.899 280.278 347.195 280.371 347.465 280.442L348.942 280.839C349.321 280.939 349.743 281.076 350.207 281.251C350.675 281.427 351.123 281.666 351.549 281.969C351.98 282.267 352.335 282.65 352.614 283.119C352.894 283.588 353.033 284.163 353.033 284.845C353.033 285.631 352.827 286.341 352.415 286.976C352.008 287.61 351.412 288.114 350.626 288.489C349.844 288.863 348.895 289.05 347.778 289.05C346.736 289.05 345.834 288.882 345.072 288.545C344.314 288.209 343.718 287.74 343.282 287.139C342.851 286.538 342.607 285.839 342.55 285.044H344.369C344.416 285.593 344.601 286.048 344.923 286.408C345.249 286.763 345.661 287.028 346.158 287.203C346.66 287.373 347.2 287.459 347.778 287.459C348.45 287.459 349.054 287.35 349.589 287.132C350.124 286.909 350.548 286.602 350.86 286.209C351.173 285.811 351.329 285.347 351.329 284.817C351.329 284.334 351.194 283.941 350.924 283.638C350.654 283.335 350.299 283.088 349.859 282.899C349.418 282.71 348.942 282.544 348.431 282.402L346.641 281.891C345.505 281.564 344.605 281.097 343.942 280.491C343.28 279.885 342.948 279.092 342.948 278.112C342.948 277.298 343.168 276.588 343.609 275.981C344.054 275.371 344.65 274.897 345.398 274.561C346.151 274.22 346.992 274.05 347.92 274.05C348.857 274.05 349.691 274.218 350.42 274.554C351.149 274.885 351.727 275.34 352.153 275.918C352.584 276.495 352.811 277.151 352.835 277.885H351.13Z" fill="#00535C"/>
<path d="M399.75 290.612V272.43H400.914V290.612H399.75ZM403.67 277.885C403.585 277.165 403.239 276.606 402.633 276.209C402.027 275.811 401.284 275.612 400.403 275.612C399.759 275.612 399.196 275.716 398.713 275.925C398.235 276.133 397.861 276.419 397.591 276.784C397.325 277.149 397.193 277.563 397.193 278.027C397.193 278.415 397.285 278.749 397.47 279.028C397.659 279.303 397.901 279.533 398.194 279.717C398.488 279.897 398.796 280.046 399.118 280.165C399.44 280.278 399.736 280.371 400.005 280.442L401.483 280.839C401.861 280.939 402.283 281.076 402.747 281.251C403.216 281.427 403.663 281.666 404.089 281.969C404.52 282.267 404.875 282.65 405.155 283.119C405.434 283.588 405.574 284.163 405.574 284.845C405.574 285.631 405.368 286.341 404.956 286.976C404.548 287.61 403.952 288.114 403.166 288.489C402.385 288.863 401.435 289.05 400.318 289.05C399.276 289.05 398.374 288.882 397.612 288.545C396.854 288.209 396.258 287.74 395.822 287.139C395.391 286.538 395.147 285.839 395.091 285.044H396.909C396.956 285.593 397.141 286.048 397.463 286.408C397.789 286.763 398.201 287.028 398.699 287.203C399.2 287.373 399.74 287.459 400.318 287.459C400.99 287.459 401.594 287.35 402.129 287.132C402.664 286.909 403.088 286.602 403.4 286.209C403.713 285.811 403.869 285.347 403.869 284.817C403.869 284.334 403.734 283.941 403.464 283.638C403.194 283.335 402.839 283.088 402.399 282.899C401.959 282.71 401.483 282.544 400.971 282.402L399.182 281.891C398.045 281.564 397.146 281.097 396.483 280.491C395.82 279.885 395.488 279.092 395.488 278.112C395.488 277.298 395.709 276.588 396.149 275.981C396.594 275.371 397.191 274.897 397.939 274.561C398.691 274.22 399.532 274.05 400.46 274.05C401.397 274.05 402.231 274.218 402.96 274.554C403.689 274.885 404.267 275.34 404.693 275.918C405.124 276.495 405.351 277.151 405.375 277.885H403.67Z" fill="#00535C"/>
</g>
<defs>
<filter id="filter0_d_129_22526" x="0.75" y="0.566162" width="491" height="376.874" filterUnits="userSpaceOnUse" color-interpolation-filters="sRGB">
<feFlood flood-opacity="0" result="BackgroundImageFix"/>
<feColorMatrix in="SourceAlpha" type="matrix" values="0 0 0 0 0 0 0 0 0 0 0 0 0 0 0 0 0 0 127 0" result="hardAlpha"/>
<feOffset dy="4"/>
<feGaussianBlur stdDeviation="20"/>
<feComposite in2="hardAlpha" operator="out"/>
<feColorMatrix type="matrix" values="0 0 0 0 0.176471 0 0 0 0 0.788235 0 0 0 0 0.815686 0 0 0 0.15 0"/>
<feBlend mode="normal" in2="BackgroundImageFix" result="effect1_dropShadow_129_22526"/>
<feBlend mode="normal" in="SourceGraphic" in2="effect1_dropShadow_129_22526" result="shape"/>
</filter>
</defs>
</svg>
