<svg width="412" height="189" viewBox="0 0 412 189" fill="none" xmlns="http://www.w3.org/2000/svg">
<path d="M94.1203 130.584V149.358C94.1203 165.189 79.3548 178.027 61.1388 178.027C42.9229 178.027 28.1573 165.189 28.1573 149.358V130.584C28.1573 146.415 42.9229 157.731 61.1388 157.731C79.3548 157.731 94.1203 146.415 94.1203 130.584Z" fill="#00535C"/>
<path opacity="0.4" d="M94.1203 105.214V130.584C94.1203 146.415 79.3548 157.731 61.1388 157.731C42.9229 157.731 28.1573 146.415 28.1573 130.584V105.214C28.1573 109.831 29.4259 114.093 31.6585 117.747C37.0877 126.677 48.2507 132.36 61.1388 132.36C74.027 132.36 85.1899 126.677 90.6192 117.747C92.8518 114.093 94.1203 109.831 94.1203 105.214Z" fill="#00535C"/>
<path d="M94.1203 105.214C94.1203 109.831 92.8518 114.094 90.6192 117.747C85.1899 126.677 74.027 132.36 61.1388 132.36C48.2507 132.36 37.0877 126.677 31.6585 117.747C29.4259 114.094 28.1573 109.831 28.1573 105.214C28.1573 89.3828 42.9229 76.5454 61.1388 76.5454C70.2722 76.5454 78.4922 79.7421 84.4796 84.9176C90.4163 90.1439 94.1203 97.2984 94.1203 105.214Z" fill="#00535C"/>
<path d="M217.907 113.786V138.036C217.907 158.485 198.835 175.066 175.306 175.066C151.777 175.066 132.705 158.485 132.705 138.036V113.786C132.705 134.235 151.777 148.85 175.306 148.85C198.835 148.85 217.907 134.235 217.907 113.786Z" fill="#00535C"/>
<path opacity="0.4" d="M217.907 81.0164V113.786C217.907 134.235 198.835 148.85 175.306 148.85C151.777 148.85 132.705 134.235 132.705 113.786V81.0164C132.705 86.9805 134.343 92.4859 137.227 97.2048C144.24 108.74 158.658 116.08 175.306 116.08C191.953 116.08 206.372 108.74 213.384 97.2048C216.268 92.4859 217.907 86.9805 217.907 81.0164Z" fill="#00535C"/>
<path d="M217.907 81.017C217.907 86.9811 216.268 92.4865 213.384 97.2054C206.372 108.74 191.953 116.081 175.306 116.081C158.658 116.081 144.24 108.74 137.227 97.2054C134.343 92.4865 132.705 86.9811 132.705 81.017C132.705 60.5685 151.777 43.9868 175.306 43.9868C187.103 43.9868 197.72 48.1158 205.454 54.8009C213.122 61.5516 217.907 70.7927 217.907 81.017Z" fill="#00535C"/>
<path d="M368.227 99.3879V128.331C368.227 152.738 345.463 172.529 317.38 172.529C289.297 172.529 266.534 152.738 266.534 128.331V99.3879C266.534 123.794 289.297 141.238 317.38 141.238C345.463 141.238 368.227 123.794 368.227 99.3879Z" fill="#00535C"/>
<path opacity="0.4" d="M368.227 60.2773V99.39C368.227 123.796 345.463 141.241 317.38 141.241C289.297 141.241 266.534 123.796 266.534 99.39V60.2773C266.534 67.3958 268.489 73.9668 271.931 79.599C280.301 93.3666 297.511 102.128 317.38 102.128C337.249 102.128 354.459 93.3666 362.829 79.599C366.271 73.9668 368.227 67.3958 368.227 60.2773Z" fill="#00535C"/>
<path d="M368.227 60.2776C368.227 67.3961 366.271 73.967 362.829 79.5993C354.459 93.3669 337.249 102.128 317.38 102.128C297.511 102.128 280.301 93.3669 271.931 79.5993C268.489 73.967 266.534 67.3961 266.534 60.2776C266.534 35.8713 289.297 16.0803 317.38 16.0803C331.461 16.0803 344.133 21.0085 353.364 28.9875C362.516 37.0447 368.227 48.0745 368.227 60.2776Z" fill="#00535C"/>
</svg>
