<svg width="24" height="25" viewBox="0 0 24 25" fill="none" xmlns="http://www.w3.org/2000/svg">
<path fill-rule="evenodd" clip-rule="evenodd" d="M16.9394 3.80957C18.2804 3.80957 19.5704 4.33957 20.5194 5.29057C21.4694 6.23957 22.0004 7.51957 22.0004 8.85957V16.7596C22.0004 19.5496 19.7304 21.8096 16.9394 21.8096H7.0604C4.2694 21.8096 2.0004 19.5496 2.0004 16.7596V8.85957C2.0004 6.06957 4.2594 3.80957 7.0604 3.80957H16.9394ZM18.5304 10.3496L18.6104 10.2696C18.8494 9.97957 18.8494 9.55957 18.5994 9.26957C18.4604 9.12057 18.2694 9.02957 18.0704 9.00957C17.8604 8.99857 17.6604 9.06957 17.5094 9.20957L13.0004 12.8096C12.4204 13.2906 11.5894 13.2906 11.0004 12.8096L6.5004 9.20957C6.1894 8.97957 5.7594 9.00957 5.5004 9.27957C5.2304 9.54957 5.2004 9.97957 5.4294 10.2796L5.5604 10.4096L10.1104 13.9596C10.6704 14.3996 11.3494 14.6396 12.0604 14.6396C12.7694 14.6396 13.4604 14.3996 14.0194 13.9596L18.5304 10.3496Z" fill="#14191F"/>
</svg>
