<svg width="518" height="279" viewBox="0 0 518 279" fill="none" xmlns="http://www.w3.org/2000/svg">
<rect y="0.566162" width="252.498" height="80.216" rx="9.11546" fill="white"/>
<rect x="0.455773" y="1.02193" width="251.587" height="79.3045" rx="8.65968" stroke="#14191F" stroke-opacity="0.15" stroke-width="0.911546"/>
<circle cx="41.0196" cy="40.6742" r="21.8771" fill="#00535C" fill-opacity="0.1"/>
<path d="M40.5366 52.956V28.0957H42.1292V52.956H40.5366ZM45.1299 36.049C45.0393 35.2009 44.6573 34.5406 43.984 34.068C43.3172 33.5954 42.4497 33.3591 41.3814 33.3591C40.6305 33.3591 39.9863 33.4724 39.4489 33.699C38.9116 33.9255 38.5005 34.2331 38.2156 34.6215C37.9308 35.0099 37.7851 35.4534 37.7786 35.9519C37.7786 36.3663 37.8725 36.7256 38.0603 37.0299C38.2545 37.3341 38.5167 37.5931 38.8469 37.8067C39.177 38.0139 39.5428 38.1887 39.9442 38.3311C40.3456 38.4736 40.7502 38.5933 41.1581 38.6904L43.0226 39.1566C43.7736 39.3314 44.4955 39.5677 45.1882 39.8655C45.8874 40.1633 46.5121 40.5388 47.0624 40.992C47.6192 41.4452 48.0594 41.9922 48.3831 42.6331C48.7068 43.2741 48.8687 44.0251 48.8687 44.8861C48.8687 46.0514 48.5709 47.0776 47.9753 47.9645C47.3797 48.845 46.5186 49.5345 45.3921 50.033C44.2721 50.525 42.9158 50.771 41.3232 50.771C39.7759 50.771 38.4325 50.5315 37.2931 50.0524C36.1601 49.5733 35.2732 48.8741 34.6323 47.9548C33.9978 47.0355 33.6547 45.9155 33.6029 44.5948H37.1474C37.1992 45.2875 37.4129 45.8637 37.7884 46.3233C38.1638 46.783 38.6526 47.1261 39.2547 47.3527C39.8633 47.5793 40.5431 47.6926 41.294 47.6926C42.0774 47.6926 42.7637 47.5761 43.3528 47.343C43.9484 47.1035 44.4145 46.7733 44.7512 46.3525C45.0878 45.9252 45.2594 45.4267 45.2659 44.857C45.2594 44.339 45.1073 43.9118 44.8095 43.5751C44.5116 43.232 44.0941 42.9471 43.5567 42.7205C43.0259 42.4875 42.4043 42.2803 41.6922 42.099L39.4295 41.5164C37.7916 41.0956 36.4968 40.4579 35.5451 39.6033C34.5999 38.7422 34.1273 37.5996 34.1273 36.1753C34.1273 35.0035 34.4445 33.9773 35.079 33.0969C35.7199 32.2164 36.5907 31.5334 37.6912 31.0478C38.7918 30.5558 40.0381 30.3098 41.43 30.3098C42.8413 30.3098 44.0779 30.5558 45.1396 31.0478C46.2078 31.5334 47.0462 32.2099 47.6548 33.0774C48.2634 33.9385 48.5773 34.929 48.5968 36.049H45.1299Z" fill="#00535C"/>
<path d="M74.9163 37.5151V25.9136H75.6595V37.5151H74.9163ZM77.0598 29.6252C77.0175 29.2294 76.8393 28.9213 76.5251 28.7007C76.2139 28.4802 75.809 28.3699 75.3105 28.3699C74.9601 28.3699 74.6595 28.4228 74.4087 28.5285C74.1579 28.6342 73.9661 28.7778 73.8332 28.959C73.7002 29.1403 73.6322 29.3473 73.6292 29.5799C73.6292 29.7732 73.673 29.9409 73.7606 30.0829C73.8513 30.2249 73.9736 30.3458 74.1277 30.4455C74.2818 30.5422 74.4525 30.6237 74.6398 30.6902C74.8271 30.7567 75.016 30.8125 75.2063 30.8579L76.0764 31.0754C76.4269 31.157 76.7637 31.2672 77.087 31.4062C77.4133 31.5452 77.7049 31.7204 77.9617 31.9319C78.2215 32.1434 78.4269 32.3987 78.578 32.6978C78.729 32.9969 78.8046 33.3474 78.8046 33.7492C78.8046 34.293 78.6656 34.7719 78.3876 35.1858C78.1097 35.5967 77.7079 35.9184 77.1822 36.151C76.6595 36.3807 76.0266 36.4955 75.2833 36.4955C74.5613 36.4955 73.9344 36.3837 73.4026 36.1601C72.8739 35.9365 72.46 35.6102 72.1609 35.1812C71.8648 34.7522 71.7047 34.2296 71.6805 33.6132H73.3347C73.3588 33.9365 73.4585 34.2054 73.6338 34.4199C73.809 34.6344 74.0371 34.7945 74.3181 34.9003C74.6021 35.006 74.9193 35.0589 75.2697 35.0589C75.6353 35.0589 75.9556 35.0045 76.2305 34.8957C76.5085 34.7839 76.726 34.6299 76.8831 34.4335C77.0402 34.2341 77.1202 34.0014 77.1233 33.7356C77.1202 33.4939 77.0492 33.2945 76.9103 33.1374C76.7713 32.9773 76.5764 32.8443 76.3257 32.7386C76.0779 32.6298 75.7879 32.5331 75.4556 32.4485L74.3996 32.1766C73.6353 31.9803 73.031 31.6827 72.5869 31.2839C72.1458 30.882 71.9253 30.3488 71.9253 29.6841C71.9253 29.1373 72.0733 28.6584 72.3694 28.2475C72.6685 27.8366 73.0748 27.5179 73.5884 27.2913C74.102 27.0617 74.6836 26.9469 75.3332 26.9469C75.9918 26.9469 76.5689 27.0617 77.0644 27.2913C77.5629 27.5179 77.9541 27.8336 78.2381 28.2385C78.5221 28.6403 78.6686 29.1025 78.6777 29.6252H77.0598ZM83.7658 27.0738V36.355H82.08V29.2219H82.0029C81.9425 29.3155 81.8277 29.4167 81.6585 29.5255C81.4893 29.6313 81.2718 29.7219 81.0059 29.7974C80.7431 29.8729 80.4364 29.9107 80.086 29.9107V28.5512C80.4062 28.5512 80.6917 28.4953 80.9425 28.3835C81.1932 28.2717 81.4062 28.1327 81.5815 27.9666C81.7597 27.8004 81.8972 27.6357 81.9939 27.4726C82.0905 27.3094 82.1434 27.1765 82.1525 27.0738H83.7658ZM89.5631 36.5317C88.8169 36.5317 88.1764 36.3429 87.6416 35.9652C87.1099 35.5846 86.7005 35.0362 86.4135 34.3202C86.1295 33.6011 85.9875 32.7356 85.9875 31.7234C85.9906 30.7113 86.1341 29.8503 86.4181 29.1403C86.7051 28.4273 87.1144 27.8835 87.6462 27.5088C88.1809 27.1342 88.8199 26.9469 89.5631 26.9469C90.3064 26.9469 90.9454 27.1342 91.4801 27.5088C92.0149 27.8835 92.4242 28.4273 92.7082 29.1403C92.9953 29.8533 93.1388 30.7144 93.1388 31.7234C93.1388 32.7386 92.9953 33.6057 92.7082 34.3247C92.4242 35.0407 92.0149 35.5876 91.4801 35.9652C90.9484 36.3429 90.3094 36.5317 89.5631 36.5317ZM89.5631 35.1133C90.1432 35.1133 90.6009 34.8278 90.9363 34.2567C91.2747 33.6827 91.4439 32.8383 91.4439 31.7234C91.4439 30.9863 91.3668 30.3669 91.2127 29.8654C91.0587 29.3639 90.8411 28.9862 90.5601 28.7324C90.2792 28.4756 89.9468 28.3472 89.5631 28.3472C88.9861 28.3472 88.5299 28.6342 88.1945 29.2083C87.8592 29.7793 87.69 30.6177 87.687 31.7234C87.6839 32.4636 87.758 33.086 87.909 33.5906C88.0631 34.0951 88.2806 34.4758 88.5616 34.7326C88.8426 34.9864 89.1764 35.1133 89.5631 35.1133ZM98.0751 36.5317C97.3288 36.5317 96.6883 36.3429 96.1536 35.9652C95.6218 35.5846 95.2125 35.0362 94.9254 34.3202C94.6414 33.6011 94.4994 32.7356 94.4994 31.7234C94.5025 30.7113 94.646 29.8503 94.93 29.1403C95.217 28.4273 95.6264 27.8835 96.1581 27.5088C96.6929 27.1342 97.3318 26.9469 98.0751 26.9469C98.8183 26.9469 99.4573 27.1342 99.992 27.5088C100.527 27.8835 100.936 28.4273 101.22 29.1403C101.507 29.8533 101.651 30.7144 101.651 31.7234C101.651 32.7386 101.507 33.6057 101.22 34.3247C100.936 35.0407 100.527 35.5876 99.992 35.9652C99.4603 36.3429 98.8213 36.5317 98.0751 36.5317ZM98.0751 35.1133C98.6551 35.1133 99.1128 34.8278 99.4482 34.2567C99.7866 33.6827 99.9558 32.8383 99.9558 31.7234C99.9558 30.9863 99.8787 30.3669 99.7246 29.8654C99.5706 29.3639 99.353 28.9862 99.0721 28.7324C98.7911 28.4756 98.4588 28.3472 98.0751 28.3472C97.498 28.3472 97.0418 28.6342 96.7064 29.2083C96.3711 29.7793 96.2019 30.6177 96.1989 31.7234C96.1959 32.4636 96.2699 33.086 96.4209 33.5906C96.575 34.0951 96.7926 34.4758 97.0735 34.7326C97.3545 34.9864 97.6883 35.1133 98.0751 35.1133ZM104.739 35.0861L104.68 35.5846C104.638 35.9652 104.562 36.352 104.454 36.7447C104.348 37.1405 104.236 37.5046 104.118 37.8369C104 38.1692 103.905 38.4306 103.833 38.6209H102.727C102.769 38.4366 102.827 38.1858 102.899 37.8686C102.975 37.5514 103.047 37.1949 103.117 36.7991C103.186 36.4033 103.233 36.0015 103.257 35.5936L103.289 35.0861H104.739ZM109.628 36.5317C108.882 36.5317 108.241 36.3429 107.706 35.9652C107.175 35.5846 106.765 35.0362 106.478 34.3202C106.194 33.6011 106.052 32.7356 106.052 31.7234C106.055 30.7113 106.199 29.8503 106.483 29.1403C106.77 28.4273 107.179 27.8835 107.711 27.5088C108.246 27.1342 108.885 26.9469 109.628 26.9469C110.371 26.9469 111.01 27.1342 111.545 27.5088C112.08 27.8835 112.489 28.4273 112.773 29.1403C113.06 29.8533 113.203 30.7144 113.203 31.7234C113.203 32.7386 113.06 33.6057 112.773 34.3247C112.489 35.0407 112.08 35.5876 111.545 35.9652C111.013 36.3429 110.374 36.5317 109.628 36.5317ZM109.628 35.1133C110.208 35.1133 110.666 34.8278 111.001 34.2567C111.339 33.6827 111.509 32.8383 111.509 31.7234C111.509 30.9863 111.431 30.3669 111.277 29.8654C111.123 29.3639 110.906 28.9862 110.625 28.7324C110.344 28.4756 110.012 28.3472 109.628 28.3472C109.051 28.3472 108.595 28.6342 108.259 29.2083C107.924 29.7793 107.755 30.6177 107.752 31.7234C107.749 32.4636 107.823 33.086 107.974 33.5906C108.128 34.0951 108.345 34.4758 108.626 34.7326C108.907 34.9864 109.241 35.1133 109.628 35.1133ZM118.14 36.5317C117.394 36.5317 116.753 36.3429 116.218 35.9652C115.687 35.5846 115.277 35.0362 114.99 34.3202C114.706 33.6011 114.564 32.7356 114.564 31.7234C114.567 30.7113 114.711 29.8503 114.995 29.1403C115.282 28.4273 115.691 27.8835 116.223 27.5088C116.758 27.1342 117.397 26.9469 118.14 26.9469C118.883 26.9469 119.522 27.1342 120.057 27.5088C120.591 27.8835 121.001 28.4273 121.285 29.1403C121.572 29.8533 121.715 30.7144 121.715 31.7234C121.715 32.7386 121.572 33.6057 121.285 34.3247C121.001 35.0407 120.591 35.5876 120.057 35.9652C119.525 36.3429 118.886 36.5317 118.14 36.5317ZM118.14 35.1133C118.72 35.1133 119.178 34.8278 119.513 34.2567C119.851 33.6827 120.02 32.8383 120.02 31.7234C120.02 30.9863 119.943 30.3669 119.789 29.8654C119.635 29.3639 119.418 28.9862 119.137 28.7324C118.856 28.4756 118.523 28.3472 118.14 28.3472C117.563 28.3472 117.106 28.6342 116.771 29.2083C116.436 29.7793 116.267 30.6177 116.264 31.7234C116.261 32.4636 116.335 33.086 116.486 33.5906C116.64 34.0951 116.857 34.4758 117.138 34.7326C117.419 34.9864 117.753 35.1133 118.14 35.1133ZM126.652 36.5317C125.905 36.5317 125.265 36.3429 124.73 35.9652C124.198 35.5846 123.789 35.0362 123.502 34.3202C123.218 33.6011 123.076 32.7356 123.076 31.7234C123.079 30.7113 123.223 29.8503 123.507 29.1403C123.794 28.4273 124.203 27.8835 124.735 27.5088C125.269 27.1342 125.908 26.9469 126.652 26.9469C127.395 26.9469 128.034 27.1342 128.569 27.5088C129.103 27.8835 129.513 28.4273 129.797 29.1403C130.084 29.8533 130.227 30.7144 130.227 31.7234C130.227 32.7386 130.084 33.6057 129.797 34.3247C129.513 35.0407 129.103 35.5876 128.569 35.9652C128.037 36.3429 127.398 36.5317 126.652 36.5317ZM126.652 35.1133C127.232 35.1133 127.689 34.8278 128.025 34.2567C128.363 33.6827 128.532 32.8383 128.532 31.7234C128.532 30.9863 128.455 30.3669 128.301 29.8654C128.147 29.3639 127.93 28.9862 127.649 28.7324C127.368 28.4756 127.035 28.3472 126.652 28.3472C126.075 28.3472 125.618 28.6342 125.283 29.2083C124.948 29.7793 124.779 30.6177 124.775 31.7234C124.772 32.4636 124.846 33.086 124.998 33.5906C125.152 34.0951 125.369 34.4758 125.65 34.7326C125.931 34.9864 126.265 35.1133 126.652 35.1133Z" fill="#14191F"/>
<path opacity="0.5" d="M71.7168 47.8054V46.8084H78.6777V47.8054H75.7592V56.0896H74.6353V47.8054H71.7168ZM79.5444 56.0896V49.1287H80.5777V50.1801H80.6502C80.774 49.8357 81.0021 49.5562 81.3345 49.3417C81.6668 49.1272 82.0429 49.0199 82.4629 49.0199C82.6563 49.0199 82.8254 49.0426 82.9705 49.0879C83.1155 49.1332 83.2424 49.1952 83.3511 49.2737L82.9886 50.1801C82.9131 50.1408 82.8239 50.1106 82.7212 50.0895C82.6215 50.0653 82.5052 50.0532 82.3723 50.0532C82.0339 50.0532 81.7318 50.1242 81.4659 50.2662C81.2031 50.4082 80.9946 50.6016 80.8405 50.8463C80.6894 51.091 80.6139 51.3705 80.6139 51.6847V56.0896H79.5444ZM86.8588 56.2346C86.2787 56.2346 85.7666 56.0881 85.3225 55.795C84.8784 55.499 84.5309 55.082 84.2802 54.5442C84.0294 54.0034 83.904 53.3645 83.904 52.6273C83.904 51.8961 84.0294 51.2617 84.2802 50.7239C84.5309 50.1861 84.8799 49.7707 85.327 49.4777C85.7742 49.1846 86.2908 49.0381 86.8769 49.0381C87.3301 49.0381 87.6881 49.1136 87.9509 49.2647C88.2168 49.4127 88.4192 49.5819 88.5582 49.7722C88.7002 49.9595 88.8105 50.1136 88.889 50.2345H88.9797V49.1287H90.0492V56.0896H89.0159V55.0201H88.889C88.8105 55.147 88.6987 55.3071 88.5537 55.5005C88.4087 55.6908 88.2017 55.8615 87.9328 56.0126C87.6639 56.1606 87.3059 56.2346 86.8588 56.2346ZM87.0038 55.2739C87.4328 55.2739 87.7954 55.1621 88.0914 54.9385C88.3875 54.7119 88.6126 54.3992 88.7667 54.0004C88.9208 53.5986 88.9978 53.1348 88.9978 52.6092C88.9978 52.0895 88.9223 51.6348 88.7712 51.2451C88.6201 50.8523 88.3966 50.5472 88.1005 50.3296C87.8044 50.1091 87.4389 49.9988 87.0038 49.9988C86.5506 49.9988 86.173 50.1151 85.8708 50.3478C85.5717 50.5774 85.3467 50.8901 85.1956 51.2859C85.0476 51.6786 84.9735 52.1197 84.9735 52.6092C84.9735 53.1046 85.0491 53.5548 85.2001 53.9596C85.3542 54.3615 85.5808 54.6817 85.8799 54.9204C86.182 55.156 86.5567 55.2739 87.0038 55.2739ZM93.226 51.9022V56.0896H92.1565V49.1287H93.1897V50.2163H93.2804C93.4435 49.8629 93.6913 49.5789 94.0236 49.3644C94.3559 49.1468 94.785 49.0381 95.3106 49.0381C95.782 49.0381 96.1944 49.1347 96.5478 49.3281C96.9013 49.5184 97.1762 49.8085 97.3726 50.1982C97.569 50.5849 97.6672 51.0744 97.6672 51.6665V56.0896H96.5977V51.739C96.5977 51.1922 96.4557 50.7662 96.1717 50.4611C95.8877 50.1529 95.498 49.9988 95.0025 49.9988C94.6611 49.9988 94.3559 50.0728 94.087 50.2209C93.8212 50.3689 93.6112 50.5849 93.4571 50.8689C93.303 51.1529 93.226 51.4973 93.226 51.9022ZM104.552 50.6877L103.591 50.9596C103.531 50.7994 103.442 50.6438 103.324 50.4928C103.209 50.3387 103.052 50.2118 102.853 50.1121C102.653 50.0124 102.398 49.9626 102.087 49.9626C101.661 49.9626 101.306 50.0608 101.022 50.2571C100.741 50.4505 100.6 50.6967 100.6 50.9958C100.6 51.2617 100.697 51.4717 100.89 51.6257C101.084 51.7798 101.386 51.9082 101.797 52.011L102.83 52.2647C103.452 52.4158 103.916 52.6469 104.221 52.9581C104.527 53.2663 104.679 53.6636 104.679 54.15C104.679 54.5488 104.564 54.9053 104.335 55.2195C104.108 55.5337 103.791 55.7814 103.383 55.9627C102.975 56.144 102.501 56.2346 101.96 56.2346C101.25 56.2346 100.662 56.0805 100.197 55.7724C99.7318 55.4642 99.4373 55.014 99.3134 54.4219L100.329 54.1681C100.425 54.5427 100.608 54.8237 100.877 55.011C101.149 55.1983 101.504 55.292 101.942 55.292C102.44 55.292 102.836 55.1863 103.129 54.9748C103.425 54.7603 103.573 54.5035 103.573 54.2044C103.573 53.9627 103.489 53.7602 103.32 53.5971C103.15 53.4309 102.891 53.3071 102.54 53.2255L101.38 52.9536C100.742 52.8025 100.274 52.5684 99.975 52.2511C99.679 51.9309 99.5309 51.5306 99.5309 51.0502C99.5309 50.6574 99.6412 50.31 99.8617 50.0079C100.085 49.7058 100.389 49.4686 100.773 49.2964C101.159 49.1242 101.597 49.0381 102.087 49.0381C102.776 49.0381 103.317 49.1891 103.709 49.4913C104.105 49.7934 104.386 50.1922 104.552 50.6877ZM109.389 49.1287V50.0351H105.636V49.1287H109.389ZM106.76 56.0896V48.168C106.76 47.7692 106.854 47.4368 107.041 47.171C107.229 46.9051 107.472 46.7057 107.771 46.5728C108.07 46.4398 108.386 46.3734 108.718 46.3734C108.981 46.3734 109.195 46.3945 109.362 46.4368C109.528 46.4791 109.652 46.5184 109.733 46.5546L109.425 47.4791C109.371 47.461 109.295 47.4383 109.198 47.4111C109.105 47.384 108.981 47.3704 108.827 47.3704C108.473 47.3704 108.218 47.4595 108.061 47.6377C107.907 47.816 107.83 48.0773 107.83 48.4217V56.0896H106.76ZM113.52 56.2346C112.849 56.2346 112.27 56.0866 111.784 55.7905C111.3 55.4914 110.927 55.0745 110.664 54.5397C110.405 54.0019 110.275 53.3765 110.275 52.6635C110.275 51.9505 110.405 51.3221 110.664 50.7783C110.927 50.2315 111.293 49.8055 111.761 49.5003C112.233 49.1922 112.782 49.0381 113.411 49.0381C113.773 49.0381 114.131 49.0985 114.485 49.2193C114.838 49.3402 115.16 49.5366 115.45 49.8085C115.74 50.0774 115.971 50.4339 116.143 50.878C116.316 51.3221 116.402 51.869 116.402 52.5185V52.9717H111.036V52.0472H115.314C115.314 51.6544 115.236 51.304 115.078 50.9958C114.924 50.6877 114.704 50.4444 114.417 50.2662C114.133 50.0879 113.797 49.9988 113.411 49.9988C112.985 49.9988 112.616 50.1046 112.305 50.316C111.997 50.5245 111.76 50.7964 111.594 51.1318C111.427 51.4671 111.344 51.8267 111.344 52.2104V52.8267C111.344 53.3524 111.435 53.798 111.616 54.1636C111.8 54.5261 112.056 54.8026 112.382 54.9929C112.708 55.1802 113.088 55.2739 113.52 55.2739C113.801 55.2739 114.054 55.2346 114.281 55.156C114.511 55.0745 114.708 54.9536 114.875 54.7935C115.041 54.6303 115.169 54.4279 115.26 54.1862L116.293 54.4763C116.184 54.8267 116.001 55.1349 115.745 55.4008C115.488 55.6636 115.171 55.8691 114.793 56.0171C114.415 56.1621 113.991 56.2346 113.52 56.2346ZM118.029 56.0896V49.1287H119.062V50.1801H119.134C119.258 49.8357 119.486 49.5562 119.819 49.3417C120.151 49.1272 120.527 49.0199 120.947 49.0199C121.141 49.0199 121.31 49.0426 121.455 49.0879C121.6 49.1332 121.727 49.1952 121.835 49.2737L121.473 50.1801C121.397 50.1408 121.308 50.1106 121.206 50.0895C121.106 50.0653 120.99 50.0532 120.857 50.0532C120.518 50.0532 120.216 50.1242 119.95 50.2662C119.687 50.4082 119.479 50.6016 119.325 50.8463C119.174 51.091 119.098 51.3705 119.098 51.6847V56.0896H118.029Z" fill="#14191F"/>
<path d="M226.354 51.4487C232.396 51.4487 237.293 46.5515 237.293 40.5101C237.293 34.4687 232.396 29.5715 226.354 29.5715C220.313 29.5715 215.416 34.4687 215.416 40.5101C215.416 46.5515 220.313 51.4487 226.354 51.4487Z" fill="#00535C"/>
<path d="M221.404 41.217L224.233 44.0457L231.305 36.9739" fill="#00535C"/>
<path d="M221.404 41.217L224.233 44.0457L231.305 36.9739" stroke="white" stroke-width="1.68286" stroke-linecap="round" stroke-linejoin="round"/>
<rect x="21.4213" y="117.244" width="252.498" height="80.216" rx="9.11546" fill="white"/>
<rect x="21.877" y="117.7" width="251.587" height="79.3045" rx="8.65968" stroke="#14191F" stroke-opacity="0.1" stroke-width="0.911546"/>
<circle cx="62.8966" cy="157.352" r="21.8771" fill="#00535C" fill-opacity="0.1"/>
<path d="M72.4679 163.733V166.467H54.2369V163.733C54.2369 163.231 54.6471 162.821 55.1485 162.821H71.5563C72.0577 162.821 72.4679 163.231 72.4679 163.733Z" fill="#00535C" stroke="#00535C" stroke-width="1.36732" stroke-miterlimit="10" stroke-linecap="round" stroke-linejoin="round"/>
<path d="M58.7946 156.44H56.9716V162.821H58.7946V156.44Z" fill="#00535C"/>
<path d="M62.4408 156.44H60.6177V162.821H62.4408V156.44Z" fill="#00535C"/>
<path d="M66.087 156.44H64.2639V162.821H66.087V156.44Z" fill="#00535C"/>
<path d="M69.7332 156.44H67.9101V162.821H69.7332V156.44Z" fill="#00535C"/>
<path d="M73.3794 167.151H53.3254C52.9516 167.151 52.6417 166.841 52.6417 166.467C52.6417 166.094 52.9516 165.784 53.3254 165.784H73.3794C73.7531 165.784 74.063 166.094 74.063 166.467C74.063 166.841 73.7531 167.151 73.3794 167.151Z" fill="#00535C"/>
<path d="M71.8936 151.655L63.6897 148.373C63.5074 148.3 63.1974 148.3 63.0151 148.373L54.8112 151.655C54.4922 151.782 54.2369 152.156 54.2369 152.503V155.529C54.2369 156.03 54.6471 156.44 55.1485 156.44H71.5563C72.0577 156.44 72.4679 156.03 72.4679 155.529V152.503C72.4679 152.156 72.2126 151.782 71.8936 151.655ZM63.3524 154.162C62.5958 154.162 61.9851 153.551 61.9851 152.794C61.9851 152.038 62.5958 151.427 63.3524 151.427C64.109 151.427 64.7197 152.038 64.7197 152.794C64.7197 153.551 64.109 154.162 63.3524 154.162Z" fill="#00535C"/>
<path d="M96.7934 154.193V142.591H97.5366V154.193H96.7934ZM98.937 146.303C98.8947 145.907 98.7164 145.599 98.4022 145.378C98.091 145.158 97.6862 145.047 97.1877 145.047C96.8372 145.047 96.5366 145.1 96.2858 145.206C96.0351 145.312 95.8432 145.455 95.7103 145.637C95.5774 145.818 95.5094 146.025 95.5064 146.257C95.5064 146.451 95.5502 146.618 95.6378 146.76C95.7284 146.902 95.8508 147.023 96.0049 147.123C96.1589 147.22 96.3296 147.301 96.517 147.368C96.7043 147.434 96.8931 147.49 97.0834 147.535L97.9536 147.753C98.304 147.834 98.6409 147.945 98.9642 148.084C99.2904 148.223 99.582 148.398 99.8388 148.609C100.099 148.821 100.304 149.076 100.455 149.375C100.606 149.674 100.682 150.025 100.682 150.427C100.682 150.97 100.543 151.449 100.265 151.863C99.9868 152.274 99.585 152.596 99.0593 152.829C98.5366 153.058 97.9037 153.173 97.1605 153.173C96.4384 153.173 95.8115 153.061 95.2798 152.838C94.7511 152.614 94.3371 152.288 94.038 151.859C93.742 151.43 93.5818 150.907 93.5577 150.291H95.2118C95.236 150.614 95.3357 150.883 95.5109 151.097C95.6861 151.312 95.9142 151.472 96.1952 151.578C96.4792 151.683 96.7964 151.736 97.1469 151.736C97.5125 151.736 97.8327 151.682 98.1076 151.573C98.3856 151.461 98.6031 151.307 98.7602 151.111C98.9173 150.912 98.9974 150.679 99.0004 150.413C98.9974 150.171 98.9264 149.972 98.7874 149.815C98.6484 149.655 98.4536 149.522 98.2028 149.416C97.9551 149.307 97.665 149.211 97.3327 149.126L96.2768 148.854C95.5124 148.658 94.9082 148.36 94.464 147.961C94.0229 147.56 93.8024 147.026 93.8024 146.362C93.8024 145.815 93.9504 145.336 94.2465 144.925C94.5456 144.514 94.952 144.195 95.4656 143.969C95.9792 143.739 96.5608 143.624 97.2103 143.624C97.869 143.624 98.446 143.739 98.9415 143.969C99.44 144.195 99.8312 144.511 100.115 144.916C100.399 145.318 100.546 145.78 100.555 146.303H98.937ZM105.643 143.751V153.032H103.957V145.899H103.88C103.82 145.993 103.705 146.094 103.536 146.203C103.366 146.309 103.149 146.399 102.883 146.475C102.62 146.55 102.314 146.588 101.963 146.588V145.229C102.283 145.229 102.569 145.173 102.82 145.061C103.07 144.949 103.283 144.81 103.459 144.644C103.637 144.478 103.774 144.313 103.871 144.15C103.968 143.987 104.021 143.854 104.03 143.751H105.643ZM111.44 153.209C110.694 153.209 110.054 153.02 109.519 152.643C108.987 152.262 108.578 151.714 108.291 150.998C108.007 150.279 107.865 149.413 107.865 148.401C107.868 147.389 108.011 146.528 108.295 145.818C108.582 145.105 108.992 144.561 109.523 144.186C110.058 143.812 110.697 143.624 111.44 143.624C112.184 143.624 112.822 143.812 113.357 144.186C113.892 144.561 114.301 145.105 114.585 145.818C114.872 146.531 115.016 147.392 115.016 148.401C115.016 149.416 114.872 150.283 114.585 151.002C114.301 151.718 113.892 152.265 113.357 152.643C112.826 153.02 112.187 153.209 111.44 153.209ZM111.44 151.791C112.02 151.791 112.478 151.505 112.813 150.934C113.152 150.36 113.321 149.516 113.321 148.401C113.321 147.664 113.244 147.044 113.09 146.543C112.936 146.041 112.718 145.664 112.437 145.41C112.156 145.153 111.824 145.025 111.44 145.025C110.863 145.025 110.407 145.312 110.072 145.886C109.736 146.457 109.567 147.295 109.564 148.401C109.561 149.141 109.635 149.764 109.786 150.268C109.94 150.773 110.158 151.153 110.439 151.41C110.72 151.664 111.054 151.791 111.44 151.791ZM119.952 153.209C119.206 153.209 118.565 153.02 118.031 152.643C117.499 152.262 117.09 151.714 116.803 150.998C116.519 150.279 116.377 149.413 116.377 148.401C116.38 147.389 116.523 146.528 116.807 145.818C117.094 145.105 117.503 144.561 118.035 144.186C118.57 143.812 119.209 143.624 119.952 143.624C120.695 143.624 121.334 143.812 121.869 144.186C122.404 144.561 122.813 145.105 123.097 145.818C123.384 146.531 123.528 147.392 123.528 148.401C123.528 149.416 123.384 150.283 123.097 151.002C122.813 151.718 122.404 152.265 121.869 152.643C121.337 153.02 120.698 153.209 119.952 153.209ZM119.952 151.791C120.532 151.791 120.99 151.505 121.325 150.934C121.664 150.36 121.833 149.516 121.833 148.401C121.833 147.664 121.756 147.044 121.602 146.543C121.448 146.041 121.23 145.664 120.949 145.41C120.668 145.153 120.336 145.025 119.952 145.025C119.375 145.025 118.919 145.312 118.584 145.886C118.248 146.457 118.079 147.295 118.076 148.401C118.073 149.141 118.147 149.764 118.298 150.268C118.452 150.773 118.67 151.153 118.951 151.41C119.232 151.664 119.565 151.791 119.952 151.791ZM126.616 151.764L126.557 152.262C126.515 152.643 126.44 153.029 126.331 153.422C126.225 153.818 126.113 154.182 125.995 154.514C125.878 154.847 125.782 155.108 125.71 155.298H124.604C124.646 155.114 124.704 154.863 124.776 154.546C124.852 154.229 124.924 153.872 124.994 153.477C125.063 153.081 125.11 152.679 125.134 152.271L125.166 151.764H126.616ZM131.505 153.209C130.759 153.209 130.118 153.02 129.583 152.643C129.052 152.262 128.642 151.714 128.355 150.998C128.071 150.279 127.929 149.413 127.929 148.401C127.932 147.389 128.076 146.528 128.36 145.818C128.647 145.105 129.056 144.561 129.588 144.186C130.123 143.812 130.762 143.624 131.505 143.624C132.248 143.624 132.887 143.812 133.422 144.186C133.957 144.561 134.366 145.105 134.65 145.818C134.937 146.531 135.081 147.392 135.081 148.401C135.081 149.416 134.937 150.283 134.65 151.002C134.366 151.718 133.957 152.265 133.422 152.643C132.89 153.02 132.251 153.209 131.505 153.209ZM131.505 151.791C132.085 151.791 132.543 151.505 132.878 150.934C133.216 150.36 133.386 149.516 133.386 148.401C133.386 147.664 133.309 147.044 133.155 146.543C133 146.041 132.783 145.664 132.502 145.41C132.221 145.153 131.889 145.025 131.505 145.025C130.928 145.025 130.472 145.312 130.136 145.886C129.801 146.457 129.632 147.295 129.629 148.401C129.626 149.141 129.7 149.764 129.851 150.268C130.005 150.773 130.222 151.153 130.503 151.41C130.784 151.664 131.118 151.791 131.505 151.791ZM140.017 153.209C139.271 153.209 138.63 153.02 138.095 152.643C137.564 152.262 137.154 151.714 136.867 150.998C136.583 150.279 136.441 149.413 136.441 148.401C136.444 147.389 136.588 146.528 136.872 145.818C137.159 145.105 137.568 144.561 138.1 144.186C138.635 143.812 139.274 143.624 140.017 143.624C140.76 143.624 141.399 143.812 141.934 144.186C142.469 144.561 142.878 145.105 143.162 145.818C143.449 146.531 143.592 147.392 143.592 148.401C143.592 149.416 143.449 150.283 143.162 151.002C142.878 151.718 142.469 152.265 141.934 152.643C141.402 153.02 140.763 153.209 140.017 153.209ZM140.017 151.791C140.597 151.791 141.055 151.505 141.39 150.934C141.728 150.36 141.898 149.516 141.898 148.401C141.898 147.664 141.821 147.044 141.666 146.543C141.512 146.041 141.295 145.664 141.014 145.41C140.733 145.153 140.401 145.025 140.017 145.025C139.44 145.025 138.984 145.312 138.648 145.886C138.313 146.457 138.144 147.295 138.141 148.401C138.138 149.141 138.212 149.764 138.363 150.268C138.517 150.773 138.734 151.153 139.015 151.41C139.296 151.664 139.63 151.791 140.017 151.791ZM148.529 153.209C147.783 153.209 147.142 153.02 146.607 152.643C146.076 152.262 145.666 151.714 145.379 150.998C145.095 150.279 144.953 149.413 144.953 148.401C144.956 147.389 145.1 146.528 145.384 145.818C145.671 145.105 146.08 144.561 146.612 144.186C147.147 143.812 147.786 143.624 148.529 143.624C149.272 143.624 149.911 143.812 150.446 144.186C150.981 144.561 151.39 145.105 151.674 145.818C151.961 146.531 152.104 147.392 152.104 148.401C152.104 149.416 151.961 150.283 151.674 151.002C151.39 151.718 150.981 152.265 150.446 152.643C149.914 153.02 149.275 153.209 148.529 153.209ZM148.529 151.791C149.109 151.791 149.567 151.505 149.902 150.934C150.24 150.36 150.41 149.516 150.41 148.401C150.41 147.664 150.332 147.044 150.178 146.543C150.024 146.041 149.807 145.664 149.526 145.41C149.245 145.153 148.912 145.025 148.529 145.025C147.952 145.025 147.496 145.312 147.16 145.886C146.825 146.457 146.656 147.295 146.653 148.401C146.65 149.141 146.724 149.764 146.875 150.268C147.029 150.773 147.246 151.153 147.527 151.41C147.808 151.664 148.142 151.791 148.529 151.791Z" fill="#14191F"/>
<path opacity="0.5" d="M101.933 168.126C101.933 169.105 101.756 169.951 101.402 170.664C101.049 171.377 100.564 171.927 99.9476 172.314C99.3312 172.701 98.6273 172.894 97.8357 172.894C97.0442 172.894 96.3402 172.701 95.7239 172.314C95.1076 171.927 94.6227 171.377 94.2692 170.664C93.9157 169.951 93.7389 169.105 93.7389 168.126C93.7389 167.148 93.9157 166.302 94.2692 165.589C94.6227 164.876 95.1076 164.326 95.7239 163.939C96.3402 163.552 97.0442 163.359 97.8357 163.359C98.6273 163.359 99.3312 163.552 99.9476 163.939C100.564 164.326 101.049 164.876 101.402 165.589C101.756 166.302 101.933 167.148 101.933 168.126ZM100.845 168.126C100.845 167.323 100.71 166.645 100.442 166.092C100.176 165.539 99.8146 165.12 99.3584 164.836C98.9052 164.552 98.3977 164.41 97.8357 164.41C97.2738 164.41 96.7647 164.552 96.3085 164.836C95.8553 165.12 95.4943 165.539 95.2254 166.092C94.9595 166.645 94.8266 167.323 94.8266 168.126C94.8266 168.93 94.9595 169.608 95.2254 170.161C95.4943 170.714 95.8553 171.133 96.3085 171.417C96.7647 171.701 97.2738 171.843 97.8357 171.843C98.3977 171.843 98.9052 171.701 99.3584 171.417C99.8146 171.133 100.176 170.714 100.442 170.161C100.71 169.608 100.845 168.93 100.845 168.126ZM106.777 165.806V166.713H103.025V165.806H106.777ZM104.149 172.767V164.845C104.149 164.447 104.242 164.114 104.43 163.848C104.617 163.583 104.86 163.383 105.159 163.25C105.458 163.117 105.774 163.051 106.106 163.051C106.369 163.051 106.584 163.072 106.75 163.114C106.916 163.157 107.04 163.196 107.121 163.232L106.813 164.157C106.759 164.138 106.683 164.116 106.587 164.089C106.493 164.061 106.369 164.048 106.215 164.048C105.862 164.048 105.606 164.137 105.449 164.315C105.295 164.493 105.218 164.755 105.218 165.099V172.767H104.149ZM111.376 165.806V166.713H107.623V165.806H111.376ZM108.747 172.767V164.845C108.747 164.447 108.841 164.114 109.028 163.848C109.216 163.583 109.459 163.383 109.758 163.25C110.057 163.117 110.373 163.051 110.705 163.051C110.968 163.051 111.182 163.072 111.349 163.114C111.515 163.157 111.639 163.196 111.72 163.232L111.412 164.157C111.358 164.138 111.282 164.116 111.185 164.089C111.092 164.061 110.968 164.048 110.814 164.048C110.46 164.048 110.205 164.137 110.048 164.315C109.894 164.493 109.817 164.755 109.817 165.099V172.767H108.747ZM112.875 172.767V165.806H113.944V172.767H112.875ZM113.418 164.646C113.21 164.646 113.03 164.575 112.879 164.433C112.731 164.291 112.657 164.12 112.657 163.921C112.657 163.722 112.731 163.551 112.879 163.409C113.03 163.267 113.21 163.196 113.418 163.196C113.627 163.196 113.805 163.267 113.953 163.409C114.104 163.551 114.18 163.722 114.18 163.921C114.18 164.12 114.104 164.291 113.953 164.433C113.805 164.575 113.627 164.646 113.418 164.646ZM118.731 172.912C118.078 172.912 117.516 172.758 117.045 172.45C116.574 172.142 116.211 171.717 115.957 171.176C115.704 170.636 115.577 170.018 115.577 169.323C115.577 168.616 115.707 167.992 115.966 167.451C116.229 166.907 116.595 166.483 117.063 166.178C117.534 165.87 118.084 165.716 118.713 165.716C119.202 165.716 119.643 165.806 120.036 165.987C120.429 166.169 120.751 166.423 121.001 166.749C121.252 167.075 121.408 167.456 121.468 167.891H120.399C120.317 167.574 120.136 167.293 119.855 167.048C119.577 166.8 119.202 166.676 118.731 166.676C118.314 166.676 117.948 166.785 117.634 167.003C117.323 167.217 117.08 167.521 116.905 167.913C116.732 168.303 116.646 168.761 116.646 169.287C116.646 169.824 116.731 170.293 116.9 170.692C117.072 171.09 117.314 171.4 117.625 171.621C117.939 171.841 118.308 171.951 118.731 171.951C119.009 171.951 119.261 171.903 119.488 171.806C119.714 171.71 119.906 171.571 120.063 171.389C120.22 171.208 120.332 170.991 120.399 170.737H121.468C121.408 171.148 121.258 171.518 121.019 171.847C120.784 172.173 120.471 172.433 120.081 172.627C119.695 172.817 119.244 172.912 118.731 172.912ZM125.95 172.912C125.279 172.912 124.701 172.764 124.214 172.468C123.731 172.169 123.358 171.752 123.095 171.217C122.835 170.679 122.705 170.054 122.705 169.341C122.705 168.628 122.835 168 123.095 167.456C123.358 166.909 123.723 166.483 124.192 166.178C124.663 165.87 125.213 165.716 125.841 165.716C126.204 165.716 126.562 165.776 126.915 165.897C127.269 166.018 127.591 166.214 127.881 166.486C128.171 166.755 128.402 167.111 128.574 167.555C128.746 168 128.832 168.546 128.832 169.196V169.649H123.467V168.725H127.745C127.745 168.332 127.666 167.981 127.509 167.673C127.355 167.365 127.134 167.122 126.847 166.944C126.563 166.765 126.228 166.676 125.841 166.676C125.415 166.676 125.047 166.782 124.736 166.994C124.427 167.202 124.19 167.474 124.024 167.809C123.858 168.145 123.775 168.504 123.775 168.888V169.504C123.775 170.03 123.865 170.475 124.047 170.841C124.231 171.204 124.486 171.48 124.813 171.67C125.139 171.858 125.518 171.951 125.95 171.951C126.231 171.951 126.485 171.912 126.711 171.834C126.941 171.752 127.139 171.631 127.305 171.471C127.471 171.308 127.6 171.105 127.69 170.864L128.724 171.154C128.615 171.504 128.432 171.812 128.175 172.078C127.918 172.341 127.601 172.547 127.224 172.695C126.846 172.84 126.421 172.912 125.95 172.912ZM138.979 167.365L138.018 167.637C137.958 167.477 137.869 167.321 137.751 167.17C137.636 167.016 137.479 166.889 137.28 166.79C137.08 166.69 136.825 166.64 136.514 166.64C136.088 166.64 135.733 166.738 135.449 166.935C135.168 167.128 135.027 167.374 135.027 167.673C135.027 167.939 135.124 168.149 135.317 168.303C135.511 168.457 135.813 168.586 136.224 168.688L137.257 168.942C137.879 169.093 138.343 169.324 138.648 169.636C138.953 169.944 139.106 170.341 139.106 170.827C139.106 171.226 138.991 171.583 138.762 171.897C138.535 172.211 138.218 172.459 137.81 172.64C137.402 172.821 136.928 172.912 136.387 172.912C135.677 172.912 135.089 172.758 134.624 172.45C134.159 172.142 133.864 171.692 133.74 171.099L134.755 170.846C134.852 171.22 135.035 171.501 135.304 171.689C135.576 171.876 135.931 171.969 136.369 171.969C136.867 171.969 137.263 171.864 137.556 171.652C137.852 171.438 138 171.181 138 170.882C138 170.64 137.916 170.438 137.746 170.275C137.577 170.108 137.317 169.985 136.967 169.903L135.807 169.631C135.169 169.48 134.701 169.246 134.402 168.929C134.106 168.608 133.958 168.208 133.958 167.728C133.958 167.335 134.068 166.987 134.289 166.685C134.512 166.383 134.816 166.146 135.2 165.974C135.586 165.802 136.024 165.716 136.514 165.716C137.203 165.716 137.743 165.867 138.136 166.169C138.532 166.471 138.813 166.87 138.979 167.365ZM145.103 169.921V165.806H146.172V172.767H145.103V171.589H145.03C144.867 171.942 144.613 172.243 144.269 172.491C143.924 172.735 143.489 172.858 142.964 172.858C142.529 172.858 142.142 172.763 141.804 172.572C141.465 172.379 141.199 172.089 141.006 171.702C140.813 171.312 140.716 170.821 140.716 170.229V165.806H141.785V170.157C141.785 170.664 141.927 171.069 142.211 171.371C142.498 171.673 142.864 171.824 143.308 171.824C143.574 171.824 143.844 171.756 144.119 171.621C144.397 171.485 144.63 171.276 144.817 170.995C145.008 170.714 145.103 170.356 145.103 169.921ZM148.131 175.377V165.806H149.164V166.912H149.291C149.37 166.791 149.479 166.637 149.618 166.45C149.76 166.259 149.962 166.09 150.225 165.942C150.491 165.791 150.85 165.716 151.303 165.716C151.89 165.716 152.406 165.862 152.853 166.155C153.3 166.448 153.649 166.864 153.9 167.401C154.151 167.939 154.276 168.574 154.276 169.305C154.276 170.042 154.151 170.681 153.9 171.222C153.649 171.76 153.302 172.176 152.858 172.473C152.414 172.766 151.902 172.912 151.322 172.912C150.874 172.912 150.516 172.838 150.247 172.69C149.979 172.539 149.772 172.368 149.627 172.178C149.482 171.985 149.37 171.824 149.291 171.698H149.201V175.377H148.131ZM149.183 169.287C149.183 169.812 149.26 170.276 149.414 170.678C149.568 171.077 149.793 171.389 150.089 171.616C150.385 171.84 150.748 171.951 151.177 171.951C151.624 171.951 151.997 171.834 152.296 171.598C152.598 171.359 152.825 171.039 152.976 170.637C153.13 170.232 153.207 169.782 153.207 169.287C153.207 168.797 153.131 168.356 152.98 167.963C152.832 167.568 152.607 167.255 152.305 167.025C152.006 166.793 151.63 166.676 151.177 166.676C150.741 166.676 150.376 166.787 150.08 167.007C149.784 167.225 149.56 167.53 149.409 167.923C149.258 168.312 149.183 168.767 149.183 169.287ZM155.908 175.377V165.806H156.941V166.912H157.068C157.146 166.791 157.255 166.637 157.394 166.45C157.536 166.259 157.739 166.09 158.001 165.942C158.267 165.791 158.627 165.716 159.08 165.716C159.666 165.716 160.183 165.862 160.63 166.155C161.077 166.448 161.426 166.864 161.677 167.401C161.928 167.939 162.053 168.574 162.053 169.305C162.053 170.042 161.928 170.681 161.677 171.222C161.426 171.76 161.079 172.176 160.634 172.473C160.19 172.766 159.678 172.912 159.098 172.912C158.651 172.912 158.293 172.838 158.024 172.69C157.755 172.539 157.548 172.368 157.403 172.178C157.258 171.985 157.146 171.824 157.068 171.698H156.977V175.377H155.908ZM156.959 169.287C156.959 169.812 157.036 170.276 157.19 170.678C157.344 171.077 157.569 171.389 157.866 171.616C158.162 171.84 158.524 171.951 158.953 171.951C159.4 171.951 159.773 171.834 160.073 171.598C160.375 171.359 160.601 171.039 160.752 170.637C160.906 170.232 160.983 169.782 160.983 169.287C160.983 168.797 160.908 168.356 160.757 167.963C160.609 167.568 160.384 167.255 160.082 167.025C159.782 166.793 159.406 166.676 158.953 166.676C158.518 166.676 158.153 166.787 157.856 167.007C157.56 167.225 157.337 167.53 157.186 167.923C157.035 168.312 156.959 168.767 156.959 169.287ZM163.684 163.486H164.754V170.954C164.754 171.293 164.792 171.53 164.867 171.666C164.943 171.802 165.098 171.867 165.334 171.861C165.461 171.855 165.555 171.846 165.615 171.834C165.678 171.818 165.736 171.803 165.787 171.788L166.005 172.713C165.911 172.74 165.793 172.764 165.651 172.785C165.509 172.809 165.361 172.821 165.207 172.821C164.7 172.821 164.319 172.682 164.065 172.405C163.811 172.127 163.684 171.74 163.684 171.244V163.486ZM166.987 172.767V165.806H168.056V172.767H166.987ZM167.531 164.646C167.322 164.646 167.143 164.575 166.991 164.433C166.843 164.291 166.769 164.12 166.769 163.921C166.769 163.722 166.843 163.551 166.991 163.409C167.143 163.267 167.322 163.196 167.531 163.196C167.739 163.196 167.917 163.267 168.066 163.409C168.217 163.551 168.292 163.722 168.292 163.921C168.292 164.12 168.217 164.291 168.066 164.433C167.917 164.575 167.739 164.646 167.531 164.646ZM172.934 172.912C172.263 172.912 171.685 172.764 171.198 172.468C170.715 172.169 170.342 171.752 170.079 171.217C169.819 170.679 169.689 170.054 169.689 169.341C169.689 168.628 169.819 168 170.079 167.456C170.342 166.909 170.707 166.483 171.175 166.178C171.647 165.87 172.197 165.716 172.825 165.716C173.188 165.716 173.546 165.776 173.899 165.897C174.253 166.018 174.574 166.214 174.864 166.486C175.154 166.755 175.386 167.111 175.558 167.555C175.73 168 175.816 168.546 175.816 169.196V169.649H170.45V168.725H174.728C174.728 168.332 174.65 167.981 174.493 167.673C174.339 167.365 174.118 167.122 173.831 166.944C173.547 166.765 173.212 166.676 172.825 166.676C172.399 166.676 172.03 166.782 171.719 166.994C171.411 167.202 171.174 167.474 171.008 167.809C170.842 168.145 170.759 168.504 170.759 168.888V169.504C170.759 170.03 170.849 170.475 171.03 170.841C171.215 171.204 171.47 171.48 171.796 171.67C172.123 171.858 172.502 171.951 172.934 171.951C173.215 171.951 173.469 171.912 173.695 171.834C173.925 171.752 174.123 171.631 174.289 171.471C174.455 171.308 174.583 171.105 174.674 170.864L175.707 171.154C175.599 171.504 175.416 171.812 175.159 172.078C174.902 172.341 174.585 172.547 174.207 172.695C173.83 172.84 173.405 172.912 172.934 172.912ZM182.374 167.365L181.413 167.637C181.352 167.477 181.263 167.321 181.146 167.17C181.031 167.016 180.874 166.889 180.674 166.79C180.475 166.69 180.22 166.64 179.908 166.64C179.482 166.64 179.127 166.738 178.843 166.935C178.562 167.128 178.422 167.374 178.422 167.673C178.422 167.939 178.519 168.149 178.712 168.303C178.905 168.457 179.207 168.586 179.618 168.688L180.652 168.942C181.274 169.093 181.738 169.324 182.043 169.636C182.348 169.944 182.501 170.341 182.501 170.827C182.501 171.226 182.386 171.583 182.156 171.897C181.93 172.211 181.612 172.459 181.204 172.64C180.797 172.821 180.322 172.912 179.781 172.912C179.071 172.912 178.484 172.758 178.019 172.45C177.553 172.142 177.259 171.692 177.135 171.099L178.15 170.846C178.247 171.22 178.429 171.501 178.698 171.689C178.97 171.876 179.325 171.969 179.763 171.969C180.262 171.969 180.658 171.864 180.951 171.652C181.247 171.438 181.395 171.181 181.395 170.882C181.395 170.64 181.31 170.438 181.141 170.275C180.972 170.108 180.712 169.985 180.362 169.903L179.201 169.631C178.564 169.48 178.096 169.246 177.797 168.929C177.5 168.608 177.352 168.208 177.352 167.728C177.352 167.335 177.463 166.987 177.683 166.685C177.907 166.383 178.21 166.146 178.594 165.974C178.981 165.802 179.419 165.716 179.908 165.716C180.597 165.716 181.138 165.867 181.531 166.169C181.927 166.471 182.207 166.87 182.374 167.365Z" fill="#14191F"/>
<path d="M248.231 168.291C254.273 168.291 259.17 163.394 259.17 157.352C259.17 151.311 254.273 146.414 248.231 146.414C242.19 146.414 237.293 151.311 237.293 157.352C237.293 163.394 242.19 168.291 248.231 168.291Z" fill="#00535C"/>
<path d="M243.281 158.06L246.11 160.888L253.182 153.816" fill="#00535C"/>
<path d="M243.281 158.06L246.11 160.888L253.182 153.816" stroke="white" stroke-width="1.68286" stroke-linecap="round" stroke-linejoin="round"/>
<g filter="url(#filter0_d_129_22479)">
<rect x="237.002" y="160.998" width="252.498" height="80.216" rx="9.11546" fill="white"/>
<rect x="237.458" y="161.454" width="251.587" height="79.3045" rx="8.65968" stroke="#14191F" stroke-opacity="0.1" stroke-width="0.911546"/>
<circle cx="278.021" cy="201.105" r="21.8771" fill="#00535C" fill-opacity="0.1"/>
<path d="M272.096 191.079C271.239 191.079 270.446 191.38 269.817 191.882C268.979 192.547 268.45 193.577 268.45 194.726C268.45 195.409 268.642 196.056 268.979 196.603C269.608 197.661 270.765 198.372 272.096 198.372C273.017 198.372 273.856 198.034 274.494 197.46C274.776 197.223 275.022 196.931 275.214 196.603C275.551 196.056 275.742 195.409 275.742 194.726C275.742 192.711 274.111 191.079 272.096 191.079ZM273.555 196.166C273.418 196.303 273.245 196.366 273.072 196.366C272.898 196.366 272.725 196.303 272.589 196.166L272.105 195.683L271.604 196.184C271.467 196.321 271.294 196.385 271.121 196.385C270.948 196.385 270.775 196.321 270.638 196.184C270.374 195.92 270.374 195.482 270.638 195.218L271.139 194.716L270.656 194.233C270.392 193.969 270.392 193.531 270.656 193.267C270.92 193.003 271.358 193.003 271.622 193.267L272.105 193.75L272.561 193.294C272.826 193.03 273.263 193.03 273.527 193.294C273.792 193.559 273.792 193.996 273.527 194.261L273.072 194.716L273.555 195.2C273.819 195.464 273.819 195.892 273.555 196.166Z" fill="#00535C"/>
<path opacity="0.4" d="M281.212 192.902V201.106C281.212 202.109 280.391 202.929 279.389 202.929H269.362V197.114C270.027 197.907 271.048 198.399 272.178 198.372C273.099 198.353 273.929 197.998 274.548 197.405C274.831 197.168 275.068 196.867 275.25 196.539C275.578 195.983 275.761 195.327 275.742 194.643C275.715 193.577 275.241 192.638 274.503 191.991H280.3C280.802 191.991 281.212 192.401 281.212 192.902Z" fill="#00535C"/>
<path d="M287.593 202.929V205.664C287.593 207.177 286.371 208.399 284.858 208.399H283.946C283.946 207.396 283.126 206.575 282.123 206.575C281.121 206.575 280.3 207.396 280.3 208.399H276.654C276.654 207.396 275.834 206.575 274.831 206.575C273.828 206.575 273.008 207.396 273.008 208.399H272.096C270.583 208.399 269.362 207.177 269.362 205.664V202.929H279.389C280.391 202.929 281.212 202.109 281.212 201.106V194.725H282.889C283.545 194.725 284.147 195.081 284.475 195.646L286.034 198.372H284.858C284.357 198.372 283.946 198.782 283.946 199.283V202.018C283.946 202.519 284.357 202.929 284.858 202.929H287.593Z" fill="#00535C"/>
<path opacity="0.4" d="M274.831 210.222C275.838 210.222 276.654 209.405 276.654 208.399C276.654 207.392 275.838 206.575 274.831 206.575C273.824 206.575 273.008 207.392 273.008 208.399C273.008 209.405 273.824 210.222 274.831 210.222Z" fill="#00535C"/>
<path opacity="0.4" d="M282.123 210.222C283.13 210.222 283.946 209.405 283.946 208.399C283.946 207.392 283.13 206.575 282.123 206.575C281.116 206.575 280.3 207.392 280.3 208.399C280.3 209.405 281.116 210.222 282.123 210.222Z" fill="#00535C"/>
<path opacity="0.4" d="M287.593 201.589V202.929H284.858C284.357 202.929 283.946 202.519 283.946 202.018V199.283C283.946 198.782 284.357 198.372 284.858 198.372H286.034L287.356 200.687C287.511 200.96 287.593 201.27 287.593 201.589Z" fill="#00535C"/>
<path d="M311.918 197.947V186.345H312.661V197.947H311.918ZM314.062 190.057C314.019 189.661 313.841 189.353 313.527 189.132C313.216 188.912 312.811 188.802 312.312 188.802C311.962 188.802 311.661 188.854 311.411 188.96C311.16 189.066 310.968 189.209 310.835 189.391C310.702 189.572 310.634 189.779 310.631 190.012C310.631 190.205 310.675 190.373 310.763 190.515C310.853 190.657 310.976 190.777 311.13 190.877C311.284 190.974 311.454 191.055 311.642 191.122C311.829 191.188 312.018 191.244 312.208 191.29L313.078 191.507C313.429 191.589 313.766 191.699 314.089 191.838C314.415 191.977 314.707 192.152 314.964 192.364C315.223 192.575 315.429 192.83 315.58 193.129C315.731 193.429 315.806 193.779 315.806 194.181C315.806 194.725 315.667 195.204 315.39 195.617C315.112 196.028 314.71 196.35 314.184 196.583C313.661 196.812 313.028 196.927 312.285 196.927C311.563 196.927 310.936 196.815 310.405 196.592C309.876 196.368 309.462 196.042 309.163 195.613C308.867 195.184 308.707 194.661 308.682 194.045H310.337C310.361 194.368 310.46 194.637 310.636 194.852C310.811 195.066 311.039 195.226 311.32 195.332C311.604 195.438 311.921 195.491 312.272 195.491C312.637 195.491 312.957 195.436 313.232 195.327C313.51 195.216 313.728 195.062 313.885 194.865C314.042 194.666 314.122 194.433 314.125 194.167C314.122 193.926 314.051 193.726 313.912 193.569C313.773 193.409 313.578 193.276 313.328 193.17C313.08 193.061 312.79 192.965 312.457 192.88L311.402 192.608C310.637 192.412 310.033 192.114 309.589 191.716C309.148 191.314 308.927 190.78 308.927 190.116C308.927 189.569 309.075 189.09 309.371 188.679C309.67 188.268 310.077 187.95 310.59 187.723C311.104 187.493 311.686 187.379 312.335 187.379C312.994 187.379 313.571 187.493 314.066 187.723C314.565 187.95 314.956 188.265 315.24 188.67C315.524 189.072 315.671 189.534 315.68 190.057H314.062ZM320.768 187.505V196.787H319.082V189.654H319.005C318.944 189.747 318.83 189.848 318.66 189.957C318.491 190.063 318.274 190.154 318.008 190.229C317.745 190.305 317.438 190.342 317.088 190.342V188.983C317.408 188.983 317.694 188.927 317.944 188.815C318.195 188.703 318.408 188.564 318.583 188.398C318.762 188.232 318.899 188.067 318.996 187.904C319.092 187.741 319.145 187.608 319.154 187.505H320.768ZM326.565 196.963C325.819 196.963 325.178 196.775 324.644 196.397C324.112 196.016 323.702 195.468 323.415 194.752C323.131 194.033 322.989 193.167 322.989 192.155C322.992 191.143 323.136 190.282 323.42 189.572C323.707 188.859 324.116 188.315 324.648 187.94C325.183 187.566 325.822 187.379 326.565 187.379C327.308 187.379 327.947 187.566 328.482 187.94C329.017 188.315 329.426 188.859 329.71 189.572C329.997 190.285 330.141 191.146 330.141 192.155C330.141 193.17 329.997 194.037 329.71 194.756C329.426 195.472 329.017 196.019 328.482 196.397C327.95 196.775 327.311 196.963 326.565 196.963ZM326.565 195.545C327.145 195.545 327.603 195.259 327.938 194.688C328.277 194.114 328.446 193.27 328.446 192.155C328.446 191.418 328.369 190.799 328.215 190.297C328.061 189.796 327.843 189.418 327.562 189.164C327.281 188.907 326.949 188.779 326.565 188.779C325.988 188.779 325.532 189.066 325.196 189.64C324.861 190.211 324.692 191.049 324.689 192.155C324.686 192.895 324.76 193.518 324.911 194.022C325.065 194.527 325.283 194.907 325.564 195.164C325.844 195.418 326.178 195.545 326.565 195.545ZM335.077 196.963C334.331 196.963 333.69 196.775 333.155 196.397C332.624 196.016 332.214 195.468 331.927 194.752C331.643 194.033 331.501 193.167 331.501 192.155C331.504 191.143 331.648 190.282 331.932 189.572C332.219 188.859 332.628 188.315 333.16 187.94C333.695 187.566 334.334 187.379 335.077 187.379C335.82 187.379 336.459 187.566 336.994 187.94C337.529 188.315 337.938 188.859 338.222 189.572C338.509 190.285 338.653 191.146 338.653 192.155C338.653 193.17 338.509 194.037 338.222 194.756C337.938 195.472 337.529 196.019 336.994 196.397C336.462 196.775 335.823 196.963 335.077 196.963ZM335.077 195.545C335.657 195.545 336.115 195.259 336.45 194.688C336.788 194.114 336.958 193.27 336.958 192.155C336.958 191.418 336.881 190.799 336.727 190.297C336.572 189.796 336.355 189.418 336.074 189.164C335.793 188.907 335.461 188.779 335.077 188.779C334.5 188.779 334.044 189.066 333.708 189.64C333.373 190.211 333.204 191.049 333.201 192.155C333.198 192.895 333.272 193.518 333.423 194.022C333.577 194.527 333.794 194.907 334.075 195.164C334.356 195.418 334.69 195.545 335.077 195.545ZM341.741 195.518L341.682 196.016C341.64 196.397 341.564 196.784 341.456 197.176C341.35 197.572 341.238 197.936 341.12 198.269C341.002 198.601 340.907 198.862 340.835 199.053H339.729C339.771 198.868 339.829 198.617 339.901 198.3C339.977 197.983 340.049 197.627 340.119 197.231C340.188 196.835 340.235 196.433 340.259 196.025L340.291 195.518H341.741ZM346.63 196.963C345.883 196.963 345.243 196.775 344.708 196.397C344.176 196.016 343.767 195.468 343.48 194.752C343.196 194.033 343.054 193.167 343.054 192.155C343.057 191.143 343.201 190.282 343.485 189.572C343.772 188.859 344.181 188.315 344.713 187.94C345.248 187.566 345.887 187.379 346.63 187.379C347.373 187.379 348.012 187.566 348.547 187.94C349.081 188.315 349.491 188.859 349.775 189.572C350.062 190.285 350.205 191.146 350.205 192.155C350.205 193.17 350.062 194.037 349.775 194.756C349.491 195.472 349.081 196.019 348.547 196.397C348.015 196.775 347.376 196.963 346.63 196.963ZM346.63 195.545C347.21 195.545 347.668 195.259 348.003 194.688C348.341 194.114 348.51 193.27 348.51 192.155C348.51 191.418 348.433 190.799 348.279 190.297C348.125 189.796 347.908 189.418 347.627 189.164C347.346 188.907 347.013 188.779 346.63 188.779C346.053 188.779 345.596 189.066 345.261 189.64C344.926 190.211 344.757 191.049 344.754 192.155C344.751 192.895 344.825 193.518 344.976 194.022C345.13 194.527 345.347 194.907 345.628 195.164C345.909 195.418 346.243 195.545 346.63 195.545ZM355.142 196.963C354.395 196.963 353.755 196.775 353.22 196.397C352.688 196.016 352.279 195.468 351.992 194.752C351.708 194.033 351.566 193.167 351.566 192.155C351.569 191.143 351.713 190.282 351.997 189.572C352.284 188.859 352.693 188.315 353.225 187.94C353.759 187.566 354.398 187.379 355.142 187.379C355.885 187.379 356.524 187.566 357.059 187.94C357.593 188.315 358.003 188.859 358.287 189.572C358.574 190.285 358.717 191.146 358.717 192.155C358.717 193.17 358.574 194.037 358.287 194.756C358.003 195.472 357.593 196.019 357.059 196.397C356.527 196.775 355.888 196.963 355.142 196.963ZM355.142 195.545C355.722 195.545 356.179 195.259 356.515 194.688C356.853 194.114 357.022 193.27 357.022 192.155C357.022 191.418 356.945 190.799 356.791 190.297C356.637 189.796 356.42 189.418 356.139 189.164C355.858 188.907 355.525 188.779 355.142 188.779C354.565 188.779 354.108 189.066 353.773 189.64C353.438 190.211 353.268 191.049 353.265 192.155C353.262 192.895 353.336 193.518 353.488 194.022C353.642 194.527 353.859 194.907 354.14 195.164C354.421 195.418 354.755 195.545 355.142 195.545ZM363.654 196.963C362.907 196.963 362.267 196.775 361.732 196.397C361.2 196.016 360.791 195.468 360.504 194.752C360.22 194.033 360.078 193.167 360.078 192.155C360.081 191.143 360.224 190.282 360.508 189.572C360.795 188.859 361.205 188.315 361.737 187.94C362.271 187.566 362.91 187.379 363.654 187.379C364.397 187.379 365.036 187.566 365.571 187.94C366.105 188.315 366.515 188.859 366.799 189.572C367.086 190.285 367.229 191.146 367.229 192.155C367.229 193.17 367.086 194.037 366.799 194.756C366.515 195.472 366.105 196.019 365.571 196.397C365.039 196.775 364.4 196.963 363.654 196.963ZM363.654 195.545C364.234 195.545 364.691 195.259 365.027 194.688C365.365 194.114 365.534 193.27 365.534 192.155C365.534 191.418 365.457 190.799 365.303 190.297C365.149 189.796 364.932 189.418 364.651 189.164C364.37 188.907 364.037 188.779 363.654 188.779C363.076 188.779 362.62 189.066 362.285 189.64C361.95 190.211 361.78 191.049 361.777 192.155C361.774 192.895 361.848 193.518 361.999 194.022C362.154 194.527 362.371 194.907 362.652 195.164C362.933 195.418 363.267 195.545 363.654 195.545Z" fill="#14191F"/>
<path opacity="0.5" d="M308.719 208.237V207.24H315.68V208.237H312.761V216.521H311.637V208.237H308.719ZM316.546 216.521V209.56H317.58V210.612H317.652C317.776 210.267 318.004 209.988 318.336 209.773C318.669 209.559 319.045 209.452 319.465 209.452C319.658 209.452 319.827 209.474 319.972 209.52C320.117 209.565 320.244 209.627 320.353 209.705L319.99 210.612C319.915 210.572 319.826 210.542 319.723 210.521C319.623 210.497 319.507 210.485 319.374 210.485C319.036 210.485 318.734 210.556 318.468 210.698C318.205 210.84 317.996 211.033 317.842 211.278C317.691 211.523 317.616 211.802 317.616 212.116V216.521H316.546ZM323.861 216.666C323.281 216.666 322.768 216.52 322.324 216.227C321.88 215.931 321.533 215.514 321.282 214.976C321.031 214.435 320.906 213.796 320.906 213.059C320.906 212.328 321.031 211.693 321.282 211.156C321.533 210.618 321.882 210.202 322.329 209.909C322.776 209.616 323.293 209.47 323.879 209.47C324.332 209.47 324.69 209.545 324.953 209.696C325.219 209.844 325.421 210.014 325.56 210.204C325.702 210.391 325.812 210.545 325.891 210.666H325.982V209.56H327.051V216.521H326.018V215.452H325.891C325.812 215.579 325.701 215.739 325.556 215.932C325.411 216.122 325.204 216.293 324.935 216.444C324.666 216.592 324.308 216.666 323.861 216.666ZM324.006 215.706C324.435 215.706 324.797 215.594 325.093 215.37C325.389 215.144 325.614 214.831 325.769 214.432C325.923 214.03 326 213.566 326 213.041C326 212.521 325.924 212.066 325.773 211.677C325.622 211.284 325.398 210.979 325.102 210.761C324.806 210.541 324.441 210.43 324.006 210.43C323.553 210.43 323.175 210.547 322.873 210.779C322.574 211.009 322.349 211.322 322.197 211.717C322.049 212.11 321.975 212.551 321.975 213.041C321.975 213.536 322.051 213.986 322.202 214.391C322.356 214.793 322.583 215.113 322.882 215.352C323.184 215.588 323.559 215.706 324.006 215.706ZM330.228 212.334V216.521H329.158V209.56H330.192V210.648H330.282C330.445 210.295 330.693 210.011 331.025 209.796C331.358 209.578 331.787 209.47 332.313 209.47C332.784 209.47 333.196 209.566 333.55 209.76C333.903 209.95 334.178 210.24 334.375 210.63C334.571 211.017 334.669 211.506 334.669 212.098V216.521H333.6V212.171C333.6 211.624 333.458 211.198 333.174 210.893C332.89 210.585 332.5 210.43 332.004 210.43C331.663 210.43 331.358 210.504 331.089 210.653C330.823 210.801 330.613 211.017 330.459 211.301C330.305 211.585 330.228 211.929 330.228 212.334ZM341.554 211.119L340.593 211.391C340.533 211.231 340.444 211.075 340.326 210.924C340.211 210.77 340.054 210.643 339.855 210.544C339.655 210.444 339.4 210.394 339.089 210.394C338.663 210.394 338.308 210.492 338.024 210.689C337.743 210.882 337.602 211.128 337.602 211.427C337.602 211.693 337.699 211.903 337.892 212.057C338.086 212.211 338.388 212.34 338.799 212.443L339.832 212.696C340.454 212.847 340.918 213.079 341.223 213.39C341.528 213.698 341.681 214.095 341.681 214.582C341.681 214.98 341.566 215.337 341.337 215.651C341.11 215.965 340.793 216.213 340.385 216.394C339.977 216.576 339.503 216.666 338.962 216.666C338.252 216.666 337.664 216.512 337.199 216.204C336.734 215.896 336.439 215.446 336.315 214.854L337.33 214.6C337.427 214.974 337.61 215.255 337.879 215.443C338.151 215.63 338.506 215.724 338.944 215.724C339.442 215.724 339.838 215.618 340.131 215.406C340.427 215.192 340.575 214.935 340.575 214.636C340.575 214.394 340.491 214.192 340.321 214.029C340.152 213.863 339.892 213.739 339.542 213.657L338.382 213.385C337.744 213.234 337.276 213 336.977 212.683C336.681 212.363 336.533 211.962 336.533 211.482C336.533 211.089 336.643 210.742 336.864 210.44C337.087 210.137 337.391 209.9 337.775 209.728C338.161 209.556 338.599 209.47 339.089 209.47C339.778 209.47 340.318 209.621 340.711 209.923C341.107 210.225 341.388 210.624 341.554 211.119ZM343.291 219.132V209.56H344.324V210.666H344.451C344.53 210.545 344.638 210.391 344.777 210.204C344.919 210.014 345.122 209.844 345.385 209.696C345.65 209.545 346.01 209.47 346.463 209.47C347.049 209.47 347.566 209.616 348.013 209.909C348.46 210.202 348.809 210.618 349.06 211.156C349.311 211.693 349.436 212.328 349.436 213.059C349.436 213.796 349.311 214.435 349.06 214.976C348.809 215.514 348.462 215.931 348.018 216.227C347.573 216.52 347.061 216.666 346.481 216.666C346.034 216.666 345.676 216.592 345.407 216.444C345.138 216.293 344.931 216.122 344.786 215.932C344.641 215.739 344.53 215.579 344.451 215.452H344.36V219.132H343.291ZM344.342 213.041C344.342 213.566 344.419 214.03 344.573 214.432C344.727 214.831 344.953 215.144 345.249 215.37C345.545 215.594 345.907 215.706 346.336 215.706C346.783 215.706 347.157 215.588 347.456 215.352C347.758 215.113 347.984 214.793 348.135 214.391C348.29 213.986 348.367 213.536 348.367 213.041C348.367 212.551 348.291 212.11 348.14 211.717C347.992 211.322 347.767 211.009 347.465 210.779C347.166 210.547 346.789 210.43 346.336 210.43C345.901 210.43 345.536 210.541 345.24 210.761C344.944 210.979 344.72 211.284 344.569 211.677C344.418 212.066 344.342 212.521 344.342 213.041ZM353.895 216.666C353.267 216.666 352.716 216.517 352.241 216.218C351.77 215.919 351.401 215.5 351.135 214.962C350.873 214.425 350.741 213.796 350.741 213.077C350.741 212.352 350.873 211.719 351.135 211.178C351.401 210.637 351.77 210.217 352.241 209.918C352.716 209.619 353.267 209.47 353.895 209.47C354.524 209.47 355.074 209.619 355.545 209.918C356.019 210.217 356.388 210.637 356.651 211.178C356.917 211.719 357.05 212.352 357.05 213.077C357.05 213.796 356.917 214.425 356.651 214.962C356.388 215.5 356.019 215.919 355.545 216.218C355.074 216.517 354.524 216.666 353.895 216.666ZM353.895 215.706C354.373 215.706 354.765 215.583 355.074 215.338C355.382 215.094 355.61 214.772 355.758 214.373C355.906 213.974 355.98 213.542 355.98 213.077C355.98 212.612 355.906 212.178 355.758 211.776C355.61 211.375 355.382 211.05 355.074 210.802C354.765 210.554 354.373 210.43 353.895 210.43C353.418 210.43 353.025 210.554 352.717 210.802C352.409 211.05 352.181 211.375 352.033 211.776C351.885 212.178 351.811 212.612 351.811 213.077C351.811 213.542 351.885 213.974 352.033 214.373C352.181 214.772 352.409 215.094 352.717 215.338C353.025 215.583 353.418 215.706 353.895 215.706ZM358.682 216.521V209.56H359.715V210.612H359.788C359.912 210.267 360.14 209.988 360.472 209.773C360.805 209.559 361.181 209.452 361.601 209.452C361.794 209.452 361.963 209.474 362.108 209.52C362.253 209.565 362.38 209.627 362.489 209.705L362.126 210.612C362.051 210.572 361.962 210.542 361.859 210.521C361.759 210.497 361.643 210.485 361.51 210.485C361.172 210.485 360.869 210.556 360.604 210.698C360.341 210.84 360.132 211.033 359.978 211.278C359.827 211.523 359.752 211.802 359.752 212.116V216.521H358.682ZM367.043 209.56V210.467H363.436V209.56H367.043ZM364.487 207.893H365.557V214.527C365.557 214.829 365.601 215.056 365.688 215.207C365.779 215.355 365.894 215.455 366.033 215.506C366.175 215.554 366.324 215.579 366.481 215.579C366.599 215.579 366.696 215.573 366.771 215.56C366.847 215.545 366.907 215.533 366.953 215.524L367.17 216.485C367.098 216.512 366.997 216.539 366.867 216.567C366.737 216.597 366.572 216.612 366.373 216.612C366.071 216.612 365.774 216.547 365.484 216.417C365.197 216.287 364.959 216.089 364.768 215.823C364.581 215.557 364.487 215.222 364.487 214.817V207.893ZM371.206 216.666C370.626 216.666 370.114 216.52 369.67 216.227C369.225 215.931 368.878 215.514 368.627 214.976C368.376 214.435 368.251 213.796 368.251 213.059C368.251 212.328 368.376 211.693 368.627 211.156C368.878 210.618 369.227 210.202 369.674 209.909C370.121 209.616 370.638 209.47 371.224 209.47C371.677 209.47 372.035 209.545 372.298 209.696C372.564 209.844 372.766 210.014 372.905 210.204C373.047 210.391 373.158 210.545 373.236 210.666H373.327V209.56H374.396V216.521H373.363V215.452H373.236C373.158 215.579 373.046 215.739 372.901 215.932C372.756 216.122 372.549 216.293 372.28 216.444C372.011 216.592 371.653 216.666 371.206 216.666ZM371.351 215.706C371.78 215.706 372.142 215.594 372.439 215.37C372.735 215.144 372.96 214.831 373.114 214.432C373.268 214.03 373.345 213.566 373.345 213.041C373.345 212.521 373.269 212.066 373.118 211.677C372.967 211.284 372.744 210.979 372.448 210.761C372.151 210.541 371.786 210.43 371.351 210.43C370.898 210.43 370.52 210.547 370.218 210.779C369.919 211.009 369.694 211.322 369.543 211.717C369.395 212.11 369.321 212.551 369.321 213.041C369.321 213.536 369.396 213.986 369.547 214.391C369.701 214.793 369.928 215.113 370.227 215.352C370.529 215.588 370.904 215.706 371.351 215.706ZM379.531 209.56V210.467H375.923V209.56H379.531ZM376.975 207.893H378.044V214.527C378.044 214.829 378.088 215.056 378.176 215.207C378.266 215.355 378.381 215.455 378.52 215.506C378.662 215.554 378.812 215.579 378.969 215.579C379.087 215.579 379.183 215.573 379.259 215.56C379.334 215.545 379.395 215.533 379.44 215.524L379.658 216.485C379.585 216.512 379.484 216.539 379.354 216.567C379.224 216.597 379.06 216.612 378.86 216.612C378.558 216.612 378.262 216.547 377.972 216.417C377.685 216.287 377.446 216.089 377.256 215.823C377.069 215.557 376.975 215.222 376.975 214.817V207.893ZM381.14 216.521V209.56H382.209V216.521H381.14ZM381.683 208.4C381.475 208.4 381.295 208.329 381.144 208.187C380.996 208.045 380.922 207.875 380.922 207.675C380.922 207.476 380.996 207.305 381.144 207.163C381.295 207.021 381.475 206.95 381.683 206.95C381.892 206.95 382.07 207.021 382.218 207.163C382.369 207.305 382.445 207.476 382.445 207.675C382.445 207.875 382.369 208.045 382.218 208.187C382.07 208.329 381.892 208.4 381.683 208.4ZM386.996 216.666C386.367 216.666 385.816 216.517 385.342 216.218C384.87 215.919 384.502 215.5 384.236 214.962C383.973 214.425 383.842 213.796 383.842 213.077C383.842 212.352 383.973 211.719 384.236 211.178C384.502 210.637 384.87 210.217 385.342 209.918C385.816 209.619 386.367 209.47 386.996 209.47C387.624 209.47 388.174 209.619 388.645 209.918C389.12 210.217 389.488 210.637 389.751 211.178C390.017 211.719 390.15 212.352 390.15 213.077C390.15 213.796 390.017 214.425 389.751 214.962C389.488 215.5 389.12 215.919 388.645 216.218C388.174 216.517 387.624 216.666 386.996 216.666ZM386.996 215.706C387.473 215.706 387.866 215.583 388.174 215.338C388.482 215.094 388.71 214.772 388.858 214.373C389.007 213.974 389.081 213.542 389.081 213.077C389.081 212.612 389.007 212.178 388.858 211.776C388.71 211.375 388.482 211.05 388.174 210.802C387.866 210.554 387.473 210.43 386.996 210.43C386.519 210.43 386.126 210.554 385.818 210.802C385.509 211.05 385.281 211.375 385.133 211.776C384.985 212.178 384.911 212.612 384.911 213.077C384.911 213.542 384.985 213.974 385.133 214.373C385.281 214.772 385.509 215.094 385.818 215.338C386.126 215.583 386.519 215.706 386.996 215.706ZM392.852 212.334V216.521H391.783V209.56H392.816V210.648H392.907C393.07 210.295 393.317 210.011 393.65 209.796C393.982 209.578 394.411 209.47 394.937 209.47C395.408 209.47 395.82 209.566 396.174 209.76C396.527 209.95 396.802 210.24 396.999 210.63C397.195 211.017 397.293 211.506 397.293 212.098V216.521H396.224V212.171C396.224 211.624 396.082 211.198 395.798 210.893C395.514 210.585 395.124 210.43 394.629 210.43C394.287 210.43 393.982 210.504 393.713 210.653C393.447 210.801 393.237 211.017 393.083 211.301C392.929 211.585 392.852 211.929 392.852 212.334Z" fill="#14191F"/>
<path d="M463.356 212.044C469.398 212.044 474.295 207.147 474.295 201.106C474.295 195.064 469.398 190.167 463.356 190.167C457.315 190.167 452.418 195.064 452.418 201.106C452.418 207.147 457.315 212.044 463.356 212.044Z" fill="#00535C"/>
<path d="M458.406 201.813L461.235 204.641L468.306 197.57" fill="#00535C"/>
<path d="M458.406 201.813L461.235 204.641L468.306 197.57" stroke="white" stroke-width="1.68286" stroke-linecap="round" stroke-linejoin="round"/>
</g>
<g filter="url(#filter1_d_129_22479)">
<rect x="215.58" y="41.5857" width="252.498" height="80.216" rx="9.11546" fill="white"/>
<rect x="216.036" y="42.0415" width="251.587" height="79.3045" rx="8.65968" stroke="#14191F" stroke-opacity="0.1" stroke-width="0.911546"/>
<circle cx="257.056" cy="81.6937" r="21.8771" fill="#00535C" fill-opacity="0.1"/>
<path d="M256.646 84.3829L254.959 86.0692C254.604 86.4247 254.039 86.4247 253.674 86.0784C253.574 85.9781 253.473 85.8869 253.373 85.7867C252.434 84.8387 251.587 83.8451 250.83 82.8059C250.082 81.7667 249.481 80.7276 249.043 79.6975C248.615 78.6584 248.396 77.6648 248.396 76.7168C248.396 76.0969 248.506 75.5044 248.724 74.9575C248.943 74.4015 249.289 73.891 249.773 73.4352C250.356 72.8609 250.994 72.5784 251.669 72.5784C251.924 72.5784 252.179 72.6331 252.407 72.7424C252.644 72.8518 252.854 73.0159 253.018 73.2529L255.132 76.2337C255.297 76.4616 255.415 76.6712 255.497 76.8717C255.579 77.0632 255.625 77.2546 255.625 77.4278C255.625 77.6466 255.561 77.8653 255.433 78.075C255.315 78.2846 255.142 78.5034 254.923 78.7222L254.23 79.4423C254.13 79.5426 254.084 79.6611 254.084 79.8069C254.084 79.8798 254.093 79.9437 254.112 80.0166C254.139 80.0895 254.166 80.1442 254.184 80.1989C254.349 80.4997 254.631 80.8917 255.032 81.3657C255.442 81.8397 255.88 82.3228 256.354 82.8059C256.445 82.8971 256.545 82.9882 256.636 83.0794C257.001 83.4349 257.01 84.0183 256.646 84.3829Z" fill="#00535C"/>
<path d="M266.6 87.464C266.6 87.7192 266.554 87.9836 266.463 88.2388C266.436 88.3117 266.408 88.3847 266.372 88.4576C266.217 88.7857 266.016 89.0957 265.752 89.3874C265.305 89.8796 264.813 90.2351 264.257 90.463C264.248 90.463 264.239 90.4721 264.23 90.4721C263.692 90.6909 263.108 90.8094 262.48 90.8094C261.55 90.8094 260.556 90.5906 259.508 90.1439C258.46 89.6973 257.411 89.0957 256.372 88.3391C256.017 88.0747 255.661 87.8104 255.324 87.5278L258.305 84.5471C258.56 84.7385 258.788 84.8843 258.979 84.9846C259.025 85.0028 259.079 85.0302 259.143 85.0575C259.216 85.0849 259.289 85.094 259.371 85.094C259.526 85.094 259.645 85.0393 259.745 84.939L260.438 84.2554C260.666 84.0275 260.884 83.8543 261.094 83.7449C261.304 83.6173 261.513 83.5535 261.741 83.5535C261.914 83.5535 262.097 83.5899 262.297 83.672C262.498 83.754 262.707 83.8725 262.935 84.0275L265.953 86.1696C266.19 86.3337 266.354 86.5251 266.454 86.753C266.545 86.9809 266.6 87.2088 266.6 87.464Z" fill="#00535C"/>
<path d="M290.953 78.5347V66.9332H291.696V78.5347H290.953ZM293.096 70.6447C293.054 70.249 292.876 69.9408 292.561 69.7202C292.25 69.4997 291.845 69.3894 291.347 69.3894C290.996 69.3894 290.696 69.4423 290.445 69.548C290.194 69.6538 290.002 69.7973 289.87 69.9786C289.737 70.1598 289.669 70.3668 289.666 70.5994C289.666 70.7928 289.709 70.9605 289.797 71.1025C289.888 71.2445 290.01 71.3653 290.164 71.465C290.318 71.5617 290.489 71.6433 290.676 71.7097C290.864 71.7762 291.052 71.8321 291.243 71.8774L292.113 72.0949C292.463 72.1765 292.8 72.2868 293.123 72.4258C293.45 72.5647 293.741 72.74 293.998 72.9514C294.258 73.1629 294.463 73.4182 294.614 73.7173C294.765 74.0164 294.841 74.3669 294.841 74.7687C294.841 75.3125 294.702 75.7914 294.424 76.2053C294.146 76.6162 293.744 76.9379 293.219 77.1706C292.696 77.4002 292.063 77.515 291.32 77.515C290.598 77.515 289.971 77.4032 289.439 77.1796C288.91 76.9561 288.496 76.6298 288.197 76.2008C287.901 75.7718 287.741 75.2491 287.717 74.6328H289.371C289.395 74.956 289.495 75.2249 289.67 75.4394C289.845 75.6539 290.073 75.8141 290.354 75.9198C290.638 76.0255 290.956 76.0784 291.306 76.0784C291.672 76.0784 291.992 76.024 292.267 75.9153C292.545 75.8035 292.762 75.6494 292.919 75.453C293.077 75.2536 293.157 75.021 293.16 74.7551C293.157 74.5134 293.086 74.314 292.947 74.1569C292.808 73.9968 292.613 73.8639 292.362 73.7581C292.114 73.6493 291.824 73.5527 291.492 73.4681L290.436 73.1962C289.672 72.9998 289.067 72.7022 288.623 72.3034C288.182 71.9016 287.962 71.3683 287.962 70.7037C287.962 70.1568 288.11 69.678 288.406 69.2671C288.705 68.8562 289.111 68.5374 289.625 68.3108C290.138 68.0812 290.72 67.9664 291.37 67.9664C292.028 67.9664 292.605 68.0812 293.101 68.3108C293.599 68.5374 293.99 68.8532 294.274 69.258C294.558 69.6598 294.705 70.1221 294.714 70.6447H293.096ZM299.802 68.0933V77.3745H298.116V70.2414H298.039C297.979 70.3351 297.864 70.4363 297.695 70.545C297.526 70.6508 297.308 70.7414 297.042 70.817C296.779 70.8925 296.473 70.9302 296.122 70.9302V69.5707C296.443 69.5707 296.728 69.5148 296.979 69.403C297.23 69.2912 297.443 69.1523 297.618 68.9861C297.796 68.8199 297.934 68.6553 298.03 68.4921C298.127 68.329 298.18 68.196 298.189 68.0933H299.802ZM305.6 77.5513C304.853 77.5513 304.213 77.3624 303.678 76.9848C303.146 76.6041 302.737 76.0557 302.45 75.3397C302.166 74.6207 302.024 73.7551 302.024 72.743C302.027 71.7309 302.17 70.8698 302.454 70.1598C302.741 69.4468 303.151 68.903 303.683 68.5284C304.217 68.1537 304.856 67.9664 305.6 67.9664C306.343 67.9664 306.982 68.1537 307.516 68.5284C308.051 68.903 308.461 69.4468 308.745 70.1598C309.032 70.8728 309.175 71.7339 309.175 72.743C309.175 73.7581 309.032 74.6252 308.745 75.3443C308.461 76.0603 308.051 76.6071 307.516 76.9848C306.985 77.3624 306.346 77.5513 305.6 77.5513ZM305.6 76.1328C306.18 76.1328 306.637 75.8473 306.973 75.2763C307.311 74.7022 307.48 73.8578 307.48 72.743C307.48 72.0058 307.403 71.3865 307.249 70.8849C307.095 70.3834 306.878 70.0058 306.597 69.752C306.316 69.4952 305.983 69.3668 305.6 69.3668C305.022 69.3668 304.566 69.6538 304.231 70.2278C303.896 70.7988 303.726 71.6372 303.723 72.743C303.72 73.4832 303.794 74.1056 303.945 74.6101C304.099 75.1146 304.317 75.4953 304.598 75.7521C304.879 76.0059 305.213 76.1328 305.6 76.1328ZM314.111 77.5513C313.365 77.5513 312.725 77.3624 312.19 76.9848C311.658 76.6041 311.249 76.0557 310.962 75.3397C310.678 74.6207 310.536 73.7551 310.536 72.743C310.539 71.7309 310.682 70.8698 310.966 70.1598C311.253 69.4468 311.663 68.903 312.194 68.5284C312.729 68.1537 313.368 67.9664 314.111 67.9664C314.855 67.9664 315.494 68.1537 316.028 68.5284C316.563 68.903 316.973 69.4468 317.257 70.1598C317.544 70.8728 317.687 71.7339 317.687 72.743C317.687 73.7581 317.544 74.6252 317.257 75.3443C316.973 76.0603 316.563 76.6071 316.028 76.9848C315.497 77.3624 314.858 77.5513 314.111 77.5513ZM314.111 76.1328C314.692 76.1328 315.149 75.8473 315.485 75.2763C315.823 74.7022 315.992 73.8578 315.992 72.743C315.992 72.0058 315.915 71.3865 315.761 70.8849C315.607 70.3834 315.389 70.0058 315.108 69.752C314.827 69.4952 314.495 69.3668 314.111 69.3668C313.534 69.3668 313.078 69.6538 312.743 70.2278C312.407 70.7988 312.238 71.6372 312.235 72.743C312.232 73.4832 312.306 74.1056 312.457 74.6101C312.611 75.1146 312.829 75.4953 313.11 75.7521C313.391 76.0059 313.725 76.1328 314.111 76.1328ZM320.775 76.1056L320.717 76.6041C320.674 76.9848 320.599 77.3715 320.49 77.7642C320.384 78.16 320.272 78.5241 320.155 78.8564C320.037 79.1888 319.942 79.4501 319.869 79.6404H318.763C318.806 79.4561 318.863 79.2054 318.936 78.8881C319.011 78.5709 319.084 78.2144 319.153 77.8186C319.223 77.4229 319.269 77.021 319.294 76.6132L319.325 76.1056H320.775ZM325.664 77.5513C324.918 77.5513 324.277 77.3624 323.743 76.9848C323.211 76.6041 322.802 76.0557 322.515 75.3397C322.231 74.6207 322.089 73.7551 322.089 72.743C322.092 71.7309 322.235 70.8698 322.519 70.1598C322.806 69.4468 323.216 68.903 323.747 68.5284C324.282 68.1537 324.921 67.9664 325.664 67.9664C326.407 67.9664 327.046 68.1537 327.581 68.5284C328.116 68.903 328.525 69.4468 328.809 70.1598C329.096 70.8728 329.24 71.7339 329.24 72.743C329.24 73.7581 329.096 74.6252 328.809 75.3443C328.525 76.0603 328.116 76.6071 327.581 76.9848C327.049 77.3624 326.41 77.5513 325.664 77.5513ZM325.664 76.1328C326.244 76.1328 326.702 75.8473 327.037 75.2763C327.376 74.7022 327.545 73.8578 327.545 72.743C327.545 72.0058 327.468 71.3865 327.314 70.8849C327.16 70.3834 326.942 70.0058 326.661 69.752C326.38 69.4952 326.048 69.3668 325.664 69.3668C325.087 69.3668 324.631 69.6538 324.296 70.2278C323.96 70.7988 323.791 71.6372 323.788 72.743C323.785 73.4832 323.859 74.1056 324.01 74.6101C324.164 75.1146 324.382 75.4953 324.663 75.7521C324.944 76.0059 325.277 76.1328 325.664 76.1328ZM334.176 77.5513C333.43 77.5513 332.789 77.3624 332.255 76.9848C331.723 76.6041 331.314 76.0557 331.026 75.3397C330.743 74.6207 330.601 73.7551 330.601 72.743C330.604 71.7309 330.747 70.8698 331.031 70.1598C331.318 69.4468 331.727 68.903 332.259 68.5284C332.794 68.1537 333.433 67.9664 334.176 67.9664C334.919 67.9664 335.558 68.1537 336.093 68.5284C336.628 68.903 337.037 69.4468 337.321 70.1598C337.608 70.8728 337.752 71.7339 337.752 72.743C337.752 73.7581 337.608 74.6252 337.321 75.3443C337.037 76.0603 336.628 76.6071 336.093 76.9848C335.561 77.3624 334.922 77.5513 334.176 77.5513ZM334.176 76.1328C334.756 76.1328 335.214 75.8473 335.549 75.2763C335.888 74.7022 336.057 73.8578 336.057 72.743C336.057 72.0058 335.98 71.3865 335.826 70.8849C335.672 70.3834 335.454 70.0058 335.173 69.752C334.892 69.4952 334.56 69.3668 334.176 69.3668C333.599 69.3668 333.143 69.6538 332.808 70.2278C332.472 70.7988 332.303 71.6372 332.3 72.743C332.297 73.4832 332.371 74.1056 332.522 74.6101C332.676 75.1146 332.894 75.4953 333.175 75.7521C333.456 76.0059 333.789 76.1328 334.176 76.1328ZM342.688 77.5513C341.942 77.5513 341.301 77.3624 340.767 76.9848C340.235 76.6041 339.825 76.0557 339.538 75.3397C339.254 74.6207 339.112 73.7551 339.112 72.743C339.115 71.7309 339.259 70.8698 339.543 70.1598C339.83 69.4468 340.239 68.903 340.771 68.5284C341.306 68.1537 341.945 67.9664 342.688 67.9664C343.431 67.9664 344.07 68.1537 344.605 68.5284C345.14 68.903 345.549 69.4468 345.833 70.1598C346.12 70.8728 346.264 71.7339 346.264 72.743C346.264 73.7581 346.12 74.6252 345.833 75.3443C345.549 76.0603 345.14 76.6071 344.605 76.9848C344.073 77.3624 343.434 77.5513 342.688 77.5513ZM342.688 76.1328C343.268 76.1328 343.726 75.8473 344.061 75.2763C344.4 74.7022 344.569 73.8578 344.569 72.743C344.569 72.0058 344.492 71.3865 344.338 70.8849C344.184 70.3834 343.966 70.0058 343.685 69.752C343.404 69.4952 343.072 69.3668 342.688 69.3668C342.111 69.3668 341.655 69.6538 341.319 70.2278C340.984 70.7988 340.815 71.6372 340.812 72.743C340.809 73.4832 340.883 74.1056 341.034 74.6101C341.188 75.1146 341.406 75.4953 341.686 75.7521C341.967 76.0059 342.301 76.1328 342.688 76.1328Z" fill="#14191F"/>
<path opacity="0.5" d="M288.641 97.1091H287.463L290.871 87.8279H292.031L295.439 97.1091H294.261L291.487 89.2963H291.415L288.641 97.1091ZM289.076 93.4837H293.826V94.4807H289.076V93.4837ZM296.815 97.1091V90.1482H297.884V97.1091H296.815ZM297.358 88.9881C297.15 88.9881 296.97 88.9171 296.819 88.7751C296.671 88.6331 296.597 88.4624 296.597 88.263C296.597 88.0636 296.671 87.8929 296.819 87.7509C296.97 87.6089 297.15 87.5379 297.358 87.5379C297.567 87.5379 297.745 87.6089 297.893 87.7509C298.044 87.8929 298.12 88.0636 298.12 88.263C298.12 88.4624 298.044 88.6331 297.893 88.7751C297.745 88.9171 297.567 88.9881 297.358 88.9881ZM299.843 97.1091V90.1482H300.876V91.1996H300.949C301.073 90.8552 301.301 90.5757 301.633 90.3612C301.965 90.1467 302.342 90.0395 302.761 90.0395C302.955 90.0395 303.124 90.0621 303.269 90.1075C303.414 90.1528 303.541 90.2147 303.65 90.2933L303.287 91.1996C303.212 91.1603 303.123 91.1301 303.02 91.109C302.92 91.0848 302.804 91.0727 302.671 91.0727C302.332 91.0727 302.03 91.1437 301.764 91.2857C301.502 91.4277 301.293 91.6211 301.139 91.8658C300.988 92.1105 300.912 92.39 300.912 92.7042V97.1091H299.843ZM308.204 90.1482V91.0546H304.597V90.1482H308.204ZM305.648 88.4805H306.718V95.1151C306.718 95.4172 306.762 95.6438 306.849 95.7949C306.94 95.9429 307.055 96.0426 307.194 96.094C307.336 96.1423 307.485 96.1665 307.642 96.1665C307.76 96.1665 307.857 96.1605 307.932 96.1484C308.008 96.1333 308.068 96.1212 308.114 96.1121L308.331 97.0729C308.259 97.1001 308.157 97.1273 308.027 97.1544C307.898 97.1847 307.733 97.1998 307.533 97.1998C307.231 97.1998 306.935 97.1348 306.645 97.0049C306.358 96.875 306.12 96.6771 305.929 96.4112C305.742 96.1454 305.648 95.81 305.648 95.4052V88.4805ZM309.813 97.1091V90.1482H310.883V97.1091H309.813ZM310.357 88.9881C310.148 88.9881 309.969 88.9171 309.818 88.7751C309.669 88.6331 309.595 88.4624 309.595 88.263C309.595 88.0636 309.669 87.8929 309.818 87.7509C309.969 87.6089 310.148 87.5379 310.357 87.5379C310.565 87.5379 310.744 87.6089 310.892 87.7509C311.043 87.8929 311.118 88.0636 311.118 88.263C311.118 88.4624 311.043 88.6331 310.892 88.7751C310.744 88.9171 310.565 88.9881 310.357 88.9881ZM312.841 97.1091V90.1482H313.875V91.2359H313.965C314.11 90.8643 314.344 90.5757 314.668 90.3703C314.991 90.1618 315.379 90.0576 315.832 90.0576C316.292 90.0576 316.674 90.1618 316.979 90.3703C317.287 90.5757 317.527 90.8643 317.7 91.2359H317.772C317.95 90.8764 318.218 90.5908 318.574 90.3794C318.931 90.1649 319.358 90.0576 319.857 90.0576C320.479 90.0576 320.988 90.2525 321.384 90.6422C321.78 91.0289 321.978 91.6317 321.978 92.4504V97.1091H320.908V92.4504C320.908 91.9368 320.768 91.5697 320.487 91.3492C320.206 91.1286 319.875 91.0183 319.494 91.0183C319.005 91.0183 318.626 91.1664 318.357 91.4625C318.088 91.7555 317.953 92.1271 317.953 92.5773V97.1091H316.866V92.3416C316.866 91.9459 316.737 91.6271 316.48 91.3854C316.224 91.1407 315.893 91.0183 315.488 91.0183C315.21 91.0183 314.95 91.0924 314.709 91.2404C314.47 91.3884 314.276 91.5939 314.128 91.8567C313.983 92.1166 313.911 92.4172 313.911 92.7586V97.1091H312.841ZM326.852 97.2541C326.181 97.2541 325.602 97.1061 325.116 96.81C324.632 96.5109 324.259 96.094 323.996 95.5592C323.737 95.0215 323.607 94.3961 323.607 93.6831C323.607 92.9701 323.737 92.3416 323.996 91.7978C324.259 91.251 324.625 90.825 325.093 90.5198C325.565 90.2117 326.114 90.0576 326.743 90.0576C327.105 90.0576 327.463 90.118 327.817 90.2389C328.17 90.3597 328.492 90.5561 328.782 90.828C329.072 91.0969 329.303 91.4534 329.475 91.8975C329.648 92.3416 329.734 92.8885 329.734 93.538V93.9912H324.368V93.0667H328.646C328.646 92.674 328.568 92.3235 328.41 92.0154C328.256 91.7072 328.036 91.464 327.749 91.2857C327.465 91.1075 327.13 91.0183 326.743 91.0183C326.317 91.0183 325.948 91.1241 325.637 91.3356C325.329 91.544 325.092 91.816 324.926 92.1513C324.759 92.4867 324.676 92.8462 324.676 93.2299V93.8462C324.676 94.3719 324.767 94.8175 324.948 95.1831C325.132 95.5456 325.388 95.8221 325.714 96.0124C326.04 96.1997 326.42 96.2934 326.852 96.2934C327.133 96.2934 327.386 96.2541 327.613 96.1756C327.843 96.094 328.04 95.9732 328.207 95.813C328.373 95.6499 328.501 95.4475 328.592 95.2058L329.625 95.4958C329.516 95.8463 329.333 96.1544 329.077 96.4203C328.82 96.6831 328.503 96.8886 328.125 97.0366C327.747 97.1816 327.323 97.2541 326.852 97.2541Z" fill="#14191F"/>
<path d="M442.391 92.6323C448.432 92.6323 453.329 87.7351 453.329 81.6937C453.329 75.6523 448.432 70.7551 442.391 70.7551C436.349 70.7551 431.452 75.6523 431.452 81.6937C431.452 87.7351 436.349 92.6323 442.391 92.6323Z" fill="#00535C"/>
<path d="M437.44 82.4011L440.269 85.2298L447.341 78.158" fill="#00535C"/>
<path d="M437.44 82.4011L440.269 85.2298L447.341 78.158" stroke="white" stroke-width="1.68286" stroke-linecap="round" stroke-linejoin="round"/>
</g>
<defs>
<filter id="filter0_d_129_22479" x="200.54" y="125.448" width="325.422" height="153.14" filterUnits="userSpaceOnUse" color-interpolation-filters="sRGB">
<feFlood flood-opacity="0" result="BackgroundImageFix"/>
<feColorMatrix in="SourceAlpha" type="matrix" values="0 0 0 0 0 0 0 0 0 0 0 0 0 0 0 0 0 0 127 0" result="hardAlpha"/>
<feOffset dy="0.911546"/>
<feGaussianBlur stdDeviation="18.2309"/>
<feComposite in2="hardAlpha" operator="out"/>
<feColorMatrix type="matrix" values="0 0 0 0 0.176944 0 0 0 0 0.790012 0 0 0 0 0.816667 0 0 0 0.15 0"/>
<feBlend mode="normal" in2="BackgroundImageFix" result="effect1_dropShadow_129_22479"/>
<feBlend mode="normal" in="SourceGraphic" in2="effect1_dropShadow_129_22479" result="shape"/>
</filter>
<filter id="filter1_d_129_22479" x="179.119" y="6.03541" width="325.422" height="153.14" filterUnits="userSpaceOnUse" color-interpolation-filters="sRGB">
<feFlood flood-opacity="0" result="BackgroundImageFix"/>
<feColorMatrix in="SourceAlpha" type="matrix" values="0 0 0 0 0 0 0 0 0 0 0 0 0 0 0 0 0 0 127 0" result="hardAlpha"/>
<feOffset dy="0.911546"/>
<feGaussianBlur stdDeviation="18.2309"/>
<feComposite in2="hardAlpha" operator="out"/>
<feColorMatrix type="matrix" values="0 0 0 0 0.176944 0 0 0 0 0.790012 0 0 0 0 0.816667 0 0 0 0.15 0"/>
<feBlend mode="normal" in2="BackgroundImageFix" result="effect1_dropShadow_129_22479"/>
<feBlend mode="normal" in="SourceGraphic" in2="effect1_dropShadow_129_22479" result="shape"/>
</filter>
</defs>
</svg>
