<svg width="413" height="226" viewBox="0 0 413 226" fill="none" xmlns="http://www.w3.org/2000/svg">
<path d="M1.6333 223.723L64.7458 142.868L144.598 116.095L231.496 76.4703L341.88 58.2645L383.567 44.3425L411.75 0.43457" stroke="#FFA800" stroke-width="0.883238"/>
<path d="M64.7458 143.403L1.33887 222.652L411.75 183.027V0.969971L383.567 44.8779L341.879 58.7999L231.496 77.0057L144.598 116.63L64.7458 143.403Z" fill="url(#paint0_linear_431_2368)" fill-opacity="0.5"/>
<path d="M0.75 224.793L66.1096 157.325L136.769 173.389L255.122 110.204L372.299 91.9985L411.75 37.3813" stroke="#00535C" stroke-width="0.883238"/>
<path opacity="0.5" d="M66.1096 157.325L0.75 224.793H411.75V37.3813L372.299 91.9985L255.122 110.204L136.769 173.389L66.1096 157.325Z" fill="url(#paint1_linear_431_2368)"/>
<defs>
<linearGradient id="paint0_linear_431_2368" x1="205.661" y1="0.969971" x2="205.661" y2="205.517" gradientUnits="userSpaceOnUse">
<stop stop-color="#FFA800"/>
<stop offset="1" stop-color="#D9D9D9" stop-opacity="0"/>
</linearGradient>
<linearGradient id="paint1_linear_431_2368" x1="206.25" y1="37.3813" x2="206.25" y2="224.793" gradientUnits="userSpaceOnUse">
<stop stop-color="#0C949A"/>
<stop offset="1" stop-color="#0C949A" stop-opacity="0.1"/>
</linearGradient>
</defs>
</svg>
