<svg width="527" height="279" viewBox="0 0 527 279" fill="none" xmlns="http://www.w3.org/2000/svg">
<rect x="0.955773" y="0.890099" width="251.587" height="79.3045" rx="8.65968" fill="#00535C"/>
<rect x="0.955773" y="0.890099" width="251.587" height="79.3045" rx="8.65968" stroke="#09474E" stroke-width="0.911546"/>
<circle opacity="0.2" cx="41.5196" cy="40.5429" r="21.8771" fill="white"/>
<path d="M47.3626 39.376H44.5459V32.8129C44.5459 31.2815 43.7164 30.9715 42.7046 32.1201L41.9753 32.9496L35.8042 39.9685C34.9564 40.9256 35.3119 41.7095 36.5881 41.7095H39.4048V48.2727C39.4048 49.8041 40.2343 50.114 41.2461 48.9654L41.9753 48.1359L48.1465 41.117C48.9942 40.1599 48.6387 39.376 47.3626 39.376Z" fill="white"/>
<path d="M72.516 36.2231V26.942H75.9965C76.7095 26.942 77.3077 27.0749 77.7911 27.3408C78.2775 27.6066 78.6446 27.9722 78.8923 28.4375C79.1431 28.8997 79.2684 29.4254 79.2684 30.0145C79.2684 30.6097 79.1431 31.1384 78.8923 31.6007C78.6415 32.0629 78.2714 32.427 77.782 32.6928C77.2926 32.9557 76.6898 33.0871 75.9738 33.0871H73.6671V31.7049H75.7472C76.1641 31.7049 76.5055 31.6324 76.7714 31.4874C77.0373 31.3424 77.2337 31.143 77.3605 30.8892C77.4905 30.6354 77.5554 30.3438 77.5554 30.0145C77.5554 29.6852 77.4905 29.3952 77.3605 29.1444C77.2337 28.8937 77.0358 28.6988 76.7669 28.5598C76.501 28.4178 76.1581 28.3468 75.7381 28.3468H74.1973V36.2231H72.516ZM89.0221 31.5825C89.0221 32.5826 88.8348 33.4391 88.4601 34.1521C88.0885 34.8621 87.581 35.4059 86.9374 35.7836C86.2969 36.1612 85.5703 36.35 84.7576 36.35C83.9449 36.35 83.2168 36.1612 82.5733 35.7836C81.9328 35.4029 81.4252 34.8576 81.0506 34.1476C80.679 33.4346 80.4932 32.5796 80.4932 31.5825C80.4932 30.5825 80.679 29.7275 81.0506 29.0175C81.4252 28.3045 81.9328 27.7592 82.5733 27.3815C83.2168 27.0039 83.9449 26.8151 84.7576 26.8151C85.5703 26.8151 86.2969 27.0039 86.9374 27.3815C87.581 27.7592 88.0885 28.3045 88.4601 29.0175C88.8348 29.7275 89.0221 30.5825 89.0221 31.5825ZM87.3317 31.5825C87.3317 30.8786 87.2214 30.2849 87.0009 29.8015C86.7834 29.3151 86.4812 28.948 86.0945 28.7003C85.7078 28.4495 85.2622 28.3242 84.7576 28.3242C84.2531 28.3242 83.8075 28.4495 83.4207 28.7003C83.034 28.948 82.7304 29.3151 82.5098 29.8015C82.2923 30.2849 82.1835 30.8786 82.1835 31.5825C82.1835 32.2865 82.2923 32.8817 82.5098 33.3681C82.7304 33.8515 83.034 34.2186 83.4207 34.4693C83.8075 34.7171 84.2531 34.8409 84.7576 34.8409C85.2622 34.8409 85.7078 34.7171 86.0945 34.4693C86.4812 34.2186 86.7834 33.8515 87.0009 33.3681C87.2214 32.8817 87.3317 32.2865 87.3317 31.5825ZM92.3281 36.2231L89.7087 26.942H91.5169L93.1891 33.7624H93.2752L95.0607 26.942H96.7058L98.4959 33.7669H98.5775L100.25 26.942H102.058L99.4385 36.2231H97.7798L95.9218 29.7109H95.8493L93.9867 36.2231H92.3281ZM103.224 36.2231V26.942H109.26V28.3514H104.905V30.8711H108.947V32.2805H104.905V34.8137H109.296V36.2231H103.224ZM110.975 36.2231V26.942H114.456C115.169 26.942 115.767 27.0658 116.25 27.3136C116.737 27.5613 117.104 27.9087 117.352 28.3559C117.602 28.8 117.728 29.3181 117.728 29.9103C117.728 30.5055 117.601 31.0221 117.347 31.4602C117.096 31.8952 116.726 32.2321 116.237 32.4708C115.747 32.7064 115.146 32.8243 114.433 32.8243H111.954V31.4285H114.207C114.624 31.4285 114.965 31.3711 115.231 31.2563C115.497 31.1384 115.693 30.9677 115.82 30.7442C115.95 30.5176 116.015 30.2396 116.015 29.9103C116.015 29.581 115.95 29.3 115.82 29.0674C115.69 28.8317 115.492 28.6535 115.226 28.5326C114.96 28.4088 114.617 28.3468 114.198 28.3468H112.657V36.2231H110.975ZM115.77 32.0176L118.068 36.2231H116.192L113.935 32.0176H115.77ZM122.441 36.2231V26.942H125.994C126.665 26.942 127.222 27.0477 127.666 27.2592C128.113 27.4676 128.447 27.7532 128.668 28.1157C128.891 28.4782 129.003 28.8891 129.003 29.3484C129.003 29.726 128.931 30.0493 128.786 30.3182C128.64 30.584 128.446 30.8001 128.201 30.9662C127.956 31.1324 127.683 31.2517 127.381 31.3242V31.4149C127.71 31.433 128.026 31.5342 128.328 31.7185C128.633 31.8998 128.882 32.1566 129.076 32.4889C129.269 32.8212 129.366 33.2231 129.366 33.6944C129.366 34.1748 129.249 34.6068 129.017 34.9905C128.784 35.3712 128.434 35.6718 127.965 35.8923C127.497 36.1129 126.908 36.2231 126.198 36.2231H122.441ZM124.122 34.8183H125.93C126.541 34.8183 126.98 34.702 127.249 34.4693C127.521 34.2337 127.657 33.9315 127.657 33.563C127.657 33.288 127.589 33.0403 127.453 32.8197C127.317 32.5962 127.124 32.4209 126.873 32.294C126.622 32.1641 126.323 32.0992 125.976 32.0992H124.122V34.8183ZM124.122 30.8892H125.785C126.075 30.8892 126.337 30.8363 126.569 30.7306C126.802 30.6218 126.985 30.4692 127.118 30.2728C127.254 30.0734 127.322 29.8378 127.322 29.5659C127.322 29.2064 127.195 28.9103 126.941 28.6776C126.69 28.445 126.317 28.3287 125.822 28.3287H124.122V30.8892ZM132.51 26.942V36.2231H130.828V26.942H132.51ZM134.33 36.2231V26.942H136.012V34.8137H140.099V36.2231H134.33ZM141.558 36.2231V26.942H143.24V34.8137H147.327V36.2231H141.558Z" fill="white"/>
<path opacity="0.5" d="M72.5613 55.9578V55.142L75.6249 51.7885C75.9844 51.3957 76.2805 51.0543 76.5131 50.7643C76.7457 50.4712 76.9179 50.1963 77.0297 49.9395C77.1445 49.6797 77.2019 49.4078 77.2019 49.1238C77.2019 48.7975 77.1234 48.515 76.9663 48.2763C76.8122 48.0376 76.6007 47.8533 76.3318 47.7234C76.0629 47.5935 75.7608 47.5286 75.4255 47.5286C75.0689 47.5286 74.7578 47.6026 74.4919 47.7506C74.229 47.8956 74.0251 48.0996 73.8801 48.3624C73.7381 48.6253 73.6671 48.9334 73.6671 49.2869H72.5976C72.5976 48.7431 72.723 48.2657 72.9737 47.8548C73.2245 47.444 73.5659 47.1237 73.9979 46.8941C74.433 46.6645 74.9209 46.5497 75.4617 46.5497C76.0055 46.5497 76.4874 46.6645 76.9074 46.8941C77.3273 47.1237 77.6566 47.4334 77.8953 47.8231C78.134 48.2129 78.2533 48.6464 78.2533 49.1238C78.2533 49.4652 78.1914 49.799 78.0675 50.1253C77.9467 50.4486 77.7352 50.8096 77.4331 51.2084C77.134 51.6042 76.7185 52.0876 76.1868 52.6586L74.1022 54.8883V54.9608H78.4165V55.9578H72.5613ZM83.3154 56.0847C82.6326 56.0847 82.051 55.8988 81.5706 55.5272C81.0902 55.1526 80.7232 54.6103 80.4694 53.9003C80.2156 53.1873 80.0887 52.3263 80.0887 51.3172C80.0887 50.3141 80.2156 49.4576 80.4694 48.7476C80.7262 48.0346 81.0948 47.4908 81.5751 47.1162C82.0585 46.7385 82.6386 46.5497 83.3154 46.5497C83.9921 46.5497 84.5707 46.7385 85.0511 47.1162C85.5345 47.4908 85.903 48.0346 86.1568 48.7476C86.4136 49.4576 86.542 50.3141 86.542 51.3172C86.542 52.3263 86.4151 53.1873 86.1614 53.9003C85.9076 54.6103 85.5405 55.1526 85.0601 55.5272C84.5798 55.8988 83.9982 56.0847 83.3154 56.0847ZM83.3154 55.0877C83.9921 55.0877 84.5178 54.7614 84.8924 54.1088C85.2671 53.4562 85.4544 52.5257 85.4544 51.3172C85.4544 50.5135 85.3683 49.8292 85.1961 49.2642C85.0269 48.6993 84.7822 48.2688 84.4619 47.9727C84.1447 47.6766 83.7625 47.5286 83.3154 47.5286C82.6447 47.5286 82.1205 47.8594 81.7428 48.521C81.3652 49.1797 81.1763 50.1117 81.1763 51.3172C81.1763 52.1208 81.2609 52.8036 81.4301 53.3656C81.5993 53.9275 81.8425 54.355 82.1598 54.6481C82.48 54.9411 82.8652 55.0877 83.3154 55.0877ZM89.5534 54.6889L89.4809 55.1783C89.4296 55.5227 89.351 55.8913 89.2453 56.2841C89.1426 56.6768 89.0353 57.0469 88.9235 57.3944C88.8117 57.7418 88.7196 58.0182 88.6471 58.2237H87.8313C87.8706 58.0303 87.922 57.775 87.9854 57.4578C88.0489 57.1406 88.1123 56.7856 88.1758 56.3928C88.2422 56.0031 88.2966 55.6043 88.3389 55.1964L88.3933 54.6889H89.5534ZM94.2201 56.0847C93.5373 56.0847 92.9557 55.8988 92.4753 55.5272C91.995 55.1526 91.6279 54.6103 91.3741 53.9003C91.1203 53.1873 90.9934 52.3263 90.9934 51.3172C90.9934 50.3141 91.1203 49.4576 91.3741 48.7476C91.6309 48.0346 91.9995 47.4908 92.4799 47.1162C92.9633 46.7385 93.5433 46.5497 94.2201 46.5497C94.8968 46.5497 95.4754 46.7385 95.9558 47.1162C96.4392 47.4908 96.8078 48.0346 97.0615 48.7476C97.3184 49.4576 97.4468 50.3141 97.4468 51.3172C97.4468 52.3263 97.3199 53.1873 97.0661 53.9003C96.8123 54.6103 96.4452 55.1526 95.9648 55.5272C95.4845 55.8988 94.9029 56.0847 94.2201 56.0847ZM94.2201 55.0877C94.8968 55.0877 95.4225 54.7614 95.7972 54.1088C96.1718 53.4562 96.3591 52.5257 96.3591 51.3172C96.3591 50.5135 96.273 49.8292 96.1008 49.2642C95.9316 48.6993 95.6869 48.2688 95.3666 47.9727C95.0494 47.6766 94.6672 47.5286 94.2201 47.5286C93.5494 47.5286 93.0252 47.8594 92.6475 48.521C92.2699 49.1797 92.0811 50.1117 92.0811 51.3172C92.0811 52.1208 92.1657 52.8036 92.3348 53.3656C92.504 53.9275 92.7472 54.355 93.0645 54.6481C93.3847 54.9411 93.7699 55.0877 94.2201 55.0877ZM102.196 56.0847C101.513 56.0847 100.932 55.8988 100.451 55.5272C99.971 55.1526 99.6039 54.6103 99.3501 53.9003C99.0963 53.1873 98.9695 52.3263 98.9695 51.3172C98.9695 50.3141 99.0963 49.4576 99.3501 48.7476C99.6069 48.0346 99.9755 47.4908 100.456 47.1162C100.939 46.7385 101.519 46.5497 102.196 46.5497C102.873 46.5497 103.451 46.7385 103.932 47.1162C104.415 47.4908 104.784 48.0346 105.038 48.7476C105.294 49.4576 105.423 50.3141 105.423 51.3172C105.423 52.3263 105.296 53.1873 105.042 53.9003C104.788 54.6103 104.421 55.1526 103.941 55.5272C103.46 55.8988 102.879 56.0847 102.196 56.0847ZM102.196 55.0877C102.873 55.0877 103.399 54.7614 103.773 54.1088C104.148 53.4562 104.335 52.5257 104.335 51.3172C104.335 50.5135 104.249 49.8292 104.077 49.2642C103.908 48.6993 103.663 48.2688 103.343 47.9727C103.025 47.6766 102.643 47.5286 102.196 47.5286C101.525 47.5286 101.001 47.8594 100.624 48.521C100.246 49.1797 100.057 50.1117 100.057 51.3172C100.057 52.1208 100.142 52.8036 100.311 53.3656C100.48 53.9275 100.723 54.355 101.04 54.6481C101.361 54.9411 101.746 55.0877 102.196 55.0877ZM110.172 56.0847C109.489 56.0847 108.908 55.8988 108.427 55.5272C107.947 55.1526 107.58 54.6103 107.326 53.9003C107.072 53.1873 106.945 52.3263 106.945 51.3172C106.945 50.3141 107.072 49.4576 107.326 48.7476C107.583 48.0346 107.952 47.4908 108.432 47.1162C108.915 46.7385 109.495 46.5497 110.172 46.5497C110.849 46.5497 111.427 46.7385 111.908 47.1162C112.391 47.4908 112.76 48.0346 113.014 48.7476C113.27 49.4576 113.399 50.3141 113.399 51.3172C113.399 52.3263 113.272 53.1873 113.018 53.9003C112.764 54.6103 112.397 55.1526 111.917 55.5272C111.437 55.8988 110.855 56.0847 110.172 56.0847ZM110.172 55.0877C110.849 55.0877 111.375 54.7614 111.749 54.1088C112.124 53.4562 112.311 52.5257 112.311 51.3172C112.311 50.5135 112.225 49.8292 112.053 49.2642C111.884 48.6993 111.639 48.2688 111.319 47.9727C111.001 47.6766 110.619 47.5286 110.172 47.5286C109.501 47.5286 108.977 47.8594 108.6 48.521C108.222 49.1797 108.033 50.1117 108.033 51.3172C108.033 52.1208 108.118 52.8036 108.287 53.3656C108.456 53.9275 108.699 54.355 109.017 54.6481C109.337 54.9411 109.722 55.0877 110.172 55.0877Z" fill="white"/>
<path d="M226.854 51.3169C232.896 51.3169 237.793 46.4196 237.793 40.3783C237.793 34.3369 232.896 29.4397 226.854 29.4397C220.813 29.4397 215.916 34.3369 215.916 40.3783C215.916 46.4196 220.813 51.3169 226.854 51.3169Z" fill="white"/>
<path d="M221.904 41.0854L224.733 43.9141L231.805 36.8423" fill="white"/>
<path d="M221.904 41.0854L224.733 43.9141L231.805 36.8423" stroke="#00535C" stroke-width="1.68286" stroke-linecap="round" stroke-linejoin="round"/>
<rect x="22.377" y="117.568" width="251.587" height="79.3045" rx="8.65968" fill="#00535C"/>
<rect x="22.377" y="117.568" width="251.587" height="79.3045" rx="8.65968" stroke="#09474E" stroke-width="0.911546"/>
<circle opacity="0.2" cx="63.3966" cy="157.22" r="21.8771" fill="white"/>
<path d="M67.1248 150.839H66.8149V148.105C66.8149 147.731 66.505 147.421 66.1312 147.421C65.7575 147.421 65.4476 147.731 65.4476 148.105V150.839H62.2572V148.105C62.2572 147.731 61.9472 147.421 61.5735 147.421C61.1998 147.421 60.8898 147.731 60.8898 148.105V150.839H60.5799C59.6228 150.839 58.8389 151.623 58.8389 152.58V157.22C58.8389 159.226 60.2062 160.866 62.485 160.866H63.1687V166.336C63.1687 166.709 63.4786 167.019 63.8524 167.019C64.2261 167.019 64.536 166.709 64.536 166.336V160.866H65.2197C67.4986 160.866 68.8659 159.226 68.8659 157.22V152.58C68.8659 151.623 68.0819 150.839 67.1248 150.839Z" fill="white"/>
<path d="M102.337 146.751H100.642C100.594 146.473 100.505 146.227 100.375 146.012C100.245 145.795 100.083 145.611 99.8901 145.46C99.6967 145.309 99.4762 145.195 99.2284 145.12C98.9837 145.041 98.7194 145.002 98.4354 145.002C97.9308 145.002 97.4837 145.129 97.0939 145.383C96.7042 145.633 96.3991 146.002 96.1785 146.488C95.958 146.972 95.8477 147.562 95.8477 148.26C95.8477 148.97 95.958 149.568 96.1785 150.055C96.4021 150.538 96.7072 150.904 97.0939 151.152C97.4837 151.396 97.9293 151.519 98.4308 151.519C98.7088 151.519 98.9686 151.482 99.2103 151.41C99.455 151.334 99.6741 151.224 99.8674 151.079C100.064 150.934 100.228 150.756 100.361 150.544C100.497 150.333 100.591 150.091 100.642 149.819L102.337 149.828C102.274 150.269 102.136 150.683 101.925 151.07C101.716 151.457 101.443 151.798 101.105 152.094C100.766 152.387 100.37 152.617 99.9173 152.783C99.4641 152.946 98.9611 153.028 98.4082 153.028C97.5924 153.028 96.8643 152.839 96.2238 152.461C95.5833 152.084 95.0788 151.538 94.7102 150.825C94.3416 150.112 94.1573 149.257 94.1573 148.26C94.1573 147.26 94.3431 146.405 94.7147 145.695C95.0863 144.982 95.5924 144.437 96.2329 144.059C96.8734 143.682 97.5985 143.493 98.4082 143.493C98.9248 143.493 99.4052 143.565 99.8493 143.71C100.293 143.855 100.689 144.068 101.037 144.349C101.384 144.627 101.67 144.969 101.893 145.374C102.12 145.775 102.268 146.235 102.337 146.751ZM104.957 152.901H103.162L106.43 143.62H108.505L111.777 152.901H109.982L107.504 145.523H107.431L104.957 152.901ZM105.016 149.262H109.91V150.612H105.016V149.262ZM113 152.901V143.62H116.552C117.223 143.62 117.781 143.725 118.225 143.937C118.672 144.145 119.006 144.431 119.226 144.793C119.45 145.156 119.562 145.567 119.562 146.026C119.562 146.404 119.489 146.727 119.344 146.996C119.199 147.262 119.004 147.478 118.759 147.644C118.515 147.81 118.241 147.929 117.939 148.002V148.093C118.269 148.111 118.584 148.212 118.886 148.396C119.192 148.578 119.441 148.834 119.634 149.167C119.827 149.499 119.924 149.901 119.924 150.372C119.924 150.852 119.808 151.285 119.575 151.668C119.343 152.049 118.992 152.35 118.524 152.57C118.056 152.791 117.466 152.901 116.756 152.901H113ZM114.681 151.496H116.489C117.099 151.496 117.539 151.38 117.808 151.147C118.08 150.911 118.216 150.609 118.216 150.241C118.216 149.966 118.148 149.718 118.012 149.497C117.876 149.274 117.682 149.099 117.432 148.972C117.181 148.842 116.882 148.777 116.534 148.777H114.681V151.496ZM114.681 147.567H116.344C116.634 147.567 116.895 147.514 117.128 147.408C117.361 147.3 117.543 147.147 117.676 146.951C117.812 146.751 117.88 146.516 117.88 146.244C117.88 145.884 117.753 145.588 117.5 145.355C117.249 145.123 116.876 145.006 116.38 145.006H114.681V147.567ZM121.387 152.901V143.62H123.068V151.491H127.156V152.901H121.387ZM128.615 152.901V143.62H134.651V145.029H130.296V147.549H134.339V148.958H130.296V151.491H134.688V152.901H128.615ZM139.124 145.029V143.62H146.529V145.029H143.661V152.901H141.993V145.029H139.124ZM149.199 143.62L151.614 150.925H151.709L154.12 143.62H155.969L152.697 152.901H150.622L147.354 143.62H149.199Z" fill="white"/>
<path opacity="0.5" d="M97.4112 163.354V172.635H96.2873V164.986H96.2148C96.1725 165.07 96.0637 165.167 95.8885 165.276C95.7132 165.382 95.4867 165.475 95.2087 165.557C94.9307 165.635 94.6135 165.675 94.257 165.675V164.732C94.6165 164.732 94.9277 164.667 95.1906 164.537C95.4534 164.407 95.6725 164.255 95.8477 164.079C96.0259 163.904 96.1604 163.746 96.251 163.604C96.3447 163.462 96.3991 163.378 96.4142 163.354H97.4112ZM99.8538 166.2C99.8538 165.626 99.9792 165.116 100.23 164.669C100.484 164.221 100.83 163.869 101.268 163.613C101.709 163.356 102.21 163.227 102.772 163.227C103.34 163.227 103.845 163.36 104.286 163.626C104.727 163.889 105.073 164.252 105.324 164.714C105.575 165.173 105.697 165.699 105.691 166.291C105.685 166.581 105.641 166.882 105.559 167.193C105.478 167.504 105.34 167.85 105.147 168.231C104.954 168.611 104.688 169.052 104.349 169.554L102.265 172.635H101.032L103.479 169.064C103.371 169.101 103.257 169.131 103.139 169.155C103.025 169.179 102.908 169.191 102.79 169.191C102.229 169.191 101.725 169.061 101.281 168.802C100.84 168.542 100.491 168.187 100.235 167.737C99.9807 167.286 99.8538 166.774 99.8538 166.2ZM100.923 166.2C100.923 166.593 101.002 166.939 101.159 167.238C101.316 167.537 101.534 167.771 101.812 167.941C102.09 168.11 102.41 168.194 102.772 168.194C103.135 168.194 103.455 168.111 103.733 167.945C104.011 167.776 104.229 167.543 104.386 167.247C104.543 166.948 104.621 166.605 104.621 166.218C104.621 165.826 104.543 165.478 104.386 165.176C104.229 164.874 104.011 164.637 103.733 164.465C103.455 164.292 103.135 164.206 102.772 164.206C102.41 164.206 102.09 164.292 101.812 164.465C101.534 164.634 101.316 164.869 101.159 165.172C101.002 165.471 100.923 165.814 100.923 166.2ZM107.741 171.367L107.669 171.856C107.618 172.2 107.539 172.569 107.433 172.962C107.331 173.355 107.223 173.725 107.112 174.072C107 174.42 106.908 174.696 106.835 174.901H106.019C106.059 174.708 106.11 174.453 106.173 174.136C106.237 173.818 106.3 173.463 106.364 173.071C106.43 172.681 106.485 172.282 106.527 171.874L106.581 171.367H107.741ZM112.391 172.762C111.769 172.762 111.219 172.652 110.742 172.432C110.267 172.208 109.897 171.901 109.631 171.512C109.365 171.119 109.234 170.672 109.237 170.17C109.234 169.777 109.311 169.415 109.468 169.083C109.625 168.747 109.84 168.468 110.112 168.244C110.387 168.018 110.693 167.874 111.032 167.814V167.759C110.587 167.644 110.234 167.395 109.971 167.011C109.708 166.625 109.578 166.185 109.581 165.693C109.578 165.221 109.698 164.8 109.939 164.428C110.181 164.057 110.513 163.764 110.936 163.549C111.362 163.335 111.847 163.227 112.391 163.227C112.929 163.227 113.409 163.335 113.832 163.549C114.255 163.764 114.588 164.057 114.829 164.428C115.074 164.8 115.198 165.221 115.201 165.693C115.198 166.185 115.063 166.625 114.798 167.011C114.535 167.395 114.186 167.644 113.751 167.759V167.814C114.086 167.874 114.388 168.018 114.657 168.244C114.926 168.468 115.14 168.747 115.301 169.083C115.461 169.415 115.542 169.777 115.545 170.17C115.542 170.672 115.406 171.119 115.137 171.512C114.872 171.901 114.501 172.208 114.027 172.432C113.556 172.652 113.01 172.762 112.391 172.762ZM112.391 171.765C112.811 171.765 113.174 171.697 113.479 171.561C113.784 171.425 114.02 171.234 114.186 170.986C114.352 170.738 114.437 170.448 114.44 170.116C114.437 169.765 114.346 169.456 114.168 169.187C113.989 168.918 113.746 168.706 113.438 168.552C113.133 168.398 112.784 168.321 112.391 168.321C111.995 168.321 111.642 168.398 111.331 168.552C111.023 168.706 110.779 168.918 110.601 169.187C110.426 169.456 110.34 169.765 110.343 170.116C110.34 170.448 110.42 170.738 110.583 170.986C110.749 171.234 110.986 171.425 111.294 171.561C111.603 171.697 111.968 171.765 112.391 171.765ZM112.391 167.36C112.723 167.36 113.018 167.294 113.275 167.161C113.535 167.028 113.739 166.842 113.887 166.604C114.035 166.365 114.11 166.085 114.113 165.765C114.11 165.451 114.036 165.178 113.891 164.945C113.746 164.709 113.545 164.528 113.288 164.401C113.032 164.271 112.733 164.206 112.391 164.206C112.044 164.206 111.74 164.271 111.48 164.401C111.22 164.528 111.02 164.709 110.878 164.945C110.736 165.178 110.666 165.451 110.669 165.765C110.666 166.085 110.737 166.365 110.882 166.604C111.03 166.842 111.234 167.028 111.494 167.161C111.754 167.294 112.053 167.36 112.391 167.36ZM120.309 172.762C119.627 172.762 119.045 172.577 118.565 172.205C118.084 171.83 117.717 171.288 117.463 170.578C117.21 169.865 117.083 169.004 117.083 167.995C117.083 166.992 117.21 166.135 117.463 165.425C117.72 164.712 118.089 164.169 118.569 163.794C119.053 163.416 119.633 163.227 120.309 163.227C120.986 163.227 121.565 163.416 122.045 163.794C122.528 164.169 122.897 164.712 123.151 165.425C123.408 166.135 123.536 166.992 123.536 167.995C123.536 169.004 123.409 169.865 123.155 170.578C122.902 171.288 122.535 171.83 122.054 172.205C121.574 172.577 120.992 172.762 120.309 172.762ZM120.309 171.765C120.986 171.765 121.512 171.439 121.886 170.787C122.261 170.134 122.448 169.203 122.448 167.995C122.448 167.191 122.362 166.507 122.19 165.942C122.021 165.377 121.776 164.946 121.456 164.65C121.139 164.354 120.757 164.206 120.309 164.206C119.639 164.206 119.114 164.537 118.737 165.199C118.359 165.857 118.17 166.789 118.17 167.995C118.17 168.799 118.255 169.481 118.424 170.043C118.593 170.605 118.837 171.033 119.154 171.326C119.474 171.619 119.859 171.765 120.309 171.765ZM128.285 172.762C127.603 172.762 127.021 172.577 126.541 172.205C126.06 171.83 125.693 171.288 125.439 170.578C125.186 169.865 125.059 169.004 125.059 167.995C125.059 166.992 125.186 166.135 125.439 165.425C125.696 164.712 126.065 164.169 126.545 163.794C127.029 163.416 127.609 163.227 128.285 163.227C128.962 163.227 129.541 163.416 130.021 163.794C130.504 164.169 130.873 164.712 131.127 165.425C131.384 166.135 131.512 166.992 131.512 167.995C131.512 169.004 131.385 169.865 131.131 170.578C130.878 171.288 130.511 171.83 130.03 172.205C129.55 172.577 128.968 172.762 128.285 172.762ZM128.285 171.765C128.962 171.765 129.488 171.439 129.862 170.787C130.237 170.134 130.424 169.203 130.424 167.995C130.424 167.191 130.338 166.507 130.166 165.942C129.997 165.377 129.752 164.946 129.432 164.65C129.115 164.354 128.733 164.206 128.285 164.206C127.615 164.206 127.091 164.537 126.713 165.199C126.335 165.857 126.146 166.789 126.146 167.995C126.146 168.799 126.231 169.481 126.4 170.043C126.569 170.605 126.813 171.033 127.13 171.326C127.45 171.619 127.835 171.765 128.285 171.765Z" fill="white"/>
<path d="M248.731 167.994C254.773 167.994 259.67 163.097 259.67 157.056C259.67 151.014 254.773 146.117 248.731 146.117C242.69 146.117 237.793 151.014 237.793 157.056C237.793 163.097 242.69 167.994 248.731 167.994Z" fill="white"/>
<path d="M243.781 157.763L246.61 160.592L253.682 153.52" fill="white"/>
<path d="M243.781 157.763L246.61 160.592L253.682 153.52" stroke="#00535C" stroke-width="1.68286" stroke-linecap="round" stroke-linejoin="round"/>
<g filter="url(#filter0_d_431_2277)">
<rect x="237.502" y="160.866" width="252.498" height="80.216" rx="9.11546" fill="#00535C"/>
<rect x="237.958" y="161.322" width="251.587" height="79.3045" rx="8.65968" stroke="#F2F7F8" stroke-opacity="0.5" stroke-width="0.911546"/>
<circle opacity="0.2" cx="278.521" cy="200.975" r="21.8771" fill="white"/>
<path d="M283.38 204.293C283.991 203.892 284.793 204.329 284.793 205.058V206.234C284.793 207.392 283.89 208.632 282.806 208.996L279.898 209.963C279.387 210.136 278.558 210.136 278.056 209.963L275.149 208.996C274.055 208.632 273.161 207.392 273.161 206.234V205.049C273.161 204.329 273.964 203.892 274.565 204.284L276.443 205.505C277.163 205.988 278.075 206.225 278.986 206.225C279.898 206.225 280.809 205.988 281.529 205.505L283.38 204.293Z" fill="white"/>
<path d="M286.251 195.925L280.791 192.342C279.807 191.695 278.184 191.695 277.2 192.342L271.712 195.925C269.953 197.064 269.953 199.644 271.712 200.792L273.171 201.74L277.2 204.366C278.184 205.013 279.807 205.013 280.791 204.366L284.793 201.74L286.042 200.92V203.709C286.042 204.083 286.352 204.393 286.725 204.393C287.099 204.393 287.409 204.083 287.409 203.709V199.225C287.774 198.049 287.4 196.681 286.251 195.925Z" fill="white"/>
<path d="M314.562 189.926C314.519 189.53 314.341 189.222 314.027 189.001C313.716 188.78 313.311 188.67 312.812 188.67C312.462 188.67 312.161 188.723 311.911 188.829C311.66 188.935 311.468 189.078 311.335 189.259C311.202 189.441 311.134 189.648 311.131 189.88C311.131 190.074 311.175 190.241 311.263 190.383C311.353 190.525 311.476 190.646 311.63 190.746C311.784 190.842 311.954 190.924 312.142 190.99C312.329 191.057 312.518 191.113 312.708 191.158L313.578 191.376C313.929 191.457 314.266 191.568 314.589 191.707C314.915 191.845 315.207 192.021 315.464 192.232C315.723 192.444 315.929 192.699 316.08 192.998C316.231 193.297 316.307 193.648 316.307 194.049C316.307 194.593 316.168 195.072 315.89 195.486C315.612 195.897 315.21 196.219 314.684 196.451C314.161 196.681 313.529 196.796 312.785 196.796C312.063 196.796 311.436 196.684 310.905 196.46C310.376 196.237 309.962 195.911 309.663 195.482C309.367 195.053 309.207 194.53 309.182 193.914H310.837C310.861 194.237 310.96 194.506 311.136 194.72C311.311 194.935 311.539 195.095 311.82 195.201C312.104 195.306 312.421 195.359 312.772 195.359C313.137 195.359 313.458 195.305 313.732 195.196C314.01 195.084 314.228 194.93 314.385 194.734C314.542 194.534 314.622 194.302 314.625 194.036C314.622 193.794 314.551 193.595 314.412 193.438C314.273 193.278 314.078 193.145 313.828 193.039C313.58 192.93 313.29 192.833 312.958 192.749L311.902 192.477C311.137 192.281 310.533 191.983 310.089 191.584C309.648 191.182 309.427 190.649 309.427 189.984C309.427 189.438 309.575 188.959 309.871 188.548C310.17 188.137 310.577 187.818 311.09 187.592C311.604 187.362 312.186 187.247 312.835 187.247C313.494 187.247 314.071 187.362 314.566 187.592C315.065 187.818 315.456 188.134 315.74 188.539C316.024 188.941 316.171 189.403 316.18 189.926H314.562ZM325.75 190.506H324.055C324.006 190.228 323.917 189.981 323.787 189.767C323.658 189.549 323.496 189.365 323.303 189.214C323.109 189.063 322.889 188.95 322.641 188.874C322.396 188.796 322.132 188.756 321.848 188.756C321.343 188.756 320.896 188.883 320.506 189.137C320.117 189.388 319.812 189.756 319.591 190.243C319.37 190.726 319.26 191.317 319.26 192.015C319.26 192.725 319.37 193.323 319.591 193.809C319.815 194.293 320.12 194.658 320.506 194.906C320.896 195.151 321.342 195.273 321.843 195.273C322.121 195.273 322.381 195.237 322.623 195.164C322.867 195.089 323.087 194.978 323.28 194.833C323.476 194.688 323.641 194.51 323.774 194.299C323.91 194.087 324.003 193.846 324.055 193.574L325.75 193.583C325.686 194.024 325.549 194.438 325.337 194.824C325.129 195.211 324.855 195.553 324.517 195.849C324.179 196.142 323.783 196.371 323.33 196.537C322.877 196.701 322.374 196.782 321.821 196.782C321.005 196.782 320.277 196.593 319.636 196.216C318.996 195.838 318.491 195.293 318.123 194.58C317.754 193.867 317.57 193.012 317.57 192.015C317.57 191.015 317.756 190.16 318.127 189.45C318.499 188.737 319.005 188.191 319.645 187.814C320.286 187.436 321.011 187.247 321.821 187.247C322.337 187.247 322.818 187.32 323.262 187.465C323.706 187.61 324.102 187.823 324.449 188.104C324.797 188.382 325.082 188.723 325.306 189.128C325.532 189.53 325.68 189.989 325.75 190.506ZM327.289 196.655V187.374H328.971V191.303H333.271V187.374H334.957V196.655H333.271V192.713H328.971V196.655H327.289ZM345.079 192.015C345.079 193.015 344.892 193.871 344.517 194.584C344.146 195.294 343.638 195.838 342.994 196.216C342.354 196.593 341.627 196.782 340.815 196.782C340.002 196.782 339.274 196.593 338.63 196.216C337.99 195.835 337.482 195.29 337.108 194.58C336.736 193.867 336.55 193.012 336.55 192.015C336.55 191.015 336.736 190.16 337.108 189.45C337.482 188.737 337.99 188.191 338.63 187.814C339.274 187.436 340.002 187.247 340.815 187.247C341.627 187.247 342.354 187.436 342.994 187.814C343.638 188.191 344.146 188.737 344.517 189.45C344.892 190.16 345.079 191.015 345.079 192.015ZM343.389 192.015C343.389 191.311 343.278 190.717 343.058 190.234C342.84 189.747 342.538 189.38 342.152 189.132C341.765 188.882 341.319 188.756 340.815 188.756C340.31 188.756 339.865 188.882 339.478 189.132C339.091 189.38 338.787 189.747 338.567 190.234C338.349 190.717 338.241 191.311 338.241 192.015C338.241 192.719 338.349 193.314 338.567 193.8C338.787 194.284 339.091 194.651 339.478 194.901C339.865 195.149 340.31 195.273 340.815 195.273C341.319 195.273 341.765 195.149 342.152 194.901C342.538 194.651 342.84 194.284 343.058 193.8C343.278 193.314 343.389 192.719 343.389 192.015ZM354.962 192.015C354.962 193.015 354.775 193.871 354.4 194.584C354.028 195.294 353.521 195.838 352.877 196.216C352.237 196.593 351.51 196.782 350.697 196.782C349.885 196.782 349.157 196.593 348.513 196.216C347.873 195.835 347.365 195.29 346.99 194.58C346.619 193.867 346.433 193.012 346.433 192.015C346.433 191.015 346.619 190.16 346.99 189.45C347.365 188.737 347.873 188.191 348.513 187.814C349.157 187.436 349.885 187.247 350.697 187.247C351.51 187.247 352.237 187.436 352.877 187.814C353.521 188.191 354.028 188.737 354.4 189.45C354.775 190.16 354.962 191.015 354.962 192.015ZM353.272 192.015C353.272 191.311 353.161 190.717 352.941 190.234C352.723 189.747 352.421 189.38 352.034 189.132C351.648 188.882 351.202 188.756 350.697 188.756C350.193 188.756 349.747 188.882 349.361 189.132C348.974 189.38 348.67 189.747 348.45 190.234C348.232 190.717 348.123 191.311 348.123 192.015C348.123 192.719 348.232 193.314 348.45 193.8C348.67 194.284 348.974 194.651 349.361 194.901C349.747 195.149 350.193 195.273 350.697 195.273C351.202 195.273 351.648 195.149 352.034 194.901C352.421 194.651 352.723 194.284 352.941 193.8C353.161 193.314 353.272 192.719 353.272 192.015ZM356.551 196.655V187.374H358.233V195.246H362.32V196.655H356.551ZM366.945 196.655V187.374H370.498C371.169 187.374 371.726 187.48 372.17 187.691C372.618 187.9 372.951 188.185 373.172 188.548C373.396 188.91 373.507 189.321 373.507 189.78C373.507 190.158 373.435 190.481 373.29 190.75C373.145 191.016 372.95 191.232 372.705 191.398C372.46 191.565 372.187 191.684 371.885 191.756V191.847C372.214 191.865 372.53 191.966 372.832 192.151C373.137 192.332 373.386 192.589 373.58 192.921C373.773 193.253 373.87 193.655 373.87 194.127C373.87 194.607 373.754 195.039 373.521 195.423C373.288 195.803 372.938 196.104 372.47 196.324C372.001 196.545 371.412 196.655 370.702 196.655H366.945ZM368.627 195.25H370.435C371.045 195.25 371.485 195.134 371.753 194.901C372.025 194.666 372.161 194.364 372.161 193.995C372.161 193.72 372.093 193.472 371.957 193.252C371.821 193.028 371.628 192.853 371.377 192.726C371.127 192.596 370.827 192.531 370.48 192.531H368.627V195.25ZM368.627 191.321H370.29C370.58 191.321 370.841 191.268 371.074 191.163C371.306 191.054 371.489 190.901 371.622 190.705C371.758 190.506 371.826 190.27 371.826 189.998C371.826 189.638 371.699 189.342 371.445 189.11C371.195 188.877 370.821 188.761 370.326 188.761H368.627V191.321ZM377.014 187.374V196.655H375.333V187.374H377.014ZM378.834 196.655V187.374H380.516V195.246H384.604V196.655H378.834ZM386.063 196.655V187.374H387.744V195.246H391.832V196.655H386.063Z" fill="white"/>
<path opacity="0.5" d="M309.563 216.39V215.574L312.627 212.221C312.986 211.828 313.282 211.486 313.515 211.196C313.748 210.903 313.92 210.628 314.032 210.372C314.146 210.112 314.204 209.84 314.204 209.556C314.204 209.23 314.125 208.947 313.968 208.708C313.814 208.47 313.603 208.285 313.334 208.156C313.065 208.026 312.763 207.961 312.427 207.961C312.071 207.961 311.76 208.035 311.494 208.183C311.231 208.328 311.027 208.532 310.882 208.795C310.74 209.057 310.669 209.366 310.669 209.719H309.599C309.599 209.175 309.725 208.698 309.976 208.287C310.226 207.876 310.568 207.556 311 207.326C311.435 207.097 311.923 206.982 312.464 206.982C313.007 206.982 313.489 207.097 313.909 207.326C314.329 207.556 314.658 207.866 314.897 208.255C315.136 208.645 315.255 209.079 315.255 209.556C315.255 209.897 315.193 210.231 315.069 210.557C314.948 210.881 314.737 211.242 314.435 211.641C314.136 212.036 313.72 212.52 313.189 213.091L311.104 215.32V215.393H315.418V216.39H309.563ZM320.317 216.517C319.634 216.517 319.053 216.331 318.572 215.959C318.092 215.585 317.725 215.042 317.471 214.332C317.217 213.619 317.091 212.758 317.091 211.749C317.091 210.746 317.217 209.89 317.471 209.18C317.728 208.467 318.097 207.923 318.577 207.548C319.06 207.171 319.64 206.982 320.317 206.982C320.994 206.982 321.573 207.171 322.053 207.548C322.536 207.923 322.905 208.467 323.159 209.18C323.415 209.89 323.544 210.746 323.544 211.749C323.544 212.758 323.417 213.619 323.163 214.332C322.909 215.042 322.542 215.585 322.062 215.959C321.582 216.331 321 216.517 320.317 216.517ZM320.317 215.52C320.994 215.52 321.52 215.193 321.894 214.541C322.269 213.888 322.456 212.958 322.456 211.749C322.456 210.946 322.37 210.261 322.198 209.696C322.029 209.131 321.784 208.701 321.464 208.405C321.147 208.109 320.764 207.961 320.317 207.961C319.646 207.961 319.122 208.292 318.745 208.953C318.367 209.612 318.178 210.544 318.178 211.749C318.178 212.553 318.263 213.236 318.432 213.798C318.601 214.36 318.844 214.787 319.162 215.08C319.482 215.373 319.867 215.52 320.317 215.52ZM326.555 215.121L326.483 215.61C326.431 215.955 326.353 216.323 326.247 216.716C326.144 217.109 326.037 217.479 325.925 217.826C325.814 218.174 325.721 218.45 325.649 218.656H324.833C324.872 218.462 324.924 218.207 324.987 217.89C325.051 217.573 325.114 217.218 325.178 216.825C325.244 216.435 325.298 216.036 325.341 215.629L325.395 215.121H326.555ZM331.222 216.517C330.539 216.517 329.958 216.331 329.477 215.959C328.997 215.585 328.63 215.042 328.376 214.332C328.122 213.619 327.995 212.758 327.995 211.749C327.995 210.746 328.122 209.89 328.376 209.18C328.633 208.467 329.001 207.923 329.482 207.548C329.965 207.171 330.545 206.982 331.222 206.982C331.899 206.982 332.477 207.171 332.958 207.548C333.441 207.923 333.81 208.467 334.063 209.18C334.32 209.89 334.449 210.746 334.449 211.749C334.449 212.758 334.322 213.619 334.068 214.332C333.814 215.042 333.447 215.585 332.967 215.959C332.486 216.331 331.905 216.517 331.222 216.517ZM331.222 215.52C331.899 215.52 332.424 215.193 332.799 214.541C333.174 213.888 333.361 212.958 333.361 211.749C333.361 210.946 333.275 210.261 333.103 209.696C332.933 209.131 332.689 208.701 332.368 208.405C332.051 208.109 331.669 207.961 331.222 207.961C330.551 207.961 330.027 208.292 329.649 208.953C329.272 209.612 329.083 210.544 329.083 211.749C329.083 212.553 329.167 213.236 329.337 213.798C329.506 214.36 329.749 214.787 330.066 215.08C330.387 215.373 330.772 215.52 331.222 215.52ZM339.198 216.517C338.515 216.517 337.934 216.331 337.453 215.959C336.973 215.585 336.606 215.042 336.352 214.332C336.098 213.619 335.971 212.758 335.971 211.749C335.971 210.746 336.098 209.89 336.352 209.18C336.609 208.467 336.977 207.923 337.458 207.548C337.941 207.171 338.521 206.982 339.198 206.982C339.875 206.982 340.453 207.171 340.934 207.548C341.417 207.923 341.786 208.467 342.039 209.18C342.296 209.89 342.425 210.746 342.425 211.749C342.425 212.758 342.298 213.619 342.044 214.332C341.79 215.042 341.423 215.585 340.943 215.959C340.462 216.331 339.881 216.517 339.198 216.517ZM339.198 215.52C339.875 215.52 340.4 215.193 340.775 214.541C341.15 213.888 341.337 212.958 341.337 211.749C341.337 210.946 341.251 210.261 341.079 209.696C340.909 209.131 340.665 208.701 340.344 208.405C340.027 208.109 339.645 207.961 339.198 207.961C338.527 207.961 338.003 208.292 337.625 208.953C337.248 209.612 337.059 210.544 337.059 211.749C337.059 212.553 337.144 213.236 337.313 213.798C337.482 214.36 337.725 214.787 338.042 215.08C338.363 215.373 338.748 215.52 339.198 215.52ZM347.174 216.517C346.491 216.517 345.91 216.331 345.429 215.959C344.949 215.585 344.582 215.042 344.328 214.332C344.074 213.619 343.947 212.758 343.947 211.749C343.947 210.746 344.074 209.89 344.328 209.18C344.585 208.467 344.953 207.923 345.434 207.548C345.917 207.171 346.497 206.982 347.174 206.982C347.851 206.982 348.429 207.171 348.91 207.548C349.393 207.923 349.762 208.467 350.015 209.18C350.272 209.89 350.401 210.746 350.401 211.749C350.401 212.758 350.274 213.619 350.02 214.332C349.766 215.042 349.399 215.585 348.919 215.959C348.438 216.331 347.857 216.517 347.174 216.517ZM347.174 215.52C347.851 215.52 348.376 215.193 348.751 214.541C349.126 213.888 349.313 212.958 349.313 211.749C349.313 210.946 349.227 210.261 349.055 209.696C348.885 209.131 348.641 208.701 348.321 208.405C348.003 208.109 347.621 207.961 347.174 207.961C346.503 207.961 345.979 208.292 345.601 208.953C345.224 209.612 345.035 210.544 345.035 211.749C345.035 212.553 345.12 213.236 345.289 213.798C345.458 214.36 345.701 214.787 346.018 215.08C346.339 215.373 346.724 215.52 347.174 215.52Z" fill="white"/>
<path d="M464.768 211.749C470.809 211.749 475.706 206.852 475.706 200.81C475.706 194.769 470.809 189.872 464.768 189.872C458.726 189.872 453.829 194.769 453.829 200.81C453.829 206.852 458.726 211.749 464.768 211.749Z" fill="white"/>
<path d="M459.818 201.517L462.646 204.346L469.718 197.274" fill="white"/>
<path d="M459.818 201.517L462.646 204.346L469.718 197.274" stroke="#00535C" stroke-width="1.68286" stroke-linecap="round" stroke-linejoin="round"/>
</g>
<g filter="url(#filter1_d_431_2277)">
<rect x="216.081" y="41.4541" width="252.498" height="80.216" rx="9.11546" fill="#00535C"/>
<rect x="216.536" y="41.9099" width="251.587" height="79.3045" rx="8.65968" stroke="#F2F7F8" stroke-opacity="0.5" stroke-width="0.911546"/>
<circle opacity="0.2" cx="257.556" cy="81.5626" r="21.8771" fill="white"/>
<path d="M257.146 84.2515L255.459 85.9379C255.104 86.2934 254.539 86.2934 254.174 85.947C254.074 85.8467 253.973 85.7556 253.873 85.6553C252.934 84.7073 252.087 83.7137 251.33 82.6746C250.582 81.6354 249.981 80.5962 249.543 79.5662C249.115 78.527 248.896 77.5334 248.896 76.5854C248.896 75.9656 249.006 75.3731 249.224 74.8262C249.443 74.2701 249.789 73.7596 250.273 73.3039C250.856 72.7296 251.494 72.447 252.169 72.447C252.424 72.447 252.679 72.5017 252.907 72.6111C253.144 72.7205 253.354 72.8846 253.518 73.1216L255.632 76.1023C255.797 76.3302 255.915 76.5399 255.997 76.7404C256.079 76.9318 256.125 77.1233 256.125 77.2964C256.125 77.5152 256.061 77.734 255.933 77.9436C255.815 78.1533 255.642 78.3721 255.423 78.5908L254.73 79.311C254.63 79.4112 254.584 79.5297 254.584 79.6756C254.584 79.7485 254.593 79.8123 254.612 79.8852C254.639 79.9582 254.666 80.0128 254.684 80.0675C254.849 80.3684 255.131 80.7603 255.532 81.2343C255.942 81.7083 256.38 82.1914 256.854 82.6746C256.945 82.7657 257.045 82.8569 257.136 82.948C257.501 83.3035 257.51 83.8869 257.146 84.2515Z" fill="white"/>
<path d="M267.1 87.3326C267.1 87.5879 267.054 87.8522 266.963 88.1075C266.936 88.1804 266.908 88.2533 266.872 88.3262C266.717 88.6544 266.516 88.9643 266.252 89.256C265.805 89.7482 265.313 90.1037 264.757 90.3316C264.748 90.3316 264.739 90.3407 264.73 90.3407C264.192 90.5595 263.608 90.678 262.979 90.678C262.05 90.678 261.056 90.4593 260.008 90.0126C258.96 89.5659 257.911 88.9643 256.872 88.2077C256.517 87.9434 256.161 87.679 255.824 87.3965L258.805 84.4157C259.06 84.6071 259.288 84.753 259.479 84.8532C259.525 84.8715 259.579 84.8988 259.643 84.9262C259.716 84.9535 259.789 84.9626 259.871 84.9626C260.026 84.9626 260.145 84.9079 260.245 84.8077L260.938 84.124C261.166 83.8961 261.384 83.7229 261.594 83.6135C261.804 83.4859 262.013 83.4221 262.241 83.4221C262.414 83.4221 262.597 83.4586 262.797 83.5406C262.998 83.6227 263.207 83.7412 263.435 83.8961L266.452 86.0383C266.689 86.2023 266.854 86.3938 266.954 86.6216C267.045 86.8495 267.1 87.0774 267.1 87.3326Z" fill="white"/>
<path d="M288.552 77.2432V67.962H292.033C292.746 67.962 293.344 68.0949 293.827 68.3608C294.314 68.6266 294.681 68.9922 294.929 69.4575C295.179 69.9197 295.305 70.4454 295.305 71.0346C295.305 71.6297 295.179 72.1584 294.929 72.6207C294.678 73.0829 294.308 73.447 293.818 73.7129C293.329 73.9757 292.726 74.1071 292.01 74.1071H289.703V72.7249H291.783C292.2 72.7249 292.542 72.6524 292.808 72.5074C293.074 72.3624 293.27 72.163 293.397 71.9092C293.527 71.6554 293.592 71.3639 293.592 71.0346C293.592 70.7052 293.527 70.4152 293.397 70.1644C293.27 69.9137 293.072 69.7188 292.803 69.5798C292.537 69.4378 292.194 69.3668 291.774 69.3668H290.234V77.2432H288.552ZM296.765 77.2432V67.962H298.446V71.8911H302.747V67.962H304.433V77.2432H302.747V73.3005H298.446V77.2432H296.765ZM314.555 72.6026C314.555 73.6026 314.367 74.4591 313.993 75.1721C313.621 75.8821 313.114 76.4259 312.47 76.8036C311.83 77.1812 311.103 77.3701 310.29 77.3701C309.478 77.3701 308.75 77.1812 308.106 76.8036C307.465 76.4229 306.958 75.8776 306.583 75.1676C306.212 74.4546 306.026 73.5996 306.026 72.6026C306.026 71.6025 306.212 70.7475 306.583 70.0376C306.958 69.3245 307.465 68.7792 308.106 68.4016C308.75 68.0239 309.478 67.8351 310.29 67.8351C311.103 67.8351 311.83 68.0239 312.47 68.4016C313.114 68.7792 313.621 69.3245 313.993 70.0376C314.367 70.7475 314.555 71.6025 314.555 72.6026ZM312.864 72.6026C312.864 71.8986 312.754 71.305 312.534 70.8216C312.316 70.3351 312.014 69.9681 311.627 69.7203C311.241 69.4696 310.795 69.3442 310.29 69.3442C309.786 69.3442 309.34 69.4696 308.953 69.7203C308.567 69.9681 308.263 70.3351 308.043 70.8216C307.825 71.305 307.716 71.8986 307.716 72.6026C307.716 73.3065 307.825 73.9017 308.043 74.3881C308.263 74.8715 308.567 75.2386 308.953 75.4893C309.34 75.7371 309.786 75.861 310.29 75.861C310.795 75.861 311.241 75.7371 311.627 75.4893C312.014 75.2386 312.316 74.8715 312.534 74.3881C312.754 73.9017 312.864 73.3065 312.864 72.6026ZM323.771 67.962V77.2432H322.276L317.903 70.9213H317.826V77.2432H316.144V67.962H317.649L322.018 74.2884H322.099V67.962H323.771ZM325.603 77.2432V67.962H331.64V69.3714H327.285V71.8911H331.327V73.3005H327.285V75.8338H331.676V77.2432H325.603ZM336.521 77.2432V67.962H340.074C340.744 67.962 341.302 68.0677 341.746 68.2792C342.193 68.4877 342.527 68.7732 342.747 69.1357C342.971 69.4983 343.083 69.9091 343.083 70.3684C343.083 70.746 343.01 71.0693 342.865 71.3382C342.72 71.6041 342.525 71.8201 342.281 71.9862C342.036 72.1524 341.762 72.2717 341.46 72.3443V72.4349C341.79 72.453 342.105 72.5542 342.407 72.7385C342.713 72.9198 342.962 73.1766 343.155 73.5089C343.349 73.8413 343.445 74.2431 343.445 74.7144C343.445 75.1948 343.329 75.6268 343.096 76.0105C342.864 76.3912 342.513 76.6918 342.045 76.9123C341.577 77.1329 340.987 77.2432 340.277 77.2432H336.521ZM338.202 75.8383H340.01C340.62 75.8383 341.06 75.722 341.329 75.4893C341.601 75.2537 341.737 74.9516 341.737 74.583C341.737 74.308 341.669 74.0603 341.533 73.8398C341.397 73.6162 341.203 73.441 340.953 73.3141C340.702 73.1842 340.403 73.1192 340.055 73.1192H338.202V75.8383ZM338.202 71.9092H339.865C340.155 71.9092 340.416 71.8563 340.649 71.7506C340.882 71.6418 341.064 71.4892 341.197 71.2929C341.333 71.0935 341.401 70.8578 341.401 70.5859C341.401 70.2264 341.274 69.9303 341.021 69.6977C340.77 69.465 340.397 69.3487 339.901 69.3487H338.202V71.9092ZM346.589 67.962V77.2432H344.908V67.962H346.589ZM348.41 77.2432V67.962H350.091V75.8338H354.179V77.2432H348.41ZM355.638 77.2432V67.962H357.319V75.8338H361.407V77.2432H355.638Z" fill="white"/>
<path opacity="0.5" d="M291.498 97.1047C290.966 97.1047 290.487 96.9989 290.061 96.7874C289.635 96.576 289.294 96.2859 289.037 95.9173C288.78 95.5487 288.64 95.1288 288.616 94.6575H289.703C289.746 95.0774 289.936 95.4249 290.274 95.6998C290.616 95.9717 291.024 96.1077 291.498 96.1077C291.879 96.1077 292.217 96.0185 292.513 95.8403C292.812 95.662 293.046 95.4173 293.216 95.1061C293.388 94.7919 293.474 94.4369 293.474 94.0412C293.474 93.6363 293.385 93.2753 293.206 92.958C293.031 92.6378 292.79 92.3855 292.481 92.2012C292.173 92.0169 291.821 91.9233 291.425 91.9203C291.141 91.9172 290.85 91.961 290.551 92.0517C290.252 92.1393 290.005 92.2526 289.812 92.3916L288.761 92.2647L289.323 87.6966H294.145V88.6936H290.265L289.939 91.4308H289.993C290.184 91.2798 290.422 91.1544 290.709 91.0547C290.996 90.955 291.296 90.9051 291.607 90.9051C292.175 90.9051 292.681 91.0411 293.125 91.313C293.572 91.5819 293.922 91.9505 294.176 92.4188C294.433 92.887 294.561 93.4218 294.561 94.023C294.561 94.6152 294.429 95.1439 294.163 95.6092C293.9 96.0714 293.537 96.437 293.075 96.7059C292.613 96.9717 292.087 97.1047 291.498 97.1047ZM299.389 97.1047C298.706 97.1047 298.125 96.9189 297.644 96.5473C297.164 96.1726 296.797 95.6303 296.543 94.9203C296.289 94.2073 296.162 93.3463 296.162 92.3372C296.162 91.3341 296.289 90.4776 296.543 89.7676C296.8 89.0546 297.168 88.5108 297.649 88.1362C298.132 87.7585 298.712 87.5697 299.389 87.5697C300.066 87.5697 300.644 87.7585 301.125 88.1362C301.608 88.5108 301.977 89.0546 302.23 89.7676C302.487 90.4776 302.616 91.3341 302.616 92.3372C302.616 93.3463 302.489 94.2073 302.235 94.9203C301.981 95.6303 301.614 96.1726 301.134 96.5473C300.653 96.9189 300.072 97.1047 299.389 97.1047ZM299.389 96.1077C300.066 96.1077 300.591 95.7814 300.966 95.1288C301.341 94.4762 301.528 93.5457 301.528 92.3372C301.528 91.5335 301.442 90.8492 301.27 90.2843C301.101 89.7193 300.856 89.2888 300.536 88.9927C300.218 88.6966 299.836 88.5486 299.389 88.5486C298.718 88.5486 298.194 88.8794 297.816 89.541C297.439 90.1997 297.25 91.1317 297.25 92.3372C297.25 93.1408 297.335 93.8236 297.504 94.3856C297.673 94.9475 297.916 95.375 298.233 95.6681C298.554 95.9611 298.939 96.1077 299.389 96.1077ZM305.627 95.7089L305.555 96.1983C305.503 96.5427 305.425 96.9113 305.319 97.3041C305.216 97.6968 305.109 98.0669 304.997 98.4144C304.885 98.7618 304.793 99.0383 304.721 99.2437H303.905C303.944 99.0503 303.996 98.795 304.059 98.4778C304.123 98.1606 304.186 97.8056 304.249 97.4128C304.316 97.0231 304.37 96.6243 304.413 96.2164L304.467 95.7089H305.627ZM310.294 97.1047C309.611 97.1047 309.029 96.9189 308.549 96.5473C308.069 96.1726 307.702 95.6303 307.448 94.9203C307.194 94.2073 307.067 93.3463 307.067 92.3372C307.067 91.3341 307.194 90.4776 307.448 89.7676C307.705 89.0546 308.073 88.5108 308.554 88.1362C309.037 87.7585 309.617 87.5697 310.294 87.5697C310.97 87.5697 311.549 87.7585 312.029 88.1362C312.513 88.5108 312.881 89.0546 313.135 89.7676C313.392 90.4776 313.52 91.3341 313.52 92.3372C313.52 93.3463 313.394 94.2073 313.14 94.9203C312.886 95.6303 312.519 96.1726 312.038 96.5473C311.558 96.9189 310.977 97.1047 310.294 97.1047ZM310.294 96.1077C310.97 96.1077 311.496 95.7814 311.871 95.1288C312.245 94.4762 312.433 93.5457 312.433 92.3372C312.433 91.5335 312.347 90.8492 312.174 90.2843C312.005 89.7193 311.761 89.2888 311.44 88.9927C311.123 88.6966 310.741 88.5486 310.294 88.5486C309.623 88.5486 309.099 88.8794 308.721 89.541C308.344 90.1997 308.155 91.1317 308.155 92.3372C308.155 93.1408 308.239 93.8236 308.408 94.3856C308.578 94.9475 308.821 95.375 309.138 95.6681C309.458 95.9611 309.844 96.1077 310.294 96.1077ZM318.27 97.1047C317.587 97.1047 317.005 96.9189 316.525 96.5473C316.045 96.1726 315.678 95.6303 315.424 94.9203C315.17 94.2073 315.043 93.3463 315.043 92.3372C315.043 91.3341 315.17 90.4776 315.424 89.7676C315.681 89.0546 316.049 88.5108 316.53 88.1362C317.013 87.7585 317.593 87.5697 318.27 87.5697C318.947 87.5697 319.525 87.7585 320.005 88.1362C320.489 88.5108 320.857 89.0546 321.111 89.7676C321.368 90.4776 321.496 91.3341 321.496 92.3372C321.496 93.3463 321.37 94.2073 321.116 94.9203C320.862 95.6303 320.495 96.1726 320.015 96.5473C319.534 96.9189 318.953 97.1047 318.27 97.1047ZM318.27 96.1077C318.947 96.1077 319.472 95.7814 319.847 95.1288C320.221 94.4762 320.409 93.5457 320.409 92.3372C320.409 91.5335 320.323 90.8492 320.15 90.2843C319.981 89.7193 319.737 89.2888 319.416 88.9927C319.099 88.6966 318.717 88.5486 318.27 88.5486C317.599 88.5486 317.075 88.8794 316.697 89.541C316.32 90.1997 316.131 91.1317 316.131 92.3372C316.131 93.1408 316.215 93.8236 316.385 94.3856C316.554 94.9475 316.797 95.375 317.114 95.6681C317.434 95.9611 317.82 96.1077 318.27 96.1077ZM326.246 97.1047C325.563 97.1047 324.981 96.9189 324.501 96.5473C324.021 96.1726 323.654 95.6303 323.4 94.9203C323.146 94.2073 323.019 93.3463 323.019 92.3372C323.019 91.3341 323.146 90.4776 323.4 89.7676C323.657 89.0546 324.025 88.5108 324.506 88.1362C324.989 87.7585 325.569 87.5697 326.246 87.5697C326.923 87.5697 327.501 87.7585 327.981 88.1362C328.465 88.5108 328.833 89.0546 329.087 89.7676C329.344 90.4776 329.472 91.3341 329.472 92.3372C329.472 93.3463 329.346 94.2073 329.092 94.9203C328.838 95.6303 328.471 96.1726 327.991 96.5473C327.51 96.9189 326.929 97.1047 326.246 97.1047ZM326.246 96.1077C326.923 96.1077 327.448 95.7814 327.823 95.1288C328.197 94.4762 328.385 93.5457 328.385 92.3372C328.385 91.5335 328.299 90.8492 328.126 90.2843C327.957 89.7193 327.713 89.2888 327.392 88.9927C327.075 88.6966 326.693 88.5486 326.246 88.5486C325.575 88.5486 325.051 88.8794 324.673 89.541C324.296 90.1997 324.107 91.1317 324.107 92.3372C324.107 93.1408 324.191 93.8236 324.361 94.3856C324.53 94.9475 324.773 95.375 325.09 95.6681C325.41 95.9611 325.796 96.1077 326.246 96.1077Z" fill="white"/>
<path d="M442.891 92.3364C448.932 92.3364 453.829 87.4392 453.829 81.3978C453.829 75.3564 448.932 70.4592 442.891 70.4592C436.849 70.4592 431.952 75.3564 431.952 81.3978C431.952 87.4392 436.849 92.3364 442.891 92.3364Z" fill="white"/>
<path d="M437.94 82.1049L440.769 84.9336L447.841 77.8618" fill="white"/>
<path d="M437.94 82.1049L440.769 84.9336L447.841 77.8618" stroke="#00535C" stroke-width="1.68286" stroke-linecap="round" stroke-linejoin="round"/>
</g>
<defs>
<filter id="filter0_d_431_2277" x="201.04" y="125.316" width="325.422" height="153.14" filterUnits="userSpaceOnUse" color-interpolation-filters="sRGB">
<feFlood flood-opacity="0" result="BackgroundImageFix"/>
<feColorMatrix in="SourceAlpha" type="matrix" values="0 0 0 0 0 0 0 0 0 0 0 0 0 0 0 0 0 0 127 0" result="hardAlpha"/>
<feOffset dy="0.911546"/>
<feGaussianBlur stdDeviation="18.2309"/>
<feComposite in2="hardAlpha" operator="out"/>
<feColorMatrix type="matrix" values="0 0 0 0 0 0 0 0 0 0.32549 0 0 0 0 0.360784 0 0 0 1 0"/>
<feBlend mode="normal" in2="BackgroundImageFix" result="effect1_dropShadow_431_2277"/>
<feBlend mode="normal" in="SourceGraphic" in2="effect1_dropShadow_431_2277" result="shape"/>
</filter>
<filter id="filter1_d_431_2277" x="179.619" y="5.90382" width="325.422" height="153.14" filterUnits="userSpaceOnUse" color-interpolation-filters="sRGB">
<feFlood flood-opacity="0" result="BackgroundImageFix"/>
<feColorMatrix in="SourceAlpha" type="matrix" values="0 0 0 0 0 0 0 0 0 0 0 0 0 0 0 0 0 0 127 0" result="hardAlpha"/>
<feOffset dy="0.911546"/>
<feGaussianBlur stdDeviation="18.2309"/>
<feComposite in2="hardAlpha" operator="out"/>
<feColorMatrix type="matrix" values="0 0 0 0 0 0 0 0 0 0.32549 0 0 0 0 0.360784 0 0 0 1 0"/>
<feBlend mode="normal" in2="BackgroundImageFix" result="effect1_dropShadow_431_2277"/>
<feBlend mode="normal" in="SourceGraphic" in2="effect1_dropShadow_431_2277" result="shape"/>
</filter>
</defs>
</svg>
