<svg width="526" height="279" viewBox="0 0 526 279" fill="none" xmlns="http://www.w3.org/2000/svg">
<rect x="0.455773" y="0.890343" width="251.587" height="79.3045" rx="8.65968" fill="#00535C"/>
<rect x="0.455773" y="0.890343" width="251.587" height="79.3045" rx="8.65968" stroke="#09474E" stroke-width="0.911546"/>
<path d="M12.3097 35.6309V26.3497H18.2555V27.7591H13.991V30.2788H17.8476V31.6882H13.991V35.6309H12.3097ZM21.4685 26.3497V35.6309H19.7872V26.3497H21.4685ZM30.9163 26.3497V35.6309H29.4208L25.0476 29.309H24.9705V35.6309H23.2892V26.3497H24.7938L29.1625 32.6761H29.244V26.3497H30.9163ZM33.9402 35.6309H32.1455L35.413 26.3497H37.4886L40.7606 35.6309H38.966L36.487 28.253H36.4145L33.9402 35.6309ZM33.9991 31.9918H38.8934V33.3423H33.9991V31.9918ZM49.6101 26.3497V35.6309H48.1146L43.7414 29.309H43.6643V35.6309H41.983V26.3497H43.4876L47.8563 32.6761H47.9378V26.3497H49.6101ZM59.3864 29.4812H57.6915C57.6431 29.2032 57.554 28.957 57.4241 28.7425C57.2942 28.5249 57.1326 28.3407 56.9392 28.1896C56.7458 28.0385 56.5253 27.9252 56.2776 27.8497C56.0328 27.7712 55.7685 27.7319 55.4845 27.7319C54.9799 27.7319 54.5328 27.8588 54.1431 28.1125C53.7533 28.3633 53.4482 28.7319 53.2276 29.2183C53.0071 29.7017 52.8968 30.2924 52.8968 30.9903C52.8968 31.7003 53.0071 32.2985 53.2276 32.7849C53.4512 33.2683 53.7563 33.6338 54.1431 33.8816C54.5328 34.1263 54.9784 34.2487 55.4799 34.2487C55.7579 34.2487 56.0177 34.2124 56.2594 34.1399C56.5041 34.0644 56.7232 33.9541 56.9165 33.8091C57.1129 33.664 57.2776 33.4858 57.4105 33.2743C57.5465 33.0628 57.6401 32.8211 57.6915 32.5492L59.3864 32.5583C59.3229 32.9994 59.1855 33.4133 58.974 33.8C58.7655 34.1867 58.4921 34.5281 58.1537 34.8242C57.8154 35.1173 57.4196 35.3469 56.9664 35.513C56.5132 35.6762 56.0102 35.7578 55.4573 35.7578C54.6416 35.7578 53.9134 35.5689 53.2729 35.1913C52.6324 34.8136 52.1279 34.2683 51.7593 33.5553C51.3907 32.8423 51.2064 31.9873 51.2064 30.9903C51.2064 29.9902 51.3922 29.1352 51.7638 28.4252C52.1355 27.7122 52.6415 27.1669 53.282 26.7893C53.9225 26.4116 54.6476 26.2228 55.4573 26.2228C55.9739 26.2228 56.4543 26.2953 56.8984 26.4403C57.3425 26.5853 57.7383 26.7983 58.0858 27.0793C58.4332 27.3572 58.7187 27.6986 58.9423 28.1035C59.1689 28.5053 59.3169 28.9645 59.3864 29.4812ZM60.9261 35.6309V26.3497H66.9625V27.7591H62.6074V30.2788H66.6498V31.6882H62.6074V34.2215H66.9987V35.6309H60.9261ZM75.3056 26.3497V35.6309H73.6197V28.4978H73.5427C73.4823 28.5914 73.3675 28.6926 73.1983 28.8014C73.0291 28.9071 72.8116 28.9978 72.5457 29.0733C72.2828 29.1488 71.9762 29.1866 71.6257 29.1866V27.827C71.946 27.827 72.2315 27.7712 72.4822 27.6594C72.733 27.5476 72.946 27.4086 73.1212 27.2424C73.2995 27.0763 73.437 26.9116 73.5336 26.7485C73.6303 26.5853 73.6832 26.4524 73.6922 26.3497H75.3056ZM81.1029 35.8076C80.3567 35.8076 79.7162 35.6188 79.1814 35.2411C78.6497 34.8604 78.2403 34.3121 77.9533 33.5961C77.6693 32.877 77.5273 32.0114 77.5273 30.9993C77.5303 29.9872 77.6738 29.1262 77.9578 28.4162C78.2448 27.7032 78.6542 27.1594 79.186 26.7847C79.7207 26.4101 80.3597 26.2228 81.1029 26.2228C81.8461 26.2228 82.4851 26.4101 83.0199 26.7847C83.5546 27.1594 83.964 27.7032 84.248 28.4162C84.535 29.1292 84.6785 29.9902 84.6785 30.9993C84.6785 32.0145 84.535 32.8815 84.248 33.6006C83.964 34.3166 83.5546 34.8635 83.0199 35.2411C82.4882 35.6188 81.8492 35.8076 81.1029 35.8076ZM81.1029 34.3891C81.683 34.3891 82.1407 34.1036 82.4761 33.5326C82.8144 32.9586 82.9836 32.1142 82.9836 30.9993C82.9836 30.2621 82.9066 29.6428 82.7525 29.1413C82.5984 28.6398 82.3809 28.2621 82.0999 28.0083C81.819 27.7515 81.4866 27.6231 81.1029 27.6231C80.5259 27.6231 80.0697 27.9101 79.7343 28.4842C79.399 29.0552 79.2298 29.8936 79.2267 30.9993C79.2237 31.7395 79.2977 32.3619 79.4488 32.8664C79.6029 33.371 79.8204 33.7517 80.1014 34.0085C80.3824 34.2622 80.7162 34.3891 81.1029 34.3891ZM89.7372 26.3497V35.6309H88.0514V28.4978H87.9743C87.9139 28.5914 87.7991 28.6926 87.6299 28.8014C87.4607 28.9071 87.2432 28.9978 86.9773 29.0733C86.7145 29.1488 86.4078 29.1866 86.0574 29.1866V27.827C86.3776 27.827 86.6631 27.7712 86.9139 27.6594C87.1646 27.5476 87.3776 27.4086 87.5529 27.2424C87.7311 27.0763 87.8686 26.9116 87.9653 26.7485C88.0619 26.5853 88.1148 26.4524 88.1239 26.3497H89.7372Z" fill="white"/>
<path opacity="0.5" d="M14.766 46.4104V54.3657H13.8026V47.8088H13.7405C13.7042 47.8813 13.611 47.9642 13.4608 48.0574C13.3106 48.148 13.1164 48.2283 12.8781 48.2982C12.6399 48.3656 12.368 48.3992 12.0624 48.3992V47.5913C12.3706 47.5913 12.6373 47.5356 12.8626 47.4243C13.0879 47.3129 13.2756 47.1821 13.4258 47.0319C13.5786 46.8817 13.6939 46.7458 13.7716 46.6241C13.8518 46.5023 13.8984 46.4311 13.9114 46.4104H14.766ZM19.6409 54.4745C19.0557 54.4745 18.5572 54.3152 18.1454 53.9967C17.7337 53.6756 17.419 53.2108 17.2015 52.6022C16.984 51.991 16.8752 51.253 16.8752 50.3881C16.8752 49.5283 16.984 48.7942 17.2015 48.1856C17.4216 47.5744 17.7376 47.1083 18.1493 46.7872C18.5636 46.4635 19.0609 46.3017 19.6409 46.3017C20.221 46.3017 20.7169 46.4635 21.1287 46.7872C21.543 47.1083 21.8589 47.5744 22.0765 48.1856C22.2966 48.7942 22.4066 49.5283 22.4066 50.3881C22.4066 51.253 22.2979 51.991 22.0803 52.6022C21.8628 53.2108 21.5482 53.6756 21.1364 53.9967C20.7247 54.3152 20.2262 54.4745 19.6409 54.4745ZM19.6409 53.6199C20.221 53.6199 20.6716 53.3402 20.9927 52.7809C21.3138 52.2215 21.4744 51.4239 21.4744 50.3881C21.4744 49.6992 21.4006 49.1127 21.253 48.6284C21.1079 48.1442 20.8982 47.7751 20.6237 47.5214C20.3518 47.2676 20.0242 47.1407 19.6409 47.1407C19.066 47.1407 18.6167 47.4243 18.293 47.9914C17.9693 48.5559 17.8075 49.3548 17.8075 50.3881C17.8075 51.0769 17.88 51.6622 18.025 52.1438C18.17 52.6255 18.3785 52.9919 18.6504 53.2431C18.9249 53.4943 19.2551 53.6199 19.6409 53.6199ZM33.5006 48.8964H32.5372C32.4803 48.6194 32.3806 48.3759 32.2381 48.1662C32.0983 47.9564 31.9274 47.7803 31.7254 47.6379C31.526 47.4929 31.3046 47.3841 31.0611 47.3116C30.8177 47.2391 30.5639 47.2028 30.2998 47.2028C29.8181 47.2028 29.3818 47.3246 28.9907 47.568C28.6023 47.8114 28.2928 48.1701 28.0624 48.644C27.8345 49.1179 27.7205 49.6992 27.7205 50.3881C27.7205 51.0769 27.8345 51.6583 28.0624 52.1322C28.2928 52.6061 28.6023 52.9647 28.9907 53.2082C29.3818 53.4516 29.8181 53.5733 30.2998 53.5733C30.5639 53.5733 30.8177 53.537 31.0611 53.4645C31.3046 53.392 31.526 53.2846 31.7254 53.1421C31.9274 52.9971 32.0983 52.8197 32.2381 52.61C32.3806 52.3976 32.4803 52.1542 32.5372 51.8797H33.5006C33.4281 52.2863 33.296 52.6501 33.1044 52.9712C32.9127 53.2923 32.6745 53.5655 32.3896 53.7908C32.1048 54.0135 31.7849 54.1832 31.4302 54.2997C31.078 54.4162 30.7012 54.4745 30.2998 54.4745C29.6213 54.4745 29.0179 54.3088 28.4897 53.9773C27.9614 53.6458 27.5457 53.1745 27.2427 52.5633C26.9398 51.9522 26.7883 51.2271 26.7883 50.3881C26.7883 49.549 26.9398 48.8239 27.2427 48.2128C27.5457 47.6016 27.9614 47.1303 28.4897 46.7989C29.0179 46.4674 29.6213 46.3017 30.2998 46.3017C30.7012 46.3017 31.078 46.3599 31.4302 46.4765C31.7849 46.593 32.1048 46.7639 32.3896 46.9892C32.6745 47.2119 32.9127 47.4838 33.1044 47.8049C33.296 48.1234 33.4281 48.4873 33.5006 48.8964ZM35.8497 50.7765V54.3657H34.9329V46.4104H35.8497V49.3315H35.9274C36.0672 49.0233 36.277 48.7786 36.5566 48.5973C36.8389 48.4135 37.2144 48.3216 37.6831 48.3216C38.0897 48.3216 38.4458 48.4031 38.7513 48.5663C39.0569 48.7268 39.2939 48.9741 39.4622 49.3082C39.6331 49.6397 39.7186 50.0618 39.7186 50.5745V54.3657H38.8018V50.6367C38.8018 50.1628 38.6788 49.7963 38.4328 49.5374C38.1894 49.2758 37.8514 49.1451 37.419 49.1451C37.1186 49.1451 36.8493 49.2085 36.611 49.3354C36.3754 49.4623 36.1889 49.6474 36.0517 49.8909C35.917 50.1343 35.8497 50.4295 35.8497 50.7765ZM43.6486 54.49C43.1514 54.49 42.7125 54.3644 42.3318 54.1132C41.9511 53.8595 41.6533 53.5021 41.4384 53.0411C41.2235 52.5776 41.116 52.0299 41.116 51.398C41.116 50.7713 41.2235 50.2275 41.4384 49.7666C41.6533 49.3056 41.9524 48.9495 42.3357 48.6983C42.719 48.4472 43.1618 48.3216 43.6642 48.3216C44.0526 48.3216 44.3595 48.3863 44.5848 48.5158C44.8127 48.6427 44.9862 48.7877 45.1053 48.9508C45.227 49.1114 45.3215 49.2435 45.3889 49.347H45.4665V48.3992H46.3833V54.3657H45.4976V53.449H45.3889C45.3215 53.5578 45.2257 53.695 45.1014 53.8607C44.9771 54.0239 44.7997 54.1702 44.5692 54.2997C44.3388 54.4266 44.0319 54.49 43.6486 54.49ZM43.7729 53.6665C44.1407 53.6665 44.4514 53.5707 44.7052 53.3791C44.959 53.1849 45.1519 52.9168 45.284 52.575C45.416 52.2306 45.4821 51.8331 45.4821 51.3825C45.4821 50.9371 45.4173 50.5473 45.2879 50.2133C45.1584 49.8766 44.9667 49.6151 44.713 49.4286C44.4592 49.2396 44.1458 49.1451 43.7729 49.1451C43.3845 49.1451 43.0608 49.2448 42.8018 49.4442C42.5455 49.641 42.3525 49.909 42.223 50.2482C42.0962 50.5849 42.0327 50.963 42.0327 51.3825C42.0327 51.8072 42.0974 52.193 42.2269 52.54C42.359 52.8845 42.5532 53.159 42.8096 53.3635C43.0686 53.5655 43.3897 53.6665 43.7729 53.6665ZM48.1895 56.6032V48.3992H49.0752V49.347H49.1839C49.2513 49.2435 49.3445 49.1114 49.4636 48.9508C49.5853 48.7877 49.7588 48.6427 49.9841 48.5158C50.212 48.3863 50.5202 48.3216 50.9086 48.3216C51.411 48.3216 51.8538 48.4472 52.2371 48.6983C52.6204 48.9495 52.9195 49.3056 53.1344 49.7666C53.3493 50.2275 53.4568 50.7713 53.4568 51.398C53.4568 52.0299 53.3493 52.5776 53.1344 53.0411C52.9195 53.5021 52.6217 53.8595 52.241 54.1132C51.8603 54.3644 51.4214 54.49 50.9242 54.49C50.5409 54.49 50.234 54.4266 50.0036 54.2997C49.7731 54.1702 49.5957 54.0239 49.4714 53.8607C49.3471 53.695 49.2513 53.5578 49.1839 53.449H49.1062V56.6032H48.1895ZM49.0907 51.3825C49.0907 51.8331 49.1567 52.2306 49.2888 52.575C49.4209 52.9168 49.6138 53.1849 49.8676 53.3791C50.1214 53.5707 50.4321 53.6665 50.7999 53.6665C51.1831 53.6665 51.5029 53.5655 51.7593 53.3635C52.0183 53.159 52.2125 52.8845 52.342 52.54C52.474 52.193 52.5401 51.8072 52.5401 51.3825C52.5401 50.963 52.4753 50.5849 52.3459 50.2482C52.219 49.909 52.026 49.641 51.7671 49.4442C51.5107 49.2448 51.1883 49.1451 50.7999 49.1451C50.427 49.1451 50.1136 49.2396 49.8598 49.4286C49.606 49.6151 49.4144 49.8766 49.2849 50.2133C49.1555 50.5473 49.0907 50.9371 49.0907 51.3825ZM57.45 48.3992V49.1761H54.358V48.3992H57.45ZM55.2592 46.9698H56.1759V52.6566C56.1759 52.9155 56.2135 53.1098 56.2886 53.2392C56.3662 53.3661 56.4646 53.4516 56.5838 53.4956C56.7055 53.537 56.8337 53.5578 56.9683 53.5578C57.0693 53.5578 57.1522 53.5526 57.2169 53.5422C57.2817 53.5293 57.3335 53.5189 57.3723 53.5111L57.5588 54.3346C57.4966 54.358 57.4099 54.3813 57.2985 54.4046C57.1872 54.4305 57.046 54.4434 56.8751 54.4434C56.6161 54.4434 56.3624 54.3877 56.1138 54.2764C55.8677 54.165 55.6632 53.9954 55.5 53.7675C55.3395 53.5396 55.2592 53.2522 55.2592 52.9052V46.9698ZM61.2664 54.49C60.6916 54.49 60.1956 54.3631 59.7787 54.1094C59.3644 53.853 59.0446 53.4956 58.8193 53.0372C58.5966 52.5763 58.4852 52.0402 58.4852 51.4291C58.4852 50.8179 58.5966 50.2793 58.8193 49.8132C59.0446 49.3445 59.3579 48.9793 59.7593 48.7178C60.1633 48.4536 60.6346 48.3216 61.1732 48.3216C61.484 48.3216 61.7908 48.3733 62.0938 48.4769C62.3968 48.5805 62.6726 48.7488 62.9212 48.9819C63.1698 49.2124 63.3679 49.518 63.5155 49.8986C63.6631 50.2793 63.7369 50.748 63.7369 51.3048V51.6932H59.1378V50.9008H62.8047C62.8047 50.5642 62.7374 50.2638 62.6027 49.9996C62.4706 49.7355 62.2816 49.527 62.0356 49.3742C61.7921 49.2214 61.5047 49.1451 61.1732 49.1451C60.8081 49.1451 60.4922 49.2357 60.2254 49.417C59.9613 49.5956 59.758 49.8287 59.6156 50.1162C59.4731 50.4036 59.4019 50.7118 59.4019 51.0407V51.5689C59.4019 52.0195 59.4796 52.4015 59.635 52.7148C59.793 53.0256 60.0118 53.2625 60.2915 53.4257C60.5711 53.5862 60.8961 53.6665 61.2664 53.6665C61.5073 53.6665 61.7248 53.6329 61.919 53.5655C62.1158 53.4956 62.2855 53.392 62.4279 53.2548C62.5703 53.1149 62.6804 52.9414 62.7581 52.7343L63.6437 52.9829C63.5505 53.2833 63.3938 53.5474 63.1737 53.7753C62.9536 54.0006 62.6817 54.1767 62.358 54.3036C62.0343 54.4279 61.6704 54.49 61.2664 54.49ZM65.1315 54.3657V48.3992H66.0171V49.3004H66.0793C66.1854 49.0052 66.3809 48.7657 66.6658 48.5818C66.9507 48.3979 67.2731 48.306 67.633 48.306C67.7988 48.306 67.9438 48.3254 68.0681 48.3643C68.1924 48.4031 68.3011 48.4562 68.3944 48.5235L68.0836 49.3004C68.0189 49.2668 67.9425 49.2409 67.8544 49.2227C67.769 49.202 67.6693 49.1917 67.5553 49.1917C67.2653 49.1917 67.0063 49.2525 66.7784 49.3742C66.5532 49.4959 66.3745 49.6617 66.2424 49.8714C66.1129 50.0812 66.0482 50.3207 66.0482 50.5901V54.3657H65.1315ZM73.5558 49.7355L72.7323 49.9686C72.6805 49.8313 72.6041 49.6979 72.5031 49.5685C72.4047 49.4364 72.2701 49.3276 72.0991 49.2422C71.9282 49.1567 71.7094 49.114 71.4427 49.114C71.0775 49.114 70.7733 49.1981 70.5298 49.3665C70.289 49.5322 70.1686 49.7433 70.1686 49.9996C70.1686 50.2275 70.2515 50.4075 70.4172 50.5396C70.5829 50.6716 70.8419 50.7817 71.1941 50.8697L72.0797 51.0873C72.6132 51.2167 73.0107 51.4149 73.2722 51.6816C73.5338 51.9457 73.6646 52.2863 73.6646 52.7032C73.6646 53.045 73.5662 53.3506 73.3694 53.6199C73.1751 53.8892 72.9032 54.1016 72.5536 54.257C72.204 54.4123 71.7975 54.49 71.3339 54.49C70.7254 54.49 70.2217 54.358 69.8229 54.0938C69.4241 53.8297 69.1716 53.4438 69.0654 52.9363L69.9355 52.7187C70.0184 53.0398 70.1751 53.2807 70.4055 53.4412C70.6386 53.6018 70.9429 53.6821 71.3184 53.6821C71.7457 53.6821 72.0849 53.5914 72.3361 53.4102C72.5899 53.2263 72.7168 53.0062 72.7168 52.7498C72.7168 52.5426 72.6443 52.3691 72.4992 52.2293C72.3542 52.0869 72.1315 51.9807 71.8311 51.9108L70.8367 51.6777C70.2903 51.5482 69.8889 51.3475 69.6325 51.0756C69.3788 50.8011 69.2519 50.458 69.2519 50.0462C69.2519 49.7096 69.3464 49.4118 69.5354 49.1528C69.7271 48.8939 69.9873 48.6906 70.3162 48.543C70.6477 48.3954 71.0232 48.3216 71.4427 48.3216C72.0331 48.3216 72.4967 48.451 72.8333 48.71C73.1725 48.969 73.4134 49.3108 73.5558 49.7355Z" fill="white"/>
<path d="M192.093 45.3389V36.0577H197.694V37.0547H193.217V40.1907H197.404V41.1877H193.217V44.3419H197.766V45.3389H192.093ZM200.644 41.1515V45.3389H199.575V38.378H200.608V39.4656H200.699C200.862 39.1121 201.109 38.8281 201.442 38.6136C201.774 38.3961 202.203 38.2873 202.729 38.2873C203.2 38.2873 203.613 38.384 203.966 38.5774C204.32 38.7677 204.594 39.0577 204.791 39.4475C204.987 39.8342 205.085 40.3236 205.085 40.9158V45.3389H204.016V40.9883C204.016 40.4415 203.874 40.0155 203.59 39.7103C203.306 39.4022 202.916 39.2481 202.421 39.2481C202.079 39.2481 201.774 39.3221 201.505 39.4701C201.239 39.6182 201.029 39.8342 200.875 40.1182C200.721 40.4022 200.644 40.7466 200.644 41.1515ZM207.04 45.3389V38.378H208.073V39.4294H208.146C208.269 39.0849 208.497 38.8055 208.83 38.591C209.162 38.3765 209.538 38.2692 209.958 38.2692C210.152 38.2692 210.321 38.2919 210.466 38.3372C210.611 38.3825 210.738 38.4444 210.846 38.523L210.484 39.4294C210.408 39.3901 210.319 39.3599 210.217 39.3387C210.117 39.3146 210.001 39.3025 209.868 39.3025C209.529 39.3025 209.227 39.3735 208.961 39.5155C208.698 39.6575 208.49 39.8508 208.336 40.0955C208.185 40.3403 208.109 40.6197 208.109 40.9339V45.3389H207.04ZM214.554 45.4839C213.925 45.4839 213.374 45.3343 212.899 45.0352C212.428 44.7361 212.06 44.3177 211.794 43.7799C211.531 43.2421 211.399 42.6137 211.399 41.8947C211.399 41.1696 211.531 40.5366 211.794 39.9958C212.06 39.455 212.428 39.0351 212.899 38.736C213.374 38.4369 213.925 38.2873 214.554 38.2873C215.182 38.2873 215.732 38.4369 216.203 38.736C216.677 39.0351 217.046 39.455 217.309 39.9958C217.575 40.5366 217.708 41.1696 217.708 41.8947C217.708 42.6137 217.575 43.2421 217.309 43.7799C217.046 44.3177 216.677 44.7361 216.203 45.0352C215.732 45.3343 215.182 45.4839 214.554 45.4839ZM214.554 44.5231C215.031 44.5231 215.424 44.4008 215.732 44.1561C216.04 43.9113 216.268 43.5896 216.416 43.1908C216.564 42.792 216.638 42.3599 216.638 41.8947C216.638 41.4294 216.564 40.9959 216.416 40.594C216.268 40.1922 216.04 39.8674 215.732 39.6197C215.424 39.372 215.031 39.2481 214.554 39.2481C214.076 39.2481 213.683 39.372 213.375 39.6197C213.067 39.8674 212.839 40.1922 212.691 40.594C212.543 40.9959 212.469 41.4294 212.469 41.8947C212.469 42.3599 212.543 42.792 212.691 43.1908C212.839 43.5896 213.067 43.9113 213.375 44.1561C213.683 44.4008 214.076 44.5231 214.554 44.5231ZM219.34 36.0577H220.41V43.5261C220.41 43.8645 220.448 44.1017 220.523 44.2376C220.599 44.3736 220.754 44.4385 220.99 44.4325C221.117 44.4265 221.21 44.4174 221.271 44.4053C221.334 44.3902 221.392 44.3751 221.443 44.36L221.661 45.2845C221.567 45.3117 221.449 45.3358 221.307 45.357C221.165 45.3812 221.017 45.3932 220.863 45.3932C220.355 45.3932 219.975 45.2543 219.721 44.9763C219.467 44.6984 219.34 44.3117 219.34 43.8162V36.0577ZM222.83 36.0577H223.899V43.5261C223.899 43.8645 223.937 44.1017 224.013 44.2376C224.088 44.3736 224.244 44.4385 224.479 44.4325C224.606 44.4265 224.7 44.4174 224.76 44.4053C224.824 44.3902 224.881 44.3751 224.933 44.36L225.15 45.2845C225.056 45.3117 224.939 45.3358 224.797 45.357C224.655 45.3812 224.507 45.3932 224.352 45.3932C223.845 45.3932 223.464 45.2543 223.21 44.9763C222.957 44.6984 222.83 44.3117 222.83 43.8162V36.0577ZM229.051 45.4839C228.38 45.4839 227.802 45.3358 227.315 45.0398C226.832 44.7407 226.459 44.3237 226.196 43.789C225.936 43.2512 225.806 42.6258 225.806 41.9128C225.806 41.1998 225.936 40.5714 226.196 40.0276C226.459 39.4807 226.824 39.0547 227.293 38.7496C227.764 38.4414 228.314 38.2873 228.942 38.2873C229.305 38.2873 229.663 38.3478 230.016 38.4686C230.37 38.5895 230.691 38.7858 230.981 39.0577C231.271 39.3266 231.503 39.6831 231.675 40.1273C231.847 40.5714 231.933 41.1182 231.933 41.7678V42.221H226.567V41.2965H230.845C230.845 40.9037 230.767 40.5533 230.61 40.2451C230.456 39.9369 230.235 39.6937 229.948 39.5155C229.664 39.3372 229.329 39.2481 228.942 39.2481C228.516 39.2481 228.148 39.3538 227.836 39.5653C227.528 39.7738 227.291 40.0457 227.125 40.381C226.959 40.7164 226.876 41.0759 226.876 41.4596V42.0759C226.876 42.6016 226.966 43.0473 227.147 43.4128C227.332 43.7754 227.587 44.0518 227.913 44.2422C228.24 44.4295 228.619 44.5231 229.051 44.5231C229.332 44.5231 229.586 44.4839 229.812 44.4053C230.042 44.3237 230.24 44.2029 230.406 44.0428C230.572 43.8796 230.7 43.6772 230.791 43.4355L231.824 43.7255C231.716 44.076 231.533 44.3842 231.276 44.65C231.019 44.9129 230.702 45.1183 230.324 45.2664C229.947 45.4114 229.522 45.4839 229.051 45.4839ZM236.189 45.4839C235.608 45.4839 235.096 45.3374 234.652 45.0443C234.208 44.7482 233.861 44.3313 233.61 43.7935C233.359 43.2527 233.234 42.6137 233.234 41.8765C233.234 41.1454 233.359 40.511 233.61 39.9732C233.861 39.4354 234.21 39.02 234.657 38.7269C235.104 38.4339 235.621 38.2873 236.207 38.2873C236.66 38.2873 237.018 38.3629 237.281 38.5139C237.547 38.662 237.749 38.8312 237.888 39.0215C238.03 39.2088 238.14 39.3629 238.219 39.4837H238.309V36.0577H239.379V45.3389H238.346V44.2694H238.219C238.14 44.3962 238.028 44.5564 237.883 44.7497C237.738 44.9401 237.531 45.1108 237.263 45.2618C236.994 45.4099 236.636 45.4839 236.189 45.4839ZM236.334 44.5231C236.763 44.5231 237.125 44.4114 237.421 44.1878C237.717 43.9612 237.942 43.6485 238.096 43.2497C238.25 42.8479 238.328 42.3841 238.328 41.8584C238.328 41.3388 238.252 40.8841 238.101 40.4943C237.95 40.1016 237.726 39.7964 237.43 39.5789C237.134 39.3584 236.769 39.2481 236.334 39.2481C235.88 39.2481 235.503 39.3644 235.201 39.597C234.901 39.8266 234.676 40.1393 234.525 40.5351C234.377 40.9279 234.303 41.369 234.303 41.8584C234.303 42.3539 234.379 42.8041 234.53 43.2089C234.684 43.6107 234.911 43.931 235.21 44.1697C235.512 44.4053 235.886 44.5231 236.334 44.5231Z" fill="white"/>
<rect x="21.877" y="117.568" width="251.587" height="79.3045" rx="8.65968" fill="#00535C"/>
<rect x="21.877" y="117.568" width="251.587" height="79.3045" rx="8.65968" stroke="#09474E" stroke-width="0.911546"/>
<path d="M34.1868 152.309V143.027H40.1326V144.437H35.8681V146.957H39.7247V148.366H35.8681V152.309H34.1868ZM43.3456 143.027V152.309H41.6643V143.027H43.3456ZM52.7934 143.027V152.309H51.2979L46.9246 145.987H46.8476V152.309H45.1663V143.027H46.6709L51.0395 149.354H51.1211V143.027H52.7934ZM55.8172 152.309H54.0226L57.2901 143.027H59.3657L62.6376 152.309H60.843L58.3641 144.931H58.2916L55.8172 152.309ZM55.8761 148.67H60.7705V150.02H55.8761V148.67ZM71.4872 143.027V152.309H69.9917L65.6184 145.987H65.5414V152.309H63.8601V143.027H65.3647L69.7333 149.354H69.8149V143.027H71.4872ZM81.2635 146.159H79.5686C79.5202 145.881 79.4311 145.635 79.3012 145.42C79.1713 145.203 79.0096 145.018 78.8163 144.867C78.6229 144.716 78.4024 144.603 78.1546 144.527C77.9099 144.449 77.6456 144.41 77.3616 144.41C76.857 144.41 76.4099 144.537 76.0201 144.79C75.6304 145.041 75.3253 145.41 75.1047 145.896C74.8842 146.379 74.7739 146.97 74.7739 147.668C74.7739 148.378 74.8842 148.976 75.1047 149.463C75.3283 149.946 75.6334 150.312 76.0201 150.559C76.4099 150.804 76.8555 150.926 77.357 150.926C77.635 150.926 77.8948 150.89 78.1365 150.818C78.3812 150.742 78.6003 150.632 78.7936 150.487C78.99 150.342 79.1547 150.164 79.2876 149.952C79.4235 149.741 79.5172 149.499 79.5686 149.227L81.2635 149.236C81.2 149.677 81.0626 150.091 80.8511 150.478C80.6426 150.864 80.3692 151.206 80.0308 151.502C79.6924 151.795 79.2966 152.025 78.8435 152.191C78.3903 152.354 77.8872 152.435 77.3344 152.435C76.5186 152.435 75.7905 152.247 75.15 151.869C74.5095 151.491 74.005 150.946 73.6364 150.233C73.2678 149.52 73.0835 148.665 73.0835 147.668C73.0835 146.668 73.2693 145.813 73.6409 145.103C74.0125 144.39 74.5186 143.845 75.1591 143.467C75.7996 143.089 76.5247 142.901 77.3344 142.901C77.851 142.901 78.3314 142.973 78.7755 143.118C79.2196 143.263 79.6154 143.476 79.9628 143.757C80.3103 144.035 80.5958 144.376 80.8193 144.781C81.0459 145.183 81.194 145.642 81.2635 146.159ZM82.8032 152.309V143.027H88.8396V144.437H84.4845V146.957H88.5269V148.366H84.4845V150.899H88.8758V152.309H82.8032ZM97.1827 143.027V152.309H95.4968V145.175H95.4198C95.3593 145.269 95.2445 145.37 95.0754 145.479C94.9062 145.585 94.6886 145.676 94.4228 145.751C94.1599 145.827 93.8533 145.864 93.5028 145.864V144.505C93.8231 144.505 94.1086 144.449 94.3593 144.337C94.6101 144.225 94.8231 144.086 94.9983 143.92C95.1766 143.754 95.314 143.589 95.4107 143.426C95.5074 143.263 95.5603 143.13 95.5693 143.027H97.1827ZM102.98 152.485C102.234 152.485 101.593 152.297 101.059 151.919C100.527 151.538 100.117 150.99 99.8304 150.274C99.5464 149.555 99.4044 148.689 99.4044 147.677C99.4074 146.665 99.5509 145.804 99.8349 145.094C100.122 144.381 100.531 143.837 101.063 143.462C101.598 143.088 102.237 142.901 102.98 142.901C103.723 142.901 104.362 143.088 104.897 143.462C105.432 143.837 105.841 144.381 106.125 145.094C106.412 145.807 106.556 146.668 106.556 147.677C106.556 148.692 106.412 149.559 106.125 150.278C105.841 150.994 105.432 151.541 104.897 151.919C104.365 152.297 103.726 152.485 102.98 152.485ZM102.98 151.067C103.56 151.067 104.018 150.781 104.353 150.21C104.692 149.636 104.861 148.792 104.861 147.677C104.861 146.94 104.784 146.321 104.63 145.819C104.476 145.317 104.258 144.94 103.977 144.686C103.696 144.429 103.364 144.301 102.98 144.301C102.403 144.301 101.947 144.588 101.611 145.162C101.276 145.733 101.107 146.571 101.104 147.677C101.101 148.417 101.175 149.04 101.326 149.544C101.48 150.049 101.697 150.429 101.978 150.686C102.259 150.94 102.593 151.067 102.98 151.067ZM111.614 143.027V152.309H109.928V145.175H109.851C109.791 145.269 109.676 145.37 109.507 145.479C109.338 145.585 109.12 145.676 108.854 145.751C108.592 145.827 108.285 145.864 107.934 145.864V144.505C108.255 144.505 108.54 144.449 108.791 144.337C109.042 144.225 109.255 144.086 109.43 143.92C109.608 143.754 109.746 143.589 109.842 143.426C109.939 143.263 109.992 143.13 110.001 143.027H111.614Z" fill="white"/>
<path opacity="0.5" d="M36.643 163.088V171.043H35.6797V164.487H35.6176C35.5813 164.559 35.4881 164.642 35.3379 164.735C35.1877 164.826 34.9935 164.906 34.7552 164.976C34.517 165.043 34.2451 165.077 33.9395 165.077V164.269C34.2476 164.269 34.5144 164.213 34.7397 164.102C34.965 163.991 35.1527 163.86 35.3029 163.71C35.4557 163.559 35.5709 163.424 35.6486 163.302C35.7289 163.18 35.7755 163.109 35.7885 163.088H36.643ZM41.518 171.152C40.9327 171.152 40.4342 170.993 40.0225 170.674C39.6107 170.353 39.2961 169.888 39.0786 169.28C38.8611 168.669 38.7523 167.931 38.7523 167.066C38.7523 166.206 38.8611 165.472 39.0786 164.863C39.2987 164.252 39.6146 163.786 40.0264 163.465C40.4407 163.141 40.9379 162.979 41.518 162.979C42.0981 162.979 42.594 163.141 43.0057 163.465C43.4201 163.786 43.736 164.252 43.9535 164.863C44.1737 165.472 44.2837 166.206 44.2837 167.066C44.2837 167.931 44.1749 168.669 43.9574 169.28C43.7399 169.888 43.4253 170.353 43.0135 170.674C42.6018 170.993 42.1033 171.152 41.518 171.152ZM41.518 170.298C42.0981 170.298 42.5487 170.018 42.8698 169.459C43.1909 168.899 43.3515 168.102 43.3515 167.066C43.3515 166.377 43.2776 165.79 43.13 165.306C42.985 164.822 42.7753 164.453 42.5008 164.199C42.2289 163.945 41.9013 163.818 41.518 163.818C40.9431 163.818 40.4938 164.102 40.1701 164.669C39.8464 165.234 39.6846 166.033 39.6846 167.066C39.6846 167.755 39.7571 168.34 39.9021 168.822C40.0471 169.303 40.2556 169.67 40.5275 169.921C40.802 170.172 41.1321 170.298 41.518 170.298ZM55.3776 165.574H54.4143C54.3573 165.297 54.2576 165.054 54.1152 164.844C53.9754 164.634 53.8044 164.458 53.6025 164.316C53.4031 164.171 53.1816 164.062 52.9382 163.989C52.6948 163.917 52.441 163.881 52.1769 163.881C51.6952 163.881 51.2588 164.002 50.8678 164.246C50.4794 164.489 50.1699 164.848 49.9394 165.322C49.7116 165.796 49.5976 166.377 49.5976 167.066C49.5976 167.755 49.7116 168.336 49.9394 168.81C50.1699 169.284 50.4794 169.642 50.8678 169.886C51.2588 170.129 51.6952 170.251 52.1769 170.251C52.441 170.251 52.6948 170.215 52.9382 170.142C53.1816 170.07 53.4031 169.962 53.6025 169.82C53.8044 169.675 53.9754 169.497 54.1152 169.288C54.2576 169.075 54.3573 168.832 54.4143 168.557H55.3776C55.3051 168.964 55.1731 169.328 54.9814 169.649C54.7898 169.97 54.5515 170.243 54.2667 170.469C53.9818 170.691 53.662 170.861 53.3072 170.977C52.955 171.094 52.5783 171.152 52.1769 171.152C51.4984 171.152 50.895 170.986 50.3667 170.655C49.8384 170.324 49.4228 169.852 49.1198 169.241C48.8168 168.63 48.6653 167.905 48.6653 167.066C48.6653 166.227 48.8168 165.502 49.1198 164.891C49.4228 164.279 49.8384 163.808 50.3667 163.477C50.895 163.145 51.4984 162.979 52.1769 162.979C52.5783 162.979 52.955 163.038 53.3072 163.154C53.662 163.271 53.9818 163.442 54.2667 163.667C54.5515 163.89 54.7898 164.162 54.9814 164.483C55.1731 164.801 55.3051 165.165 55.3776 165.574ZM57.7267 167.454V171.043H56.81V163.088H57.7267V166.009H57.8044C57.9443 165.701 58.154 165.456 58.4337 165.275C58.716 165.091 59.0915 164.999 59.5602 164.999C59.9668 164.999 60.3228 165.081 60.6284 165.244C60.934 165.405 61.1709 165.652 61.3393 165.986C61.5102 166.317 61.5956 166.74 61.5956 167.252V171.043H60.6789V167.314C60.6789 166.841 60.5559 166.474 60.3099 166.215C60.0665 165.954 59.7285 165.823 59.2961 165.823C58.9957 165.823 58.7263 165.886 58.4881 166.013C58.2524 166.14 58.066 166.325 57.9287 166.569C57.7941 166.812 57.7267 167.107 57.7267 167.454ZM65.5257 171.168C65.0285 171.168 64.5896 171.042 64.2089 170.791C63.8282 170.537 63.5304 170.18 63.3155 169.719C63.1005 169.255 62.9931 168.708 62.9931 168.076C62.9931 167.449 63.1005 166.905 63.3155 166.444C63.5304 165.983 63.8295 165.627 64.2128 165.376C64.596 165.125 65.0389 164.999 65.5412 164.999C65.9297 164.999 66.2366 165.064 66.4618 165.194C66.6897 165.32 66.8632 165.465 66.9824 165.629C67.1041 165.789 67.1986 165.921 67.2659 166.025H67.3436V165.077H68.2603V171.043H67.3747V170.127H67.2659C67.1986 170.235 67.1028 170.373 66.9785 170.538C66.8542 170.702 66.6768 170.848 66.4463 170.977C66.2158 171.104 65.909 171.168 65.5257 171.168ZM65.65 170.344C66.0177 170.344 66.3285 170.248 66.5823 170.057C66.836 169.863 67.029 169.595 67.161 169.253C67.2931 168.908 67.3592 168.511 67.3592 168.06C67.3592 167.615 67.2944 167.225 67.1649 166.891C67.0355 166.554 66.8438 166.293 66.59 166.106C66.3363 165.917 66.0229 165.823 65.65 165.823C65.2616 165.823 64.9379 165.922 64.6789 166.122C64.4225 166.319 64.2296 166.587 64.1001 166.926C63.9732 167.263 63.9098 167.641 63.9098 168.06C63.9098 168.485 63.9745 168.871 64.104 169.218C64.2361 169.562 64.4303 169.837 64.6867 170.041C64.9456 170.243 65.2667 170.344 65.65 170.344ZM70.0666 173.281V165.077H70.9522V166.025H71.061C71.1283 165.921 71.2216 165.789 71.3407 165.629C71.4624 165.465 71.6359 165.32 71.8612 165.194C72.0891 165.064 72.3973 164.999 72.7857 164.999C73.2881 164.999 73.7309 165.125 74.1142 165.376C74.4974 165.627 74.7965 165.983 75.0115 166.444C75.2264 166.905 75.3339 167.449 75.3339 168.076C75.3339 168.708 75.2264 169.255 75.0115 169.719C74.7965 170.18 74.4987 170.537 74.1181 170.791C73.7374 171.042 73.2984 171.168 72.8012 171.168C72.418 171.168 72.1111 171.104 71.8806 170.977C71.6501 170.848 71.4728 170.702 71.3485 170.538C71.2242 170.373 71.1283 170.235 71.061 170.127H70.9833V173.281H70.0666ZM70.9678 168.06C70.9678 168.511 71.0338 168.908 71.1659 169.253C71.298 169.595 71.4909 169.863 71.7447 170.057C71.9985 170.248 72.3092 170.344 72.6769 170.344C73.0602 170.344 73.38 170.243 73.6364 170.041C73.8953 169.837 74.0896 169.562 74.2191 169.218C74.3511 168.871 74.4172 168.485 74.4172 168.06C74.4172 167.641 74.3524 167.263 74.2229 166.926C74.096 166.587 73.9031 166.319 73.6442 166.122C73.3878 165.922 73.0654 165.823 72.6769 165.823C72.304 165.823 71.9907 165.917 71.7369 166.106C71.4831 166.293 71.2915 166.554 71.162 166.891C71.0325 167.225 70.9678 167.615 70.9678 168.06ZM79.3271 165.077V165.854H76.2351V165.077H79.3271ZM77.1363 163.648H78.053V169.334C78.053 169.593 78.0905 169.787 78.1656 169.917C78.2433 170.044 78.3417 170.129 78.4608 170.173C78.5826 170.215 78.7107 170.235 78.8454 170.235C78.9464 170.235 79.0293 170.23 79.094 170.22C79.1587 170.207 79.2105 170.197 79.2494 170.189L79.4358 171.012C79.3737 171.036 79.2869 171.059 79.1756 171.082C79.0642 171.108 78.9231 171.121 78.7522 171.121C78.4932 171.121 78.2394 171.065 77.9908 170.954C77.7448 170.843 77.5402 170.673 77.3771 170.445C77.2165 170.217 77.1363 169.93 77.1363 169.583V163.648ZM83.1435 171.168C82.5686 171.168 82.0727 171.041 81.6558 170.787C81.2415 170.531 80.9216 170.173 80.6963 169.715C80.4736 169.254 80.3623 168.718 80.3623 168.107C80.3623 167.496 80.4736 166.957 80.6963 166.491C80.9216 166.022 81.235 165.657 81.6364 165.395C82.0403 165.131 82.5117 164.999 83.0503 164.999C83.3611 164.999 83.6679 165.051 83.9709 165.155C84.2739 165.258 84.5497 165.427 84.7983 165.66C85.0469 165.89 85.245 166.196 85.3926 166.576C85.5402 166.957 85.614 167.426 85.614 167.983V168.371H81.0149V167.579H84.6818C84.6818 167.242 84.6144 166.942 84.4798 166.677C84.3477 166.413 84.1587 166.205 83.9126 166.052C83.6692 165.899 83.3818 165.823 83.0503 165.823C82.6852 165.823 82.3692 165.913 82.1025 166.095C81.8384 166.273 81.6351 166.506 81.4926 166.794C81.3502 167.081 81.279 167.39 81.279 167.718V168.247C81.279 168.697 81.3567 169.079 81.5121 169.393C81.67 169.703 81.8889 169.94 82.1685 170.103C82.4482 170.264 82.7732 170.344 83.1435 170.344C83.3844 170.344 83.6019 170.311 83.7961 170.243C83.9929 170.173 84.1625 170.07 84.305 169.933C84.4474 169.793 84.5575 169.619 84.6351 169.412L85.5208 169.661C85.4276 169.961 85.2709 170.225 85.0508 170.453C84.8307 170.678 84.5588 170.854 84.235 170.981C83.9113 171.106 83.5475 171.168 83.1435 171.168ZM87.0085 171.043V165.077H87.8942V165.978H87.9563C88.0625 165.683 88.258 165.443 88.5429 165.26C88.8277 165.076 89.1501 164.984 89.5101 164.984C89.6758 164.984 89.8209 165.003 89.9452 165.042C90.0695 165.081 90.1782 165.134 90.2714 165.201L89.9607 165.978C89.896 165.944 89.8196 165.919 89.7315 165.9C89.6461 165.88 89.5464 165.869 89.4324 165.869C89.1424 165.869 88.8834 165.93 88.6555 166.052C88.4302 166.174 88.2515 166.339 88.1195 166.549C87.99 166.759 87.9253 166.998 87.9253 167.268V171.043H87.0085ZM95.4329 166.413L94.6094 166.646C94.5576 166.509 94.4812 166.376 94.3802 166.246C94.2818 166.114 94.1471 166.005 93.9762 165.92C93.8053 165.834 93.5865 165.792 93.3198 165.792C92.9546 165.792 92.6503 165.876 92.4069 166.044C92.1661 166.21 92.0457 166.421 92.0457 166.677C92.0457 166.905 92.1285 167.085 92.2943 167.217C92.46 167.349 92.719 167.459 93.0711 167.547L93.9568 167.765C94.4903 167.894 94.8878 168.093 95.1493 168.359C95.4109 168.623 95.5416 168.964 95.5416 169.381C95.5416 169.723 95.4432 170.028 95.2464 170.298C95.0522 170.567 94.7803 170.779 94.4307 170.935C94.0811 171.09 93.6745 171.168 93.211 171.168C92.6024 171.168 92.0987 171.036 91.6999 170.772C91.3011 170.507 91.0487 170.122 90.9425 169.614L91.8126 169.396C91.8955 169.718 92.0521 169.958 92.2826 170.119C92.5157 170.28 92.82 170.36 93.1955 170.36C93.6227 170.36 93.962 170.269 94.2132 170.088C94.467 169.904 94.5938 169.684 94.5938 169.428C94.5938 169.22 94.5213 169.047 94.3763 168.907C94.2313 168.765 94.0086 168.658 93.7082 168.588L92.7138 168.355C92.1674 168.226 91.766 168.025 91.5096 167.753C91.2558 167.479 91.1289 167.136 91.1289 166.724C91.1289 166.387 91.2235 166.09 91.4125 165.831C91.6041 165.572 91.8644 165.368 92.1933 165.221C92.5247 165.073 92.9002 164.999 93.3198 164.999C93.9102 164.999 94.3737 165.129 94.7104 165.388C95.0496 165.647 95.2905 165.989 95.4329 166.413Z" fill="white"/>
<path d="M213.97 162.017V152.735H219.571V153.732H215.094V156.868H219.281V157.865H215.094V161.02H219.644V162.017H213.97ZM222.521 157.829V162.017H221.452V155.056H222.485V156.143H222.576C222.739 155.79 222.987 155.506 223.319 155.291C223.651 155.074 224.08 154.965 224.606 154.965C225.077 154.965 225.49 155.062 225.843 155.255C226.197 155.445 226.472 155.735 226.668 156.125C226.864 156.512 226.963 157.001 226.963 157.594V162.017H225.893V157.666C225.893 157.119 225.751 156.693 225.467 156.388C225.183 156.08 224.793 155.926 224.298 155.926C223.956 155.926 223.651 156 223.382 156.148C223.117 156.296 222.907 156.512 222.753 156.796C222.598 157.08 222.521 157.424 222.521 157.829ZM228.917 162.017V155.056H229.95V156.107H230.023C230.147 155.763 230.375 155.483 230.707 155.269C231.039 155.054 231.416 154.947 231.835 154.947C232.029 154.947 232.198 154.97 232.343 155.015C232.488 155.06 232.615 155.122 232.724 155.201L232.361 156.107C232.286 156.068 232.196 156.038 232.094 156.016C231.994 155.992 231.878 155.98 231.745 155.98C231.406 155.98 231.104 156.051 230.838 156.193C230.576 156.335 230.367 156.529 230.213 156.773C230.062 157.018 229.986 157.297 229.986 157.612V162.017H228.917ZM236.431 162.162C235.802 162.162 235.251 162.012 234.777 161.713C234.305 161.414 233.937 160.995 233.671 160.458C233.408 159.92 233.277 159.291 233.277 158.572C233.277 157.847 233.408 157.214 233.671 156.674C233.937 156.133 234.305 155.713 234.777 155.414C235.251 155.115 235.802 154.965 236.431 154.965C237.059 154.965 237.609 155.115 238.08 155.414C238.555 155.713 238.923 156.133 239.186 156.674C239.452 157.214 239.585 157.847 239.585 158.572C239.585 159.291 239.452 159.92 239.186 160.458C238.923 160.995 238.555 161.414 238.08 161.713C237.609 162.012 237.059 162.162 236.431 162.162ZM236.431 161.201C236.908 161.201 237.301 161.079 237.609 160.834C237.917 160.589 238.145 160.267 238.293 159.869C238.441 159.47 238.515 159.038 238.515 158.572C238.515 158.107 238.441 157.674 238.293 157.272C238.145 156.87 237.917 156.545 237.609 156.297C237.301 156.05 236.908 155.926 236.431 155.926C235.953 155.926 235.561 156.05 235.252 156.297C234.944 156.545 234.716 156.87 234.568 157.272C234.42 157.674 234.346 158.107 234.346 158.572C234.346 159.038 234.42 159.47 234.568 159.869C234.716 160.267 234.944 160.589 235.252 160.834C235.561 161.079 235.953 161.201 236.431 161.201ZM241.217 152.735H242.287V160.204C242.287 160.542 242.325 160.779 242.4 160.915C242.476 161.051 242.631 161.116 242.867 161.11C242.994 161.104 243.088 161.095 243.148 161.083C243.211 161.068 243.269 161.053 243.32 161.038L243.538 161.962C243.444 161.989 243.326 162.014 243.184 162.035C243.042 162.059 242.894 162.071 242.74 162.071C242.233 162.071 241.852 161.932 241.598 161.654C241.344 161.376 241.217 160.989 241.217 160.494V152.735ZM244.707 152.735H245.777V160.204C245.777 160.542 245.814 160.779 245.89 160.915C245.965 161.051 246.121 161.116 246.357 161.11C246.483 161.104 246.577 161.095 246.638 161.083C246.701 161.068 246.758 161.053 246.81 161.038L247.027 161.962C246.934 161.989 246.816 162.014 246.674 162.035C246.532 162.059 246.384 162.071 246.23 162.071C245.722 162.071 245.341 161.932 245.088 161.654C244.834 161.376 244.707 160.989 244.707 160.494V152.735ZM250.928 162.162C250.257 162.162 249.679 162.014 249.192 161.718C248.709 161.418 248.336 161.001 248.073 160.467C247.813 159.929 247.683 159.304 247.683 158.591C247.683 157.878 247.813 157.249 248.073 156.705C248.336 156.158 248.701 155.732 249.17 155.427C249.641 155.119 250.191 154.965 250.819 154.965C251.182 154.965 251.54 155.025 251.893 155.146C252.247 155.267 252.569 155.464 252.859 155.735C253.149 156.004 253.38 156.361 253.552 156.805C253.724 157.249 253.81 157.796 253.81 158.446V158.899H248.445V157.974H252.723C252.723 157.581 252.644 157.231 252.487 156.923C252.333 156.615 252.112 156.371 251.825 156.193C251.541 156.015 251.206 155.926 250.819 155.926C250.393 155.926 250.025 156.032 249.714 156.243C249.405 156.452 249.168 156.723 249.002 157.059C248.836 157.394 248.753 157.754 248.753 158.137V158.754C248.753 159.279 248.843 159.725 249.025 160.091C249.209 160.453 249.464 160.73 249.791 160.92C250.117 161.107 250.496 161.201 250.928 161.201C251.209 161.201 251.463 161.162 251.689 161.083C251.919 161.001 252.117 160.881 252.283 160.72C252.449 160.557 252.578 160.355 252.668 160.113L253.702 160.403C253.593 160.754 253.41 161.062 253.153 161.328C252.896 161.591 252.579 161.796 252.202 161.944C251.824 162.089 251.399 162.162 250.928 162.162ZM258.066 162.162C257.486 162.162 256.974 162.015 256.529 161.722C256.085 161.426 255.738 161.009 255.487 160.471C255.236 159.93 255.111 159.291 255.111 158.554C255.111 157.823 255.236 157.189 255.487 156.651C255.738 156.113 256.087 155.698 256.534 155.405C256.981 155.112 257.498 154.965 258.084 154.965C258.537 154.965 258.895 155.041 259.158 155.192C259.424 155.34 259.626 155.509 259.765 155.699C259.907 155.887 260.017 156.041 260.096 156.161H260.187V152.735H261.256V162.017H260.223V160.947H260.096C260.017 161.074 259.906 161.234 259.761 161.427C259.616 161.618 259.409 161.788 259.14 161.94C258.871 162.088 258.513 162.162 258.066 162.162ZM258.211 161.201C258.64 161.201 259.002 161.089 259.298 160.866C259.594 160.639 259.82 160.326 259.974 159.927C260.128 159.526 260.205 159.062 260.205 158.536C260.205 158.017 260.129 157.562 259.978 157.172C259.827 156.779 259.604 156.474 259.307 156.257C259.011 156.036 258.646 155.926 258.211 155.926C257.758 155.926 257.38 156.042 257.078 156.275C256.779 156.504 256.554 156.817 256.403 157.213C256.254 157.606 256.18 158.047 256.18 158.536C256.18 159.032 256.256 159.482 256.407 159.887C256.561 160.288 256.788 160.609 257.087 160.847C257.389 161.083 257.764 161.201 258.211 161.201Z" fill="white"/>
<g filter="url(#filter0_d_431_2335)">
<rect x="237.002" y="160.866" width="252.498" height="80.216" rx="9.11546" fill="#00535C"/>
<rect x="237.458" y="161.322" width="251.587" height="79.3045" rx="8.65968" stroke="#F2F7F8" stroke-opacity="0.5" stroke-width="0.911546"/>
<path d="M249.312 196.062V186.781H255.257V188.191H250.993V190.71H254.849V192.12H250.993V196.062H249.312ZM258.47 186.781V196.062H256.789V186.781H258.47ZM267.918 186.781V196.062H266.423L262.049 189.741H261.972V196.062H260.291V186.781H261.796L266.164 193.108H266.246V186.781H267.918ZM270.942 196.062H269.147L272.415 186.781H274.49L277.762 196.062H275.968L273.489 188.685H273.416L270.942 196.062ZM271.001 192.423H275.895V193.774H271.001V192.423ZM286.612 186.781V196.062H285.116L280.743 189.741H280.666V196.062H278.985V186.781H280.489L284.858 193.108H284.94V186.781H286.612ZM296.388 189.913H294.693C294.645 189.635 294.556 189.389 294.426 189.174C294.296 188.957 294.134 188.772 293.941 188.621C293.748 188.47 293.527 188.357 293.279 188.281C293.035 188.203 292.77 188.164 292.486 188.164C291.982 188.164 291.535 188.29 291.145 188.544C290.755 188.795 290.45 189.164 290.229 189.65C290.009 190.133 289.899 190.724 289.899 191.422C289.899 192.132 290.009 192.73 290.229 193.217C290.453 193.7 290.758 194.065 291.145 194.313C291.535 194.558 291.98 194.68 292.482 194.68C292.76 194.68 293.02 194.644 293.261 194.572C293.506 194.496 293.725 194.386 293.918 194.241C294.115 194.096 294.279 193.917 294.412 193.706C294.548 193.494 294.642 193.253 294.693 192.981L296.388 192.99C296.325 193.431 296.187 193.845 295.976 194.232C295.767 194.618 295.494 194.96 295.156 195.256C294.817 195.549 294.421 195.779 293.968 195.945C293.515 196.108 293.012 196.189 292.459 196.189C291.643 196.189 290.915 196.001 290.275 195.623C289.634 195.245 289.13 194.7 288.761 193.987C288.393 193.274 288.208 192.419 288.208 191.422C288.208 190.422 288.394 189.567 288.766 188.857C289.137 188.144 289.643 187.599 290.284 187.221C290.924 186.843 291.649 186.654 292.459 186.654C292.976 186.654 293.456 186.727 293.9 186.872C294.344 187.017 294.74 187.23 295.088 187.511C295.435 187.789 295.721 188.13 295.944 188.535C296.171 188.937 296.319 189.396 296.388 189.913ZM297.928 196.062V186.781H303.964V188.191H299.609V190.71H303.652V192.12H299.609V194.653H304.001V196.062H297.928ZM312.307 186.781V196.062H310.622V188.929H310.545C310.484 189.023 310.369 189.124 310.2 189.233C310.031 189.339 309.813 189.429 309.548 189.505C309.285 189.58 308.978 189.618 308.628 189.618V188.259C308.948 188.259 309.233 188.203 309.484 188.091C309.735 187.979 309.948 187.84 310.123 187.674C310.301 187.508 310.439 187.343 310.535 187.18C310.632 187.017 310.685 186.884 310.694 186.781H312.307ZM318.105 196.239C317.359 196.239 316.718 196.05 316.183 195.673C315.652 195.292 315.242 194.744 314.955 194.028C314.671 193.309 314.529 192.443 314.529 191.431C314.532 190.419 314.676 189.558 314.96 188.848C315.247 188.135 315.656 187.591 316.188 187.216C316.723 186.842 317.362 186.654 318.105 186.654C318.848 186.654 319.487 186.842 320.022 187.216C320.556 187.591 320.966 188.135 321.25 188.848C321.537 189.561 321.68 190.422 321.68 191.431C321.68 192.446 321.537 193.313 321.25 194.032C320.966 194.748 320.556 195.295 320.022 195.673C319.49 196.05 318.851 196.239 318.105 196.239ZM318.105 194.821C318.685 194.821 319.143 194.535 319.478 193.964C319.816 193.39 319.985 192.546 319.985 191.431C319.985 190.694 319.908 190.074 319.754 189.573C319.6 189.071 319.383 188.694 319.102 188.44C318.821 188.183 318.488 188.055 318.105 188.055C317.528 188.055 317.071 188.342 316.736 188.916C316.401 189.487 316.232 190.325 316.229 191.431C316.226 192.171 316.3 192.794 316.451 193.298C316.605 193.803 316.822 194.183 317.103 194.44C317.384 194.694 317.718 194.821 318.105 194.821ZM326.739 186.781V196.062H325.053V188.929H324.976C324.916 189.023 324.801 189.124 324.632 189.233C324.463 189.339 324.245 189.429 323.979 189.505C323.716 189.58 323.41 189.618 323.059 189.618V188.259C323.379 188.259 323.665 188.203 323.916 188.091C324.166 187.979 324.379 187.84 324.555 187.674C324.733 187.508 324.87 187.343 324.967 187.18C325.064 187.017 325.117 186.884 325.126 186.781H326.739Z" fill="white"/>
<path opacity="0.5" d="M251.768 206.842V214.797H250.804V208.24H250.742C250.706 208.313 250.613 208.396 250.463 208.489C250.312 208.58 250.118 208.66 249.88 208.73C249.642 208.797 249.37 208.831 249.064 208.831V208.023C249.372 208.023 249.639 207.967 249.864 207.856C250.09 207.745 250.277 207.614 250.428 207.464C250.58 207.313 250.696 207.177 250.773 207.056C250.854 206.934 250.9 206.863 250.913 206.842H251.768ZM256.643 214.906C256.058 214.906 255.559 214.747 255.147 214.428C254.736 214.107 254.421 213.642 254.203 213.034C253.986 212.423 253.877 211.685 253.877 210.82C253.877 209.96 253.986 209.226 254.203 208.617C254.423 208.006 254.739 207.54 255.151 207.219C255.565 206.895 256.063 206.733 256.643 206.733C257.223 206.733 257.719 206.895 258.13 207.219C258.545 207.54 258.861 208.006 259.078 208.617C259.298 209.226 259.408 209.96 259.408 210.82C259.408 211.685 259.3 212.423 259.082 213.034C258.865 213.642 258.55 214.107 258.138 214.428C257.727 214.747 257.228 214.906 256.643 214.906ZM256.643 214.052C257.223 214.052 257.673 213.772 257.995 213.213C258.316 212.653 258.476 211.856 258.476 210.82C258.476 210.131 258.402 209.544 258.255 209.06C258.11 208.576 257.9 208.207 257.626 207.953C257.354 207.699 257.026 207.572 256.643 207.572C256.068 207.572 255.619 207.856 255.295 208.423C254.971 208.988 254.809 209.786 254.809 210.82C254.809 211.509 254.882 212.094 255.027 212.575C255.172 213.057 255.38 213.424 255.652 213.675C255.927 213.926 256.257 214.052 256.643 214.052ZM270.502 209.328H269.539C269.482 209.051 269.382 208.808 269.24 208.598C269.1 208.388 268.929 208.212 268.727 208.07C268.528 207.925 268.306 207.816 268.063 207.743C267.82 207.671 267.566 207.634 267.302 207.634C266.82 207.634 266.384 207.756 265.993 208C265.604 208.243 265.295 208.602 265.064 209.076C264.836 209.55 264.722 210.131 264.722 210.82C264.722 211.509 264.836 212.09 265.064 212.564C265.295 213.038 265.604 213.396 265.993 213.64C266.384 213.883 266.82 214.005 267.302 214.005C267.566 214.005 267.82 213.969 268.063 213.896C268.306 213.824 268.528 213.716 268.727 213.574C268.929 213.429 269.1 213.251 269.24 213.042C269.382 212.829 269.482 212.586 269.539 212.311H270.502C270.43 212.718 270.298 213.082 270.106 213.403C269.915 213.724 269.676 213.997 269.391 214.222C269.107 214.445 268.787 214.615 268.432 214.731C268.08 214.848 267.703 214.906 267.302 214.906C266.623 214.906 266.02 214.74 265.491 214.409C264.963 214.077 264.548 213.606 264.245 212.995C263.942 212.384 263.79 211.659 263.79 210.82C263.79 209.981 263.942 209.256 264.245 208.644C264.548 208.033 264.963 207.562 265.491 207.23C266.02 206.899 266.623 206.733 267.302 206.733C267.703 206.733 268.08 206.792 268.432 206.908C268.787 207.025 269.107 207.196 269.391 207.421C269.676 207.644 269.915 207.915 270.106 208.237C270.298 208.555 270.43 208.919 270.502 209.328ZM272.852 211.208V214.797H271.935V206.842H272.852V209.763H272.929C273.069 209.455 273.279 209.21 273.558 209.029C273.841 208.845 274.216 208.753 274.685 208.753C275.092 208.753 275.448 208.835 275.753 208.998C276.059 209.158 276.296 209.406 276.464 209.74C276.635 210.071 276.72 210.493 276.72 211.006V214.797H275.804V211.068C275.804 210.594 275.681 210.228 275.435 209.969C275.191 209.707 274.853 209.577 274.421 209.577C274.12 209.577 273.851 209.64 273.613 209.767C273.377 209.894 273.191 210.079 273.053 210.323C272.919 210.566 272.852 210.861 272.852 211.208ZM280.65 214.922C280.153 214.922 279.714 214.796 279.334 214.545C278.953 214.291 278.655 213.934 278.44 213.473C278.225 213.009 278.118 212.462 278.118 211.83C278.118 211.203 278.225 210.659 278.44 210.198C278.655 209.737 278.954 209.381 279.338 209.13C279.721 208.879 280.164 208.753 280.666 208.753C281.054 208.753 281.361 208.818 281.587 208.947C281.814 209.074 281.988 209.219 282.107 209.382C282.229 209.543 282.323 209.675 282.391 209.779H282.468V208.831H283.385V214.797H282.499V213.881H282.391C282.323 213.989 282.228 214.127 282.103 214.292C281.979 214.456 281.802 214.602 281.571 214.731C281.341 214.858 281.034 214.922 280.65 214.922ZM280.775 214.098C281.142 214.098 281.453 214.002 281.707 213.811C281.961 213.616 282.154 213.348 282.286 213.007C282.418 212.662 282.484 212.265 282.484 211.814C282.484 211.369 282.419 210.979 282.29 210.645C282.16 210.308 281.969 210.047 281.715 209.86C281.461 209.671 281.148 209.577 280.775 209.577C280.386 209.577 280.063 209.676 279.804 209.876C279.547 210.073 279.354 210.341 279.225 210.68C279.098 211.017 279.035 211.395 279.035 211.814C279.035 212.239 279.099 212.625 279.229 212.972C279.361 213.316 279.555 213.591 279.811 213.795C280.07 213.997 280.391 214.098 280.775 214.098ZM285.191 217.035V208.831H286.077V209.779H286.186C286.253 209.675 286.346 209.543 286.465 209.382C286.587 209.219 286.761 209.074 286.986 208.947C287.214 208.818 287.522 208.753 287.91 208.753C288.413 208.753 288.856 208.879 289.239 209.13C289.622 209.381 289.921 209.737 290.136 210.198C290.351 210.659 290.459 211.203 290.459 211.83C290.459 212.462 290.351 213.009 290.136 213.473C289.921 213.934 289.623 214.291 289.243 214.545C288.862 214.796 288.423 214.922 287.926 214.922C287.543 214.922 287.236 214.858 287.005 214.731C286.775 214.602 286.598 214.456 286.473 214.292C286.349 214.127 286.253 213.989 286.186 213.881H286.108V217.035H285.191ZM286.093 211.814C286.093 212.265 286.159 212.662 286.291 213.007C286.423 213.348 286.616 213.616 286.869 213.811C287.123 214.002 287.434 214.098 287.802 214.098C288.185 214.098 288.505 213.997 288.761 213.795C289.02 213.591 289.214 213.316 289.344 212.972C289.476 212.625 289.542 212.239 289.542 211.814C289.542 211.395 289.477 211.017 289.348 210.68C289.221 210.341 289.028 210.073 288.769 209.876C288.513 209.676 288.19 209.577 287.802 209.577C287.429 209.577 287.115 209.671 286.862 209.86C286.608 210.047 286.416 210.308 286.287 210.645C286.157 210.979 286.093 211.369 286.093 211.814ZM294.452 208.831V209.608H291.36V208.831H294.452ZM292.261 207.401H293.178V213.088C293.178 213.347 293.215 213.541 293.29 213.671C293.368 213.798 293.466 213.883 293.586 213.927C293.707 213.969 293.835 213.989 293.97 213.989C294.071 213.989 294.154 213.984 294.219 213.974C294.284 213.961 294.335 213.951 294.374 213.943L294.561 214.766C294.498 214.79 294.412 214.813 294.3 214.836C294.189 214.862 294.048 214.875 293.877 214.875C293.618 214.875 293.364 214.819 293.116 214.708C292.87 214.597 292.665 214.427 292.502 214.199C292.341 213.971 292.261 213.684 292.261 213.337V207.401ZM298.268 214.922C297.693 214.922 297.197 214.795 296.781 214.541C296.366 214.285 296.046 213.927 295.821 213.469C295.598 213.008 295.487 212.472 295.487 211.861C295.487 211.25 295.598 210.711 295.821 210.245C296.046 209.776 296.36 209.411 296.761 209.149C297.165 208.885 297.636 208.753 298.175 208.753C298.486 208.753 298.793 208.805 299.096 208.909C299.399 209.012 299.674 209.18 299.923 209.414C300.172 209.644 300.37 209.95 300.517 210.33C300.665 210.711 300.739 211.18 300.739 211.736V212.125H296.14V211.332H299.807C299.807 210.996 299.739 210.695 299.605 210.431C299.472 210.167 299.283 209.959 299.037 209.806C298.794 209.653 298.507 209.577 298.175 209.577C297.81 209.577 297.494 209.667 297.227 209.849C296.963 210.027 296.76 210.26 296.617 210.548C296.475 210.835 296.404 211.143 296.404 211.472V212.001C296.404 212.451 296.481 212.833 296.637 213.146C296.795 213.457 297.014 213.694 297.293 213.857C297.573 214.018 297.898 214.098 298.268 214.098C298.509 214.098 298.727 214.065 298.921 213.997C299.118 213.927 299.287 213.824 299.43 213.686C299.572 213.547 299.682 213.373 299.76 213.166L300.646 213.415C300.552 213.715 300.396 213.979 300.176 214.207C299.955 214.432 299.684 214.608 299.36 214.735C299.036 214.86 298.672 214.922 298.268 214.922ZM302.133 214.797V208.831H303.019V209.732H303.081C303.187 209.437 303.383 209.197 303.668 209.013C303.952 208.83 304.275 208.738 304.635 208.738C304.801 208.738 304.946 208.757 305.07 208.796C305.194 208.835 305.303 208.888 305.396 208.955L305.085 209.732C305.021 209.698 304.944 209.673 304.856 209.654C304.771 209.634 304.671 209.623 304.557 209.623C304.267 209.623 304.008 209.684 303.78 209.806C303.555 209.928 303.376 210.093 303.244 210.303C303.115 210.513 303.05 210.752 303.05 211.022V214.797H302.133ZM310.558 210.167L309.734 210.4C309.682 210.263 309.606 210.13 309.505 210C309.407 209.868 309.272 209.759 309.101 209.674C308.93 209.588 308.711 209.546 308.445 209.546C308.079 209.546 307.775 209.63 307.532 209.798C307.291 209.964 307.17 210.175 307.17 210.431C307.17 210.659 307.253 210.839 307.419 210.971C307.585 211.103 307.844 211.213 308.196 211.301L309.082 211.519C309.615 211.648 310.013 211.846 310.274 212.113C310.536 212.377 310.666 212.718 310.666 213.135C310.666 213.477 310.568 213.782 310.371 214.052C310.177 214.321 309.905 214.533 309.555 214.689C309.206 214.844 308.799 214.922 308.336 214.922C307.727 214.922 307.224 214.79 306.825 214.525C306.426 214.261 306.173 213.875 306.067 213.368L306.937 213.15C307.02 213.471 307.177 213.712 307.407 213.873C307.64 214.033 307.945 214.114 308.32 214.114C308.747 214.114 309.087 214.023 309.338 213.842C309.592 213.658 309.719 213.438 309.719 213.181C309.719 212.974 309.646 212.801 309.501 212.661C309.356 212.518 309.133 212.412 308.833 212.342L307.839 212.109C307.292 211.98 306.891 211.779 306.634 211.507C306.381 211.233 306.254 210.89 306.254 210.478C306.254 210.141 306.348 209.843 306.537 209.584C306.729 209.326 306.989 209.122 307.318 208.975C307.649 208.827 308.025 208.753 308.445 208.753C309.035 208.753 309.498 208.883 309.835 209.142C310.174 209.401 310.415 209.742 310.558 210.167Z" fill="white"/>
<path d="M429.095 205.771V196.489H434.696V197.486H430.218V200.622H434.406V201.619H430.218V204.774H434.768V205.771H429.095ZM437.646 201.583V205.771H436.577V198.81H437.61V199.897H437.701C437.864 199.544 438.111 199.26 438.444 199.045C438.776 198.828 439.205 198.719 439.731 198.719C440.202 198.719 440.615 198.816 440.968 199.009C441.321 199.199 441.596 199.489 441.793 199.879C441.989 200.266 442.087 200.755 442.087 201.347V205.771H441.018V201.42C441.018 200.873 440.876 200.447 440.592 200.142C440.308 199.834 439.918 199.68 439.423 199.68C439.081 199.68 438.776 199.754 438.507 199.902C438.241 200.05 438.031 200.266 437.877 200.55C437.723 200.834 437.646 201.178 437.646 201.583ZM444.042 205.771V198.81H445.075V199.861H445.147C445.271 199.517 445.499 199.237 445.832 199.023C446.164 198.808 446.54 198.701 446.96 198.701C447.154 198.701 447.323 198.724 447.468 198.769C447.613 198.814 447.74 198.876 447.848 198.955L447.486 199.861C447.41 199.822 447.321 199.792 447.219 199.77C447.119 199.746 447.003 199.734 446.87 199.734C446.531 199.734 446.229 199.805 445.963 199.947C445.7 200.089 445.492 200.282 445.338 200.527C445.187 200.772 445.111 201.051 445.111 201.366V205.771H444.042ZM451.555 205.916C450.927 205.916 450.376 205.766 449.901 205.467C449.43 205.168 449.061 204.749 448.796 204.212C448.533 203.674 448.401 203.045 448.401 202.326C448.401 201.601 448.533 200.968 448.796 200.427C449.061 199.887 449.43 199.467 449.901 199.168C450.376 198.869 450.927 198.719 451.555 198.719C452.184 198.719 452.734 198.869 453.205 199.168C453.679 199.467 454.048 199.887 454.311 200.427C454.577 200.968 454.71 201.601 454.71 202.326C454.71 203.045 454.577 203.674 454.311 204.212C454.048 204.749 453.679 205.168 453.205 205.467C452.734 205.766 452.184 205.916 451.555 205.916ZM451.555 204.955C452.033 204.955 452.426 204.832 452.734 204.588C453.042 204.343 453.27 204.021 453.418 203.622C453.566 203.224 453.64 202.792 453.64 202.326C453.64 201.861 453.566 201.428 453.418 201.026C453.27 200.624 453.042 200.299 452.734 200.051C452.426 199.804 452.033 199.68 451.555 199.68C451.078 199.68 450.685 199.804 450.377 200.051C450.069 200.299 449.841 200.624 449.693 201.026C449.545 201.428 449.471 201.861 449.471 202.326C449.471 202.792 449.545 203.224 449.693 203.622C449.841 204.021 450.069 204.343 450.377 204.588C450.685 204.832 451.078 204.955 451.555 204.955ZM456.342 196.489H457.412V203.958C457.412 204.296 457.45 204.533 457.525 204.669C457.601 204.805 457.756 204.87 457.992 204.864C458.119 204.858 458.212 204.849 458.273 204.837C458.336 204.822 458.394 204.807 458.445 204.792L458.663 205.716C458.569 205.743 458.451 205.767 458.309 205.789C458.167 205.813 458.019 205.825 457.865 205.825C457.357 205.825 456.977 205.686 456.723 205.408C456.469 205.13 456.342 204.743 456.342 204.248V196.489ZM459.832 196.489H460.901V203.958C460.901 204.296 460.939 204.533 461.015 204.669C461.09 204.805 461.246 204.87 461.481 204.864C461.608 204.858 461.702 204.849 461.762 204.837C461.826 204.822 461.883 204.807 461.935 204.792L462.152 205.716C462.058 205.743 461.941 205.767 461.799 205.789C461.657 205.813 461.509 205.825 461.354 205.825C460.847 205.825 460.466 205.686 460.212 205.408C459.959 205.13 459.832 204.743 459.832 204.248V196.489ZM466.053 205.916C465.382 205.916 464.804 205.767 464.317 205.471C463.834 205.172 463.461 204.755 463.198 204.221C462.938 203.683 462.808 203.057 462.808 202.344C462.808 201.631 462.938 201.003 463.198 200.459C463.461 199.912 463.826 199.486 464.294 199.181C464.766 198.873 465.316 198.719 465.944 198.719C466.307 198.719 466.665 198.779 467.018 198.9C467.372 199.021 467.693 199.217 467.983 199.489C468.273 199.758 468.505 200.115 468.677 200.559C468.849 201.003 468.935 201.55 468.935 202.199V202.653H463.569V201.728H467.847C467.847 201.335 467.769 200.985 467.612 200.677C467.458 200.369 467.237 200.125 466.95 199.947C466.666 199.769 466.331 199.68 465.944 199.68C465.518 199.68 465.149 199.785 464.838 199.997C464.53 200.205 464.293 200.477 464.127 200.813C463.961 201.148 463.878 201.508 463.878 201.891V202.508C463.878 203.033 463.968 203.479 464.149 203.844C464.334 204.207 464.589 204.483 464.915 204.674C465.242 204.861 465.621 204.955 466.053 204.955C466.334 204.955 466.588 204.916 466.814 204.837C467.044 204.755 467.242 204.635 467.408 204.474C467.574 204.311 467.702 204.109 467.793 203.867L468.826 204.157C468.718 204.508 468.535 204.816 468.278 205.082C468.021 205.345 467.704 205.55 467.326 205.698C466.949 205.843 466.524 205.916 466.053 205.916ZM473.19 205.916C472.61 205.916 472.098 205.769 471.654 205.476C471.21 205.18 470.863 204.763 470.612 204.225C470.361 203.684 470.236 203.045 470.236 202.308C470.236 201.577 470.361 200.943 470.612 200.405C470.863 199.867 471.212 199.452 471.659 199.159C472.106 198.866 472.622 198.719 473.209 198.719C473.662 198.719 474.02 198.795 474.283 198.946C474.548 199.094 474.751 199.263 474.89 199.453C475.032 199.64 475.142 199.795 475.221 199.915H475.311V196.489H476.381V205.771H475.348V204.701H475.221C475.142 204.828 475.03 204.988 474.885 205.181C474.74 205.372 474.533 205.542 474.265 205.693C473.996 205.842 473.638 205.916 473.19 205.916ZM473.335 204.955C473.764 204.955 474.127 204.843 474.423 204.619C474.719 204.393 474.944 204.08 475.098 203.681C475.252 203.28 475.329 202.816 475.329 202.29C475.329 201.77 475.254 201.316 475.103 200.926C474.952 200.533 474.728 200.228 474.432 200.011C474.136 199.79 473.771 199.68 473.335 199.68C472.882 199.68 472.505 199.796 472.203 200.029C471.903 200.258 471.678 200.571 471.527 200.967C471.379 201.36 471.305 201.801 471.305 202.29C471.305 202.786 471.381 203.236 471.532 203.641C471.686 204.042 471.912 204.363 472.212 204.601C472.514 204.837 472.888 204.955 473.335 204.955Z" fill="white"/>
</g>
<g filter="url(#filter1_d_431_2335)">
<rect x="215.581" y="43.2773" width="252.498" height="80.216" rx="9.11546" fill="#00535C"/>
<rect x="216.036" y="43.7331" width="251.587" height="79.3045" rx="8.65968" stroke="#F2F7F8" stroke-opacity="0.5" stroke-width="0.911546"/>
<path d="M228.346 78.4736V69.1924H234.292V70.6018H230.027V73.1215H233.884V74.5309H230.027V78.4736H228.346ZM237.505 69.1924V78.4736H235.824V69.1924H237.505ZM246.953 69.1924V78.4736H245.457L241.084 72.1517H241.007V78.4736H239.326V69.1924H240.83L245.199 75.5189H245.28V69.1924H246.953ZM249.977 78.4736H248.182L251.449 69.1924H253.525L256.797 78.4736H255.002L252.523 71.0958H252.451L249.977 78.4736ZM250.035 74.8346H254.93V76.1851H250.035V74.8346ZM265.646 69.1924V78.4736H264.151L259.778 72.1517H259.701V78.4736H258.019V69.1924H259.524L263.893 75.5189H263.974V69.1924H265.646ZM275.423 72.3239H273.728C273.68 72.046 273.59 71.7998 273.46 71.5852C273.331 71.3677 273.169 71.1834 272.976 71.0324C272.782 70.8813 272.562 70.768 272.314 70.6925C272.069 70.6139 271.805 70.5746 271.521 70.5746C271.016 70.5746 270.569 70.7015 270.179 70.9553C269.79 71.2061 269.485 71.5747 269.264 72.0611C269.043 72.5445 268.933 73.1351 268.933 73.833C268.933 74.543 269.043 75.1412 269.264 75.6276C269.488 76.111 269.793 76.4766 270.179 76.7243C270.569 76.9691 271.015 77.0914 271.516 77.0914C271.794 77.0914 272.054 77.0552 272.296 76.9827C272.541 76.9071 272.76 76.7969 272.953 76.6518C273.149 76.5068 273.314 76.3286 273.447 76.1171C273.583 75.9056 273.676 75.6639 273.728 75.392L275.423 75.4011C275.359 75.8421 275.222 76.2561 275.01 76.6428C274.802 77.0295 274.528 77.3709 274.19 77.667C273.852 77.96 273.456 78.1896 273.003 78.3558C272.55 78.519 272.047 78.6005 271.494 78.6005C270.678 78.6005 269.95 78.4117 269.309 78.034C268.669 77.6564 268.164 77.1111 267.796 76.3981C267.427 75.685 267.243 74.83 267.243 73.833C267.243 72.833 267.429 71.978 267.8 71.268C268.172 70.555 268.678 70.0097 269.318 69.632C269.959 69.2544 270.684 69.0655 271.494 69.0655C272.01 69.0655 272.491 69.1381 272.935 69.2831C273.379 69.4281 273.775 69.6411 274.122 69.9221C274.47 70.2 274.755 70.5414 274.979 70.9463C275.205 71.3481 275.353 71.8073 275.423 72.3239ZM276.962 78.4736V69.1924H282.999V70.6018H278.644V73.1215H282.686V74.5309H278.644V77.0642H283.035V78.4736H276.962ZM291.342 69.1924V78.4736H289.656V71.3405H289.579C289.519 71.4342 289.404 71.5354 289.235 71.6442C289.065 71.7499 288.848 71.8405 288.582 71.9161C288.319 71.9916 288.013 72.0294 287.662 72.0294V70.6698C287.982 70.6698 288.268 70.6139 288.519 70.5021C288.769 70.3904 288.982 70.2514 289.158 70.0852C289.336 69.919 289.473 69.7544 289.57 69.5912C289.667 69.4281 289.72 69.2952 289.729 69.1924H291.342ZM297.139 78.6504C296.393 78.6504 295.753 78.4615 295.218 78.0839C294.686 77.7032 294.277 77.1549 293.99 76.4388C293.706 75.7198 293.564 74.8542 293.564 73.8421C293.567 72.83 293.71 71.9689 293.994 71.259C294.281 70.5459 294.691 70.0021 295.222 69.6275C295.757 69.2529 296.396 69.0655 297.139 69.0655C297.883 69.0655 298.522 69.2529 299.056 69.6275C299.591 70.0021 300 70.5459 300.284 71.259C300.571 71.972 300.715 72.833 300.715 73.8421C300.715 74.8572 300.571 75.7243 300.284 76.4434C300 77.1594 299.591 77.7062 299.056 78.0839C298.525 78.4615 297.886 78.6504 297.139 78.6504ZM297.139 77.2319C297.719 77.2319 298.177 76.9464 298.512 76.3754C298.851 75.8014 299.02 74.9569 299.02 73.8421C299.02 73.1049 298.943 72.4856 298.789 71.984C298.635 71.4825 298.417 71.1049 298.136 70.8511C297.855 70.5943 297.523 70.4659 297.139 70.4659C296.562 70.4659 296.106 70.7529 295.771 71.3269C295.435 71.8979 295.266 72.7363 295.263 73.8421C295.26 74.5823 295.334 75.2047 295.485 75.7092C295.639 76.2138 295.857 76.5944 296.138 76.8512C296.419 77.105 296.753 77.2319 297.139 77.2319ZM305.774 69.1924V78.4736H304.088V71.3405H304.011C303.95 71.4342 303.835 71.5354 303.666 71.6442C303.497 71.7499 303.28 71.8405 303.014 71.9161C302.751 71.9916 302.444 72.0294 302.094 72.0294V70.6698C302.414 70.6698 302.699 70.6139 302.95 70.5021C303.201 70.3904 303.414 70.2514 303.589 70.0852C303.767 69.919 303.905 69.7544 304.002 69.5912C304.098 69.4281 304.151 69.2952 304.16 69.1924H305.774Z" fill="white"/>
<path opacity="0.5" d="M230.802 89.2532V97.2085H229.839V90.6516H229.777C229.741 90.7241 229.647 90.807 229.497 90.9002C229.347 90.9908 229.153 91.0711 228.915 91.141C228.676 91.2084 228.404 91.242 228.099 91.242V90.4341C228.407 90.4341 228.674 90.3784 228.899 90.267C229.124 90.1557 229.312 90.0249 229.462 89.8747C229.615 89.7245 229.73 89.5885 229.808 89.4668C229.888 89.3451 229.935 89.2739 229.948 89.2532H230.802ZM235.677 97.3173C235.092 97.3173 234.594 97.158 234.182 96.8395C233.77 96.5184 233.455 96.0535 233.238 95.445C233.02 94.8338 232.912 94.0958 232.912 93.2308C232.912 92.3711 233.02 91.6369 233.238 91.0284C233.458 90.4172 233.774 89.9511 234.186 89.63C234.6 89.3063 235.097 89.1444 235.677 89.1444C236.257 89.1444 236.753 89.3063 237.165 89.63C237.579 89.9511 237.895 90.4172 238.113 91.0284C238.333 91.6369 238.443 92.3711 238.443 93.2308C238.443 94.0958 238.334 94.8338 238.117 95.445C237.899 96.0535 237.585 96.5184 237.173 96.8395C236.761 97.158 236.263 97.3173 235.677 97.3173ZM235.677 96.4627C236.257 96.4627 236.708 96.183 237.029 95.6236C237.35 95.0643 237.511 94.2667 237.511 93.2308C237.511 92.542 237.437 91.9555 237.289 91.4712C237.144 90.9869 236.935 90.6179 236.66 90.3641C236.388 90.1104 236.061 89.9835 235.677 89.9835C235.102 89.9835 234.653 90.267 234.329 90.8342C234.006 91.3987 233.844 92.1976 233.844 93.2308C233.844 93.9197 233.916 94.5049 234.061 94.9866C234.206 95.4683 234.415 95.8347 234.687 96.0859C234.961 96.3371 235.291 96.4627 235.677 96.4627ZM249.537 91.7392H248.574C248.517 91.4621 248.417 91.2187 248.275 91.009C248.135 90.7992 247.964 90.6231 247.762 90.4807C247.562 90.3356 247.341 90.2269 247.098 90.1544C246.854 90.0819 246.6 90.0456 246.336 90.0456C245.855 90.0456 245.418 90.1673 245.027 90.4107C244.639 90.6542 244.329 91.0128 244.099 91.4867C243.871 91.9606 243.757 92.542 243.757 93.2308C243.757 93.9197 243.871 94.5011 244.099 94.975C244.329 95.4489 244.639 95.8075 245.027 96.0509C245.418 96.2944 245.855 96.4161 246.336 96.4161C246.6 96.4161 246.854 96.3798 247.098 96.3073C247.341 96.2348 247.562 96.1273 247.762 95.9849C247.964 95.8399 248.135 95.6625 248.275 95.4527C248.417 95.2404 248.517 94.997 248.574 94.7225H249.537C249.464 95.129 249.332 95.4929 249.141 95.814C248.949 96.1351 248.711 96.4083 248.426 96.6336C248.141 96.8563 247.821 97.0259 247.467 97.1425C247.114 97.259 246.738 97.3173 246.336 97.3173C245.658 97.3173 245.054 97.1515 244.526 96.8201C243.998 96.4886 243.582 96.0173 243.279 95.4061C242.976 94.795 242.825 94.0699 242.825 93.2308C242.825 92.3918 242.976 91.6667 243.279 91.0556C243.582 90.4444 243.998 89.9731 244.526 89.6416C245.054 89.3102 245.658 89.1444 246.336 89.1444C246.738 89.1444 247.114 89.2027 247.467 89.3192C247.821 89.4358 248.141 89.6067 248.426 89.832C248.711 90.0547 248.949 90.3266 249.141 90.6477C249.332 90.9662 249.464 91.3301 249.537 91.7392ZM251.886 93.6193V97.2085H250.969V89.2532H251.886V92.1743H251.964C252.104 91.8661 252.313 91.6214 252.593 91.4401C252.875 91.2563 253.251 91.1643 253.719 91.1643C254.126 91.1643 254.482 91.2459 254.788 91.409C255.093 91.5696 255.33 91.8169 255.499 92.151C255.669 92.4824 255.755 92.9046 255.755 93.4173V97.2085H254.838V93.4794C254.838 93.0055 254.715 92.6391 254.469 92.3802C254.226 92.1186 253.888 91.9878 253.455 91.9878C253.155 91.9878 252.886 92.0513 252.647 92.1782C252.412 92.3051 252.225 92.4902 252.088 92.7336C251.953 92.9771 251.886 93.2723 251.886 93.6193ZM259.685 97.3328C259.188 97.3328 258.749 97.2072 258.368 96.956C257.988 96.7022 257.69 96.3449 257.475 95.8839C257.26 95.4204 257.152 94.8727 257.152 94.2408C257.152 93.6141 257.26 93.0703 257.475 92.6093C257.69 92.1484 257.989 91.7923 258.372 91.5411C258.755 91.2899 259.198 91.1643 259.701 91.1643C260.089 91.1643 260.396 91.2291 260.621 91.3585C260.849 91.4854 261.023 91.6305 261.142 91.7936C261.263 91.9542 261.358 92.0862 261.425 92.1898H261.503V91.242H262.42V97.2085H261.534V96.2918H261.425C261.358 96.4005 261.262 96.5378 261.138 96.7035C261.013 96.8667 260.836 97.013 260.606 97.1425C260.375 97.2694 260.068 97.3328 259.685 97.3328ZM259.809 96.5093C260.177 96.5093 260.488 96.4135 260.742 96.2219C260.995 96.0276 261.188 95.7596 261.32 95.4178C261.452 95.0734 261.518 94.6758 261.518 94.2253C261.518 93.7798 261.454 93.3901 261.324 93.056C261.195 92.7194 261.003 92.4578 260.749 92.2714C260.496 92.0823 260.182 91.9878 259.809 91.9878C259.421 91.9878 259.097 92.0875 258.838 92.2869C258.582 92.4837 258.389 92.7518 258.259 93.091C258.133 93.4277 258.069 93.8057 258.069 94.2253C258.069 94.65 258.134 95.0358 258.263 95.3828C258.395 95.7272 258.59 96.0017 258.846 96.2063C259.105 96.4083 259.426 96.5093 259.809 96.5093ZM264.226 99.4459V91.242H265.112V92.1898H265.22C265.288 92.0862 265.381 91.9542 265.5 91.7936C265.622 91.6305 265.795 91.4854 266.021 91.3585C266.248 91.2291 266.557 91.1643 266.945 91.1643C267.447 91.1643 267.89 91.2899 268.273 91.5411C268.657 91.7923 268.956 92.1484 269.171 92.6093C269.386 93.0703 269.493 93.6141 269.493 94.2408C269.493 94.8727 269.386 95.4204 269.171 95.8839C268.956 96.3449 268.658 96.7022 268.277 96.956C267.897 97.2072 267.458 97.3328 266.961 97.3328C266.577 97.3328 266.27 97.2694 266.04 97.1425C265.809 97.013 265.632 96.8667 265.508 96.7035C265.383 96.5378 265.288 96.4005 265.22 96.2918H265.143V99.4459H264.226ZM265.127 94.2253C265.127 94.6758 265.193 95.0734 265.325 95.4178C265.457 95.7596 265.65 96.0276 265.904 96.2219C266.158 96.4135 266.469 96.5093 266.836 96.5093C267.219 96.5093 267.539 96.4083 267.796 96.2063C268.055 96.0017 268.249 95.7272 268.378 95.3828C268.51 95.0358 268.576 94.65 268.576 94.2253C268.576 93.8057 268.512 93.4277 268.382 93.091C268.255 92.7518 268.062 92.4837 267.803 92.2869C267.547 92.0875 267.225 91.9878 266.836 91.9878C266.463 91.9878 266.15 92.0823 265.896 92.2714C265.642 92.4578 265.451 92.7194 265.321 93.056C265.192 93.3901 265.127 93.7798 265.127 94.2253ZM273.486 91.242V92.0189H270.394V91.242H273.486ZM271.296 89.8125H272.212V95.4993C272.212 95.7583 272.25 95.9525 272.325 96.082C272.403 96.2089 272.501 96.2944 272.62 96.3384C272.742 96.3798 272.87 96.4005 273.005 96.4005C273.106 96.4005 273.189 96.3954 273.253 96.385C273.318 96.372 273.37 96.3617 273.409 96.3539L273.595 97.1774C273.533 97.2007 273.446 97.224 273.335 97.2473C273.224 97.2732 273.082 97.2862 272.911 97.2862C272.653 97.2862 272.399 97.2305 272.15 97.1192C271.904 97.0078 271.7 96.8382 271.536 96.6103C271.376 96.3824 271.296 96.095 271.296 95.748V89.8125ZM277.303 97.3328C276.728 97.3328 276.232 97.2059 275.815 96.9521C275.401 96.6958 275.081 96.3384 274.856 95.88C274.633 95.4191 274.522 94.883 274.522 94.2719C274.522 93.6607 274.633 93.1221 274.856 92.6559C275.081 92.1872 275.394 91.8221 275.796 91.5605C276.2 91.2964 276.671 91.1643 277.21 91.1643C277.52 91.1643 277.827 91.2161 278.13 91.3197C278.433 91.4233 278.709 91.5916 278.958 91.8247C279.206 92.0552 279.404 92.3607 279.552 92.7414C279.7 93.1221 279.773 93.5908 279.773 94.1476V94.536H275.174V93.7436H278.841C278.841 93.4069 278.774 93.1065 278.639 92.8424C278.507 92.5783 278.318 92.3698 278.072 92.217C277.829 92.0642 277.541 91.9878 277.21 91.9878C276.844 91.9878 276.529 92.0785 276.262 92.2597C275.998 92.4384 275.794 92.6715 275.652 92.9589C275.51 93.2464 275.438 93.5545 275.438 93.8834V94.4117C275.438 94.8623 275.516 95.2443 275.671 95.5576C275.829 95.8684 276.048 96.1053 276.328 96.2685C276.608 96.429 276.933 96.5093 277.303 96.5093C277.544 96.5093 277.761 96.4756 277.955 96.4083C278.152 96.3384 278.322 96.2348 278.464 96.0975C278.607 95.9577 278.717 95.7842 278.794 95.577L279.68 95.8256C279.587 96.126 279.43 96.3902 279.21 96.6181C278.99 96.8434 278.718 97.0195 278.394 97.1463C278.071 97.2706 277.707 97.3328 277.303 97.3328ZM281.168 97.2085V91.242H282.053V92.1432H282.116C282.222 91.848 282.417 91.6084 282.702 91.4246C282.987 91.2407 283.309 91.1488 283.669 91.1488C283.835 91.1488 283.98 91.1682 284.104 91.2071C284.229 91.2459 284.338 91.299 284.431 91.3663L284.12 92.1432C284.055 92.1095 283.979 92.0836 283.891 92.0655C283.805 92.0448 283.706 92.0344 283.592 92.0344C283.302 92.0344 283.043 92.0953 282.815 92.217C282.59 92.3387 282.411 92.5045 282.279 92.7142C282.149 92.924 282.085 93.1635 282.085 93.4328V97.2085H281.168ZM289.592 92.5783L288.769 92.8113C288.717 92.6741 288.64 92.5407 288.54 92.4112C288.441 92.2792 288.306 92.1704 288.136 92.0849C287.965 91.9995 287.746 91.9568 287.479 91.9568C287.114 91.9568 286.81 92.0409 286.566 92.2092C286.325 92.375 286.205 92.586 286.205 92.8424C286.205 93.0703 286.288 93.2503 286.454 93.3823C286.619 93.5144 286.878 93.6245 287.23 93.7125L288.116 93.93C288.65 94.0595 289.047 94.2576 289.309 94.5244C289.57 94.7885 289.701 95.129 289.701 95.546C289.701 95.8878 289.603 96.1934 289.406 96.4627C289.212 96.732 288.94 96.9444 288.59 97.0997C288.24 97.2551 287.834 97.3328 287.37 97.3328C286.762 97.3328 286.258 97.2007 285.859 96.9366C285.46 96.6724 285.208 96.2866 285.102 95.779L285.972 95.5615C286.055 95.8826 286.211 96.1234 286.442 96.284C286.675 96.4446 286.979 96.5248 287.355 96.5248C287.782 96.5248 288.121 96.4342 288.372 96.2529C288.626 96.0691 288.753 95.8489 288.753 95.5926C288.753 95.3854 288.681 95.2119 288.536 95.0721C288.391 94.9296 288.168 94.8235 287.867 94.7535L286.873 94.5205C286.327 94.391 285.925 94.1903 285.669 93.9184C285.415 93.6439 285.288 93.3008 285.288 92.889C285.288 92.5524 285.383 92.2546 285.572 91.9956C285.763 91.7366 286.024 91.5333 286.353 91.3857C286.684 91.2381 287.06 91.1643 287.479 91.1643C288.069 91.1643 288.533 91.2938 288.87 91.5528C289.209 91.8117 289.45 92.1536 289.592 92.5783Z" fill="white"/>
<path d="M408.129 88.1816V78.9004H413.73V79.8975H409.253V83.0335H413.44V84.0305H409.253V87.1846H413.803V88.1816H408.129ZM416.681 83.9942V88.1816H415.611V81.2207H416.644V82.3084H416.735C416.898 81.9549 417.146 81.6709 417.478 81.4564C417.811 81.2389 418.24 81.1301 418.765 81.1301C419.237 81.1301 419.649 81.2268 420.002 81.4201C420.356 81.6105 420.631 81.9005 420.827 82.2903C421.024 82.677 421.122 83.1664 421.122 83.7586V88.1816H420.052V83.8311C420.052 83.2842 419.91 82.8582 419.626 82.5531C419.342 82.2449 418.953 82.0909 418.457 82.0909C418.116 82.0909 417.811 82.1649 417.542 82.3129C417.276 82.461 417.066 82.677 416.912 82.961C416.758 83.245 416.681 83.5894 416.681 83.9942ZM423.076 88.1816V81.2207H424.109V82.2721H424.182C424.306 81.9277 424.534 81.6482 424.866 81.4337C425.199 81.2192 425.575 81.112 425.995 81.112C426.188 81.112 426.357 81.1346 426.502 81.18C426.647 81.2253 426.774 81.2872 426.883 81.3658L426.52 82.2721C426.445 82.2329 426.356 82.2026 426.253 82.1815C426.153 82.1573 426.037 82.1452 425.904 82.1452C425.566 82.1452 425.264 82.2162 424.998 82.3582C424.735 82.5002 424.526 82.6936 424.372 82.9383C424.221 83.183 424.146 83.4625 424.146 83.7767V88.1816H423.076ZM430.59 88.3267C429.961 88.3267 429.41 88.1771 428.936 87.878C428.464 87.5789 428.096 87.1605 427.83 86.6227C427.567 86.0849 427.436 85.4565 427.436 84.7374C427.436 84.0124 427.567 83.3794 427.83 82.8386C428.096 82.2978 428.464 81.8779 428.936 81.5788C429.41 81.2797 429.961 81.1301 430.59 81.1301C431.218 81.1301 431.768 81.2797 432.24 81.5788C432.714 81.8779 433.082 82.2978 433.345 82.8386C433.611 83.3794 433.744 84.0124 433.744 84.7374C433.744 85.4565 433.611 86.0849 433.345 86.6227C433.082 87.1605 432.714 87.5789 432.24 87.878C431.768 88.1771 431.218 88.3267 430.59 88.3267ZM430.59 87.3659C431.067 87.3659 431.46 87.2436 431.768 86.9988C432.076 86.7541 432.304 86.4324 432.452 86.0336C432.601 85.6348 432.675 85.2027 432.675 84.7374C432.675 84.2722 432.601 83.8386 432.452 83.4368C432.304 83.035 432.076 82.7102 431.768 82.4625C431.46 82.2147 431.067 82.0909 430.59 82.0909C430.113 82.0909 429.72 82.2147 429.412 82.4625C429.103 82.7102 428.875 83.035 428.727 83.4368C428.579 83.8386 428.505 84.2722 428.505 84.7374C428.505 85.2027 428.579 85.6348 428.727 86.0336C428.875 86.4324 429.103 86.7541 429.412 86.9988C429.72 87.2436 430.113 87.3659 430.59 87.3659ZM435.377 78.9004H436.446V86.3689C436.446 86.7073 436.484 86.9445 436.559 87.0804C436.635 87.2164 436.791 87.2813 437.026 87.2753C437.153 87.2692 437.247 87.2602 437.307 87.2481C437.371 87.233 437.428 87.2179 437.479 87.2028L437.697 88.1273C437.603 88.1544 437.485 88.1786 437.343 88.1998C437.201 88.2239 437.053 88.236 436.899 88.236C436.392 88.236 436.011 88.097 435.757 87.8191C435.504 87.5411 435.377 87.1544 435.377 86.6589V78.9004ZM438.866 78.9004H439.936V86.3689C439.936 86.7073 439.973 86.9445 440.049 87.0804C440.125 87.2164 440.28 87.2813 440.516 87.2753C440.643 87.2692 440.736 87.2602 440.797 87.2481C440.86 87.233 440.918 87.2179 440.969 87.2028L441.186 88.1273C441.093 88.1544 440.975 88.1786 440.833 88.1998C440.691 88.2239 440.543 88.236 440.389 88.236C439.881 88.236 439.501 88.097 439.247 87.8191C438.993 87.5411 438.866 87.1544 438.866 86.6589V78.9004ZM445.087 88.3267C444.417 88.3267 443.838 88.1786 443.352 87.8825C442.868 87.5834 442.495 87.1665 442.232 86.6318C441.972 86.094 441.842 85.4686 441.842 84.7556C441.842 84.0426 441.972 83.4142 442.232 82.8703C442.495 82.3235 442.861 81.8975 443.329 81.5924C443.8 81.2842 444.35 81.1301 444.978 81.1301C445.341 81.1301 445.699 81.1905 446.053 81.3114C446.406 81.4322 446.728 81.6286 447.018 81.9005C447.308 82.1694 447.539 82.5259 447.711 82.97C447.883 83.4142 447.969 83.961 447.969 84.6106V85.0637H442.604V84.1392H446.882C446.882 83.7465 446.803 83.396 446.646 83.0879C446.492 82.7797 446.272 82.5365 445.985 82.3582C445.701 82.18 445.365 82.0909 444.978 82.0909C444.552 82.0909 444.184 82.1966 443.873 82.4081C443.565 82.6166 443.327 82.8885 443.161 83.2238C442.995 83.5592 442.912 83.9187 442.912 84.3024V84.9187C442.912 85.4444 443.003 85.89 443.184 86.2556C443.368 86.6182 443.623 86.8946 443.95 87.0849C444.276 87.2723 444.655 87.3659 445.087 87.3659C445.368 87.3659 445.622 87.3266 445.849 87.2481C446.078 87.1665 446.276 87.0457 446.442 86.8855C446.608 86.7224 446.737 86.52 446.827 86.2783L447.861 86.5683C447.752 86.9188 447.569 87.2269 447.312 87.4928C447.056 87.7556 446.738 87.9611 446.361 88.1091C445.983 88.2541 445.559 88.3267 445.087 88.3267ZM452.225 88.3267C451.645 88.3267 451.133 88.1801 450.689 87.8871C450.244 87.591 449.897 87.1741 449.646 86.6363C449.396 86.0955 449.27 85.4565 449.27 84.7193C449.27 83.9882 449.396 83.3537 449.646 82.816C449.897 82.2782 450.246 81.8628 450.693 81.5697C451.14 81.2766 451.657 81.1301 452.243 81.1301C452.696 81.1301 453.054 81.2056 453.317 81.3567C453.583 81.5047 453.785 81.6739 453.924 81.8643C454.066 82.0516 454.177 82.2057 454.255 82.3265H454.346V78.9004H455.415V88.1816H454.382V87.1121H454.255C454.177 87.239 454.065 87.3991 453.92 87.5925C453.775 87.7828 453.568 87.9535 453.299 88.1046C453.03 88.2526 452.672 88.3267 452.225 88.3267ZM452.37 87.3659C452.799 87.3659 453.161 87.2541 453.458 87.0306C453.754 86.804 453.979 86.4913 454.133 86.0925C454.287 85.6906 454.364 85.2269 454.364 84.7012C454.364 84.1815 454.288 83.7268 454.137 83.3371C453.986 82.9444 453.763 82.6392 453.467 82.4217C453.171 82.2011 452.805 82.0909 452.37 82.0909C451.917 82.0909 451.539 82.2072 451.237 82.4398C450.938 82.6694 450.713 82.9821 450.562 83.3779C450.414 83.7707 450.34 84.2118 450.34 84.7012C450.34 85.1967 450.415 85.6468 450.566 86.0517C450.72 86.4535 450.947 86.7738 451.246 87.0124C451.548 87.2481 451.923 87.3659 452.37 87.3659Z" fill="white"/>
</g>
<defs>
<filter id="filter0_d_431_2335" x="200.54" y="125.316" width="325.422" height="153.139" filterUnits="userSpaceOnUse" color-interpolation-filters="sRGB">
<feFlood flood-opacity="0" result="BackgroundImageFix"/>
<feColorMatrix in="SourceAlpha" type="matrix" values="0 0 0 0 0 0 0 0 0 0 0 0 0 0 0 0 0 0 127 0" result="hardAlpha"/>
<feOffset dy="0.911546"/>
<feGaussianBlur stdDeviation="18.2309"/>
<feComposite in2="hardAlpha" operator="out"/>
<feColorMatrix type="matrix" values="0 0 0 0 0 0 0 0 0 0.32549 0 0 0 0 0.360784 0 0 0 1 0"/>
<feBlend mode="normal" in2="BackgroundImageFix" result="effect1_dropShadow_431_2335"/>
<feBlend mode="normal" in="SourceGraphic" in2="effect1_dropShadow_431_2335" result="shape"/>
</filter>
<filter id="filter1_d_431_2335" x="179.119" y="7.72706" width="325.422" height="153.139" filterUnits="userSpaceOnUse" color-interpolation-filters="sRGB">
<feFlood flood-opacity="0" result="BackgroundImageFix"/>
<feColorMatrix in="SourceAlpha" type="matrix" values="0 0 0 0 0 0 0 0 0 0 0 0 0 0 0 0 0 0 127 0" result="hardAlpha"/>
<feOffset dy="0.911546"/>
<feGaussianBlur stdDeviation="18.2309"/>
<feComposite in2="hardAlpha" operator="out"/>
<feColorMatrix type="matrix" values="0 0 0 0 0 0 0 0 0 0.32549 0 0 0 0 0.360784 0 0 0 1 0"/>
<feBlend mode="normal" in2="BackgroundImageFix" result="effect1_dropShadow_431_2335"/>
<feBlend mode="normal" in="SourceGraphic" in2="effect1_dropShadow_431_2335" result="shape"/>
</filter>
</defs>
</svg>
