<svg width="24" height="25" viewBox="0 0 24 25" fill="none" xmlns="http://www.w3.org/2000/svg">
<path opacity="0.1" fill-rule="evenodd" clip-rule="evenodd" d="M0 12.8096C0 6.18215 5.37258 0.80957 12 0.80957C18.6274 0.80957 24 6.18215 24 12.8096C24 19.437 18.6274 24.8096 12 24.8096C5.37258 24.8096 0 19.437 0 12.8096Z" fill="#14191F"/>
<path fill-rule="evenodd" clip-rule="evenodd" d="M12.0006 6.40967C10.2624 6.40967 10.0443 6.41727 9.36161 6.44834C8.68027 6.47954 8.2152 6.5874 7.80827 6.74567C7.38733 6.90914 7.03026 7.12781 6.67452 7.48368C6.31852 7.83942 6.09985 8.19649 5.93585 8.61729C5.77718 9.02436 5.66918 9.48957 5.63851 10.1706C5.60798 10.8533 5.59998 11.0716 5.59998 12.8097C5.59998 14.5479 5.60771 14.7654 5.63864 15.448C5.66998 16.1294 5.77784 16.5944 5.93598 17.0014C6.09958 17.4223 6.31825 17.7794 6.67412 18.1351C7.02972 18.4911 7.38679 18.7103 7.80747 18.8738C8.21467 19.0321 8.67987 19.1399 9.36108 19.1711C10.0438 19.2022 10.2618 19.2098 11.9998 19.2098C13.7381 19.2098 13.9555 19.2022 14.6382 19.1711C15.3195 19.1399 15.7851 19.0321 16.1924 18.8738C16.6132 18.7103 16.9697 18.4911 17.3253 18.1351C17.6813 17.7794 17.9 17.4223 18.064 17.0015C18.2213 16.5944 18.3293 16.1292 18.3613 15.4482C18.392 14.7655 18.4 14.5479 18.4 12.8097C18.4 11.0716 18.392 10.8534 18.3613 10.1708C18.3293 9.48943 18.2213 9.02436 18.064 8.61742C17.9 8.19649 17.6813 7.83942 17.3253 7.48368C16.9693 7.12768 16.6133 6.90901 16.192 6.74567C15.7839 6.5874 15.3186 6.47954 14.6373 6.44834C13.9546 6.41727 13.7373 6.40967 11.9986 6.40967H12.0006ZM11.4264 7.563C11.5968 7.56273 11.7869 7.563 12.0005 7.563C13.7094 7.563 13.9119 7.56913 14.5867 7.5998C15.2107 7.62833 15.5494 7.7326 15.775 7.8202C16.0737 7.9362 16.2866 8.07487 16.5105 8.29887C16.7345 8.52287 16.8731 8.73621 16.9894 9.03488C17.077 9.26021 17.1814 9.59888 17.2098 10.2229C17.2405 10.8976 17.2471 11.1002 17.2471 12.8083C17.2471 14.5163 17.2405 14.7189 17.2098 15.3936C17.1813 16.0176 17.077 16.3563 16.9894 16.5816C16.8734 16.8803 16.7345 17.093 16.5105 17.3168C16.2865 17.5408 16.0738 17.6795 15.775 17.7955C15.5497 17.8835 15.2107 17.9875 14.5867 18.016C13.912 18.0467 13.7094 18.0534 12.0005 18.0534C10.2916 18.0534 10.0891 18.0467 9.41439 18.016C8.79038 17.9872 8.45171 17.883 8.22598 17.7954C7.92731 17.6794 7.71397 17.5407 7.48997 17.3167C7.26597 17.0927 7.1273 16.8799 7.01103 16.5811C6.92343 16.3558 6.81903 16.0171 6.79063 15.3931C6.75996 14.7184 6.75383 14.5157 6.75383 12.8067C6.75383 11.0976 6.75996 10.896 6.79063 10.2213C6.81916 9.59728 6.92343 9.25861 7.01103 9.03301C7.12703 8.73434 7.26597 8.52101 7.48997 8.297C7.71397 8.073 7.92731 7.93433 8.22598 7.81806C8.45158 7.73006 8.79038 7.62606 9.41439 7.5974C10.0048 7.57073 10.2336 7.56273 11.4264 7.5614V7.563ZM15.4169 8.62568C14.9928 8.62568 14.6488 8.96928 14.6488 9.39342C14.6488 9.81742 14.9928 10.1614 15.4169 10.1614C15.8409 10.1614 16.1849 9.81742 16.1849 9.39342C16.1849 8.96941 15.8409 8.62568 15.4169 8.62568ZM12.0006 9.52302C10.1855 9.52302 8.71389 10.9946 8.71389 12.8097C8.71389 14.6248 10.1855 16.0958 12.0006 16.0958C13.8157 16.0958 15.2868 14.6248 15.2868 12.8097C15.2868 10.9946 13.8157 9.52302 12.0006 9.52302ZM12.0006 10.6764C13.1787 10.6764 14.1339 11.6314 14.1339 12.8097C14.1339 13.9879 13.1787 14.9431 12.0006 14.9431C10.8223 14.9431 9.86721 13.9879 9.86721 12.8097C9.86721 11.6314 10.8223 10.6764 12.0006 10.6764Z" fill="#14191F"/>
</svg>
