<svg width="242" height="152" viewBox="0 0 242 152" fill="none" xmlns="http://www.w3.org/2000/svg">
<g clip-path="url(#clip0_25_1803)">
<rect x="0.958252" y="0.130127" width="240.083" height="151.878" rx="5.84145" fill="#00535C"/>
<g filter="url(#filter0_d_25_1803)">
<rect width="203.866" height="86.3961" transform="translate(19.0667 32.9485)" fill="white"/>
<path d="M37.6966 50.1666V57.0149H36.456V50.1666H37.6966ZM40.197 54.0054V57.0149H38.9865V51.8786H40.1435V52.7514H40.2037C40.3218 52.4638 40.5102 52.2353 40.7688 52.0659C41.0296 51.8965 41.3518 51.8118 41.7352 51.8118C42.0896 51.8118 42.3984 51.8876 42.6615 52.0391C42.9267 52.1907 43.1318 52.4103 43.2767 52.6979C43.4239 52.9855 43.4963 53.3344 43.4941 53.7445V57.0149H42.2836V53.9318C42.2836 53.5885 42.1944 53.3199 42.0161 53.1259C41.84 52.932 41.5959 52.835 41.2838 52.835C41.072 52.835 40.8836 52.8818 40.7186 52.9754C40.5559 53.0668 40.4277 53.1995 40.3341 53.3734C40.2427 53.5473 40.197 53.7579 40.197 54.0054ZM49.1286 51.8786L47.2995 57.0149H45.9619L44.1328 51.8786H45.4235L46.6039 55.694H46.6574L47.8412 51.8786H49.1286ZM52.0319 57.1152C51.5304 57.1152 51.0956 57.0049 50.7278 56.7842C50.36 56.5635 50.0746 56.2547 49.8718 55.8579C49.6711 55.4611 49.5708 54.9974 49.5708 54.4668C49.5708 53.9363 49.6711 53.4715 49.8718 53.0724C50.0746 52.6734 50.36 52.3635 50.7278 52.1428C51.0956 51.9221 51.5304 51.8118 52.0319 51.8118C52.5335 51.8118 52.9682 51.9221 53.3361 52.1428C53.7039 52.3635 53.9881 52.6734 54.1888 53.0724C54.3916 53.4715 54.4931 53.9363 54.4931 54.4668C54.4931 54.9974 54.3916 55.4611 54.1888 55.8579C53.9881 56.2547 53.7039 56.5635 53.3361 56.7842C52.9682 57.0049 52.5335 57.1152 52.0319 57.1152ZM52.0386 56.1455C52.3106 56.1455 52.538 56.0708 52.7208 55.9214C52.9036 55.7698 53.0396 55.567 53.1287 55.3128C53.2201 55.0587 53.2658 54.7756 53.2658 54.4635C53.2658 54.1492 53.2201 53.8649 53.1287 53.6108C53.0396 53.3544 52.9036 53.1504 52.7208 52.9989C52.538 52.8473 52.3106 52.7715 52.0386 52.7715C51.76 52.7715 51.5281 52.8473 51.3431 52.9989C51.1603 53.1504 51.0232 53.3544 50.9318 53.6108C50.8426 53.8649 50.798 54.1492 50.798 54.4635C50.798 54.7756 50.8426 55.0587 50.9318 55.3128C51.0232 55.567 51.1603 55.7698 51.3431 55.9214C51.5281 56.0708 51.76 56.1455 52.0386 56.1455ZM55.5205 57.0149V51.8786H56.731V57.0149H55.5205ZM56.1291 51.1497C55.9374 51.1497 55.7724 51.0861 55.6342 50.9591C55.496 50.8298 55.4269 50.6748 55.4269 50.4943C55.4269 50.3115 55.496 50.1565 55.6342 50.0295C55.7724 49.9002 55.9374 49.8355 56.1291 49.8355C56.323 49.8355 56.488 49.9002 56.624 50.0295C56.7622 50.1565 56.8313 50.3115 56.8313 50.4943C56.8313 50.6748 56.7622 50.8298 56.624 50.9591C56.488 51.0861 56.323 51.1497 56.1291 51.1497ZM60.2162 57.1152C59.7034 57.1152 59.2632 57.0026 58.8953 56.7775C58.5297 56.5523 58.2477 56.2413 58.0493 55.8445C57.8531 55.4455 57.7551 54.9863 57.7551 54.4668C57.7551 53.9452 57.8554 53.4848 58.056 53.0858C58.2566 52.6845 58.5398 52.3724 58.9054 52.1495C59.2732 51.9243 59.7079 51.8118 60.2095 51.8118C60.6264 51.8118 60.9953 51.8887 61.3163 52.0425C61.6396 52.1941 61.8971 52.4092 62.0888 52.6879C62.2805 52.9643 62.3897 53.2875 62.4165 53.6576H61.2595C61.2127 53.4102 61.1012 53.2039 60.9251 53.039C60.7512 52.8718 60.5182 52.7882 60.2262 52.7882C59.9788 52.7882 59.7614 52.8551 59.5741 52.9888C59.3869 53.1203 59.2409 53.3098 59.1361 53.5573C59.0335 53.8047 58.9823 54.1012 58.9823 54.4468C58.9823 54.7968 59.0335 55.0977 59.1361 55.3496C59.2386 55.5993 59.3824 55.7921 59.5675 55.9281C59.7547 56.0619 59.9743 56.1288 60.2262 56.1288C60.4046 56.1288 60.5639 56.0953 60.7044 56.0284C60.8471 55.9593 60.9663 55.8601 61.0622 55.7308C61.158 55.6015 61.2238 55.4444 61.2595 55.2593H62.4165C62.3875 55.6227 62.2805 55.9448 62.0955 56.2257C61.9104 56.5044 61.6585 56.7229 61.3397 56.8811C61.0209 57.0372 60.6464 57.1152 60.2162 57.1152ZM65.6843 57.1152C65.1694 57.1152 64.7246 57.0082 64.3501 56.7942C63.9778 56.578 63.6913 56.2725 63.4907 55.878C63.2901 55.4812 63.1898 55.0141 63.1898 54.4769C63.1898 53.9485 63.2901 53.4848 63.4907 53.0858C63.6936 52.6845 63.9767 52.3724 64.3401 52.1495C64.7034 51.9243 65.1303 51.8118 65.6208 51.8118C65.9373 51.8118 66.2361 51.863 66.5169 51.9656C66.8001 52.0659 67.0497 52.2219 67.266 52.4337C67.4845 52.6455 67.6561 52.9153 67.7809 53.243C67.9058 53.5684 67.9682 53.9563 67.9682 54.4066V54.7778H63.7582V53.9619H66.8079C66.8056 53.7301 66.7555 53.5238 66.6574 53.3433C66.5593 53.1605 66.4222 53.0167 66.2461 52.9119C66.0722 52.8071 65.8693 52.7547 65.6375 52.7547C65.39 52.7547 65.1727 52.8149 64.9854 52.9353C64.7982 53.0535 64.6522 53.2095 64.5474 53.4035C64.4448 53.5952 64.3924 53.8058 64.3902 54.0355V54.7477C64.3902 55.0464 64.4448 55.3028 64.5541 55.5168C64.6633 55.7286 64.816 55.8913 65.0122 56.005C65.2084 56.1165 65.438 56.1722 65.701 56.1722C65.8771 56.1722 66.0365 56.1477 66.1792 56.0987C66.3219 56.0474 66.4456 55.9727 66.5504 55.8746C66.6552 55.7765 66.7343 55.655 66.7878 55.5101L67.918 55.6372C67.8467 55.9359 67.7107 56.1967 67.5101 56.4197C67.3117 56.6404 67.0575 56.812 66.7477 56.9346C66.4378 57.055 66.0834 57.1152 65.6843 57.1152Z" fill="#14191F"/>
<path d="M36.0507 78.3806V75.6413H37.8056V76.0573H36.5469V76.8009H37.6852V77.2169H36.5469V78.3806H36.0507ZM38.2577 78.3806V75.6413H39.2849C39.4954 75.6413 39.6719 75.6778 39.8146 75.751C39.9582 75.8241 40.0665 75.9266 40.1396 76.0586C40.2137 76.1897 40.2507 76.3426 40.2507 76.5174C40.2507 76.6931 40.2132 76.8455 40.1383 76.9748C40.0643 77.1032 39.9551 77.2027 39.8106 77.2731C39.6661 77.3427 39.4887 77.3774 39.2783 77.3774H38.5466V76.9655H39.2114C39.3344 76.9655 39.4352 76.9485 39.5137 76.9146C39.5921 76.8799 39.6501 76.8295 39.6875 76.7635C39.7259 76.6966 39.7451 76.6146 39.7451 76.5174C39.7451 76.4202 39.7259 76.3373 39.6875 76.2686C39.6492 76.199 39.5908 76.1464 39.5123 76.1108C39.4339 76.0742 39.3326 76.0559 39.2087 76.0559H38.7539V78.3806H38.2577ZM39.6728 77.1394L40.351 78.3806H39.7972L39.1311 77.1394H39.6728ZM43.1552 77.0109C43.1552 77.3061 43.0999 77.5589 42.9893 77.7693C42.8796 77.9789 42.7298 78.1394 42.5399 78.2509C42.3509 78.3623 42.1364 78.4181 41.8965 78.4181C41.6567 78.4181 41.4418 78.3623 41.2518 78.2509C41.0628 78.1385 40.913 77.9776 40.8024 77.768C40.6927 77.5576 40.6379 77.3052 40.6379 77.0109C40.6379 76.7158 40.6927 76.4634 40.8024 76.2539C40.913 76.0434 41.0628 75.8825 41.2518 75.771C41.4418 75.6596 41.6567 75.6038 41.8965 75.6038C42.1364 75.6038 42.3509 75.6596 42.5399 75.771C42.7298 75.8825 42.8796 76.0434 42.9893 76.2539C43.0999 76.4634 43.1552 76.7158 43.1552 77.0109ZM42.6563 77.0109C42.6563 76.8032 42.6237 76.628 42.5586 76.4853C42.4944 76.3417 42.4053 76.2334 42.2911 76.1603C42.177 76.0862 42.0455 76.0492 41.8965 76.0492C41.7476 76.0492 41.6161 76.0862 41.502 76.1603C41.3878 76.2334 41.2982 76.3417 41.2331 76.4853C41.1689 76.628 41.1368 76.8032 41.1368 77.0109C41.1368 77.2187 41.1689 77.3944 41.2331 77.5379C41.2982 77.6806 41.3878 77.789 41.502 77.863C41.6161 77.9361 41.7476 77.9727 41.8965 77.9727C42.0455 77.9727 42.177 77.9361 42.2911 77.863C42.4053 77.789 42.4944 77.6806 42.5586 77.5379C42.6237 77.3944 42.6563 77.2187 42.6563 77.0109ZM43.6243 75.6413H44.2316L45.0448 77.6262H45.0769L45.8902 75.6413H46.4974V78.3806H46.0213V76.4987H45.9958L45.2388 78.3726H44.883L44.1259 76.4946H44.1005V78.3806H43.6243V75.6413Z" fill="#FFA800"/>
<path d="M36.4654 81.5829L37.0686 82.5861H37.09L37.6959 81.5829H38.2617L37.4177 82.9526L38.2751 84.3223H37.6999L37.09 83.3258H37.0686L36.4587 84.3223H35.8862L36.7516 82.9526L35.8969 81.5829H36.4654ZM38.8399 81.5829L39.4432 82.5861H39.4646L40.0705 81.5829H40.6363L39.7923 82.9526L40.6496 84.3223H40.0745L39.4646 83.3258H39.4432L38.8332 84.3223H38.2608L39.1262 82.9526L38.2715 81.5829H38.8399ZM41.2145 81.5829L41.8177 82.5861H41.8391L42.445 81.5829H43.0108L42.1668 82.9526L43.0242 84.3223H42.4491L41.8391 83.3258H41.8177L41.2078 84.3223H40.6353L41.5007 82.9526L40.646 81.5829H41.2145ZM43.5891 81.5829L44.1923 82.5861H44.2137L44.8196 81.5829H45.3854L44.5414 82.9526L45.3988 84.3223H44.8236L44.2137 83.3258H44.1923L43.5824 84.3223H43.0099L43.8753 82.9526L43.0206 81.5829H43.5891ZM46.5485 82.7533V83.1519H45.3152V82.7533H46.5485ZM47.0581 81.5829L47.6614 82.5861H47.6828L48.2887 81.5829H48.8545L48.0105 82.9526L48.8679 84.3223H48.2927L47.6828 83.3258H47.6614L47.0515 84.3223H46.479L47.3444 82.9526L46.4897 81.5829H47.0581ZM49.4327 81.5829L50.0359 82.5861H50.0573L50.6633 81.5829H51.2291L50.3851 82.9526L51.2424 84.3223H50.6673L50.0573 83.3258H50.0359L49.426 84.3223H48.8535L49.7189 82.9526L48.8642 81.5829H49.4327ZM51.8073 81.5829L52.4105 82.5861H52.4319L53.0378 81.5829H53.6036L52.7596 82.9526L53.617 84.3223H53.0418L52.4319 83.3258H52.4105L51.8006 84.3223H51.2281L52.0935 82.9526L51.2388 81.5829H51.8073ZM54.1818 81.5829L54.7851 82.5861H54.8065L55.4124 81.5829H55.9782L55.1342 82.9526L55.9916 84.3223H55.4164L54.8065 83.3258H54.7851L54.1752 84.3223H53.6027L54.4681 82.9526L53.6134 81.5829H54.1818Z" fill="#14191F"/>
<path d="M36.1122 90.2639V87.5246H36.444V89.9697H37.7173V90.2639H36.1122ZM38.7927 90.3121C38.6625 90.3121 38.5444 90.2875 38.4383 90.2385C38.3321 90.1886 38.2479 90.1168 38.1855 90.0232C38.123 89.9286 38.0918 89.8145 38.0918 89.6807C38.0918 89.563 38.115 89.4676 38.1614 89.3945C38.2078 89.3205 38.2697 89.2625 38.3473 89.2206C38.4249 89.1787 38.5105 89.1475 38.6041 89.127C38.6986 89.1056 38.7936 89.0886 38.889 89.0762C39.0139 89.0601 39.1151 89.0481 39.1926 89.04C39.2711 89.0311 39.3282 89.0164 39.3639 88.9959C39.4004 88.9754 39.4187 88.9397 39.4187 88.8889V88.8782C39.4187 88.7462 39.3826 88.6437 39.3104 88.5706C39.239 88.4974 39.1307 88.4609 38.9853 88.4609C38.8346 88.4609 38.7165 88.4939 38.6309 88.5599C38.5453 88.6258 38.4851 88.6963 38.4503 88.7712L38.1507 88.6642C38.2042 88.5393 38.2755 88.4422 38.3647 88.3726C38.4548 88.3022 38.5528 88.2531 38.659 88.2255C38.766 88.1969 38.8712 88.1827 38.9746 88.1827C39.0406 88.1827 39.1164 88.1907 39.202 88.2067C39.2885 88.2219 39.3719 88.2536 39.4521 88.3017C39.5333 88.3499 39.6006 88.4225 39.6541 88.5197C39.7076 88.6169 39.7344 88.7471 39.7344 88.9103V90.2639H39.4187V89.9857H39.4026C39.3812 90.0303 39.3456 90.078 39.2956 90.1288C39.2457 90.1796 39.1793 90.2229 39.0963 90.2586C39.0134 90.2942 38.9122 90.3121 38.7927 90.3121ZM38.8409 90.0285C38.9657 90.0285 39.0709 90.004 39.1565 89.9549C39.243 89.9059 39.3081 89.8426 39.3518 89.765C39.3964 89.6874 39.4187 89.6058 39.4187 89.5202V89.2313C39.4053 89.2474 39.3759 89.2621 39.3304 89.2755C39.2858 89.2879 39.2341 89.2991 39.1753 89.3089C39.1173 89.3178 39.0607 89.3258 39.0054 89.333C38.951 89.3392 38.9069 89.3446 38.873 89.349C38.7909 89.3597 38.7142 89.3771 38.6429 89.4012C38.5725 89.4244 38.5154 89.4596 38.4717 89.5069C38.4289 89.5532 38.4075 89.6165 38.4075 89.6968C38.4075 89.8065 38.4481 89.8894 38.5292 89.9456C38.6113 90.0009 38.7151 90.0285 38.8409 90.0285ZM41.1398 91.0772C40.9873 91.0772 40.8562 91.0575 40.7466 91.0183C40.6369 90.98 40.5455 90.9291 40.4724 90.8658C40.4001 90.8034 40.3426 90.7365 40.2998 90.6652L40.5513 90.4886C40.5798 90.5261 40.6159 90.5689 40.6596 90.617C40.7033 90.6661 40.7631 90.7084 40.8389 90.7441C40.9155 90.7807 41.0159 90.7989 41.1398 90.7989C41.3057 90.7989 41.4425 90.7588 41.5504 90.6786C41.6583 90.5983 41.7123 90.4726 41.7123 90.3014V89.884H41.6855C41.6624 89.9215 41.6294 89.9679 41.5866 90.0232C41.5446 90.0775 41.484 90.1261 41.4046 90.1689C41.3262 90.2109 41.2201 90.2318 41.0863 90.2318C40.9204 90.2318 40.7715 90.1926 40.6396 90.1141C40.5085 90.0356 40.4046 89.9215 40.3279 89.7717C40.2521 89.6219 40.2142 89.44 40.2142 89.226C40.2142 89.0155 40.2512 88.8323 40.3252 88.6762C40.3992 88.5193 40.5022 88.398 40.6342 88.3124C40.7662 88.2259 40.9187 88.1827 41.0917 88.1827C41.2254 88.1827 41.3315 88.205 41.41 88.2495C41.4894 88.2932 41.55 88.3432 41.5919 88.3993C41.6347 88.4546 41.6677 88.5001 41.6909 88.5358H41.723V88.2094H42.028V90.3228C42.028 90.4993 41.9878 90.6429 41.9076 90.7535C41.8282 90.8649 41.7212 90.9465 41.5866 90.9982C41.4528 91.0509 41.3039 91.0772 41.1398 91.0772ZM41.1291 89.9483C41.2557 89.9483 41.3627 89.9193 41.4501 89.8613C41.5375 89.8033 41.6039 89.72 41.6494 89.6112C41.6949 89.5024 41.7176 89.3722 41.7176 89.2206C41.7176 89.0726 41.6953 88.942 41.6508 88.8287C41.6062 88.7155 41.5402 88.6267 41.4528 88.5625C41.3654 88.4983 41.2575 88.4662 41.1291 88.4662C40.9954 88.4662 40.8839 88.5001 40.7947 88.5679C40.7064 88.6357 40.64 88.7266 40.5954 88.8407C40.5517 88.9549 40.5299 89.0815 40.5299 89.2206C40.5299 89.3633 40.5522 89.4895 40.5968 89.5991C40.6422 89.7079 40.7091 89.7935 40.7974 89.856C40.8866 89.9175 40.9971 89.9483 41.1291 89.9483ZM43.4404 90.3067C43.2549 90.3067 43.0922 90.2626 42.9522 90.1743C42.8131 90.086 42.7043 89.9625 42.6258 89.8038C42.5483 89.6451 42.5095 89.4596 42.5095 89.2474C42.5095 89.0334 42.5483 88.8465 42.6258 88.6869C42.7043 88.5273 42.8131 88.4034 42.9522 88.3151C43.0922 88.2268 43.2549 88.1827 43.4404 88.1827C43.6259 88.1827 43.7882 88.2268 43.9273 88.3151C44.0673 88.4034 44.1761 88.5273 44.2537 88.6869C44.3321 88.8465 44.3714 89.0334 44.3714 89.2474C44.3714 89.4596 44.3321 89.6451 44.2537 89.8038C44.1761 89.9625 44.0673 90.086 43.9273 90.1743C43.7882 90.2626 43.6259 90.3067 43.4404 90.3067ZM43.4404 90.0232C43.5813 90.0232 43.6972 89.987 43.7882 89.9148C43.8791 89.8426 43.9465 89.7476 43.9902 89.6299C44.0339 89.5122 44.0557 89.3847 44.0557 89.2474C44.0557 89.11 44.0339 88.9821 43.9902 88.8635C43.9465 88.7449 43.8791 88.649 43.7882 88.5759C43.6972 88.5028 43.5813 88.4662 43.4404 88.4662C43.2995 88.4662 43.1836 88.5028 43.0927 88.5759C43.0017 88.649 42.9344 88.7449 42.8907 88.8635C42.847 88.9821 42.8251 89.11 42.8251 89.2474C42.8251 89.3847 42.847 89.5122 42.8907 89.6299C42.9344 89.7476 43.0017 89.8426 43.0927 89.9148C43.1836 89.987 43.2995 90.0232 43.4404 90.0232ZM46.3085 88.6695L46.0249 88.7498C46.0071 88.7025 45.9808 88.6566 45.946 88.612C45.9121 88.5665 45.8658 88.5291 45.8069 88.4997C45.7481 88.4702 45.6727 88.4555 45.5809 88.4555C45.4551 88.4555 45.3504 88.4845 45.2665 88.5425C45.1836 88.5995 45.1421 88.6722 45.1421 88.7605C45.1421 88.839 45.1707 88.9009 45.2277 88.9464C45.2848 88.9919 45.374 89.0298 45.4953 89.0601L45.8002 89.135C45.9839 89.1796 46.1208 89.2478 46.2109 89.3397C46.3009 89.4306 46.346 89.5479 46.346 89.6914C46.346 89.8091 46.3121 89.9144 46.2443 90.0071C46.1774 90.0998 46.0838 90.173 45.9634 90.2265C45.843 90.28 45.703 90.3067 45.5434 90.3067C45.3339 90.3067 45.1604 90.2612 45.0231 90.1703C44.8858 90.0793 44.7988 89.9465 44.7623 89.7717L45.0619 89.6968C45.0904 89.8074 45.1444 89.8903 45.2237 89.9456C45.304 90.0009 45.4088 90.0285 45.5381 90.0285C45.6852 90.0285 45.802 89.9973 45.8885 89.9349C45.9759 89.8716 46.0196 89.7958 46.0196 89.7075C46.0196 89.6362 45.9946 89.5764 45.9447 89.5283C45.8947 89.4792 45.8181 89.4427 45.7146 89.4186L45.3722 89.3383C45.1841 89.2937 45.0458 89.2246 44.9576 89.131C44.8702 89.0365 44.8265 88.9183 44.8265 88.7765C44.8265 88.6606 44.859 88.5581 44.9241 88.4689C44.9901 88.3797 45.0797 88.3097 45.193 88.2589C45.3071 88.2081 45.4364 88.1827 45.5809 88.1827C45.7842 88.1827 45.9438 88.2272 46.0597 88.3164C46.1765 88.4056 46.2595 88.5233 46.3085 88.6695ZM47.2919 89.8894L47.2705 90.0339C47.2554 90.1355 47.2322 90.2443 47.201 90.3602C47.1707 90.4761 47.139 90.5854 47.106 90.6879C47.073 90.7905 47.0458 90.8721 47.0244 90.9327H46.7837C46.7953 90.8756 46.8104 90.8003 46.8291 90.7067C46.8479 90.613 46.8666 90.5082 46.8853 90.3923C46.9049 90.2773 46.921 90.1596 46.9335 90.0392L46.9495 89.8894H47.2919ZM51.1512 87.5246V90.2639H50.8301L49.3374 88.1131H49.3107V90.2639H48.979V87.5246H49.3L50.798 89.6807H50.8248V87.5246H51.1512ZM51.7721 90.2639V88.2094H52.0878V90.2639H51.7721ZM51.9326 87.867C51.8711 87.867 51.818 87.846 51.7735 87.8041C51.7298 87.7622 51.7079 87.7118 51.7079 87.653C51.7079 87.5941 51.7298 87.5438 51.7735 87.5018C51.818 87.4599 51.8711 87.439 51.9326 87.439C51.9942 87.439 52.0468 87.4599 52.0905 87.5018C52.135 87.5438 52.1573 87.5941 52.1573 87.653C52.1573 87.7118 52.135 87.7622 52.0905 87.8041C52.0468 87.846 51.9942 87.867 51.9326 87.867ZM53.4952 91.0772C53.3428 91.0772 53.2117 91.0575 53.102 91.0183C52.9923 90.98 52.9009 90.9291 52.8278 90.8658C52.7556 90.8034 52.6981 90.7365 52.6553 90.6652L52.9067 90.4886C52.9352 90.5261 52.9714 90.5689 53.0151 90.617C53.0587 90.6661 53.1185 90.7084 53.1943 90.7441C53.271 90.7807 53.3713 90.7989 53.4952 90.7989C53.6611 90.7989 53.798 90.7588 53.9059 90.6786C54.0138 90.5983 54.0677 90.4726 54.0677 90.3014V89.884H54.041C54.0178 89.9215 53.9848 89.9679 53.942 90.0232C53.9001 90.0775 53.8394 90.1261 53.7601 90.1689C53.6816 90.2109 53.5755 90.2318 53.4417 90.2318C53.2759 90.2318 53.127 90.1926 52.995 90.1141C52.8639 90.0356 52.76 89.9215 52.6833 89.7717C52.6075 89.6219 52.5696 89.44 52.5696 89.226C52.5696 89.0155 52.6067 88.8323 52.6807 88.6762C52.7547 88.5193 52.8577 88.398 52.9896 88.3124C53.1216 88.2259 53.2741 88.1827 53.4471 88.1827C53.5808 88.1827 53.687 88.205 53.7654 88.2495C53.8448 88.2932 53.9054 88.3432 53.9473 88.3993C53.9901 88.4546 54.0231 88.5001 54.0463 88.5358H54.0784V88.2094H54.3834V90.3228C54.3834 90.4993 54.3433 90.6429 54.263 90.7535C54.1836 90.8649 54.0766 90.9465 53.942 90.9982C53.8082 91.0509 53.6593 91.0772 53.4952 91.0772ZM53.4845 89.9483C53.6112 89.9483 53.7182 89.9193 53.8056 89.8613C53.8929 89.8033 53.9594 89.72 54.0049 89.6112C54.0503 89.5024 54.0731 89.3722 54.0731 89.2206C54.0731 89.0726 54.0508 88.942 54.0062 88.8287C53.9616 88.7155 53.8956 88.6267 53.8082 88.5625C53.7208 88.4983 53.6129 88.4662 53.4845 88.4662C53.3508 88.4662 53.2393 88.5001 53.1502 88.5679C53.0619 88.6357 52.9954 88.7266 52.9509 88.8407C52.9072 88.9549 52.8853 89.0815 52.8853 89.2206C52.8853 89.3633 52.9076 89.4895 52.9522 89.5991C52.9977 89.7079 53.0645 89.7935 53.1528 89.856C53.242 89.9175 53.3526 89.9483 53.4845 89.9483ZM55.8226 90.3067C55.6246 90.3067 55.4539 90.263 55.3103 90.1756C55.1676 90.0874 55.0575 89.9643 54.9799 89.8065C54.9033 89.6477 54.8649 89.4632 54.8649 89.2527C54.8649 89.0423 54.9033 88.8568 54.9799 88.6963C55.0575 88.5349 55.1654 88.4092 55.3036 88.3191C55.4427 88.2281 55.605 88.1827 55.7905 88.1827C55.8975 88.1827 56.0032 88.2005 56.1075 88.2362C56.2118 88.2718 56.3068 88.3298 56.3924 88.41C56.478 88.4894 56.5462 88.5946 56.5971 88.7257C56.6479 88.8568 56.6733 89.0182 56.6733 89.2099V89.3437H55.0896V89.0708H56.3523C56.3523 88.9549 56.3291 88.8514 56.2827 88.7605C56.2373 88.6695 56.1722 88.5978 56.0874 88.5451C56.0036 88.4925 55.9046 88.4662 55.7905 88.4662C55.6648 88.4662 55.556 88.4974 55.4641 88.5599C55.3732 88.6214 55.3032 88.7016 55.2541 88.8006C55.2051 88.8996 55.1806 89.0057 55.1806 89.119V89.3009C55.1806 89.456 55.2073 89.5876 55.2608 89.6955C55.3152 89.8025 55.3906 89.884 55.4869 89.9402C55.5832 89.9955 55.6951 90.0232 55.8226 90.0232C55.9055 90.0232 55.9804 90.0116 56.0473 89.9884C56.1151 89.9643 56.1735 89.9286 56.2225 89.8814C56.2716 89.8332 56.3095 89.7735 56.3362 89.7021L56.6412 89.7877C56.6091 89.8912 56.5551 89.9821 56.4794 90.0606C56.4036 90.1382 56.3099 90.1988 56.1985 90.2425C56.087 90.2853 55.9617 90.3067 55.8226 90.3067ZM57.1535 90.2639V88.2094H57.4584V88.5197H57.4799C57.5173 88.4181 57.5851 88.3356 57.6832 88.2723C57.7812 88.209 57.8918 88.1773 58.0149 88.1773C58.0381 88.1773 58.067 88.1778 58.1018 88.1787C58.1366 88.1795 58.1629 88.1809 58.1807 88.1827V88.5037C58.17 88.501 58.1455 88.497 58.1072 88.4916C58.0697 88.4854 58.03 88.4823 57.9881 88.4823C57.8883 88.4823 57.7991 88.5032 57.7206 88.5451C57.643 88.5862 57.5815 88.6432 57.536 88.7164C57.4914 88.7886 57.4692 88.8711 57.4692 88.9638V90.2639H57.1535ZM58.5549 90.2639V88.2094H58.8706V90.2639H58.5549ZM58.7154 87.867C58.6539 87.867 58.6008 87.846 58.5563 87.8041C58.5126 87.7622 58.4907 87.7118 58.4907 87.653C58.4907 87.5941 58.5126 87.5438 58.5563 87.5018C58.6008 87.4599 58.6539 87.439 58.7154 87.439C58.777 87.439 58.8296 87.4599 58.8733 87.5018C58.9178 87.5438 58.9401 87.5941 58.9401 87.653C58.9401 87.7118 58.9178 87.7622 58.8733 87.8041C58.8296 87.846 58.777 87.867 58.7154 87.867ZM60.0533 90.3121C59.9231 90.3121 59.805 90.2875 59.6989 90.2385C59.5928 90.1886 59.5085 90.1168 59.4461 90.0232C59.3837 89.9286 59.3524 89.8145 59.3524 89.6807C59.3524 89.563 59.3756 89.4676 59.422 89.3945C59.4684 89.3205 59.5303 89.2625 59.6079 89.2206C59.6855 89.1787 59.7711 89.1475 59.8647 89.127C59.9593 89.1056 60.0542 89.0886 60.1496 89.0762C60.2745 89.0601 60.3757 89.0481 60.4533 89.04C60.5317 89.0311 60.5888 89.0164 60.6245 88.9959C60.661 88.9754 60.6793 88.9397 60.6793 88.8889V88.8782C60.6793 88.7462 60.6432 88.6437 60.571 88.5706C60.4996 88.4974 60.3913 88.4609 60.2459 88.4609C60.0952 88.4609 59.9771 88.4939 59.8915 88.5599C59.8059 88.6258 59.7457 88.6963 59.7109 88.7712L59.4113 88.6642C59.4648 88.5393 59.5361 88.4422 59.6253 88.3726C59.7154 88.3022 59.8135 88.2531 59.9196 88.2255C60.0266 88.1969 60.1318 88.1827 60.2352 88.1827C60.3012 88.1827 60.377 88.1907 60.4626 88.2067C60.5491 88.2219 60.6325 88.2536 60.7127 88.3017C60.7939 88.3499 60.8612 88.4225 60.9147 88.5197C60.9682 88.6169 60.995 88.7471 60.995 88.9103V90.2639H60.6793V89.9857H60.6633C60.6419 90.0303 60.6062 90.078 60.5563 90.1288C60.5063 90.1796 60.4399 90.2229 60.357 90.2586C60.274 90.2942 60.1728 90.3121 60.0533 90.3121ZM60.1015 90.0285C60.2263 90.0285 60.3315 90.004 60.4171 89.9549C60.5036 89.9059 60.5687 89.8426 60.6124 89.765C60.657 89.6874 60.6793 89.6058 60.6793 89.5202V89.2313C60.6659 89.2474 60.6365 89.2621 60.591 89.2755C60.5464 89.2879 60.4947 89.2991 60.4359 89.3089C60.3779 89.3178 60.3213 89.3258 60.266 89.333C60.2116 89.3392 60.1675 89.3446 60.1336 89.349C60.0515 89.3597 59.9749 89.3771 59.9035 89.4012C59.8331 89.4244 59.776 89.4596 59.7323 89.5069C59.6895 89.5532 59.6681 89.6165 59.6681 89.6968C59.6681 89.8065 59.7087 89.8894 59.7898 89.9456C59.8719 90.0009 59.9757 90.0285 60.1015 90.0285ZM36.9308 95.3067C36.7329 95.3067 36.5621 95.263 36.4185 95.1756C36.2759 95.0874 36.1657 94.9643 36.0882 94.8065C36.0115 94.6477 35.9731 94.4632 35.9731 94.2527C35.9731 94.0423 36.0115 93.8568 36.0882 93.6963C36.1657 93.5349 36.2736 93.4092 36.4118 93.3191C36.551 93.2281 36.7132 93.1827 36.8987 93.1827C37.0057 93.1827 37.1114 93.2005 37.2157 93.2362C37.3201 93.2718 37.415 93.3298 37.5006 93.41C37.5862 93.4894 37.6544 93.5946 37.7053 93.7257C37.7561 93.8568 37.7815 94.0182 37.7815 94.2099V94.3437H36.1978V94.0708H37.4605C37.4605 93.9549 37.4373 93.8514 37.3909 93.7605C37.3455 93.6695 37.2804 93.5978 37.1957 93.5451C37.1118 93.4925 37.0129 93.4662 36.8987 93.4662C36.773 93.4662 36.6642 93.4974 36.5724 93.5599C36.4814 93.6214 36.4114 93.7016 36.3624 93.8006C36.3133 93.8996 36.2888 94.0057 36.2888 94.119V94.3009C36.2888 94.456 36.3155 94.5876 36.369 94.6955C36.4234 94.8025 36.4988 94.884 36.5951 94.9402C36.6914 94.9955 36.8033 95.0232 36.9308 95.0232C37.0138 95.0232 37.0887 95.0116 37.1555 94.9884C37.2233 94.9643 37.2817 94.9286 37.3308 94.8814C37.3798 94.8332 37.4177 94.7735 37.4444 94.7021L37.7494 94.7877C37.7173 94.8912 37.6634 94.9821 37.5876 95.0606C37.5118 95.1382 37.4181 95.1988 37.3067 95.2425C37.1952 95.2853 37.0699 95.3067 36.9308 95.3067ZM38.4419 93.2094L38.9342 94.0494L39.4264 93.2094H39.7902L39.1268 94.2367L39.7902 95.2639H39.4264L38.9342 94.4667L38.4419 95.2639H38.0781L38.7309 94.2367L38.0781 93.2094H38.4419ZM40.8452 95.3121C40.715 95.3121 40.5969 95.2875 40.4908 95.2385C40.3846 95.1886 40.3004 95.1168 40.238 95.0232C40.1755 94.9286 40.1443 94.8145 40.1443 94.6807C40.1443 94.563 40.1675 94.4676 40.2139 94.3945C40.2602 94.3205 40.3222 94.2625 40.3998 94.2206C40.4774 94.1787 40.563 94.1475 40.6566 94.127C40.7511 94.1056 40.8461 94.0886 40.9415 94.0762C41.0664 94.0601 41.1676 94.0481 41.2451 94.04C41.3236 94.0311 41.3807 94.0164 41.4164 93.9959C41.4529 93.9754 41.4712 93.9397 41.4712 93.8889V93.8782C41.4712 93.7462 41.4351 93.6437 41.3628 93.5706C41.2915 93.4974 41.1832 93.4609 41.0378 93.4609C40.8871 93.4609 40.769 93.4939 40.6834 93.5599C40.5978 93.6258 40.5376 93.6963 40.5028 93.7712L40.2032 93.6642C40.2567 93.5393 40.328 93.4422 40.4172 93.3726C40.5073 93.3022 40.6053 93.2531 40.7115 93.2255C40.8185 93.1969 40.9237 93.1827 41.0271 93.1827C41.0931 93.1827 41.1689 93.1907 41.2545 93.2067C41.341 93.2219 41.4244 93.2536 41.5046 93.3017C41.5858 93.3499 41.6531 93.4225 41.7066 93.5197C41.7601 93.6169 41.7869 93.7471 41.7869 93.9103V95.2639H41.4712V94.9857H41.4551C41.4337 95.0303 41.3981 95.078 41.3481 95.1288C41.2982 95.1796 41.2318 95.2229 41.1488 95.2586C41.0659 95.2942 40.9647 95.3121 40.8452 95.3121ZM40.8934 95.0285C41.0182 95.0285 41.1234 95.004 41.209 94.9549C41.2955 94.9059 41.3606 94.8426 41.4043 94.765C41.4489 94.6874 41.4712 94.6058 41.4712 94.5202V94.2313C41.4578 94.2474 41.4284 94.2621 41.3829 94.2755C41.3383 94.2879 41.2866 94.2991 41.2278 94.3089C41.1698 94.3178 41.1132 94.3258 41.0579 94.333C41.0035 94.3392 40.9594 94.3446 40.9255 94.349C40.8434 94.3597 40.7667 94.3771 40.6954 94.4012C40.625 94.4244 40.5679 94.4596 40.5242 94.5069C40.4814 94.5532 40.46 94.6165 40.46 94.6968C40.46 94.8065 40.5006 94.8894 40.5817 94.9456C40.6637 95.0009 40.7676 95.0285 40.8934 95.0285ZM42.363 95.2639V93.2094H42.668V93.5304H42.6947C42.7375 93.4207 42.8066 93.3356 42.9021 93.275C42.9975 93.2134 43.1121 93.1827 43.2458 93.1827C43.3813 93.1827 43.4941 93.2134 43.5842 93.275C43.6752 93.3356 43.7461 93.4207 43.7969 93.5304H43.8183C43.8709 93.4243 43.9498 93.3401 44.055 93.2776C44.1603 93.2143 44.2864 93.1827 44.4336 93.1827C44.6173 93.1827 44.7675 93.2402 44.8843 93.3552C45.0011 93.4693 45.0595 93.6472 45.0595 93.8889V95.2639H44.7439V93.8889C44.7439 93.7373 44.7024 93.629 44.6195 93.5639C44.5366 93.4988 44.4389 93.4662 44.3266 93.4662C44.1821 93.4662 44.0702 93.5099 43.9908 93.5973C43.9115 93.6838 43.8718 93.7935 43.8718 93.9263V95.2639H43.5508V93.8568C43.5508 93.74 43.5129 93.6459 43.4371 93.5746C43.3613 93.5023 43.2636 93.4662 43.1442 93.4662C43.0621 93.4662 42.9854 93.4881 42.9141 93.5318C42.8436 93.5755 42.7866 93.6361 42.7429 93.7137C42.7001 93.7904 42.6787 93.8791 42.6787 93.9799V95.2639H42.363ZM45.6367 96.0344V93.2094H45.9417V93.5358H45.9791C46.0023 93.5001 46.0344 93.4546 46.0754 93.3993C46.1173 93.3432 46.1771 93.2932 46.2547 93.2495C46.3331 93.205 46.4392 93.1827 46.573 93.1827C46.746 93.1827 46.8985 93.2259 47.0305 93.3124C47.1624 93.3989 47.2654 93.5215 47.3394 93.6802C47.4134 93.839 47.4504 94.0262 47.4504 94.242C47.4504 94.4596 47.4134 94.6482 47.3394 94.8078C47.2654 94.9665 47.1629 95.0896 47.0318 95.177C46.9007 95.2635 46.7496 95.3067 46.5784 95.3067C46.4464 95.3067 46.3407 95.2849 46.2614 95.2412C46.182 95.1966 46.1209 95.1462 46.0781 95.09C46.0353 95.033 46.0023 94.9857 45.9791 94.9483H45.9524V96.0344H45.6367ZM45.947 94.2367C45.947 94.3918 45.9698 94.5287 46.0152 94.6473C46.0607 94.765 46.1271 94.8573 46.2145 94.9242C46.3019 94.9902 46.4089 95.0232 46.5356 95.0232C46.6675 95.0232 46.7777 94.9884 46.8659 94.9188C46.9551 94.8484 47.022 94.7539 47.0666 94.6353C47.112 94.5158 47.1348 94.3829 47.1348 94.2367C47.1348 94.0922 47.1125 93.962 47.0679 93.8461C47.0242 93.7293 46.9578 93.637 46.8686 93.5692C46.7803 93.5006 46.6693 93.4662 46.5356 93.4662C46.4071 93.4662 46.2992 93.4988 46.2119 93.5639C46.1245 93.6281 46.0585 93.7181 46.0139 93.8341C45.9693 93.9491 45.947 94.0833 45.947 94.2367ZM48.2476 92.5246V95.2639H47.932V92.5246H48.2476ZM49.6872 95.3067C49.4892 95.3067 49.3185 95.263 49.1749 95.1756C49.0322 95.0874 48.9221 94.9643 48.8445 94.8065C48.7678 94.6477 48.7295 94.4632 48.7295 94.2527C48.7295 94.0423 48.7678 93.8568 48.8445 93.6963C48.9221 93.5349 49.03 93.4092 49.1682 93.3191C49.3073 93.2281 49.4696 93.1827 49.6551 93.1827C49.7621 93.1827 49.8678 93.2005 49.9721 93.2362C50.0764 93.2718 50.1714 93.3298 50.257 93.41C50.3426 93.4894 50.4108 93.5946 50.4616 93.7257C50.5125 93.8568 50.5379 94.0182 50.5379 94.2099V94.3437H48.9542V94.0708H50.2169C50.2169 93.9549 50.1937 93.8514 50.1473 93.7605C50.1018 93.6695 50.0367 93.5978 49.952 93.5451C49.8682 93.4925 49.7692 93.4662 49.6551 93.4662C49.5294 93.4662 49.4206 93.4974 49.3287 93.5599C49.2378 93.6214 49.1678 93.7016 49.1187 93.8006C49.0697 93.8996 49.0452 94.0057 49.0452 94.119V94.3009C49.0452 94.456 49.0719 94.5876 49.1254 94.6955C49.1798 94.8025 49.2552 94.884 49.3515 94.9402C49.4478 94.9955 49.5597 95.0232 49.6872 95.0232C49.7701 95.0232 49.845 95.0116 49.9119 94.9884C49.9797 94.9643 50.0381 94.9286 50.0871 94.8814C50.1362 94.8332 50.1741 94.7735 50.2008 94.7021L50.5058 94.7877C50.4737 94.8912 50.4197 94.9821 50.3439 95.0606C50.2681 95.1382 50.1745 95.1988 50.063 95.2425C49.9516 95.2853 49.8263 95.3067 49.6872 95.3067ZM52.5964 95.9862C52.3235 95.9862 52.0823 95.9487 51.8728 95.8738C51.6632 95.7998 51.4871 95.6906 51.3444 95.5461C51.2018 95.4017 51.0939 95.2247 51.0207 95.0151C50.9476 94.8056 50.9111 94.5657 50.9111 94.2955C50.9111 94.0342 50.9481 93.8006 51.0221 93.5946C51.097 93.3886 51.2053 93.2139 51.3471 93.0703C51.4898 92.9259 51.6628 92.8157 51.8661 92.7399C52.0703 92.6641 52.3012 92.6262 52.5589 92.6262C52.8095 92.6262 53.0289 92.6673 53.217 92.7493C53.4061 92.8304 53.5639 92.9406 53.6905 93.0797C53.818 93.2179 53.9135 93.3735 53.9768 93.5465C54.041 93.7195 54.0731 93.8978 54.0731 94.0815C54.0731 94.2108 54.0668 94.3419 54.0543 94.4748C54.0419 94.6076 54.0156 94.7298 53.9754 94.8412C53.9353 94.9518 53.8733 95.041 53.7895 95.1088C53.7066 95.1765 53.5942 95.2104 53.4524 95.2104C53.39 95.2104 53.3214 95.2006 53.2465 95.181C53.1716 95.1614 53.1051 95.1288 53.0472 95.0833C52.9892 95.0379 52.9549 94.9768 52.9442 94.9001H52.9281C52.9067 94.9518 52.8737 95.0009 52.8291 95.0472C52.7854 95.0936 52.7279 95.1306 52.6566 95.1582C52.5861 95.1859 52.5001 95.1979 52.3984 95.1944C52.2825 95.1899 52.1804 95.164 52.0921 95.1168C52.0039 95.0686 51.9298 95.0035 51.8701 94.9215C51.8112 94.8386 51.7667 94.7427 51.7363 94.6339C51.7069 94.5242 51.6922 94.4061 51.6922 94.2795C51.6922 94.1591 51.71 94.049 51.7457 93.9491C51.7814 93.8492 51.8309 93.7618 51.8942 93.6869C51.9584 93.612 52.0333 93.5523 52.1189 93.5077C52.2054 93.4622 52.2986 93.4341 52.3984 93.4234C52.4876 93.4145 52.5688 93.4185 52.6419 93.4355C52.715 93.4515 52.7752 93.476 52.8224 93.509C52.8697 93.5411 52.8996 93.5768 52.9121 93.616H52.9281V93.4662H53.2117V94.6754C53.2117 94.7503 53.2326 94.8163 53.2745 94.8733C53.3165 94.9304 53.3775 94.959 53.4578 94.959C53.5487 94.959 53.6183 94.9277 53.6665 94.8653C53.7155 94.8029 53.7489 94.7066 53.7668 94.5764C53.7855 94.4462 53.7949 94.2795 53.7949 94.0762C53.7949 93.9567 53.7784 93.839 53.7454 93.723C53.7133 93.6062 53.6642 93.497 53.5982 93.3953C53.5331 93.2937 53.4507 93.2041 53.3508 93.1265C53.2509 93.0489 53.1337 92.9883 52.999 92.9446C52.8652 92.9 52.7132 92.8777 52.5429 92.8777C52.3333 92.8777 52.1456 92.9102 51.9798 92.9753C51.8148 93.0395 51.6744 93.1336 51.5584 93.2576C51.4434 93.3806 51.3556 93.5304 51.2949 93.707C51.2352 93.8827 51.2053 94.0824 51.2053 94.3062C51.2053 94.5336 51.2352 94.7356 51.2949 94.9121C51.3556 95.0887 51.4448 95.2376 51.5625 95.3589C51.6811 95.4802 51.8277 95.572 52.0025 95.6344C52.1773 95.6977 52.3788 95.7294 52.6071 95.7294C52.7052 95.7294 52.8019 95.72 52.8974 95.7013C52.9928 95.6826 53.077 95.6621 53.1502 95.6398C53.2233 95.6175 53.2759 95.601 53.308 95.5903L53.3829 95.8364C53.3276 95.8596 53.2554 95.8828 53.1662 95.9059C53.0779 95.9291 52.9834 95.9483 52.8826 95.9635C52.7828 95.9786 52.6874 95.9862 52.5964 95.9862ZM52.4412 94.9215C52.5607 94.9215 52.6575 94.8974 52.7315 94.8493C52.8055 94.8011 52.8595 94.7284 52.8933 94.6312C52.9272 94.5341 52.9442 94.4114 52.9442 94.2634C52.9442 94.1136 52.9254 93.9968 52.888 93.913C52.8505 93.8292 52.7952 93.7703 52.7221 93.7364C52.649 93.7025 52.5589 93.6856 52.4519 93.6856C52.3503 93.6856 52.2633 93.7123 52.1911 93.7658C52.1198 93.8185 52.0649 93.8889 52.0266 93.9772C51.9891 94.0646 51.9704 94.16 51.9704 94.2634C51.9704 94.3776 51.9856 94.485 52.0159 94.5858C52.0462 94.6856 52.0957 94.7668 52.1644 94.8292C52.233 94.8907 52.3253 94.9215 52.4412 94.9215ZM55.3749 96.0772C55.2224 96.0772 55.0913 96.0575 54.9816 96.0183C54.8719 95.98 54.7805 95.9291 54.7074 95.8658C54.6352 95.8034 54.5777 95.7365 54.5349 95.6652L54.7863 95.4886C54.8149 95.5261 54.851 95.5689 54.8947 95.617C54.9384 95.6661 54.9981 95.7084 55.0739 95.7441C55.1506 95.7807 55.2509 95.7989 55.3749 95.7989C55.5407 95.7989 55.6776 95.7588 55.7855 95.6786C55.8934 95.5983 55.9473 95.4726 55.9473 95.3014V94.884H55.9206C55.8974 94.9215 55.8644 94.9679 55.8216 95.0232C55.7797 95.0775 55.7191 95.1261 55.6397 95.1689C55.5612 95.2109 55.4551 95.2318 55.3214 95.2318C55.1555 95.2318 55.0066 95.1926 54.8746 95.1141C54.7435 95.0356 54.6396 94.9215 54.563 94.7717C54.4872 94.6219 54.4493 94.44 54.4493 94.226C54.4493 94.0155 54.4863 93.8323 54.5603 93.6762C54.6343 93.5193 54.7373 93.398 54.8693 93.3124C55.0012 93.2259 55.1537 93.1827 55.3267 93.1827C55.4605 93.1827 55.5666 93.205 55.645 93.2495C55.7244 93.2932 55.785 93.3432 55.827 93.3993C55.8698 93.4546 55.9028 93.5001 55.9259 93.5358H55.958V93.2094H56.263V95.3228C56.263 95.4993 56.2229 95.6429 56.1426 95.7535C56.0633 95.8649 55.9563 95.9465 55.8216 95.9982C55.6878 96.0509 55.5389 96.0772 55.3749 96.0772ZM55.3642 94.9483C55.4908 94.9483 55.5978 94.9193 55.6852 94.8613C55.7726 94.8033 55.839 94.72 55.8845 94.6112C55.9299 94.5024 55.9527 94.3722 55.9527 94.2206C55.9527 94.0726 55.9304 93.942 55.8858 93.8287C55.8412 93.7155 55.7752 93.6267 55.6878 93.5625C55.6005 93.4983 55.4926 93.4662 55.3642 93.4662C55.2304 93.4662 55.1189 93.5001 55.0298 93.5679C54.9415 93.6357 54.8751 93.7266 54.8305 93.8407C54.7868 93.9549 54.7649 94.0815 54.7649 94.2206C54.7649 94.3633 54.7872 94.4895 54.8318 94.5991C54.8773 94.7079 54.9442 94.7935 55.0324 94.856C55.1216 94.9175 55.2322 94.9483 55.3642 94.9483ZM56.8408 95.2639V93.2094H57.1458V93.5304H57.1725C57.2153 93.4207 57.2845 93.3356 57.3799 93.275C57.4753 93.2134 57.5899 93.1827 57.7236 93.1827C57.8592 93.1827 57.972 93.2134 58.062 93.275C58.153 93.3356 58.2239 93.4207 58.2747 93.5304H58.2961C58.3487 93.4243 58.4276 93.3401 58.5329 93.2776C58.6381 93.2143 58.7643 93.1827 58.9114 93.1827C59.0951 93.1827 59.2453 93.2402 59.3621 93.3552C59.479 93.4693 59.5374 93.6472 59.5374 93.8889V95.2639H59.2217V93.8889C59.2217 93.7373 59.1802 93.629 59.0973 93.5639C59.0144 93.4988 58.9167 93.4662 58.8044 93.4662C58.6599 93.4662 58.548 93.5099 58.4686 93.5973C58.3893 93.6838 58.3496 93.7935 58.3496 93.9263V95.2639H58.0286V93.8568C58.0286 93.74 57.9907 93.6459 57.9149 93.5746C57.8391 93.5023 57.7415 93.4662 57.622 93.4662C57.5399 93.4662 57.4632 93.4881 57.3919 93.5318C57.3215 93.5755 57.2644 93.6361 57.2207 93.7137C57.1779 93.7904 57.1565 93.8791 57.1565 93.9799V95.2639H56.8408ZM60.7191 95.3121C60.5889 95.3121 60.4708 95.2875 60.3646 95.2385C60.2585 95.1886 60.1743 95.1168 60.1118 95.0232C60.0494 94.9286 60.0182 94.8145 60.0182 94.6807C60.0182 94.563 60.0414 94.4676 60.0878 94.3945C60.1341 94.3205 60.1961 94.2625 60.2737 94.2206C60.3513 94.1787 60.4369 94.1475 60.5305 94.127C60.625 94.1056 60.72 94.0886 60.8154 94.0762C60.9402 94.0601 61.0415 94.0481 61.119 94.04C61.1975 94.0311 61.2546 94.0164 61.2902 93.9959C61.3268 93.9754 61.3451 93.9397 61.3451 93.8889V93.8782C61.3451 93.7462 61.309 93.6437 61.2367 93.5706C61.1654 93.4974 61.0571 93.4609 60.9117 93.4609C60.761 93.4609 60.6429 93.4939 60.5573 93.5599C60.4717 93.6258 60.4115 93.6963 60.3767 93.7712L60.0771 93.6642C60.1306 93.5393 60.2019 93.4422 60.2911 93.3726C60.3811 93.3022 60.4792 93.2531 60.5853 93.2255C60.6924 93.1969 60.7976 93.1827 60.901 93.1827C60.967 93.1827 61.0428 93.1907 61.1284 93.2067C61.2149 93.2219 61.2983 93.2536 61.3785 93.3017C61.4597 93.3499 61.527 93.4225 61.5805 93.5197C61.634 93.6169 61.6607 93.7471 61.6607 93.9103V95.2639H61.3451V94.9857H61.329C61.3076 95.0303 61.272 95.078 61.222 95.1288C61.1721 95.1796 61.1057 95.2229 61.0227 95.2586C60.9398 95.2942 60.8386 95.3121 60.7191 95.3121ZM60.7673 95.0285C60.8921 95.0285 60.9973 95.004 61.0829 94.9549C61.1694 94.9059 61.2345 94.8426 61.2782 94.765C61.3228 94.6874 61.3451 94.6058 61.3451 94.5202V94.2313C61.3317 94.2474 61.3023 94.2621 61.2568 94.2755C61.2122 94.2879 61.1605 94.2991 61.1016 94.3089C61.0437 94.3178 60.9871 94.3258 60.9318 94.333C60.8774 94.3392 60.8332 94.3446 60.7994 94.349C60.7173 94.3597 60.6406 94.3771 60.5693 94.4012C60.4989 94.4244 60.4418 94.4596 60.3981 94.5069C60.3553 94.5532 60.3339 94.6165 60.3339 94.6968C60.3339 94.8065 60.3745 94.8894 60.4556 94.9456C60.5376 95.0009 60.6415 95.0285 60.7673 95.0285ZM62.2369 95.2639V93.2094H62.5526V95.2639H62.2369ZM62.3974 92.867C62.3359 92.867 62.2828 92.846 62.2382 92.8041C62.1945 92.7622 62.1727 92.7118 62.1727 92.653C62.1727 92.5941 62.1945 92.5438 62.2382 92.5018C62.2828 92.4599 62.3359 92.439 62.3974 92.439C62.4589 92.439 62.5116 92.4599 62.5552 92.5018C62.5998 92.5438 62.6221 92.5941 62.6221 92.653C62.6221 92.7118 62.5998 92.7622 62.5552 92.8041C62.5116 92.846 62.4589 92.867 62.3974 92.867ZM63.4464 92.5246V95.2639H63.1307V92.5246H63.4464ZM64.2546 95.2853C64.1886 95.2853 64.132 95.2617 64.0848 95.2144C64.0375 95.1672 64.0139 95.1105 64.0139 95.0446C64.0139 94.9786 64.0375 94.9219 64.0848 94.8747C64.132 94.8274 64.1886 94.8038 64.2546 94.8038C64.3206 94.8038 64.3772 94.8274 64.4245 94.8747C64.4718 94.9219 64.4954 94.9786 64.4954 95.0446C64.4954 95.0882 64.4842 95.1284 64.4619 95.1649C64.4405 95.2015 64.4116 95.2309 64.375 95.2532C64.3393 95.2746 64.2992 95.2853 64.2546 95.2853ZM65.8965 95.3067C65.7039 95.3067 65.538 95.2612 65.3989 95.1703C65.2598 95.0793 65.1528 94.954 65.0779 94.7944C65.003 94.6348 64.9655 94.4525 64.9655 94.2474C64.9655 94.0387 65.0039 93.8546 65.0806 93.695C65.1581 93.5344 65.266 93.4092 65.4043 93.3191C65.5434 93.2281 65.7057 93.1827 65.8911 93.1827C66.0356 93.1827 66.1658 93.2094 66.2817 93.2629C66.3976 93.3164 66.4926 93.3913 66.5666 93.4876C66.6406 93.5839 66.6865 93.6963 66.7044 93.8247H66.3887C66.3646 93.7311 66.3111 93.6481 66.2282 93.5759C66.1462 93.5028 66.0356 93.4662 65.8965 93.4662C65.7734 93.4662 65.6655 93.4983 65.5728 93.5625C65.4809 93.6258 65.4092 93.7155 65.3574 93.8314C65.3066 93.9464 65.2812 94.0815 65.2812 94.2367C65.2812 94.3954 65.3062 94.5336 65.3561 94.6513C65.4069 94.769 65.4783 94.8604 65.5701 94.9255C65.6629 94.9906 65.7716 95.0232 65.8965 95.0232C65.9785 95.0232 66.053 95.0089 66.1199 94.9804C66.1867 94.9518 66.2434 94.9108 66.2897 94.8573C66.3361 94.8038 66.3691 94.7396 66.3887 94.6647H66.7044C66.6865 94.786 66.6424 94.8952 66.572 94.9924C66.5024 95.0887 66.4101 95.1654 66.2951 95.2225C66.1809 95.2786 66.0481 95.3067 65.8965 95.3067ZM68.0005 95.3067C67.815 95.3067 67.6523 95.2626 67.5123 95.1743C67.3732 95.086 67.2644 94.9625 67.1859 94.8038C67.1083 94.6451 67.0695 94.4596 67.0695 94.2474C67.0695 94.0334 67.1083 93.8465 67.1859 93.6869C67.2644 93.5273 67.3732 93.4034 67.5123 93.3151C67.6523 93.2268 67.815 93.1827 68.0005 93.1827C68.186 93.1827 68.3482 93.2268 68.4874 93.3151C68.6274 93.4034 68.7361 93.5273 68.8137 93.6869C68.8922 93.8465 68.9314 94.0334 68.9314 94.2474C68.9314 94.4596 68.8922 94.6451 68.8137 94.8038C68.7361 94.9625 68.6274 95.086 68.4874 95.1743C68.3482 95.2626 68.186 95.3067 68.0005 95.3067ZM68.0005 95.0232C68.1414 95.0232 68.2573 94.987 68.3482 94.9148C68.4392 94.8426 68.5065 94.7476 68.5502 94.6299C68.5939 94.5122 68.6158 94.3847 68.6158 94.2474C68.6158 94.11 68.5939 93.9821 68.5502 93.8635C68.5065 93.7449 68.4392 93.649 68.3482 93.5759C68.2573 93.5028 68.1414 93.4662 68.0005 93.4662C67.8596 93.4662 67.7437 93.5028 67.6527 93.5759C67.5618 93.649 67.4944 93.7449 67.4507 93.8635C67.407 93.9821 67.3852 94.11 67.3852 94.2474C67.3852 94.3847 67.407 94.5122 67.4507 94.6299C67.4944 94.7476 67.5618 94.8426 67.6527 94.9148C67.7437 94.987 67.8596 95.0232 68.0005 95.0232ZM69.4133 95.2639V93.2094H69.7182V93.5304H69.745C69.7878 93.4207 69.8569 93.3356 69.9523 93.275C70.0477 93.2134 70.1623 93.1827 70.2961 93.1827C70.4316 93.1827 70.5444 93.2134 70.6345 93.275C70.7254 93.3356 70.7963 93.4207 70.8472 93.5304H70.8686C70.9212 93.4243 71.0001 93.3401 71.1053 93.2776C71.2105 93.2143 71.3367 93.1827 71.4838 93.1827C71.6675 93.1827 71.8178 93.2402 71.9346 93.3552C72.0514 93.4693 72.1098 93.6472 72.1098 93.8889V95.2639H71.7941V93.8889C71.7941 93.7373 71.7527 93.629 71.6698 93.5639C71.5868 93.4988 71.4892 93.4662 71.3768 93.4662C71.2324 93.4662 71.1205 93.5099 71.0411 93.5973C70.9617 93.6838 70.9221 93.7935 70.9221 93.9263V95.2639H70.601V93.8568C70.601 93.74 70.5631 93.6459 70.4873 93.5746C70.4116 93.5023 70.3139 93.4662 70.1944 93.4662C70.1124 93.4662 70.0357 93.4881 69.9644 93.5318C69.8939 93.5755 69.8368 93.6361 69.7931 93.7137C69.7503 93.7904 69.7289 93.8791 69.7289 93.9799V95.2639H69.4133Z" fill="#14191F"/>
<path d="M87.9967 76.0573V75.6413H90.1823V76.0573H89.3356V78.3806H88.8434V76.0573H87.9967ZM92.704 77.0109C92.704 77.3061 92.6487 77.5589 92.5382 77.7693C92.4285 77.9789 92.2787 78.1394 92.0887 78.2509C91.8997 78.3623 91.6852 78.4181 91.4454 78.4181C91.2055 78.4181 90.9906 78.3623 90.8007 78.2509C90.6116 78.1385 90.4618 77.9776 90.3512 77.768C90.2416 77.5576 90.1867 77.3052 90.1867 77.0109C90.1867 76.7158 90.2416 76.4634 90.3512 76.2539C90.4618 76.0434 90.6116 75.8825 90.8007 75.771C90.9906 75.6596 91.2055 75.6038 91.4454 75.6038C91.6852 75.6038 91.8997 75.6596 92.0887 75.771C92.2787 75.8825 92.4285 76.0434 92.5382 76.2539C92.6487 76.4634 92.704 76.7158 92.704 77.0109ZM92.2051 77.0109C92.2051 76.8032 92.1726 76.628 92.1075 76.4853C92.0433 76.3417 91.9541 76.2334 91.8399 76.1603C91.7258 76.0862 91.5943 76.0492 91.4454 76.0492C91.2964 76.0492 91.1649 76.0862 91.0508 76.1603C90.9366 76.2334 90.847 76.3417 90.7819 76.4853C90.7177 76.628 90.6856 76.8032 90.6856 77.0109C90.6856 77.2187 90.7177 77.3944 90.7819 77.5379C90.847 77.6806 90.9366 77.789 91.0508 77.863C91.1649 77.9361 91.2964 77.9727 91.4454 77.9727C91.5943 77.9727 91.7258 77.9361 91.8399 77.863C91.9541 77.789 92.0433 77.6806 92.1075 77.5379C92.1726 77.3944 92.2051 77.2187 92.2051 77.0109Z" fill="#FFA800"/>
<path d="M87.9299 81.5829H88.4903L89.1604 82.7948H89.1872L89.8573 81.5829H90.4177L89.4212 83.3004V84.3223H88.9263V83.3004L87.9299 81.5829ZM90.3559 81.5829H90.9164L91.5865 82.7948H91.6132L92.2833 81.5829H92.8438L91.8473 83.3004V84.3223H91.3524V83.3004L90.3559 81.5829ZM92.782 81.5829H93.3424L94.0125 82.7948H94.0393L94.7094 81.5829H95.2699L94.2734 83.3004V84.3223H93.7785V83.3004L92.782 81.5829ZM95.208 81.5829H95.7685L96.4386 82.7948H96.4654L97.1355 81.5829H97.6959L96.6994 83.3004V84.3223H96.2045V83.3004L95.208 81.5829ZM98.8687 82.7533V83.1519H97.6354V82.7533H98.8687ZM98.8095 81.5829H99.37L100.04 82.7948H100.067L100.737 81.5829H101.297L100.301 83.3004V84.3223H99.806V83.3004L98.8095 81.5829ZM101.236 81.5829H101.796L102.466 82.7948H102.493L103.163 81.5829H103.723L102.727 83.3004V84.3223H102.232V83.3004L101.236 81.5829ZM103.662 81.5829H104.222L104.892 82.7948H104.919L105.589 81.5829H106.15L105.153 83.3004V84.3223H104.658V83.3004L103.662 81.5829ZM106.088 81.5829H106.648L107.318 82.7948H107.345L108.015 81.5829H108.576L107.579 83.3004V84.3223H107.084V83.3004L106.088 81.5829Z" fill="#14191F"/>
<path d="M88.1786 90.2639V87.5246H88.5104V89.9697H89.7837V90.2639H88.1786ZM90.8591 90.3121C90.7289 90.3121 90.6108 90.2875 90.5047 90.2385C90.3986 90.1886 90.3143 90.1168 90.2519 90.0232C90.1894 89.9286 90.1582 89.8145 90.1582 89.6807C90.1582 89.563 90.1814 89.4676 90.2278 89.3945C90.2742 89.3205 90.3361 89.2625 90.4137 89.2206C90.4913 89.1787 90.5769 89.1475 90.6705 89.127C90.765 89.1056 90.86 89.0886 90.9554 89.0762C91.0803 89.0601 91.1815 89.0481 91.2591 89.04C91.3375 89.0311 91.3946 89.0164 91.4303 88.9959C91.4668 88.9754 91.4851 88.9397 91.4851 88.8889V88.8782C91.4851 88.7462 91.449 88.6437 91.3768 88.5706C91.3054 88.4974 91.1971 88.4609 91.0517 88.4609C90.901 88.4609 90.7829 88.4939 90.6973 88.5599C90.6117 88.6258 90.5515 88.6963 90.5167 88.7712L90.2171 88.6642C90.2706 88.5393 90.3419 88.4422 90.4311 88.3726C90.5212 88.3022 90.6193 88.2531 90.7254 88.2255C90.8324 88.1969 90.9376 88.1827 91.041 88.1827C91.107 88.1827 91.1828 88.1907 91.2684 88.2067C91.3549 88.2219 91.4383 88.2536 91.5185 88.3017C91.5997 88.3499 91.667 88.4225 91.7205 88.5197C91.774 88.6169 91.8008 88.7471 91.8008 88.9103V90.2639H91.4851V89.9857H91.4691C91.4477 90.0303 91.412 90.078 91.362 90.1288C91.3121 90.1796 91.2457 90.2229 91.1628 90.2586C91.0798 90.2942 90.9786 90.3121 90.8591 90.3121ZM90.9073 90.0285C91.0321 90.0285 91.1373 90.004 91.2229 89.9549C91.3094 89.9059 91.3745 89.8426 91.4182 89.765C91.4628 89.6874 91.4851 89.6058 91.4851 89.5202V89.2313C91.4717 89.2474 91.4423 89.2621 91.3968 89.2755C91.3522 89.2879 91.3005 89.2991 91.2417 89.3089C91.1837 89.3178 91.1271 89.3258 91.0718 89.333C91.0174 89.3392 90.9733 89.3446 90.9394 89.349C90.8573 89.3597 90.7807 89.3771 90.7093 89.4012C90.6389 89.4244 90.5818 89.4596 90.5381 89.5069C90.4953 89.5532 90.4739 89.6165 90.4739 89.6968C90.4739 89.8065 90.5145 89.8894 90.5956 89.9456C90.6777 90.0009 90.7815 90.0285 90.9073 90.0285ZM93.2062 91.0772C93.0537 91.0772 92.9227 91.0575 92.813 91.0183C92.7033 90.98 92.6119 90.9291 92.5388 90.8658C92.4665 90.8034 92.409 90.7365 92.3662 90.6652L92.6177 90.4886C92.6462 90.5261 92.6823 90.5689 92.726 90.617C92.7697 90.6661 92.8295 90.7084 92.9053 90.7441C92.982 90.7807 93.0823 90.7989 93.2062 90.7989C93.3721 90.7989 93.509 90.7588 93.6168 90.6786C93.7247 90.5983 93.7787 90.4726 93.7787 90.3014V89.884H93.7519C93.7288 89.9215 93.6958 89.9679 93.653 90.0232C93.6111 90.0775 93.5504 90.1261 93.4711 90.1689C93.3926 90.2109 93.2865 90.2318 93.1527 90.2318C92.9869 90.2318 92.8379 90.1926 92.706 90.1141C92.5749 90.0356 92.471 89.9215 92.3943 89.7717C92.3185 89.6219 92.2806 89.44 92.2806 89.226C92.2806 89.0155 92.3176 88.8323 92.3916 88.6762C92.4657 88.5193 92.5686 88.398 92.7006 88.3124C92.8326 88.2259 92.9851 88.1827 93.1581 88.1827C93.2918 88.1827 93.3979 88.205 93.4764 88.2495C93.5558 88.2932 93.6164 88.3432 93.6583 88.3993C93.7011 88.4546 93.7341 88.5001 93.7573 88.5358H93.7894V88.2094H94.0944V90.3228C94.0944 90.4993 94.0542 90.6429 93.974 90.7535C93.8946 90.8649 93.7876 90.9465 93.653 90.9982C93.5192 91.0509 93.3703 91.0772 93.2062 91.0772ZM93.1955 89.9483C93.3221 89.9483 93.4291 89.9193 93.5165 89.8613C93.6039 89.8033 93.6704 89.72 93.7158 89.6112C93.7613 89.5024 93.784 89.3722 93.784 89.2206C93.784 89.0726 93.7618 88.942 93.7172 88.8287C93.6726 88.7155 93.6066 88.6267 93.5192 88.5625C93.4318 88.4983 93.3239 88.4662 93.1955 88.4662C93.0618 88.4662 92.9503 88.5001 92.8611 88.5679C92.7728 88.6357 92.7064 88.7266 92.6618 88.8407C92.6181 88.9549 92.5963 89.0815 92.5963 89.2206C92.5963 89.3633 92.6186 89.4895 92.6632 89.5991C92.7086 89.7079 92.7755 89.7935 92.8638 89.856C92.953 89.9175 93.0635 89.9483 93.1955 89.9483ZM95.5068 90.3067C95.3214 90.3067 95.1586 90.2626 95.0186 90.1743C94.8795 90.086 94.7707 89.9625 94.6923 89.8038C94.6147 89.6451 94.5759 89.4596 94.5759 89.2474C94.5759 89.0334 94.6147 88.8465 94.6923 88.6869C94.7707 88.5273 94.8795 88.4034 95.0186 88.3151C95.1586 88.2268 95.3214 88.1827 95.5068 88.1827C95.6923 88.1827 95.8546 88.2268 95.9937 88.3151C96.1337 88.4034 96.2425 88.5273 96.3201 88.6869C96.3985 88.8465 96.4378 89.0334 96.4378 89.2474C96.4378 89.4596 96.3985 89.6451 96.3201 89.8038C96.2425 89.9625 96.1337 90.086 95.9937 90.1743C95.8546 90.2626 95.6923 90.3067 95.5068 90.3067ZM95.5068 90.0232C95.6477 90.0232 95.7636 89.987 95.8546 89.9148C95.9456 89.8426 96.0129 89.7476 96.0566 89.6299C96.1003 89.5122 96.1221 89.3847 96.1221 89.2474C96.1221 89.11 96.1003 88.9821 96.0566 88.8635C96.0129 88.7449 95.9456 88.649 95.8546 88.5759C95.7636 88.5028 95.6477 88.4662 95.5068 88.4662C95.3659 88.4662 95.25 88.5028 95.1591 88.5759C95.0681 88.649 95.0008 88.7449 94.9571 88.8635C94.9134 88.9821 94.8915 89.11 94.8915 89.2474C94.8915 89.3847 94.9134 89.5122 94.9571 89.6299C95.0008 89.7476 95.0681 89.8426 95.1591 89.9148C95.25 89.987 95.3659 90.0232 95.5068 90.0232ZM98.3749 88.6695L98.0913 88.7498C98.0735 88.7025 98.0472 88.6566 98.0124 88.612C97.9785 88.5665 97.9322 88.5291 97.8733 88.4997C97.8145 88.4702 97.7391 88.4555 97.6473 88.4555C97.5215 88.4555 97.4168 88.4845 97.3329 88.5425C97.25 88.5995 97.2085 88.6722 97.2085 88.7605C97.2085 88.839 97.2371 88.9009 97.2942 88.9464C97.3512 88.9919 97.4404 89.0298 97.5617 89.0601L97.8666 89.135C98.0503 89.1796 98.1872 89.2478 98.2773 89.3397C98.3673 89.4306 98.4124 89.5479 98.4124 89.6914C98.4124 89.8091 98.3785 89.9144 98.3107 90.0071C98.2438 90.0998 98.1502 90.173 98.0298 90.2265C97.9094 90.28 97.7694 90.3067 97.6098 90.3067C97.4003 90.3067 97.2268 90.2612 97.0895 90.1703C96.9522 90.0793 96.8652 89.9465 96.8287 89.7717L97.1283 89.6968C97.1568 89.8074 97.2108 89.8903 97.2901 89.9456C97.3704 90.0009 97.4752 90.0285 97.6045 90.0285C97.7516 90.0285 97.8684 89.9973 97.9549 89.9349C98.0423 89.8716 98.086 89.7958 98.086 89.7075C98.086 89.6362 98.061 89.5764 98.0111 89.5283C97.9612 89.4792 97.8845 89.4427 97.781 89.4186L97.4386 89.3383C97.2505 89.2937 97.1122 89.2246 97.024 89.131C96.9366 89.0365 96.8929 88.9183 96.8929 88.7765C96.8929 88.6606 96.9254 88.5581 96.9905 88.4689C97.0565 88.3797 97.1461 88.3097 97.2594 88.2589C97.3735 88.2081 97.5028 88.1827 97.6473 88.1827C97.8506 88.1827 98.0102 88.2272 98.1261 88.3164C98.2429 88.4056 98.3259 88.5233 98.3749 88.6695ZM101.488 88.2094C101.472 88.0739 101.407 87.9687 101.292 87.8937C101.178 87.8188 101.038 87.7814 100.872 87.7814C100.751 87.7814 100.645 87.801 100.554 87.8402C100.464 87.8795 100.394 87.9334 100.343 88.0021C100.293 88.0708 100.268 88.1488 100.268 88.2362C100.268 88.3093 100.285 88.3722 100.32 88.4248C100.356 88.4765 100.401 88.5197 100.456 88.5545C100.512 88.5884 100.57 88.6165 100.63 88.6388C100.691 88.6602 100.747 88.6776 100.798 88.6909L101.076 88.7658C101.147 88.7846 101.226 88.8104 101.314 88.8434C101.402 88.8764 101.486 88.9214 101.567 88.9785C101.648 89.0347 101.715 89.1069 101.767 89.1952C101.82 89.2835 101.846 89.3918 101.846 89.5202C101.846 89.6683 101.807 89.802 101.73 89.9215C101.653 90.041 101.541 90.136 101.393 90.2064C101.246 90.2768 101.067 90.3121 100.856 90.3121C100.66 90.3121 100.49 90.2804 100.347 90.2171C100.204 90.1538 100.092 90.0655 100.01 89.9523C99.9286 89.839 99.8827 89.7075 99.872 89.5577H100.214C100.223 89.6611 100.258 89.7467 100.319 89.8145C100.38 89.8814 100.458 89.9313 100.551 89.9643C100.646 89.9964 100.748 90.0125 100.856 90.0125C100.983 90.0125 101.097 89.9919 101.198 89.9509C101.298 89.909 101.378 89.8511 101.437 89.777C101.496 89.7021 101.525 89.6148 101.525 89.5149C101.525 89.4239 101.5 89.3499 101.449 89.2928C101.398 89.2358 101.331 89.1894 101.248 89.1537C101.165 89.1181 101.076 89.0869 100.979 89.0601L100.642 88.9638C100.428 88.9023 100.259 88.8144 100.134 88.7003C100.009 88.5862 99.9469 88.4368 99.9469 88.2522C99.9469 88.0988 99.9883 87.9651 100.071 87.8509C100.155 87.7359 100.267 87.6467 100.408 87.5834C100.55 87.5192 100.708 87.4871 100.883 87.4871C101.06 87.4871 101.217 87.5188 101.354 87.5821C101.491 87.6445 101.6 87.7301 101.68 87.8389C101.762 87.9477 101.804 88.0712 101.809 88.2094H101.488ZM103.242 88.2094V88.4769H102.178V88.2094H103.242ZM102.488 87.7172H102.804V89.6754C102.804 89.7646 102.817 89.8314 102.842 89.876C102.869 89.9197 102.903 89.9491 102.944 89.9643C102.986 89.9786 103.03 89.9857 103.076 89.9857C103.111 89.9857 103.14 89.9839 103.162 89.9804C103.184 89.9759 103.202 89.9723 103.216 89.9697L103.28 90.2532C103.258 90.2612 103.228 90.2693 103.19 90.2773C103.152 90.2862 103.103 90.2907 103.044 90.2907C102.955 90.2907 102.868 90.2715 102.782 90.2332C102.697 90.1948 102.627 90.1364 102.571 90.0579C102.516 89.9795 102.488 89.8805 102.488 89.761V87.7172ZM104.322 90.3121C104.192 90.3121 104.073 90.2875 103.967 90.2385C103.861 90.1886 103.777 90.1168 103.714 90.0232C103.652 89.9286 103.621 89.8145 103.621 89.6807C103.621 89.563 103.644 89.4676 103.69 89.3945C103.737 89.3205 103.799 89.2625 103.876 89.2206C103.954 89.1787 104.039 89.1475 104.133 89.127C104.228 89.1056 104.323 89.0886 104.418 89.0762C104.543 89.0601 104.644 89.0481 104.722 89.04C104.8 89.0311 104.857 89.0164 104.893 88.9959C104.929 88.9754 104.948 88.9397 104.948 88.8889V88.8782C104.948 88.7462 104.912 88.6437 104.839 88.5706C104.768 88.4974 104.66 88.4609 104.514 88.4609C104.364 88.4609 104.245 88.4939 104.16 88.5599C104.074 88.6258 104.014 88.6963 103.979 88.7712L103.68 88.6642C103.733 88.5393 103.805 88.4422 103.894 88.3726C103.984 88.3022 104.082 88.2531 104.188 88.2255C104.295 88.1969 104.4 88.1827 104.504 88.1827C104.57 88.1827 104.645 88.1907 104.731 88.2067C104.818 88.2219 104.901 88.2536 104.981 88.3017C105.062 88.3499 105.13 88.4225 105.183 88.5197C105.237 88.6169 105.263 88.7471 105.263 88.9103V90.2639H104.948V89.9857H104.932C104.91 90.0303 104.875 90.078 104.825 90.1288C104.775 90.1796 104.708 90.2229 104.625 90.2586C104.542 90.2942 104.441 90.3121 104.322 90.3121ZM104.37 90.0285C104.495 90.0285 104.6 90.004 104.686 89.9549C104.772 89.9059 104.837 89.8426 104.881 89.765C104.925 89.6874 104.948 89.6058 104.948 89.5202V89.2313C104.934 89.2474 104.905 89.2621 104.859 89.2755C104.815 89.2879 104.763 89.2991 104.704 89.3089C104.646 89.3178 104.59 89.3258 104.534 89.333C104.48 89.3392 104.436 89.3446 104.402 89.349C104.32 89.3597 104.243 89.3771 104.172 89.4012C104.101 89.4244 104.044 89.4596 104.001 89.5069C103.958 89.5532 103.937 89.6165 103.937 89.6968C103.937 89.8065 103.977 89.8894 104.058 89.9456C104.14 90.0009 104.244 90.0285 104.37 90.0285ZM106.733 88.2094V88.4769H105.668V88.2094H106.733ZM105.979 87.7172H106.294V89.6754C106.294 89.7646 106.307 89.8314 106.333 89.876C106.36 89.9197 106.394 89.9491 106.435 89.9643C106.477 89.9786 106.521 89.9857 106.567 89.9857C106.602 89.9857 106.63 89.9839 106.653 89.9804C106.675 89.9759 106.693 89.9723 106.706 89.9697L106.77 90.2532C106.749 90.2612 106.719 90.2693 106.681 90.2773C106.643 90.2862 106.594 90.2907 106.535 90.2907C106.446 90.2907 106.359 90.2715 106.273 90.2332C106.188 90.1948 106.118 90.1364 106.062 90.0579C106.006 89.9795 105.979 89.8805 105.979 89.761V87.7172ZM108.047 90.3067C107.849 90.3067 107.678 90.263 107.535 90.1756C107.392 90.0874 107.282 89.9643 107.205 89.8065C107.128 89.6477 107.089 89.4632 107.089 89.2527C107.089 89.0423 107.128 88.8568 107.205 88.6963C107.282 88.5349 107.39 88.4092 107.528 88.3191C107.667 88.2281 107.83 88.1827 108.015 88.1827C108.122 88.1827 108.228 88.2005 108.332 88.2362C108.436 88.2718 108.531 88.3298 108.617 88.41C108.703 88.4894 108.771 88.5946 108.822 88.7257C108.872 88.8568 108.898 89.0182 108.898 89.2099V89.3437H107.314V89.0708H108.577C108.577 88.9549 108.554 88.8514 108.507 88.7605C108.462 88.6695 108.397 88.5978 108.312 88.5451C108.228 88.4925 108.129 88.4662 108.015 88.4662C107.889 88.4662 107.781 88.4974 107.689 88.5599C107.598 88.6214 107.528 88.7016 107.479 88.8006C107.43 88.8996 107.405 89.0057 107.405 89.119V89.3009C107.405 89.456 107.432 89.5876 107.485 89.6955C107.54 89.8025 107.615 89.884 107.711 89.9402C107.808 89.9955 107.92 90.0232 108.047 90.0232C108.13 90.0232 108.205 90.0116 108.272 89.9884C108.34 89.9643 108.398 89.9286 108.447 89.8814C108.496 89.8332 108.534 89.7735 108.561 89.7021L108.866 89.7877C108.834 89.8912 108.78 89.9821 108.704 90.0606C108.628 90.1382 108.535 90.1988 108.423 90.2425C108.312 90.2853 108.186 90.3067 108.047 90.3067ZM109.849 89.8894L109.827 90.0339C109.812 90.1355 109.789 90.2443 109.758 90.3602C109.728 90.4761 109.696 90.5854 109.663 90.6879C109.63 90.7905 109.603 90.8721 109.581 90.9327H109.341C109.352 90.8756 109.367 90.8003 109.386 90.7067C109.405 90.613 109.424 90.5082 109.442 90.3923C109.462 90.2773 109.478 90.1596 109.49 90.0392L109.506 89.8894H109.849ZM113.708 87.5246V90.2639H113.387L111.894 88.1131H111.868V90.2639H111.536V87.5246H111.857L113.355 89.6807H113.382V87.5246H113.708ZM114.329 90.2639V88.2094H114.645V90.2639H114.329ZM114.49 87.867C114.428 87.867 114.375 87.846 114.33 87.8041C114.287 87.7622 114.265 87.7118 114.265 87.653C114.265 87.5941 114.287 87.5438 114.33 87.5018C114.375 87.4599 114.428 87.439 114.49 87.439C114.551 87.439 114.604 87.4599 114.647 87.5018C114.692 87.5438 114.714 87.5941 114.714 87.653C114.714 87.7118 114.692 87.7622 114.647 87.8041C114.604 87.846 114.551 87.867 114.49 87.867ZM116.052 91.0772C115.9 91.0772 115.769 91.0575 115.659 91.0183C115.549 90.98 115.458 90.9291 115.385 90.8658C115.313 90.8034 115.255 90.7365 115.212 90.6652L115.464 90.4886C115.492 90.5261 115.528 90.5689 115.572 90.617C115.616 90.6661 115.675 90.7084 115.751 90.7441C115.828 90.7807 115.928 90.7989 116.052 90.7989C116.218 90.7989 116.355 90.7588 116.463 90.6786C116.571 90.5983 116.625 90.4726 116.625 90.3014V89.884H116.598C116.575 89.9215 116.542 89.9679 116.499 90.0232C116.457 90.0775 116.396 90.1261 116.317 90.1689C116.239 90.2109 116.132 90.2318 115.999 90.2318C115.833 90.2318 115.684 90.1926 115.552 90.1141C115.421 90.0356 115.317 89.9215 115.24 89.7717C115.164 89.6219 115.127 89.44 115.127 89.226C115.127 89.0155 115.164 88.8323 115.238 88.6762C115.312 88.5193 115.415 88.398 115.547 88.3124C115.679 88.2259 115.831 88.1827 116.004 88.1827C116.138 88.1827 116.244 88.205 116.322 88.2495C116.402 88.2932 116.462 88.3432 116.504 88.3993C116.547 88.4546 116.58 88.5001 116.603 88.5358H116.635V88.2094H116.94V90.3228C116.94 90.4993 116.9 90.6429 116.82 90.7535C116.741 90.8649 116.634 90.9465 116.499 90.9982C116.365 91.0509 116.216 91.0772 116.052 91.0772ZM116.041 89.9483C116.168 89.9483 116.275 89.9193 116.362 89.8613C116.45 89.8033 116.516 89.72 116.562 89.6112C116.607 89.5024 116.63 89.3722 116.63 89.2206C116.63 89.0726 116.608 88.942 116.563 88.8287C116.519 88.7155 116.453 88.6267 116.365 88.5625C116.278 88.4983 116.17 88.4662 116.041 88.4662C115.908 88.4662 115.796 88.5001 115.707 88.5679C115.619 88.6357 115.552 88.7266 115.508 88.8407C115.464 88.9549 115.442 89.0815 115.442 89.2206C115.442 89.3633 115.465 89.4895 115.509 89.5991C115.555 89.7079 115.621 89.7935 115.71 89.856C115.799 89.9175 115.91 89.9483 116.041 89.9483ZM118.38 90.3067C118.182 90.3067 118.011 90.263 117.867 90.1756C117.725 90.0874 117.614 89.9643 117.537 89.8065C117.46 89.6477 117.422 89.4632 117.422 89.2527C117.422 89.0423 117.46 88.8568 117.537 88.6963C117.614 88.5349 117.722 88.4092 117.861 88.3191C118 88.2281 118.162 88.1827 118.347 88.1827C118.454 88.1827 118.56 88.2005 118.664 88.2362C118.769 88.2718 118.864 88.3298 118.949 88.41C119.035 88.4894 119.103 88.5946 119.154 88.7257C119.205 88.8568 119.23 89.0182 119.23 89.2099V89.3437H117.647V89.0708H118.909C118.909 88.9549 118.886 88.8514 118.84 88.7605C118.794 88.6695 118.729 88.5978 118.644 88.5451C118.561 88.4925 118.462 88.4662 118.347 88.4662C118.222 88.4662 118.113 88.4974 118.021 88.5599C117.93 88.6214 117.86 88.7016 117.811 88.8006C117.762 88.8996 117.738 89.0057 117.738 89.119V89.3009C117.738 89.456 117.764 89.5876 117.818 89.6955C117.872 89.8025 117.948 89.884 118.044 89.9402C118.14 89.9955 118.252 90.0232 118.38 90.0232C118.462 90.0232 118.537 90.0116 118.604 89.9884C118.672 89.9643 118.73 89.9286 118.779 89.8814C118.829 89.8332 118.866 89.7735 118.893 89.7021L119.198 89.7877C119.166 89.8912 119.112 89.9821 119.036 90.0606C118.96 90.1382 118.867 90.1988 118.755 90.2425C118.644 90.2853 118.519 90.3067 118.38 90.3067ZM119.71 90.2639V88.2094H120.015V88.5197H120.037C120.074 88.4181 120.142 88.3356 120.24 88.2723C120.338 88.209 120.449 88.1773 120.572 88.1773C120.595 88.1773 120.624 88.1778 120.659 88.1787C120.694 88.1795 120.72 88.1809 120.738 88.1827V88.5037C120.727 88.501 120.702 88.497 120.664 88.4916C120.627 88.4854 120.587 88.4823 120.545 88.4823C120.445 88.4823 120.356 88.5032 120.278 88.5451C120.2 88.5862 120.138 88.6432 120.093 88.7164C120.048 88.7886 120.026 88.8711 120.026 88.9638V90.2639H119.71ZM121.112 90.2639V88.2094H121.428V90.2639H121.112ZM121.272 87.867C121.211 87.867 121.158 87.846 121.113 87.8041C121.07 87.7622 121.048 87.7118 121.048 87.653C121.048 87.5941 121.07 87.5438 121.113 87.5018C121.158 87.4599 121.211 87.439 121.272 87.439C121.334 87.439 121.387 87.4599 121.43 87.5018C121.475 87.5438 121.497 87.5941 121.497 87.653C121.497 87.7118 121.475 87.7622 121.43 87.8041C121.387 87.846 121.334 87.867 121.272 87.867ZM122.61 90.3121C122.48 90.3121 122.362 90.2875 122.256 90.2385C122.15 90.1886 122.065 90.1168 122.003 90.0232C121.941 89.9286 121.909 89.8145 121.909 89.6807C121.909 89.563 121.933 89.4676 121.979 89.3945C122.025 89.3205 122.087 89.2625 122.165 89.2206C122.242 89.1787 122.328 89.1475 122.422 89.127C122.516 89.1056 122.611 89.0886 122.707 89.0762C122.831 89.0601 122.933 89.0481 123.01 89.04C123.089 89.0311 123.146 89.0164 123.181 88.9959C123.218 88.9754 123.236 88.9397 123.236 88.8889V88.8782C123.236 88.7462 123.2 88.6437 123.128 88.5706C123.057 88.4974 122.948 88.4609 122.803 88.4609C122.652 88.4609 122.534 88.4939 122.448 88.5599C122.363 88.6258 122.303 88.6963 122.268 88.7712L121.968 88.6642C122.022 88.5393 122.093 88.4422 122.182 88.3726C122.272 88.3022 122.37 88.2531 122.477 88.2255C122.584 88.1969 122.689 88.1827 122.792 88.1827C122.858 88.1827 122.934 88.1907 123.02 88.2067C123.106 88.2219 123.189 88.2536 123.27 88.3017C123.351 88.3499 123.418 88.4225 123.472 88.5197C123.525 88.6169 123.552 88.7471 123.552 88.9103V90.2639H123.236V89.9857H123.22C123.199 90.0303 123.163 90.078 123.113 90.1288C123.063 90.1796 122.997 90.2229 122.914 90.2586C122.831 90.2942 122.73 90.3121 122.61 90.3121ZM122.658 90.0285C122.783 90.0285 122.888 90.004 122.974 89.9549C123.061 89.9059 123.126 89.8426 123.169 89.765C123.214 89.6874 123.236 89.6058 123.236 89.5202V89.2313C123.223 89.2474 123.193 89.2621 123.148 89.2755C123.103 89.2879 123.052 89.2991 122.993 89.3089C122.935 89.3178 122.878 89.3258 122.823 89.333C122.769 89.3392 122.724 89.3446 122.691 89.349C122.608 89.3597 122.532 89.3771 122.46 89.4012C122.39 89.4244 122.333 89.4596 122.289 89.5069C122.246 89.5532 122.225 89.6165 122.225 89.6968C122.225 89.8065 122.266 89.8894 122.347 89.9456C122.429 90.0009 122.533 90.0285 122.658 90.0285Z" fill="#14191F"/>
<path d="M180.864 54.3688H180.019V51.6294H180.902C181.167 51.6294 181.395 51.6843 181.584 51.794C181.773 51.9027 181.918 52.0592 182.019 52.2634C182.119 52.4668 182.17 52.7102 182.17 52.9938C182.17 53.2791 182.119 53.5248 182.017 53.7308C181.916 53.9358 181.768 54.0937 181.573 54.2043C181.379 54.3139 181.143 54.3688 180.864 54.3688ZM180.351 54.0745H180.843C181.069 54.0745 181.257 54.0308 181.406 53.9434C181.555 53.856 181.666 53.7316 181.739 53.5702C181.812 53.4088 181.849 53.2167 181.849 52.9938C181.849 52.7726 181.813 52.5822 181.74 52.4226C181.668 52.2621 181.56 52.1391 181.417 52.0534C181.273 51.967 181.094 51.9237 180.88 51.9237H180.351V54.0745ZM183.288 54.4169C183.158 54.4169 183.04 54.3924 182.934 54.3434C182.827 54.2934 182.743 54.2216 182.681 54.128C182.618 54.0335 182.587 53.9194 182.587 53.7856C182.587 53.6679 182.61 53.5725 182.657 53.4994C182.703 53.4253 182.765 53.3674 182.843 53.3255C182.92 53.2836 183.006 53.2524 183.099 53.2318C183.194 53.2104 183.289 53.1935 183.384 53.181C183.509 53.165 183.61 53.1529 183.688 53.1449C183.766 53.136 183.823 53.1213 183.859 53.1008C183.896 53.0803 183.914 53.0446 183.914 52.9938V52.9831C183.914 52.8511 183.878 52.7485 183.806 52.6754C183.734 52.6023 183.626 52.5657 183.481 52.5657C183.33 52.5657 183.212 52.5987 183.126 52.6647C183.041 52.7307 182.98 52.8011 182.946 52.8761L182.646 52.769C182.699 52.6442 182.771 52.547 182.86 52.4775C182.95 52.407 183.048 52.358 183.154 52.3303C183.261 52.3018 183.366 52.2875 183.47 52.2875C183.536 52.2875 183.612 52.2955 183.697 52.3116C183.784 52.3268 183.867 52.3584 183.947 52.4066C184.029 52.4547 184.096 52.5274 184.149 52.6246C184.203 52.7218 184.23 52.852 184.23 53.0152V54.3688H183.914V54.0906H183.898C183.877 54.1351 183.841 54.1829 183.791 54.2337C183.741 54.2845 183.675 54.3278 183.592 54.3634C183.509 54.3991 183.407 54.4169 183.288 54.4169ZM183.336 54.1334C183.461 54.1334 183.566 54.1088 183.652 54.0598C183.738 54.0108 183.803 53.9474 183.847 53.8699C183.892 53.7923 183.914 53.7107 183.914 53.6251V53.3362C183.901 53.3522 183.871 53.3669 183.826 53.3803C183.781 53.3928 183.729 53.4039 183.671 53.4138C183.613 53.4227 183.556 53.4307 183.501 53.4378C183.446 53.4441 183.402 53.4494 183.368 53.4539C183.286 53.4646 183.21 53.482 183.138 53.506C183.068 53.5292 183.011 53.5645 182.967 53.6117C182.924 53.6581 182.903 53.7214 182.903 53.8016C182.903 53.9113 182.943 53.9943 183.024 54.0504C183.107 54.1057 183.21 54.1334 183.336 54.1334ZM185.699 52.3143V52.5818H184.635V52.3143H185.699ZM184.945 51.822H185.261V53.7802C185.261 53.8694 185.273 53.9363 185.299 53.9809C185.326 54.0246 185.36 54.054 185.401 54.0692C185.443 54.0834 185.487 54.0906 185.533 54.0906C185.568 54.0906 185.597 54.0888 185.619 54.0852C185.641 54.0808 185.659 54.0772 185.673 54.0745L185.737 54.3581C185.715 54.3661 185.685 54.3741 185.647 54.3822C185.609 54.3911 185.56 54.3955 185.501 54.3955C185.412 54.3955 185.325 54.3764 185.239 54.338C185.154 54.2997 185.084 54.2413 185.028 54.1628C184.973 54.0843 184.945 53.9853 184.945 53.8658V51.822ZM187.013 54.4116C186.815 54.4116 186.645 54.3679 186.501 54.2805C186.358 54.1922 186.248 54.0692 186.171 53.9113C186.094 53.7526 186.056 53.568 186.056 53.3576C186.056 53.1471 186.094 52.9617 186.171 52.8011C186.248 52.6397 186.356 52.514 186.494 52.424C186.634 52.333 186.796 52.2875 186.981 52.2875C187.088 52.2875 187.194 52.3054 187.298 52.341C187.403 52.3767 187.498 52.4347 187.583 52.5149C187.669 52.5943 187.737 52.6995 187.788 52.8306C187.839 52.9617 187.864 53.1231 187.864 53.3148V53.4485H186.28V53.1757H187.543C187.543 53.0597 187.52 52.9563 187.474 52.8654C187.428 52.7744 187.363 52.7026 187.278 52.65C187.194 52.5974 187.095 52.5711 186.981 52.5711C186.856 52.5711 186.747 52.6023 186.655 52.6647C186.564 52.7262 186.494 52.8065 186.445 52.9055C186.396 53.0045 186.371 53.1106 186.371 53.2238V53.4057C186.371 53.5609 186.398 53.6924 186.452 53.8003C186.506 53.9073 186.581 53.9889 186.678 54.0451C186.774 54.1004 186.886 54.128 187.013 54.128C187.096 54.128 187.171 54.1164 187.238 54.0932C187.306 54.0692 187.364 54.0335 187.413 53.9862C187.462 53.9381 187.5 53.8783 187.527 53.807L187.832 53.8926C187.8 53.996 187.746 54.087 187.67 54.1655C187.594 54.243 187.501 54.3037 187.389 54.3474C187.278 54.3902 187.153 54.4116 187.013 54.4116ZM189.404 54.3688V52.3143H189.719V54.3688H189.404ZM189.564 51.9719C189.503 51.9719 189.45 51.9509 189.405 51.909C189.361 51.8671 189.339 51.8167 189.339 51.7578C189.339 51.699 189.361 51.6486 189.405 51.6067C189.45 51.5648 189.503 51.5438 189.564 51.5438C189.626 51.5438 189.678 51.5648 189.722 51.6067C189.767 51.6486 189.789 51.699 189.789 51.7578C189.789 51.8167 189.767 51.8671 189.722 51.909C189.678 51.9509 189.626 51.9719 189.564 51.9719ZM191.753 52.7744L191.469 52.8546C191.451 52.8074 191.425 52.7615 191.39 52.7169C191.356 52.6714 191.31 52.634 191.251 52.6045C191.192 52.5751 191.117 52.5604 191.025 52.5604C190.899 52.5604 190.795 52.5894 190.711 52.6473C190.628 52.7044 190.586 52.7771 190.586 52.8654C190.586 52.9438 190.615 53.0058 190.672 53.0513C190.729 53.0967 190.818 53.1346 190.94 53.165L191.244 53.2399C191.428 53.2845 191.565 53.3527 191.655 53.4445C191.745 53.5355 191.79 53.6527 191.79 53.7963C191.79 53.914 191.756 54.0192 191.689 54.112C191.622 54.2047 191.528 54.2778 191.408 54.3313C191.287 54.3848 191.147 54.4116 190.988 54.4116C190.778 54.4116 190.605 54.3661 190.467 54.2751C190.33 54.1842 190.243 54.0513 190.207 53.8766L190.506 53.8016C190.535 53.9122 190.589 53.9951 190.668 54.0504C190.748 54.1057 190.853 54.1334 190.982 54.1334C191.129 54.1334 191.246 54.1022 191.333 54.0397C191.42 53.9764 191.464 53.9006 191.464 53.8123C191.464 53.741 191.439 53.6813 191.389 53.6331C191.339 53.5841 191.262 53.5475 191.159 53.5234L190.816 53.4432C190.628 53.3986 190.49 53.3295 190.402 53.2359C190.314 53.1413 190.271 53.0232 190.271 52.8814C190.271 52.7655 190.303 52.6629 190.368 52.5738C190.434 52.4846 190.524 52.4146 190.637 52.3638C190.751 52.3129 190.881 52.2875 191.025 52.2875C191.228 52.2875 191.388 52.3321 191.504 52.4213C191.621 52.5104 191.704 52.6282 191.753 52.7744ZM193.721 52.7744L193.437 52.8546C193.419 52.8074 193.393 52.7615 193.358 52.7169C193.324 52.6714 193.278 52.634 193.219 52.6045C193.16 52.5751 193.085 52.5604 192.993 52.5604C192.867 52.5604 192.763 52.5894 192.679 52.6473C192.596 52.7044 192.554 52.7771 192.554 52.8654C192.554 52.9438 192.583 53.0058 192.64 53.0513C192.697 53.0967 192.786 53.1346 192.907 53.165L193.212 53.2399C193.396 53.2845 193.533 53.3527 193.623 53.4445C193.713 53.5355 193.758 53.6527 193.758 53.7963C193.758 53.914 193.724 54.0192 193.656 54.112C193.59 54.2047 193.496 54.2778 193.376 54.3313C193.255 54.3848 193.115 54.4116 192.956 54.4116C192.746 54.4116 192.573 54.3661 192.435 54.2751C192.298 54.1842 192.211 54.0513 192.174 53.8766L192.474 53.8016C192.503 53.9122 192.557 53.9951 192.636 54.0504C192.716 54.1057 192.821 54.1334 192.95 54.1334C193.097 54.1334 193.214 54.1022 193.301 54.0397C193.388 53.9764 193.432 53.9006 193.432 53.8123C193.432 53.741 193.407 53.6813 193.357 53.6331C193.307 53.5841 193.23 53.5475 193.127 53.5234L192.784 53.4432C192.596 53.3986 192.458 53.3295 192.37 53.2359C192.282 53.1413 192.239 53.0232 192.239 52.8814C192.239 52.7655 192.271 52.6629 192.336 52.5738C192.402 52.4846 192.492 52.4146 192.605 52.3638C192.719 52.3129 192.849 52.2875 192.993 52.2875C193.196 52.2875 193.356 52.3321 193.472 52.4213C193.589 52.5104 193.672 52.6282 193.721 52.7744ZM195.528 53.5288V52.3143H195.844V54.3688H195.528V54.021H195.507C195.458 54.1253 195.384 54.2141 195.282 54.2872C195.18 54.3594 195.052 54.3955 194.897 54.3955C194.768 54.3955 194.654 54.3674 194.554 54.3113C194.454 54.2542 194.376 54.1686 194.319 54.0544C194.262 53.9394 194.233 53.7945 194.233 53.6197V52.3143H194.549V53.5983C194.549 53.7481 194.591 53.8676 194.675 53.9568C194.759 54.046 194.867 54.0906 194.998 54.0906C195.077 54.0906 195.157 54.0705 195.238 54.0304C195.32 53.9902 195.388 53.9287 195.444 53.8458C195.5 53.7629 195.528 53.6572 195.528 53.5288ZM197.283 54.4116C197.085 54.4116 196.915 54.3679 196.771 54.2805C196.628 54.1922 196.518 54.0692 196.441 53.9113C196.364 53.7526 196.326 53.568 196.326 53.3576C196.326 53.1471 196.364 52.9617 196.441 52.8011C196.518 52.6397 196.626 52.514 196.764 52.424C196.903 52.333 197.066 52.2875 197.251 52.2875C197.358 52.2875 197.464 52.3054 197.568 52.341C197.673 52.3767 197.767 52.4347 197.853 52.5149C197.939 52.5943 198.007 52.6995 198.058 52.8306C198.109 52.9617 198.134 53.1231 198.134 53.3148V53.4485H196.55V53.1757H197.813C197.813 53.0597 197.79 52.9563 197.743 52.8654C197.698 52.7744 197.633 52.7026 197.548 52.65C197.464 52.5974 197.365 52.5711 197.251 52.5711C197.125 52.5711 197.017 52.6023 196.925 52.6647C196.834 52.7262 196.764 52.8065 196.715 52.9055C196.666 53.0045 196.641 53.1106 196.641 53.2238V53.4057C196.641 53.5609 196.668 53.6924 196.721 53.8003C196.776 53.9073 196.851 53.9889 196.948 54.0451C197.044 54.1004 197.156 54.128 197.283 54.128C197.366 54.128 197.441 54.1164 197.508 54.0932C197.576 54.0692 197.634 54.0335 197.683 53.9862C197.732 53.9381 197.77 53.8783 197.797 53.807L198.102 53.8926C198.07 53.996 198.016 54.087 197.94 54.1655C197.864 54.243 197.771 54.3037 197.659 54.3474C197.548 54.3902 197.422 54.4116 197.283 54.4116ZM199.39 54.4116C199.219 54.4116 199.068 54.3683 198.937 54.2818C198.805 54.1944 198.703 54.0714 198.629 53.9127C198.555 53.753 198.518 53.5645 198.518 53.3469C198.518 53.1311 198.555 52.9438 198.629 52.7851C198.703 52.6264 198.806 52.5038 198.938 52.4173C199.07 52.3308 199.222 52.2875 199.395 52.2875C199.529 52.2875 199.635 52.3098 199.712 52.3544C199.791 52.3981 199.851 52.448 199.892 52.5042C199.933 52.5595 199.966 52.605 199.989 52.6406H200.016V51.6294H200.332V54.3688H200.027V54.0531H199.989C199.966 54.0906 199.933 54.1378 199.89 54.1949C199.847 54.2511 199.786 54.3015 199.707 54.346C199.628 54.3897 199.522 54.4116 199.39 54.4116ZM199.433 54.128C199.559 54.128 199.666 54.095 199.754 54.029C199.841 53.9622 199.908 53.8699 199.953 53.7522C199.999 53.6336 200.021 53.4967 200.021 53.3415C200.021 53.1881 199.999 53.0539 199.954 52.9389C199.91 52.823 199.844 52.7329 199.756 52.6687C199.669 52.6036 199.561 52.5711 199.433 52.5711C199.299 52.5711 199.188 52.6054 199.098 52.6741C199.01 52.7418 198.944 52.8341 198.899 52.951C198.855 53.0669 198.834 53.1971 198.834 53.3415C198.834 53.4878 198.856 53.6206 198.9 53.7401C198.946 53.8587 199.013 53.9532 199.101 54.0237C199.19 54.0932 199.301 54.128 199.433 54.128ZM201.184 54.3902C201.118 54.3902 201.061 54.3665 201.014 54.3193C200.966 54.272 200.943 54.2154 200.943 54.1494C200.943 54.0834 200.966 54.0268 201.014 53.9795C201.061 53.9323 201.118 53.9087 201.184 53.9087C201.25 53.9087 201.306 53.9323 201.353 53.9795C201.401 54.0268 201.424 54.0834 201.424 54.1494C201.424 54.1931 201.413 54.2332 201.391 54.2698C201.37 54.3064 201.341 54.3358 201.304 54.3581C201.268 54.3795 201.228 54.3902 201.184 54.3902ZM201.184 52.8654C201.118 52.8654 201.061 52.8417 201.014 52.7945C200.966 52.7472 200.943 52.6906 200.943 52.6246C200.943 52.5586 200.966 52.502 201.014 52.4547C201.061 52.4075 201.118 52.3838 201.184 52.3838C201.25 52.3838 201.306 52.4075 201.353 52.4547C201.401 52.502 201.424 52.5586 201.424 52.6246C201.424 52.6683 201.413 52.7084 201.391 52.745C201.37 52.7815 201.341 52.811 201.304 52.8332C201.268 52.8546 201.228 52.8654 201.184 52.8654Z" fill="#14191F"/>
<path d="M177.971 60.3104V60.0697L178.875 59.0799C178.981 58.9639 179.069 58.8632 179.137 58.7776C179.206 58.6911 179.257 58.6099 179.29 58.5341C179.324 58.4574 179.34 58.3772 179.34 58.2934C179.34 58.1971 179.317 58.1137 179.271 58.0433C179.225 57.9728 179.163 57.9184 179.084 57.8801C179.004 57.8417 178.915 57.8226 178.816 57.8226C178.711 57.8226 178.619 57.8444 178.541 57.8881C178.463 57.9309 178.403 57.9911 178.36 58.0687C178.318 58.1462 178.297 58.2372 178.297 58.3415H177.982C177.982 58.181 178.019 58.0401 178.093 57.9189C178.167 57.7976 178.267 57.7031 178.395 57.6353C178.523 57.5675 178.667 57.5336 178.827 57.5336C178.987 57.5336 179.13 57.5675 179.254 57.6353C179.377 57.7031 179.475 57.7945 179.545 57.9095C179.616 58.0245 179.651 58.1525 179.651 58.2934C179.651 58.3941 179.633 58.4927 179.596 58.589C179.56 58.6844 179.498 58.7909 179.409 58.9087C179.32 59.0255 179.198 59.1681 179.041 59.3367L178.426 59.9948V60.0162H179.699V60.3104H177.971ZM181.177 60.3479C181 60.3479 180.843 60.3176 180.705 60.2569C180.567 60.1963 180.458 60.112 180.377 60.0041C180.297 59.8953 180.253 59.7692 180.246 59.6256H180.583C180.59 59.7139 180.621 59.7901 180.674 59.8543C180.728 59.9176 180.798 59.9667 180.884 60.0014C180.971 60.0362 181.066 60.0536 181.172 60.0536C181.289 60.0536 181.394 60.0331 181.485 59.9921C181.576 59.9511 181.647 59.894 181.699 59.8209C181.75 59.7478 181.776 59.663 181.776 59.5667C181.776 59.466 181.751 59.3772 181.701 59.3006C181.651 59.223 181.578 59.1623 181.482 59.1187C181.386 59.075 181.268 59.0531 181.129 59.0531H180.909V58.7588H181.129C181.238 58.7588 181.333 58.7392 181.415 58.7C181.498 58.6608 181.563 58.6055 181.609 58.5341C181.656 58.4628 181.68 58.379 181.68 58.2827C181.68 58.1899 181.659 58.1092 181.618 58.0406C181.577 57.9719 181.519 57.9184 181.444 57.8801C181.37 57.8417 181.283 57.8226 181.182 57.8226C181.088 57.8226 180.999 57.8399 180.915 57.8747C180.832 57.9086 180.764 57.9581 180.711 58.0232C180.659 58.0874 180.63 58.165 180.626 58.2559H180.305C180.31 58.1124 180.353 57.9866 180.435 57.8787C180.516 57.7699 180.622 57.6852 180.753 57.6246C180.885 57.564 181.03 57.5336 181.188 57.5336C181.357 57.5336 181.502 57.568 181.624 57.6366C181.745 57.7044 181.838 57.794 181.903 57.9055C181.968 58.0169 182.001 58.1373 182.001 58.2666C182.001 58.4209 181.96 58.5524 181.879 58.6612C181.799 58.77 181.69 58.8453 181.551 58.8873V58.9087C181.724 58.9372 181.86 59.0108 181.957 59.1294C182.054 59.2471 182.103 59.3929 182.103 59.5667C182.103 59.7157 182.062 59.8494 181.981 59.968C181.901 60.0857 181.791 60.1785 181.652 60.2462C181.513 60.314 181.354 60.3479 181.177 60.3479ZM185.929 57.5711V60.3104H185.608L184.116 58.1596H184.089V60.3104H183.757V57.5711H184.078L185.576 59.7272H185.603V57.5711H185.929ZM187.385 60.3532C187.199 60.3532 187.037 60.3091 186.897 60.2208C186.758 60.1325 186.649 60.009 186.57 59.8503C186.493 59.6916 186.454 59.5061 186.454 59.2939C186.454 59.0799 186.493 58.8931 186.57 58.7334C186.649 58.5738 186.758 58.4499 186.897 58.3616C187.037 58.2733 187.199 58.2292 187.385 58.2292C187.57 58.2292 187.733 58.2733 187.872 58.3616C188.012 58.4499 188.121 58.5738 188.198 58.7334C188.277 58.8931 188.316 59.0799 188.316 59.2939C188.316 59.5061 188.277 59.6916 188.198 59.8503C188.121 60.009 188.012 60.1325 187.872 60.2208C187.733 60.3091 187.57 60.3532 187.385 60.3532ZM187.385 60.0697C187.526 60.0697 187.642 60.0335 187.733 59.9613C187.824 59.8891 187.891 59.7941 187.935 59.6764C187.978 59.5587 188 59.4312 188 59.2939C188 59.1566 187.978 59.0286 187.935 58.91C187.891 58.7914 187.824 58.6955 187.733 58.6224C187.642 58.5493 187.526 58.5127 187.385 58.5127C187.244 58.5127 187.128 58.5493 187.037 58.6224C186.946 58.6955 186.879 58.7914 186.835 58.91C186.792 59.0286 186.77 59.1566 186.77 59.2939C186.77 59.4312 186.792 59.5587 186.835 59.6764C186.879 59.7941 186.946 59.8891 187.037 59.9613C187.128 60.0335 187.244 60.0697 187.385 60.0697ZM190.404 58.2559L189.644 60.3104H189.323L188.564 58.2559H188.906L189.473 59.8931H189.495L190.062 58.2559H190.404ZM191.163 59.9359L191.141 60.0804C191.126 60.182 191.103 60.2908 191.072 60.4067C191.042 60.5227 191.01 60.6319 190.977 60.7344C190.944 60.837 190.917 60.9186 190.895 60.9792H190.655C190.666 60.9221 190.681 60.8468 190.7 60.7532C190.719 60.6595 190.738 60.5548 190.756 60.4388C190.776 60.3238 190.792 60.2061 190.804 60.0857L190.82 59.9359H191.163ZM192.802 60.3104V60.0697L193.706 59.0799C193.812 58.9639 193.899 58.8632 193.968 58.7776C194.037 58.6911 194.088 58.6099 194.121 58.5341C194.154 58.4574 194.171 58.3772 194.171 58.2934C194.171 58.1971 194.148 58.1137 194.102 58.0433C194.056 57.9728 193.994 57.9184 193.915 57.8801C193.835 57.8417 193.746 57.8226 193.647 57.8226C193.542 57.8226 193.45 57.8444 193.372 57.8881C193.294 57.9309 193.234 57.9911 193.191 58.0687C193.149 58.1462 193.128 58.2372 193.128 58.3415H192.812C192.812 58.181 192.849 58.0401 192.923 57.9189C192.997 57.7976 193.098 57.7031 193.226 57.6353C193.354 57.5675 193.498 57.5336 193.658 57.5336C193.818 57.5336 193.961 57.5675 194.084 57.6353C194.208 57.7031 194.306 57.7945 194.376 57.9095C194.447 58.0245 194.482 58.1525 194.482 58.2934C194.482 58.3941 194.463 58.4927 194.427 58.589C194.391 58.6844 194.329 58.7909 194.24 58.9087C194.151 59.0255 194.029 59.1681 193.872 59.3367L193.257 59.9948V60.0162H194.53V60.3104H192.802ZM195.976 60.3479C195.774 60.3479 195.603 60.293 195.461 60.1834C195.319 60.0728 195.211 59.9127 195.136 59.7032C195.061 59.4927 195.023 59.2386 195.023 58.9408C195.023 58.6447 195.061 58.3919 195.136 58.1824C195.212 57.9719 195.32 57.8114 195.462 57.7008C195.605 57.5894 195.776 57.5336 195.976 57.5336C196.176 57.5336 196.346 57.5894 196.488 57.7008C196.631 57.8114 196.74 57.9719 196.814 58.1824C196.89 58.3919 196.928 58.6447 196.928 58.9408C196.928 59.2386 196.891 59.4927 196.816 59.7032C196.741 59.9127 196.633 60.0728 196.491 60.1834C196.349 60.293 196.177 60.3479 195.976 60.3479ZM195.976 60.0536C196.176 60.0536 196.331 59.9573 196.441 59.7647C196.552 59.5721 196.607 59.2974 196.607 58.9408C196.607 58.7036 196.582 58.5016 196.531 58.3348C196.481 58.1681 196.409 58.041 196.314 57.9536C196.221 57.8662 196.108 57.8226 195.976 57.8226C195.778 57.8226 195.623 57.9202 195.512 58.1155C195.4 58.3099 195.344 58.585 195.344 58.9408C195.344 59.178 195.369 59.3795 195.419 59.5453C195.469 59.7112 195.541 59.8374 195.635 59.9239C195.729 60.0104 195.843 60.0536 195.976 60.0536ZM197.436 60.3104V60.0697L198.341 59.0799C198.447 58.9639 198.534 58.8632 198.603 58.7776C198.671 58.6911 198.722 58.6099 198.755 58.5341C198.789 58.4574 198.806 58.3772 198.806 58.2934C198.806 58.1971 198.783 58.1137 198.737 58.0433C198.691 57.9728 198.629 57.9184 198.549 57.8801C198.47 57.8417 198.381 57.8226 198.282 57.8226C198.177 57.8226 198.085 57.8444 198.006 57.8881C197.929 57.9309 197.868 57.9911 197.826 58.0687C197.784 58.1462 197.763 58.2372 197.763 58.3415H197.447C197.447 58.181 197.484 58.0401 197.558 57.9189C197.632 57.7976 197.733 57.7031 197.86 57.6353C197.989 57.5675 198.133 57.5336 198.292 57.5336C198.453 57.5336 198.595 57.5675 198.719 57.6353C198.843 57.7031 198.94 57.7945 199.011 57.9095C199.081 58.0245 199.116 58.1525 199.116 58.2934C199.116 58.3941 199.098 58.4927 199.062 58.589C199.026 58.6844 198.963 58.7909 198.874 58.9087C198.786 59.0255 198.663 59.1681 198.506 59.3367L197.891 59.9948V60.0162H199.165V60.3104H197.436ZM199.717 60.3104V60.0697L200.621 59.0799C200.727 58.9639 200.815 58.8632 200.883 58.7776C200.952 58.6911 201.003 58.6099 201.036 58.5341C201.07 58.4574 201.087 58.3772 201.087 58.2934C201.087 58.1971 201.063 58.1137 201.017 58.0433C200.972 57.9728 200.909 57.9184 200.83 57.8801C200.75 57.8417 200.661 57.8226 200.562 57.8226C200.457 57.8226 200.365 57.8444 200.287 57.8881C200.209 57.9309 200.149 57.9911 200.106 58.0687C200.064 58.1462 200.043 58.2372 200.043 58.3415H199.728C199.728 58.181 199.765 58.0401 199.839 57.9189C199.913 57.7976 200.013 57.7031 200.141 57.6353C200.269 57.5675 200.413 57.5336 200.573 57.5336C200.734 57.5336 200.876 57.5675 201 57.6353C201.124 57.7031 201.221 57.7945 201.291 57.9095C201.362 58.0245 201.397 58.1525 201.397 58.2934C201.397 58.3941 201.379 58.4927 201.342 58.589C201.306 58.6844 201.244 58.7909 201.155 58.9087C201.067 59.0255 200.944 59.1681 200.787 59.3367L200.172 59.9948V60.0162H201.445V60.3104H199.717Z" fill="#14191F"/>
<path d="M175.837 76.0573V75.6413H178.022V76.0573H177.176V78.3806H176.683V76.0573H175.837ZM180.544 77.0109C180.544 77.3061 180.489 77.5589 180.378 77.7693C180.269 77.9789 180.119 78.1394 179.929 78.2509C179.74 78.3623 179.525 78.4181 179.285 78.4181C179.046 78.4181 178.831 78.3623 178.641 78.2509C178.452 78.1385 178.302 77.9776 178.191 77.768C178.082 77.5576 178.027 77.3052 178.027 77.0109C178.027 76.7158 178.082 76.4634 178.191 76.2539C178.302 76.0434 178.452 75.8825 178.641 75.771C178.831 75.6596 179.046 75.6038 179.285 75.6038C179.525 75.6038 179.74 75.6596 179.929 75.771C180.119 75.8825 180.269 76.0434 180.378 76.2539C180.489 76.4634 180.544 76.7158 180.544 77.0109ZM180.045 77.0109C180.045 76.8032 180.013 76.628 179.948 76.4853C179.883 76.3417 179.794 76.2334 179.68 76.1603C179.566 76.0862 179.434 76.0492 179.285 76.0492C179.137 76.0492 179.005 76.0862 178.891 76.1603C178.777 76.2334 178.687 76.3417 178.622 76.4853C178.558 76.628 178.526 76.8032 178.526 77.0109C178.526 77.2187 178.558 77.3944 178.622 77.5379C178.687 77.6806 178.777 77.789 178.891 77.863C179.005 77.9361 179.137 77.9727 179.285 77.9727C179.434 77.9727 179.566 77.9361 179.68 77.863C179.794 77.789 179.883 77.6806 179.948 77.5379C180.013 77.3944 180.045 77.2187 180.045 77.0109ZM180.545 76.0573V75.6413H182.731V76.0573H181.884V78.3806H181.392V76.0573H180.545ZM182.947 78.3806H182.417L183.382 75.6413H183.994L184.96 78.3806H184.431L183.699 76.2031H183.677L182.947 78.3806ZM182.965 77.3065H184.409V77.7051H182.965V77.3065ZM185.095 78.3806V75.6413H185.591V77.9646H186.798V78.3806H185.095ZM190.055 76.5655H189.555C189.541 76.4835 189.515 76.4108 189.476 76.3475C189.438 76.2833 189.39 76.2289 189.333 76.1843C189.276 76.1397 189.211 76.1063 189.138 76.084C189.066 76.0608 188.988 76.0492 188.904 76.0492C188.755 76.0492 188.623 76.0867 188.508 76.1616C188.393 76.2356 188.303 76.3444 188.238 76.488C188.173 76.6306 188.14 76.805 188.14 77.0109C188.14 77.2205 188.173 77.3971 188.238 77.5406C188.304 77.6833 188.394 77.7912 188.508 77.8643C188.623 77.9365 188.754 77.9727 188.902 77.9727C188.985 77.9727 189.061 77.962 189.133 77.9406C189.205 77.9183 189.269 77.8857 189.326 77.8429C189.384 77.8001 189.433 77.7475 189.472 77.6851C189.512 77.6227 189.54 77.5513 189.555 77.4711L190.055 77.4737C190.037 77.6039 189.996 77.7261 189.934 77.8402C189.872 77.9544 189.792 78.0551 189.692 78.1425C189.592 78.229 189.475 78.2968 189.341 78.3458C189.207 78.394 189.059 78.4181 188.896 78.4181C188.655 78.4181 188.44 78.3623 188.251 78.2509C188.062 78.1394 187.913 77.9785 187.804 77.768C187.696 77.5576 187.641 77.3052 187.641 77.0109C187.641 76.7158 187.696 76.4634 187.806 76.2539C187.915 76.0434 188.065 75.8825 188.254 75.771C188.443 75.6596 188.657 75.6038 188.896 75.6038C189.048 75.6038 189.19 75.6252 189.321 75.668C189.452 75.7108 189.569 75.7737 189.672 75.8566C189.774 75.9387 189.858 76.0394 189.924 76.1589C189.991 76.2775 190.035 76.4131 190.055 76.5655ZM190.284 78.3806V75.6413H190.78V76.8009H192.049V75.6413H192.547V78.3806H192.049V77.2169H190.78V78.3806H190.284ZM193.213 78.3806H192.683L193.647 75.6413H194.26L195.226 78.3806H194.696L193.964 76.2031H193.943L193.213 78.3806ZM193.23 77.3065H194.675V77.7051H193.23V77.3065ZM195.36 78.3806V75.6413H196.388C196.598 75.6413 196.775 75.6778 196.917 75.751C197.061 75.8241 197.169 75.9266 197.242 76.0586C197.316 76.1897 197.353 76.3426 197.353 76.5174C197.353 76.6931 197.316 76.8455 197.241 76.9748C197.167 77.1032 197.058 77.2027 196.913 77.2731C196.769 77.3427 196.591 77.3774 196.381 77.3774H195.649V76.9655H196.314C196.437 76.9655 196.538 76.9485 196.616 76.9146C196.695 76.8799 196.753 76.8295 196.79 76.7635C196.829 76.6966 196.848 76.6146 196.848 76.5174C196.848 76.4202 196.829 76.3373 196.79 76.2686C196.752 76.199 196.694 76.1464 196.615 76.1108C196.537 76.0742 196.435 76.0559 196.311 76.0559H195.857V78.3806H195.36ZM196.776 77.1394L197.454 78.3806H196.9L196.234 77.1394H196.776ZM199.419 76.516C199.397 76.4438 199.366 76.3792 199.327 76.3221C199.289 76.2641 199.242 76.2146 199.188 76.1736C199.134 76.1326 199.073 76.1018 199.003 76.0813C198.934 76.0599 198.858 76.0492 198.776 76.0492C198.629 76.0492 198.498 76.0862 198.383 76.1603C198.268 76.2343 198.177 76.3431 198.111 76.4866C198.046 76.6293 198.014 76.8032 198.014 77.0083C198.014 77.2151 198.046 77.3904 198.111 77.5339C198.176 77.6775 198.267 77.7867 198.383 77.8616C198.499 77.9357 198.633 77.9727 198.787 77.9727C198.926 77.9727 199.046 77.9459 199.148 77.8924C199.25 77.8389 199.329 77.7631 199.385 77.665C199.44 77.566 199.467 77.4501 199.467 77.3173L199.58 77.3346H198.836V76.9467H199.948V77.2758C199.948 77.5103 199.898 77.7132 199.798 77.8844C199.698 78.0556 199.561 78.1876 199.386 78.2803C199.211 78.3721 199.01 78.4181 198.784 78.4181C198.532 78.4181 198.31 78.3614 198.119 78.2482C197.929 78.1341 197.781 77.9722 197.674 77.7627C197.568 77.5522 197.515 77.3025 197.515 77.0136C197.515 76.7925 197.546 76.595 197.608 76.4211C197.672 76.2472 197.76 76.0996 197.873 75.9783C197.986 75.8562 198.119 75.7634 198.272 75.7001C198.424 75.6359 198.59 75.6038 198.769 75.6038C198.921 75.6038 199.062 75.6261 199.193 75.6707C199.324 75.7144 199.441 75.7768 199.542 75.858C199.645 75.9391 199.729 76.0354 199.795 76.1469C199.861 76.2583 199.904 76.3814 199.925 76.516H199.419ZM200.202 78.3806V75.6413H201.983V76.0573H200.698V76.8009H201.891V77.2169H200.698V77.9646H201.994V78.3806H200.202Z" fill="#FFA800"/>
<path d="M147.759 82.7602V85.4995H147.438L145.946 83.3487H145.919V85.4995H145.587V82.7602H145.908L147.406 84.9163H147.433V82.7602H147.759ZM150.07 83.6162C150.04 83.5262 150.002 83.4455 149.953 83.3741C149.906 83.3019 149.85 83.2404 149.784 83.1895C149.718 83.1387 149.644 83.0999 149.562 83.0732C149.479 83.0464 149.388 83.033 149.289 83.033C149.126 83.033 148.979 83.075 148.846 83.1588C148.713 83.2426 148.607 83.3661 148.529 83.5293C148.45 83.6925 148.411 83.8926 148.411 84.1298C148.411 84.367 148.451 84.5672 148.53 84.7304C148.61 84.8936 148.717 85.0171 148.853 85.1009C148.988 85.1847 149.141 85.2266 149.31 85.2266C149.467 85.2266 149.605 85.1932 149.725 85.1263C149.845 85.0586 149.939 84.9631 150.006 84.8401C150.073 84.7161 150.107 84.5703 150.107 84.4027L150.209 84.4241H149.385V84.1298H150.428V84.4241C150.428 84.6497 150.38 84.8459 150.284 85.0126C150.188 85.1794 150.056 85.3087 149.888 85.4005C149.72 85.4915 149.528 85.537 149.31 85.537C149.068 85.537 148.854 85.4799 148.671 85.3658C148.488 85.2516 148.345 85.0893 148.243 84.8789C148.141 84.6684 148.09 84.4188 148.09 84.1298C148.09 83.9132 148.119 83.7183 148.177 83.5453C148.236 83.3714 148.319 83.2234 148.426 83.1013C148.533 82.9791 148.66 82.8855 148.806 82.8204C148.952 82.7553 149.113 82.7227 149.289 82.7227C149.433 82.7227 149.568 82.7446 149.693 82.7883C149.818 82.8311 149.93 82.8921 150.028 82.9715C150.127 83.05 150.21 83.1441 150.276 83.2537C150.342 83.3625 150.387 83.4834 150.412 83.6162H150.07ZM152.943 82.7602V85.4995H152.622L151.129 83.3487H151.102V85.4995H150.77V82.7602H151.091L152.589 84.9163H152.616V82.7602H152.943Z" fill="#14191F"/>
<path d="M155.28 88.3223V87.6481L157.365 85.4873C157.588 85.2526 157.772 85.0469 157.916 84.8703C158.063 84.6918 158.172 84.5222 158.244 84.3617C158.316 84.2012 158.353 84.0307 158.353 83.8501C158.353 83.6455 158.304 83.4689 158.208 83.3204C158.112 83.17 157.98 83.0546 157.814 82.9743C157.647 82.8921 157.46 82.851 157.251 82.851C157.03 82.851 156.838 82.8961 156.673 82.9864C156.509 83.0767 156.382 83.2041 156.294 83.3686C156.206 83.5331 156.162 83.7257 156.162 83.9464H155.274C155.274 83.5712 155.36 83.2432 155.533 82.9623C155.705 82.6814 155.942 82.4637 156.243 82.3092C156.544 82.1527 156.886 82.0745 157.269 82.0745C157.656 82.0745 157.997 82.1517 158.292 82.3062C158.589 82.4587 158.821 82.6674 158.988 82.9322C159.154 83.195 159.237 83.492 159.237 83.823C159.237 84.0518 159.194 84.2755 159.108 84.4942C159.024 84.7128 158.876 84.9566 158.666 85.2255C158.455 85.4923 158.162 85.8163 157.787 86.1975L156.562 87.4796V87.5247H159.337V88.3223H155.28ZM161.321 87.4796L161.276 87.8076C161.246 88.0484 161.195 88.2992 161.122 88.56C161.052 88.8228 160.979 89.0666 160.903 89.2913C160.829 89.516 160.767 89.6946 160.719 89.827H160.081C160.107 89.7026 160.143 89.5341 160.19 89.3214C160.236 89.1108 160.281 88.875 160.325 88.6142C160.369 88.3534 160.402 88.0875 160.424 87.8167L160.454 87.4796H161.321ZM164.117 88.4065C163.685 88.4065 163.304 88.3323 162.973 88.1838C162.644 88.0354 162.386 87.8307 162.199 87.5699C162.013 87.3091 161.921 87.0121 161.923 86.6791C161.921 86.4182 161.974 86.1785 162.082 85.9598C162.192 85.7391 162.342 85.5555 162.53 85.409C162.719 85.2606 162.93 85.1663 163.162 85.1262V85.09C162.856 85.0158 162.61 84.8513 162.425 84.5965C162.241 84.3417 162.149 84.0487 162.151 83.7177C162.149 83.4027 162.233 83.1218 162.401 82.875C162.572 82.6262 162.805 82.4306 163.102 82.2882C163.399 82.1457 163.737 82.0745 164.117 82.0745C164.492 82.0745 164.827 82.1467 165.122 82.2912C165.419 82.4336 165.652 82.6292 165.823 82.878C165.993 83.1248 166.08 83.4047 166.082 83.7177C166.08 84.0487 165.985 84.3417 165.799 84.5965C165.612 84.8513 165.369 85.0158 165.071 85.09V85.1262C165.301 85.1663 165.509 85.2606 165.694 85.409C165.88 85.5555 166.029 85.7391 166.139 85.9598C166.251 86.1785 166.308 86.4182 166.31 86.6791C166.308 87.0121 166.214 87.3091 166.028 87.5699C165.841 87.8307 165.582 88.0354 165.251 88.1838C164.922 88.3323 164.544 88.4065 164.117 88.4065ZM164.117 87.6451C164.371 87.6451 164.592 87.603 164.779 87.5187C164.965 87.4324 165.11 87.3131 165.212 87.1606C165.314 87.0061 165.366 86.8255 165.368 86.6189C165.366 86.4042 165.31 86.2146 165.2 86.0501C165.092 85.8856 164.944 85.7561 164.758 85.6618C164.571 85.5675 164.357 85.5204 164.117 85.5204C163.874 85.5204 163.658 85.5675 163.469 85.6618C163.281 85.7561 163.132 85.8856 163.024 86.0501C162.916 86.2146 162.863 86.4042 162.865 86.6189C162.863 86.8255 162.912 87.0061 163.012 87.1606C163.114 87.3131 163.26 87.4324 163.448 87.5187C163.637 87.603 163.86 87.6451 164.117 87.6451ZM164.117 84.777C164.321 84.777 164.503 84.7359 164.661 84.6537C164.82 84.5714 164.944 84.457 165.034 84.3106C165.127 84.1641 165.174 83.9926 165.176 83.7959C165.174 83.6033 165.128 83.4348 165.037 83.2903C164.949 83.1459 164.826 83.0345 164.667 82.9563C164.509 82.876 164.325 82.8359 164.117 82.8359C163.904 82.8359 163.717 82.876 163.557 82.9563C163.398 83.0345 163.275 83.1459 163.187 83.2903C163.098 83.4348 163.055 83.6033 163.057 83.7959C163.055 83.9926 163.099 84.1641 163.19 84.3106C163.28 84.457 163.404 84.5714 163.563 84.6537C163.723 84.7359 163.908 84.777 164.117 84.777ZM166.92 87.1185V86.3661L169.584 82.1588H170.177V83.2663H169.8L167.895 86.2818V86.33H171.546V87.1185H166.92ZM169.842 88.3223V86.8897L169.848 86.5466V82.1588H170.73V88.3223H169.842ZM172.256 88.3223V87.6481L174.341 85.4873C174.564 85.2526 174.748 85.0469 174.892 84.8703C175.038 84.6918 175.148 84.5222 175.22 84.3617C175.292 84.2012 175.328 84.0307 175.328 83.8501C175.328 83.6455 175.28 83.4689 175.184 83.3204C175.088 83.17 174.956 83.0546 174.79 82.9743C174.623 82.8921 174.436 82.851 174.227 82.851C174.006 82.851 173.814 82.8961 173.649 82.9864C173.485 83.0767 173.358 83.2041 173.27 83.3686C173.182 83.5331 173.137 83.7257 173.137 83.9464H172.25C172.25 83.5712 172.336 83.2432 172.508 82.9623C172.681 82.6814 172.918 82.4637 173.219 82.3092C173.52 82.1527 173.862 82.0745 174.245 82.0745C174.632 82.0745 174.973 82.1517 175.268 82.3062C175.565 82.4587 175.797 82.6674 175.963 82.9322C176.13 83.195 176.213 83.492 176.213 83.823C176.213 84.0518 176.17 84.2755 176.084 84.4942C176 84.7128 175.852 84.9566 175.641 85.2255C175.431 85.4923 175.138 85.8163 174.763 86.1975L173.538 87.4796V87.5247H176.313V88.3223H172.256ZM178.297 87.4796L178.252 87.8076C178.222 88.0484 178.17 88.2992 178.098 88.56C178.028 88.8228 177.955 89.0666 177.879 89.2913C177.804 89.516 177.743 89.6946 177.695 89.827H177.057C177.083 89.7026 177.119 89.5341 177.165 89.3214C177.211 89.1108 177.257 88.875 177.301 88.6142C177.345 88.3534 177.378 88.0875 177.4 87.8167L177.43 87.4796H178.297ZM181.139 88.4246C180.663 88.4226 180.257 88.2972 179.92 88.0484C179.583 87.7996 179.325 87.4375 179.147 86.962C178.968 86.4865 178.879 85.9136 178.879 85.2435C178.879 84.5754 178.968 84.0046 179.147 83.5311C179.327 83.0576 179.586 82.6965 179.923 82.4477C180.262 82.1989 180.667 82.0745 181.139 82.0745C181.61 82.0745 182.015 82.1999 182.352 82.4507C182.689 82.6995 182.947 83.0606 183.125 83.5341C183.306 84.0056 183.396 84.5754 183.396 85.2435C183.396 85.9156 183.307 86.4895 183.128 86.965C182.95 87.4385 182.692 87.8006 182.355 88.0514C182.018 88.3002 181.612 88.4246 181.139 88.4246ZM181.139 87.621C181.556 87.621 181.882 87.4174 182.117 87.0101C182.354 86.6028 182.472 86.014 182.472 85.2435C182.472 84.7319 182.418 84.2995 182.31 83.9464C182.203 83.5913 182.05 83.3224 181.849 83.1399C181.651 82.9553 181.414 82.863 181.139 82.863C180.724 82.863 180.398 83.0676 180.161 83.4769C179.924 83.8862 179.805 84.4751 179.803 85.2435C179.803 85.7571 179.856 86.1915 179.962 86.5466C180.071 86.8998 180.224 87.1676 180.423 87.3502C180.621 87.5308 180.86 87.621 181.139 87.621ZM186.271 88.4246C185.795 88.4226 185.389 88.2972 185.052 88.0484C184.715 87.7996 184.457 87.4375 184.278 86.962C184.1 86.4865 184.01 85.9136 184.01 85.2435C184.01 84.5754 184.1 84.0046 184.278 83.5311C184.459 83.0576 184.718 82.6965 185.055 82.4477C185.394 82.1989 185.799 82.0745 186.271 82.0745C186.742 82.0745 187.146 82.1999 187.483 82.4507C187.82 82.6995 188.078 83.0606 188.257 83.5341C188.437 84.0056 188.528 84.5754 188.528 85.2435C188.528 85.9156 188.438 86.4895 188.26 86.965C188.081 87.4385 187.823 87.8006 187.486 88.0514C187.149 88.3002 186.744 88.4246 186.271 88.4246ZM186.271 87.621C186.688 87.621 187.014 87.4174 187.249 87.0101C187.485 86.6028 187.604 86.014 187.604 85.2435C187.604 84.7319 187.55 84.2995 187.441 83.9464C187.335 83.5913 187.181 83.3224 186.981 83.1399C186.782 82.9553 186.545 82.863 186.271 82.863C185.855 82.863 185.529 83.0676 185.292 83.4769C185.056 83.8862 184.936 84.4751 184.934 85.2435C184.934 85.7571 184.987 86.1915 185.094 86.5466C185.202 86.8998 185.356 87.1676 185.554 87.3502C185.753 87.5308 185.992 87.621 186.271 87.621ZM191.402 88.4246C190.927 88.4226 190.52 88.2972 190.183 88.0484C189.846 87.7996 189.588 87.4375 189.41 86.962C189.231 86.4865 189.142 85.9136 189.142 85.2435C189.142 84.5754 189.231 84.0046 189.41 83.5311C189.59 83.0576 189.849 82.6965 190.186 82.4477C190.525 82.1989 190.931 82.0745 191.402 82.0745C191.874 82.0745 192.278 82.1999 192.615 82.4507C192.952 82.6995 193.21 83.0606 193.388 83.5341C193.569 84.0056 193.659 84.5754 193.659 85.2435C193.659 85.9156 193.57 86.4895 193.391 86.965C193.213 87.4385 192.955 87.8006 192.618 88.0514C192.281 88.3002 191.876 88.4246 191.402 88.4246ZM191.402 87.621C191.819 87.621 192.145 87.4174 192.38 87.0101C192.617 86.6028 192.735 86.014 192.735 85.2435C192.735 84.7319 192.681 84.2995 192.573 83.9464C192.466 83.5913 192.313 83.3224 192.112 83.1399C191.914 82.9553 191.677 82.863 191.402 82.863C190.987 82.863 190.661 83.0676 190.424 83.4769C190.187 83.8862 190.068 84.4751 190.066 85.2435C190.066 85.7571 190.119 86.1915 190.225 86.5466C190.334 86.8998 190.487 87.1676 190.686 87.3502C190.884 87.5308 191.123 87.621 191.402 87.621Z" fill="#14191F"/>
<path d="M195.989 89.0571C195.901 89.0571 195.828 89.0295 195.77 88.9743C195.715 88.919 195.687 88.8525 195.687 88.7746C195.687 88.6943 195.715 88.6265 195.77 88.5712C195.828 88.516 195.901 88.4884 195.989 88.4884C196.077 88.4884 196.148 88.516 196.203 88.5712C196.261 88.6265 196.29 88.6943 196.29 88.7746C196.29 88.8525 196.261 88.919 196.203 88.9743C196.148 89.0295 196.077 89.0571 195.989 89.0571ZM198.676 89.076C198.433 89.076 198.224 89.0195 198.051 88.9065C197.878 88.791 197.743 88.6315 197.648 88.4281C197.555 88.2222 197.508 87.9837 197.508 87.7125C197.508 87.4438 197.555 87.2065 197.648 87.0006C197.743 86.7947 197.878 86.6352 198.051 86.5222C198.224 86.4067 198.433 86.349 198.676 86.349C198.92 86.349 199.128 86.4067 199.301 86.5222C199.475 86.6352 199.608 86.7947 199.701 87.0006C199.796 87.2065 199.844 87.4438 199.844 87.7125C199.844 87.9837 199.796 88.2222 199.701 88.4281C199.608 88.6315 199.475 88.791 199.301 88.9065C199.128 89.0195 198.92 89.076 198.676 89.076ZM198.676 88.6428C198.875 88.6428 199.036 88.5599 199.162 88.3942C199.288 88.2285 199.35 88.0012 199.35 87.7125C199.35 87.4237 199.288 87.1964 199.162 87.0307C199.036 86.865 198.875 86.7821 198.676 86.7821C198.475 86.7821 198.312 86.865 198.186 87.0307C198.063 87.1964 198.002 87.4237 198.002 87.7125C198.002 88.0012 198.063 88.2285 198.186 88.3942C198.312 88.5599 198.475 88.6428 198.676 88.6428ZM201.35 89.076C201.107 89.076 200.898 89.0195 200.725 88.9065C200.552 88.791 200.417 88.6315 200.322 88.4281C200.229 88.2222 200.183 87.9837 200.183 87.7125C200.183 87.4438 200.229 87.2065 200.322 87.0006C200.417 86.7947 200.552 86.6352 200.725 86.5222C200.898 86.4067 201.107 86.349 201.35 86.349C201.594 86.349 201.802 86.4067 201.976 86.5222C202.149 86.6352 202.282 86.7947 202.375 87.0006C202.47 87.2065 202.518 87.4438 202.518 87.7125C202.518 87.9837 202.47 88.2222 202.375 88.4281C202.282 88.6315 202.149 88.791 201.976 88.9065C201.802 89.0195 201.594 89.076 201.35 89.076ZM201.35 88.6428C201.549 88.6428 201.711 88.5599 201.836 88.3942C201.962 88.2285 202.024 88.0012 202.024 87.7125C202.024 87.4237 201.962 87.1964 201.836 87.0307C201.711 86.865 201.549 86.7821 201.35 86.7821C201.149 86.7821 200.986 86.865 200.861 87.0307C200.738 87.1964 200.676 87.4237 200.676 87.7125C200.676 88.0012 200.738 88.2285 200.861 88.3942C200.986 88.5599 201.149 88.6428 201.35 88.6428Z" fill="#14191F"/>
</g>
</g>
<defs>
<filter id="filter0_d_25_1803" x="-3.0327" y="13.0591" width="248.065" height="130.595" filterUnits="userSpaceOnUse" color-interpolation-filters="sRGB">
<feFlood flood-opacity="0" result="BackgroundImageFix"/>
<feColorMatrix in="SourceAlpha" type="matrix" values="0 0 0 0 0 0 0 0 0 0 0 0 0 0 0 0 0 0 127 0" result="hardAlpha"/>
<feOffset dy="2.20993"/>
<feGaussianBlur stdDeviation="11.0497"/>
<feComposite in2="hardAlpha" operator="out"/>
<feColorMatrix type="matrix" values="0 0 0 0 0 0 0 0 0 0 0 0 0 0 0 0 0 0 0.15 0"/>
<feBlend mode="normal" in2="BackgroundImageFix" result="effect1_dropShadow_25_1803"/>
<feBlend mode="normal" in="SourceGraphic" in2="effect1_dropShadow_25_1803" result="shape"/>
</filter>
<clipPath id="clip0_25_1803">
<rect x="0.958252" y="0.130127" width="240.083" height="151.878" rx="5.84145" fill="white"/>
</clipPath>
</defs>
</svg>
