<svg width="24" height="25" viewBox="0 0 24 25" fill="none" xmlns="http://www.w3.org/2000/svg">
<g id="Social Icons">
<path id="BG" opacity="0.1" fill-rule="evenodd" clip-rule="evenodd" d="M0 12.8096C0 6.18215 5.37258 0.80957 12 0.80957C18.6274 0.80957 24 6.18215 24 12.8096C24 19.437 18.6274 24.8096 12 24.8096C5.37258 24.8096 0 19.437 0 12.8096Z" fill="#14191F"/>
<path id="Path" fill-rule="evenodd" clip-rule="evenodd" d="M11.6406 10.5635L11.6658 10.9787L11.2461 10.9279C9.71843 10.733 8.38383 10.072 7.25067 8.96193L6.69668 8.41111L6.55399 8.81787C6.25181 9.72459 6.44487 10.6822 7.0744 11.3262C7.41015 11.6821 7.33461 11.7329 6.75544 11.5211C6.55399 11.4533 6.37772 11.4024 6.36093 11.4279C6.30218 11.4872 6.50363 12.2583 6.66311 12.5634C6.88134 12.9871 7.32621 13.4023 7.81305 13.6481L8.22434 13.843L7.73751 13.8514C7.26746 13.8514 7.25067 13.8599 7.30103 14.0379C7.46891 14.5887 8.13201 15.1734 8.87066 15.4276L9.39108 15.6056L8.93781 15.8767C8.26631 16.2665 7.4773 16.4869 6.68829 16.5038C6.31057 16.5123 6 16.5462 6 16.5716C6 16.6563 7.02404 17.1309 7.61999 17.3173C9.40786 17.8681 11.5315 17.6308 13.1263 16.6902C14.2595 16.0208 15.3926 14.6904 15.9214 13.4023C16.2068 12.7159 16.4922 11.4618 16.4922 10.8601C16.4922 10.4703 16.5174 10.4195 16.9874 9.95339C17.2644 9.68222 17.5246 9.38563 17.575 9.30089C17.6589 9.13988 17.6505 9.13988 17.2224 9.28394C16.509 9.53816 16.4083 9.50426 16.7608 9.12293C17.021 8.85176 17.3316 8.36027 17.3316 8.21621C17.3316 8.19079 17.2057 8.23316 17.063 8.30943C16.9119 8.39417 16.5761 8.52128 16.3243 8.59754L15.8711 8.7416L15.4598 8.46196C15.2331 8.30943 14.9142 8.13995 14.7463 8.0891C14.3182 7.97047 13.6635 7.98741 13.2774 8.123C12.2282 8.50433 11.5651 9.48732 11.6406 10.5635Z" fill="#14191F"/>
</g>
</svg>
