<svg width="24" height="25" viewBox="0 0 24 25" fill="none" xmlns="http://www.w3.org/2000/svg">
<g id="Social Icons">
<path id="BG" opacity="0.1" fill-rule="evenodd" clip-rule="evenodd" d="M0 12.8096C0 6.18215 5.37258 0.80957 12 0.80957C18.6274 0.80957 24 6.18215 24 12.8096C24 19.437 18.6274 24.8096 12 24.8096C5.37258 24.8096 0 19.437 0 12.8096Z" fill="#14191F"/>
<path id="Path" fill-rule="evenodd" clip-rule="evenodd" d="M17.0008 8.68433C17.5516 8.83546 17.9853 9.28077 18.1325 9.84628C18.4 10.8712 18.4 13.0097 18.4 13.0097C18.4 13.0097 18.4 15.1481 18.1325 16.1731C17.9853 16.7386 17.5516 17.1839 17.0008 17.3351C16.0027 17.6097 12 17.6097 12 17.6097C12 17.6097 7.99732 17.6097 6.99913 17.3351C6.44837 17.1839 6.01462 16.7386 5.86742 16.1731C5.60001 15.1481 5.60001 13.0097 5.60001 13.0097C5.60001 13.0097 5.60001 10.8712 5.86742 9.84628C6.01462 9.28077 6.44837 8.83546 6.99913 8.68433C7.99732 8.40967 12 8.40967 12 8.40967C12 8.40967 16.0027 8.40967 17.0008 8.68433ZM10.8 11.2096V15.2096L14 13.2097L10.8 11.2096Z" fill="#14191F"/>
</g>
</svg>
